%TF.GenerationSoftware,KiCad,Pcbnew,7.0.7*%
%TF.CreationDate,2023-09-15T15:36:36-07:00*%
%TF.ProjectId,30sma-adapter,3330736d-612d-4616-9461-707465722e6b,rev?*%
%TF.SameCoordinates,Original*%
%TF.FileFunction,Soldermask,Top*%
%TF.FilePolarity,Negative*%
%FSLAX46Y46*%
G04 Gerber Fmt 4.6, Leading zero omitted, Abs format (unit mm)*
G04 Created by KiCad (PCBNEW 7.0.7) date 2023-09-15 15:36:36*
%MOMM*%
%LPD*%
G01*
G04 APERTURE LIST*
%ADD10C,2.250000*%
%ADD11C,2.050000*%
%ADD12C,1.130000*%
%ADD13C,4.500000*%
G04 APERTURE END LIST*
D10*
%TO.C,J30*%
X158610000Y-138645000D03*
X163690000Y-143725000D03*
X158610000Y-143725000D03*
X163690000Y-138645000D03*
D11*
X161150000Y-141185000D03*
%TD*%
D10*
%TO.C,J29*%
X144683332Y-138645000D03*
X149763332Y-143725000D03*
X144683332Y-143725000D03*
X149763332Y-138645000D03*
D11*
X147223332Y-141185000D03*
%TD*%
%TO.C,J28*%
X133180000Y-141185000D03*
D10*
X135720000Y-138645000D03*
X130640000Y-143725000D03*
X135720000Y-143725000D03*
X130640000Y-138645000D03*
%TD*%
%TO.C,J27*%
X116950000Y-138645000D03*
X122030000Y-143725000D03*
X116950000Y-143725000D03*
X122030000Y-138645000D03*
D11*
X119490000Y-141185000D03*
%TD*%
D10*
%TO.C,J26*%
X158610000Y-124745710D03*
X163690000Y-129825710D03*
X158610000Y-129825710D03*
X163690000Y-124745710D03*
D11*
X161150000Y-127285710D03*
%TD*%
D10*
%TO.C,J25*%
X144683332Y-124744284D03*
X149763332Y-129824284D03*
X144683332Y-129824284D03*
X149763332Y-124744284D03*
D11*
X147223332Y-127284284D03*
%TD*%
D10*
%TO.C,J24*%
X130640000Y-124767500D03*
X135720000Y-129847500D03*
X130640000Y-129847500D03*
X135720000Y-124767500D03*
D11*
X133180000Y-127307500D03*
%TD*%
D10*
%TO.C,J23*%
X116950000Y-124767500D03*
X122030000Y-129847500D03*
X116950000Y-129847500D03*
X122030000Y-124767500D03*
D11*
X119490000Y-127307500D03*
%TD*%
D10*
%TO.C,J22*%
X158610000Y-110846425D03*
X163690000Y-115926425D03*
X158610000Y-115926425D03*
X163690000Y-110846425D03*
D11*
X161150000Y-113386425D03*
%TD*%
D10*
%TO.C,J21*%
X144683332Y-110843570D03*
X149763332Y-115923570D03*
X144683332Y-115923570D03*
X149763332Y-110843570D03*
D11*
X147223332Y-113383570D03*
%TD*%
D10*
%TO.C,J20*%
X130640000Y-110890000D03*
X135720000Y-115970000D03*
X130640000Y-115970000D03*
X135720000Y-110890000D03*
D11*
X133180000Y-113430000D03*
%TD*%
D10*
%TO.C,J19*%
X116950000Y-110890000D03*
X122030000Y-115970000D03*
X116950000Y-115970000D03*
X122030000Y-110890000D03*
D11*
X119490000Y-113430000D03*
%TD*%
D10*
%TO.C,J18*%
X158610000Y-96947140D03*
X163690000Y-102027140D03*
X158610000Y-102027140D03*
X163690000Y-96947140D03*
D11*
X161150000Y-99487140D03*
%TD*%
D10*
%TO.C,J17*%
X144683332Y-96942856D03*
X149763332Y-102022856D03*
X144683332Y-102022856D03*
X149763332Y-96942856D03*
D11*
X147223332Y-99482856D03*
%TD*%
D10*
%TO.C,J16*%
X130640000Y-97012500D03*
X135720000Y-102092500D03*
X130640000Y-102092500D03*
X135720000Y-97012500D03*
D11*
X133180000Y-99552500D03*
%TD*%
D10*
%TO.C,J15*%
X116950000Y-97012500D03*
X122030000Y-102092500D03*
X116950000Y-102092500D03*
X122030000Y-97012500D03*
D11*
X119490000Y-99552500D03*
%TD*%
D10*
%TO.C,J14*%
X158500000Y-83552855D03*
X163580000Y-88632855D03*
X158500000Y-88632855D03*
X163580000Y-83552855D03*
D11*
X161040000Y-86092855D03*
%TD*%
D10*
%TO.C,J13*%
X144810000Y-83552855D03*
X149890000Y-88632855D03*
X144810000Y-88632855D03*
X149890000Y-83552855D03*
D11*
X147350000Y-86092855D03*
%TD*%
D10*
%TO.C,J12*%
X130766668Y-83645713D03*
X135846668Y-88725713D03*
X130766668Y-88725713D03*
X135846668Y-83645713D03*
D11*
X133306668Y-86185713D03*
%TD*%
D10*
%TO.C,J11*%
X116840000Y-83640000D03*
X121920000Y-88720000D03*
X116840000Y-88720000D03*
X121920000Y-83640000D03*
D11*
X119380000Y-86180000D03*
%TD*%
D10*
%TO.C,J10*%
X158493331Y-69763928D03*
X163573331Y-74843928D03*
X158493331Y-74843928D03*
X163573331Y-69763928D03*
D11*
X161033331Y-72303928D03*
%TD*%
D10*
%TO.C,J9*%
X144803332Y-69763928D03*
X149883332Y-74843928D03*
X144803332Y-74843928D03*
X149883332Y-69763928D03*
D11*
X147343332Y-72303928D03*
%TD*%
D10*
%TO.C,J8*%
X130760000Y-69880000D03*
X135840000Y-74960000D03*
X130760000Y-74960000D03*
X135840000Y-69880000D03*
D11*
X133300000Y-72420000D03*
%TD*%
D10*
%TO.C,J7*%
X116833331Y-69872858D03*
X121913331Y-74952858D03*
X116833331Y-74952858D03*
X121913331Y-69872858D03*
D11*
X119373331Y-72412858D03*
%TD*%
D10*
%TO.C,J6*%
X158393331Y-55890714D03*
X163473331Y-60970714D03*
X158393331Y-60970714D03*
X163473331Y-55890714D03*
D11*
X160933331Y-58430714D03*
%TD*%
D10*
%TO.C,J5*%
X144703331Y-55890714D03*
X149783331Y-60970714D03*
X144703331Y-60970714D03*
X149783331Y-55890714D03*
D11*
X147243331Y-58430714D03*
%TD*%
D10*
%TO.C,J4*%
X130660000Y-56030000D03*
X135740000Y-61110000D03*
X130660000Y-61110000D03*
X135740000Y-56030000D03*
D11*
X133200000Y-58570000D03*
%TD*%
D10*
%TO.C,J3*%
X116733331Y-56021429D03*
X121813331Y-61101429D03*
X116733331Y-61101429D03*
X121813331Y-56021429D03*
D11*
X119273331Y-58561429D03*
%TD*%
D10*
%TO.C,J2*%
X157940000Y-41070000D03*
X163020000Y-46150000D03*
X157940000Y-46150000D03*
X163020000Y-41070000D03*
D11*
X160480000Y-43610000D03*
%TD*%
D10*
%TO.C,J1*%
X144013333Y-41060000D03*
X149093333Y-46140000D03*
X144013333Y-46140000D03*
X149093333Y-41060000D03*
D11*
X146553333Y-43600000D03*
%TD*%
D12*
%TO.C,SC1*%
X195975000Y-135575000D03*
X195975000Y-62275000D03*
%TD*%
D13*
%TO.C,REF\u002A\u002A*%
X108025000Y-42000000D03*
%TD*%
%TO.C,REF\u002A\u002A*%
X108025000Y-155275000D03*
X108025000Y-155275000D03*
%TD*%
%TO.C,REF\u002A\u002A*%
X123400000Y-155275000D03*
%TD*%
M02*
