%TF.GenerationSoftware,KiCad,Pcbnew,7.0.7*%
%TF.CreationDate,2023-09-15T15:36:35-07:00*%
%TF.ProjectId,30sma-adapter,3330736d-612d-4616-9461-707465722e6b,rev?*%
%TF.SameCoordinates,Original*%
%TF.FileFunction,Copper,L1,Top*%
%TF.FilePolarity,Positive*%
%FSLAX46Y46*%
G04 Gerber Fmt 4.6, Leading zero omitted, Abs format (unit mm)*
G04 Created by KiCad (PCBNEW 7.0.7) date 2023-09-15 15:36:35*
%MOMM*%
%LPD*%
G01*
G04 APERTURE LIST*
%TA.AperFunction,ComponentPad*%
%ADD10C,2.250000*%
%TD*%
%TA.AperFunction,ComponentPad*%
%ADD11C,2.050000*%
%TD*%
%TA.AperFunction,ViaPad*%
%ADD12C,0.464820*%
%TD*%
G04 APERTURE END LIST*
D10*
%TO.P,J30,2,Ext*%
%TO.N,/gnd*%
X158610000Y-138645000D03*
X163690000Y-143725000D03*
X158610000Y-143725000D03*
X163690000Y-138645000D03*
D11*
%TO.P,J30,1,In*%
%TO.N,/ai29*%
X161150000Y-141185000D03*
%TD*%
D10*
%TO.P,J29,2,Ext*%
%TO.N,/gnd*%
X144683332Y-138645000D03*
X149763332Y-143725000D03*
X144683332Y-143725000D03*
X149763332Y-138645000D03*
D11*
%TO.P,J29,1,In*%
%TO.N,/ai28*%
X147223332Y-141185000D03*
%TD*%
%TO.P,J28,1,In*%
%TO.N,/ai27*%
X133180000Y-141185000D03*
D10*
%TO.P,J28,2,Ext*%
%TO.N,/gnd*%
X135720000Y-138645000D03*
X130640000Y-143725000D03*
X135720000Y-143725000D03*
X130640000Y-138645000D03*
%TD*%
%TO.P,J27,2,Ext*%
%TO.N,/gnd*%
X116950000Y-138645000D03*
X122030000Y-143725000D03*
X116950000Y-143725000D03*
X122030000Y-138645000D03*
D11*
%TO.P,J27,1,In*%
%TO.N,/ai26*%
X119490000Y-141185000D03*
%TD*%
D10*
%TO.P,J26,2,Ext*%
%TO.N,/gnd*%
X158610000Y-124745710D03*
X163690000Y-129825710D03*
X158610000Y-129825710D03*
X163690000Y-124745710D03*
D11*
%TO.P,J26,1,In*%
%TO.N,/ai25*%
X161150000Y-127285710D03*
%TD*%
D10*
%TO.P,J25,2,Ext*%
%TO.N,/gnd*%
X144683332Y-124744284D03*
X149763332Y-129824284D03*
X144683332Y-129824284D03*
X149763332Y-124744284D03*
D11*
%TO.P,J25,1,In*%
%TO.N,/ai24*%
X147223332Y-127284284D03*
%TD*%
D10*
%TO.P,J24,2,Ext*%
%TO.N,/gnd*%
X130640000Y-124767500D03*
X135720000Y-129847500D03*
X130640000Y-129847500D03*
X135720000Y-124767500D03*
D11*
%TO.P,J24,1,In*%
%TO.N,/ai23*%
X133180000Y-127307500D03*
%TD*%
D10*
%TO.P,J23,2,Ext*%
%TO.N,/gnd*%
X116950000Y-124767500D03*
X122030000Y-129847500D03*
X116950000Y-129847500D03*
X122030000Y-124767500D03*
D11*
%TO.P,J23,1,In*%
%TO.N,/ai22*%
X119490000Y-127307500D03*
%TD*%
D10*
%TO.P,J22,2,Ext*%
%TO.N,/gnd*%
X158610000Y-110846425D03*
X163690000Y-115926425D03*
X158610000Y-115926425D03*
X163690000Y-110846425D03*
D11*
%TO.P,J22,1,In*%
%TO.N,/ai21*%
X161150000Y-113386425D03*
%TD*%
D10*
%TO.P,J21,2,Ext*%
%TO.N,/gnd*%
X144683332Y-110843570D03*
X149763332Y-115923570D03*
X144683332Y-115923570D03*
X149763332Y-110843570D03*
D11*
%TO.P,J21,1,In*%
%TO.N,/ai20*%
X147223332Y-113383570D03*
%TD*%
D10*
%TO.P,J20,2,Ext*%
%TO.N,/gnd*%
X130640000Y-110890000D03*
X135720000Y-115970000D03*
X130640000Y-115970000D03*
X135720000Y-110890000D03*
D11*
%TO.P,J20,1,In*%
%TO.N,/ai19*%
X133180000Y-113430000D03*
%TD*%
D10*
%TO.P,J19,2,Ext*%
%TO.N,/gnd*%
X116950000Y-110890000D03*
X122030000Y-115970000D03*
X116950000Y-115970000D03*
X122030000Y-110890000D03*
D11*
%TO.P,J19,1,In*%
%TO.N,/ai18*%
X119490000Y-113430000D03*
%TD*%
D10*
%TO.P,J18,2,Ext*%
%TO.N,/gnd*%
X158610000Y-96947140D03*
X163690000Y-102027140D03*
X158610000Y-102027140D03*
X163690000Y-96947140D03*
D11*
%TO.P,J18,1,In*%
%TO.N,/ai17*%
X161150000Y-99487140D03*
%TD*%
D10*
%TO.P,J17,2,Ext*%
%TO.N,/gnd*%
X144683332Y-96942856D03*
X149763332Y-102022856D03*
X144683332Y-102022856D03*
X149763332Y-96942856D03*
D11*
%TO.P,J17,1,In*%
%TO.N,/ai16*%
X147223332Y-99482856D03*
%TD*%
D10*
%TO.P,J16,2,Ext*%
%TO.N,/gnd*%
X130640000Y-97012500D03*
X135720000Y-102092500D03*
X130640000Y-102092500D03*
X135720000Y-97012500D03*
D11*
%TO.P,J16,1,In*%
%TO.N,/ai15*%
X133180000Y-99552500D03*
%TD*%
D10*
%TO.P,J15,2,Ext*%
%TO.N,/gnd*%
X116950000Y-97012500D03*
X122030000Y-102092500D03*
X116950000Y-102092500D03*
X122030000Y-97012500D03*
D11*
%TO.P,J15,1,In*%
%TO.N,/ai14*%
X119490000Y-99552500D03*
%TD*%
D10*
%TO.P,J14,2,Ext*%
%TO.N,/gnd*%
X158500000Y-83552855D03*
X163580000Y-88632855D03*
X158500000Y-88632855D03*
X163580000Y-83552855D03*
D11*
%TO.P,J14,1,In*%
%TO.N,/ai13*%
X161040000Y-86092855D03*
%TD*%
D10*
%TO.P,J13,2,Ext*%
%TO.N,/gnd*%
X144810000Y-83552855D03*
X149890000Y-88632855D03*
X144810000Y-88632855D03*
X149890000Y-83552855D03*
D11*
%TO.P,J13,1,In*%
%TO.N,/ai12*%
X147350000Y-86092855D03*
%TD*%
D10*
%TO.P,J12,2,Ext*%
%TO.N,/gnd*%
X130766668Y-83645713D03*
X135846668Y-88725713D03*
X130766668Y-88725713D03*
X135846668Y-83645713D03*
D11*
%TO.P,J12,1,In*%
%TO.N,/ai11*%
X133306668Y-86185713D03*
%TD*%
D10*
%TO.P,J11,2,Ext*%
%TO.N,/gnd*%
X116840000Y-83640000D03*
X121920000Y-88720000D03*
X116840000Y-88720000D03*
X121920000Y-83640000D03*
D11*
%TO.P,J11,1,In*%
%TO.N,/ai10*%
X119380000Y-86180000D03*
%TD*%
D10*
%TO.P,J10,2,Ext*%
%TO.N,/gnd*%
X158493331Y-69763928D03*
X163573331Y-74843928D03*
X158493331Y-74843928D03*
X163573331Y-69763928D03*
D11*
%TO.P,J10,1,In*%
%TO.N,/ai9*%
X161033331Y-72303928D03*
%TD*%
D10*
%TO.P,J9,2,Ext*%
%TO.N,/gnd*%
X144803332Y-69763928D03*
X149883332Y-74843928D03*
X144803332Y-74843928D03*
X149883332Y-69763928D03*
D11*
%TO.P,J9,1,In*%
%TO.N,/ai8*%
X147343332Y-72303928D03*
%TD*%
D10*
%TO.P,J8,2,Ext*%
%TO.N,/gnd*%
X130760000Y-69880000D03*
X135840000Y-74960000D03*
X130760000Y-74960000D03*
X135840000Y-69880000D03*
D11*
%TO.P,J8,1,In*%
%TO.N,/ai7*%
X133300000Y-72420000D03*
%TD*%
D10*
%TO.P,J7,2,Ext*%
%TO.N,/gnd*%
X116833331Y-69872858D03*
X121913331Y-74952858D03*
X116833331Y-74952858D03*
X121913331Y-69872858D03*
D11*
%TO.P,J7,1,In*%
%TO.N,/ai6*%
X119373331Y-72412858D03*
%TD*%
D10*
%TO.P,J6,2,Ext*%
%TO.N,/gnd*%
X158393331Y-55890714D03*
X163473331Y-60970714D03*
X158393331Y-60970714D03*
X163473331Y-55890714D03*
D11*
%TO.P,J6,1,In*%
%TO.N,/ai5*%
X160933331Y-58430714D03*
%TD*%
D10*
%TO.P,J5,2,Ext*%
%TO.N,/gnd*%
X144703331Y-55890714D03*
X149783331Y-60970714D03*
X144703331Y-60970714D03*
X149783331Y-55890714D03*
D11*
%TO.P,J5,1,In*%
%TO.N,/ai4*%
X147243331Y-58430714D03*
%TD*%
D10*
%TO.P,J4,2,Ext*%
%TO.N,/gnd*%
X130660000Y-56030000D03*
X135740000Y-61110000D03*
X130660000Y-61110000D03*
X135740000Y-56030000D03*
D11*
%TO.P,J4,1,In*%
%TO.N,/ai3*%
X133200000Y-58570000D03*
%TD*%
D10*
%TO.P,J3,2,Ext*%
%TO.N,/gnd*%
X116733331Y-56021429D03*
X121813331Y-61101429D03*
X116733331Y-61101429D03*
X121813331Y-56021429D03*
D11*
%TO.P,J3,1,In*%
%TO.N,/ai2*%
X119273331Y-58561429D03*
%TD*%
D10*
%TO.P,J2,2,Ext*%
%TO.N,/gnd*%
X157940000Y-41070000D03*
X163020000Y-46150000D03*
X157940000Y-46150000D03*
X163020000Y-41070000D03*
D11*
%TO.P,J2,1,In*%
%TO.N,/ai1*%
X160480000Y-43610000D03*
%TD*%
D10*
%TO.P,J1,2,Ext*%
%TO.N,/gnd*%
X144013333Y-41060000D03*
X149093333Y-46140000D03*
X144013333Y-46140000D03*
X149093333Y-41060000D03*
D11*
%TO.P,J1,1,In*%
%TO.N,/ai0*%
X146553333Y-43600000D03*
%TD*%
D12*
%TO.N,/gnd*%
X196490000Y-64350000D03*
X196490000Y-66474545D03*
X196490000Y-68599090D03*
X196490000Y-70723635D03*
X196490000Y-72848180D03*
X196490000Y-74972725D03*
X196490000Y-77097270D03*
X196490000Y-79221815D03*
X196490000Y-81346360D03*
X196490000Y-83470905D03*
X196490000Y-85595450D03*
X196490000Y-87719995D03*
X196490000Y-89844540D03*
X196490000Y-91969085D03*
X196490000Y-94093630D03*
X196490000Y-96218175D03*
X196490000Y-98342720D03*
X196490000Y-100467265D03*
X196490000Y-102591810D03*
X196490000Y-104716355D03*
X196490000Y-106840900D03*
X196490000Y-108965445D03*
X196490000Y-111089990D03*
X196490000Y-113214535D03*
X196490000Y-115339080D03*
X196490000Y-117463625D03*
X196490000Y-119588170D03*
X196490000Y-121712715D03*
X196490000Y-123837260D03*
X196490000Y-125961805D03*
X196490000Y-128086350D03*
X196490000Y-130210895D03*
X196490000Y-132335440D03*
X196490000Y-134460000D03*
%TD*%
%TA.AperFunction,Conductor*%
%TO.N,/gnd*%
G36*
X207399371Y-34942382D02*
G01*
X207411804Y-34944855D01*
X207456503Y-34963370D01*
X207467041Y-34970411D01*
X207485833Y-34985833D01*
X207854166Y-35354166D01*
X207869588Y-35372958D01*
X207876629Y-35383496D01*
X207895142Y-35428187D01*
X207897616Y-35440621D01*
X207900000Y-35464819D01*
X207900000Y-161086673D01*
X207895773Y-161118773D01*
X207891688Y-161134015D01*
X207855320Y-161193674D01*
X207804017Y-161221687D01*
X207788776Y-161225772D01*
X207756674Y-161230000D01*
X101774819Y-161230000D01*
X101750621Y-161227616D01*
X101738187Y-161225142D01*
X101693496Y-161206629D01*
X101682958Y-161199588D01*
X101664166Y-161184166D01*
X101285833Y-160805833D01*
X101270411Y-160787041D01*
X101263370Y-160776503D01*
X101244855Y-160731803D01*
X101242382Y-160719369D01*
X101240000Y-160695180D01*
X101240000Y-155432329D01*
X105524500Y-155432329D01*
X105563932Y-155744463D01*
X105563934Y-155744476D01*
X105642180Y-156049225D01*
X105642181Y-156049228D01*
X105758001Y-156341757D01*
X105758002Y-156341758D01*
X105758004Y-156341763D01*
X105758006Y-156341766D01*
X105909584Y-156617484D01*
X105909586Y-156617488D01*
X105909591Y-156617495D01*
X106094515Y-156872021D01*
X106094523Y-156872031D01*
X106309907Y-157101391D01*
X106309909Y-157101393D01*
X106552334Y-157301945D01*
X106552338Y-157301948D01*
X106762648Y-157435414D01*
X106817993Y-157470537D01*
X106984087Y-157548695D01*
X107102678Y-157604500D01*
X107102682Y-157604501D01*
X107102685Y-157604503D01*
X107401921Y-157701731D01*
X107710985Y-157760688D01*
X107710990Y-157760688D01*
X107710995Y-157760689D01*
X107946411Y-157775500D01*
X107946417Y-157775500D01*
X108103589Y-157775500D01*
X108339004Y-157760689D01*
X108339007Y-157760688D01*
X108339015Y-157760688D01*
X108648079Y-157701731D01*
X108947315Y-157604503D01*
X109232007Y-157470537D01*
X109497663Y-157301947D01*
X109740094Y-157101390D01*
X109955478Y-156872030D01*
X110140416Y-156617484D01*
X110291994Y-156341766D01*
X110407819Y-156049225D01*
X110486066Y-155744473D01*
X110525499Y-155432329D01*
X120899500Y-155432329D01*
X120938932Y-155744463D01*
X120938934Y-155744476D01*
X121017180Y-156049225D01*
X121017181Y-156049228D01*
X121133001Y-156341757D01*
X121133002Y-156341758D01*
X121133004Y-156341763D01*
X121133006Y-156341766D01*
X121284584Y-156617484D01*
X121284586Y-156617488D01*
X121284591Y-156617495D01*
X121469515Y-156872021D01*
X121469523Y-156872031D01*
X121684907Y-157101391D01*
X121684909Y-157101393D01*
X121927334Y-157301945D01*
X121927338Y-157301948D01*
X122137648Y-157435414D01*
X122192993Y-157470537D01*
X122359087Y-157548695D01*
X122477678Y-157604500D01*
X122477682Y-157604501D01*
X122477685Y-157604503D01*
X122776921Y-157701731D01*
X123085985Y-157760688D01*
X123085990Y-157760688D01*
X123085995Y-157760689D01*
X123321411Y-157775500D01*
X123321417Y-157775500D01*
X123478589Y-157775500D01*
X123714004Y-157760689D01*
X123714007Y-157760688D01*
X123714015Y-157760688D01*
X124023079Y-157701731D01*
X124322315Y-157604503D01*
X124607007Y-157470537D01*
X124872663Y-157301947D01*
X125115094Y-157101390D01*
X125330478Y-156872030D01*
X125515416Y-156617484D01*
X125666994Y-156341766D01*
X125782819Y-156049225D01*
X125861066Y-155744473D01*
X125900500Y-155432318D01*
X125900500Y-155117682D01*
X125900499Y-155117680D01*
X125900499Y-155117670D01*
X125861067Y-154805536D01*
X125861065Y-154805523D01*
X125782819Y-154500774D01*
X125782818Y-154500771D01*
X125666998Y-154208242D01*
X125666997Y-154208241D01*
X125666996Y-154208239D01*
X125666994Y-154208234D01*
X125515416Y-153932516D01*
X125515410Y-153932509D01*
X125515408Y-153932504D01*
X125330484Y-153677978D01*
X125330476Y-153677968D01*
X125115092Y-153448608D01*
X125115090Y-153448606D01*
X124872665Y-153248054D01*
X124872661Y-153248051D01*
X124607009Y-153079464D01*
X124607003Y-153079461D01*
X124322321Y-152945499D01*
X124322316Y-152945497D01*
X124023083Y-152848270D01*
X124023080Y-152848269D01*
X124023079Y-152848269D01*
X123868546Y-152818790D01*
X123714011Y-152789311D01*
X123714004Y-152789310D01*
X123478589Y-152774500D01*
X123478583Y-152774500D01*
X123321417Y-152774500D01*
X123321411Y-152774500D01*
X123085995Y-152789310D01*
X123085988Y-152789311D01*
X122776916Y-152848270D01*
X122477683Y-152945497D01*
X122477678Y-152945499D01*
X122192996Y-153079461D01*
X122192990Y-153079464D01*
X121927338Y-153248051D01*
X121927334Y-153248054D01*
X121684909Y-153448606D01*
X121684907Y-153448608D01*
X121469523Y-153677968D01*
X121469515Y-153677978D01*
X121284591Y-153932504D01*
X121284584Y-153932516D01*
X121133002Y-154208241D01*
X121133001Y-154208242D01*
X121017181Y-154500771D01*
X121017180Y-154500774D01*
X120938934Y-154805523D01*
X120938932Y-154805536D01*
X120899500Y-155117670D01*
X120899500Y-155432329D01*
X110525499Y-155432329D01*
X110525500Y-155432318D01*
X110525500Y-155117682D01*
X110525499Y-155117680D01*
X110525499Y-155117670D01*
X110486067Y-154805536D01*
X110486065Y-154805523D01*
X110407819Y-154500774D01*
X110407818Y-154500771D01*
X110291998Y-154208242D01*
X110291997Y-154208241D01*
X110291996Y-154208239D01*
X110291994Y-154208234D01*
X110140416Y-153932516D01*
X110140410Y-153932509D01*
X110140408Y-153932504D01*
X109955484Y-153677978D01*
X109955476Y-153677968D01*
X109740092Y-153448608D01*
X109740090Y-153448606D01*
X109497665Y-153248054D01*
X109497661Y-153248051D01*
X109232009Y-153079464D01*
X109232003Y-153079461D01*
X108947321Y-152945499D01*
X108947316Y-152945497D01*
X108648083Y-152848270D01*
X108648080Y-152848269D01*
X108648079Y-152848269D01*
X108493546Y-152818790D01*
X108339011Y-152789311D01*
X108339004Y-152789310D01*
X108103589Y-152774500D01*
X108103583Y-152774500D01*
X107946417Y-152774500D01*
X107946411Y-152774500D01*
X107710995Y-152789310D01*
X107710988Y-152789311D01*
X107401916Y-152848270D01*
X107102683Y-152945497D01*
X107102678Y-152945499D01*
X106817996Y-153079461D01*
X106817990Y-153079464D01*
X106552338Y-153248051D01*
X106552334Y-153248054D01*
X106309909Y-153448606D01*
X106309907Y-153448608D01*
X106094523Y-153677968D01*
X106094515Y-153677978D01*
X105909591Y-153932504D01*
X105909584Y-153932516D01*
X105758002Y-154208241D01*
X105758001Y-154208242D01*
X105642181Y-154500771D01*
X105642180Y-154500774D01*
X105563934Y-154805523D01*
X105563932Y-154805536D01*
X105524500Y-155117670D01*
X105524500Y-155432329D01*
X101240000Y-155432329D01*
X101240000Y-141185000D01*
X118205613Y-141185000D01*
X118225125Y-141408026D01*
X118225127Y-141408036D01*
X118283068Y-141624278D01*
X118283073Y-141624292D01*
X118377686Y-141827190D01*
X118377690Y-141827198D01*
X118480309Y-141973752D01*
X118506102Y-142010588D01*
X118664412Y-142168898D01*
X118756109Y-142233105D01*
X118847801Y-142297309D01*
X118847803Y-142297310D01*
X118847806Y-142297312D01*
X118969879Y-142354235D01*
X119050707Y-142391926D01*
X119050709Y-142391926D01*
X119050714Y-142391929D01*
X119266969Y-142449874D01*
X119445393Y-142465484D01*
X119489999Y-142469387D01*
X119490000Y-142469387D01*
X119490001Y-142469387D01*
X119527171Y-142466134D01*
X119713031Y-142449874D01*
X119929286Y-142391929D01*
X120132194Y-142297312D01*
X120315588Y-142168898D01*
X120473898Y-142010588D01*
X120602312Y-141827194D01*
X120696929Y-141624286D01*
X120754874Y-141408031D01*
X120774387Y-141185000D01*
X131895613Y-141185000D01*
X131915125Y-141408026D01*
X131915127Y-141408036D01*
X131973068Y-141624278D01*
X131973073Y-141624292D01*
X132067686Y-141827190D01*
X132067690Y-141827198D01*
X132170309Y-141973752D01*
X132196102Y-142010588D01*
X132354412Y-142168898D01*
X132446109Y-142233105D01*
X132537801Y-142297309D01*
X132537803Y-142297310D01*
X132537806Y-142297312D01*
X132659879Y-142354235D01*
X132740707Y-142391926D01*
X132740709Y-142391926D01*
X132740714Y-142391929D01*
X132956969Y-142449874D01*
X133135393Y-142465484D01*
X133179999Y-142469387D01*
X133180000Y-142469387D01*
X133180001Y-142469387D01*
X133217171Y-142466134D01*
X133403031Y-142449874D01*
X133619286Y-142391929D01*
X133822194Y-142297312D01*
X134005588Y-142168898D01*
X134163898Y-142010588D01*
X134292312Y-141827194D01*
X134386929Y-141624286D01*
X134444874Y-141408031D01*
X134464387Y-141185000D01*
X145938945Y-141185000D01*
X145958457Y-141408026D01*
X145958459Y-141408036D01*
X146016400Y-141624278D01*
X146016405Y-141624292D01*
X146111018Y-141827190D01*
X146111022Y-141827198D01*
X146213641Y-141973752D01*
X146239434Y-142010588D01*
X146397744Y-142168898D01*
X146489441Y-142233105D01*
X146581133Y-142297309D01*
X146581135Y-142297310D01*
X146581138Y-142297312D01*
X146703211Y-142354235D01*
X146784039Y-142391926D01*
X146784041Y-142391926D01*
X146784046Y-142391929D01*
X147000301Y-142449874D01*
X147178725Y-142465484D01*
X147223331Y-142469387D01*
X147223332Y-142469387D01*
X147223333Y-142469387D01*
X147260503Y-142466134D01*
X147446363Y-142449874D01*
X147662618Y-142391929D01*
X147865526Y-142297312D01*
X148048920Y-142168898D01*
X148207230Y-142010588D01*
X148335644Y-141827194D01*
X148430261Y-141624286D01*
X148488206Y-141408031D01*
X148507719Y-141185000D01*
X159865613Y-141185000D01*
X159885125Y-141408026D01*
X159885127Y-141408036D01*
X159943068Y-141624278D01*
X159943073Y-141624292D01*
X160037686Y-141827190D01*
X160037690Y-141827198D01*
X160140309Y-141973752D01*
X160166102Y-142010588D01*
X160324412Y-142168898D01*
X160416109Y-142233104D01*
X160507801Y-142297309D01*
X160507803Y-142297310D01*
X160507806Y-142297312D01*
X160629879Y-142354235D01*
X160710707Y-142391926D01*
X160710709Y-142391926D01*
X160710714Y-142391929D01*
X160926969Y-142449874D01*
X161105393Y-142465484D01*
X161149999Y-142469387D01*
X161150000Y-142469387D01*
X161150001Y-142469387D01*
X161187171Y-142466134D01*
X161373031Y-142449874D01*
X161589286Y-142391929D01*
X161792194Y-142297312D01*
X161975588Y-142168898D01*
X162133898Y-142010588D01*
X162262312Y-141827194D01*
X162356929Y-141624286D01*
X162414874Y-141408031D01*
X162434387Y-141185000D01*
X162414874Y-140961969D01*
X162356929Y-140745714D01*
X162262312Y-140542807D01*
X162133898Y-140359412D01*
X161975588Y-140201102D01*
X161975584Y-140201099D01*
X161975583Y-140201098D01*
X161792198Y-140072690D01*
X161792190Y-140072686D01*
X161589292Y-139978073D01*
X161589278Y-139978068D01*
X161373036Y-139920127D01*
X161373026Y-139920125D01*
X161150001Y-139900613D01*
X161149999Y-139900613D01*
X160926973Y-139920125D01*
X160926963Y-139920127D01*
X160710721Y-139978068D01*
X160710712Y-139978072D01*
X160507808Y-140072687D01*
X160507806Y-140072688D01*
X160324409Y-140201103D01*
X160166103Y-140359409D01*
X160037688Y-140542806D01*
X160037687Y-140542808D01*
X159943072Y-140745712D01*
X159943068Y-140745721D01*
X159885127Y-140961963D01*
X159885125Y-140961973D01*
X159865613Y-141184999D01*
X159865613Y-141185000D01*
X148507719Y-141185000D01*
X148488206Y-140961969D01*
X148430261Y-140745714D01*
X148335644Y-140542807D01*
X148207230Y-140359412D01*
X148048920Y-140201102D01*
X148048916Y-140201099D01*
X148048915Y-140201098D01*
X147865530Y-140072690D01*
X147865522Y-140072686D01*
X147662624Y-139978073D01*
X147662610Y-139978068D01*
X147446368Y-139920127D01*
X147446358Y-139920125D01*
X147223333Y-139900613D01*
X147223331Y-139900613D01*
X147000305Y-139920125D01*
X147000295Y-139920127D01*
X146784053Y-139978068D01*
X146784044Y-139978072D01*
X146581140Y-140072687D01*
X146581138Y-140072688D01*
X146397741Y-140201103D01*
X146239435Y-140359409D01*
X146111020Y-140542806D01*
X146111019Y-140542808D01*
X146016404Y-140745712D01*
X146016400Y-140745721D01*
X145958459Y-140961963D01*
X145958457Y-140961973D01*
X145938945Y-141184999D01*
X145938945Y-141185000D01*
X134464387Y-141185000D01*
X134444874Y-140961969D01*
X134386929Y-140745714D01*
X134292312Y-140542807D01*
X134163898Y-140359412D01*
X134005588Y-140201102D01*
X134005584Y-140201099D01*
X134005583Y-140201098D01*
X133822198Y-140072690D01*
X133822190Y-140072686D01*
X133619292Y-139978073D01*
X133619278Y-139978068D01*
X133403036Y-139920127D01*
X133403026Y-139920125D01*
X133180001Y-139900613D01*
X133179999Y-139900613D01*
X132956973Y-139920125D01*
X132956963Y-139920127D01*
X132740721Y-139978068D01*
X132740712Y-139978072D01*
X132537808Y-140072687D01*
X132537806Y-140072688D01*
X132354409Y-140201103D01*
X132196103Y-140359409D01*
X132067688Y-140542806D01*
X132067687Y-140542808D01*
X131973072Y-140745712D01*
X131973068Y-140745721D01*
X131915127Y-140961963D01*
X131915125Y-140961973D01*
X131895613Y-141184999D01*
X131895613Y-141185000D01*
X120774387Y-141185000D01*
X120754874Y-140961969D01*
X120696929Y-140745714D01*
X120602312Y-140542807D01*
X120473898Y-140359412D01*
X120315588Y-140201102D01*
X120315584Y-140201099D01*
X120315583Y-140201098D01*
X120132198Y-140072690D01*
X120132190Y-140072686D01*
X119929292Y-139978073D01*
X119929278Y-139978068D01*
X119713036Y-139920127D01*
X119713026Y-139920125D01*
X119490001Y-139900613D01*
X119489999Y-139900613D01*
X119266973Y-139920125D01*
X119266963Y-139920127D01*
X119050721Y-139978068D01*
X119050712Y-139978072D01*
X118847808Y-140072687D01*
X118847806Y-140072688D01*
X118664409Y-140201103D01*
X118506103Y-140359409D01*
X118377688Y-140542806D01*
X118377687Y-140542808D01*
X118283072Y-140745712D01*
X118283068Y-140745721D01*
X118225127Y-140961963D01*
X118225125Y-140961973D01*
X118205613Y-141184999D01*
X118205613Y-141185000D01*
X101240000Y-141185000D01*
X101240000Y-135575002D01*
X195154340Y-135575002D01*
X195174914Y-135757611D01*
X195221041Y-135889432D01*
X195235611Y-135931071D01*
X195333382Y-136086673D01*
X195463327Y-136216618D01*
X195618929Y-136314389D01*
X195792386Y-136375084D01*
X195792389Y-136375084D01*
X195792391Y-136375085D01*
X195860795Y-136382791D01*
X195929199Y-136390499D01*
X195929200Y-136390500D01*
X195929204Y-136390500D01*
X196020800Y-136390500D01*
X196020800Y-136390499D01*
X196106856Y-136380803D01*
X196157608Y-136375085D01*
X196157609Y-136375084D01*
X196157614Y-136375084D01*
X196331071Y-136314389D01*
X196486673Y-136216618D01*
X196616618Y-136086673D01*
X196714389Y-135931071D01*
X196775084Y-135757614D01*
X196775084Y-135757613D01*
X196775085Y-135757611D01*
X196795660Y-135575002D01*
X196795660Y-135574997D01*
X196775085Y-135392388D01*
X196760514Y-135350747D01*
X196714389Y-135218929D01*
X196616618Y-135063327D01*
X196486673Y-134933382D01*
X196486673Y-134933381D01*
X196331072Y-134835611D01*
X196157608Y-134774914D01*
X196020800Y-134759500D01*
X196020796Y-134759500D01*
X195929204Y-134759500D01*
X195929200Y-134759500D01*
X195792391Y-134774914D01*
X195618927Y-134835611D01*
X195463326Y-134933382D01*
X195333382Y-135063326D01*
X195235612Y-135218926D01*
X195174914Y-135392388D01*
X195154340Y-135574997D01*
X195154340Y-135575002D01*
X101240000Y-135575002D01*
X101240000Y-127307500D01*
X118205613Y-127307500D01*
X118225125Y-127530526D01*
X118225127Y-127530536D01*
X118283068Y-127746778D01*
X118283073Y-127746792D01*
X118377686Y-127949690D01*
X118377690Y-127949698D01*
X118480309Y-128096252D01*
X118506102Y-128133088D01*
X118664412Y-128291398D01*
X118756108Y-128355605D01*
X118847801Y-128419809D01*
X118847803Y-128419810D01*
X118847806Y-128419812D01*
X118969879Y-128476735D01*
X119050707Y-128514426D01*
X119050709Y-128514426D01*
X119050714Y-128514429D01*
X119266969Y-128572374D01*
X119445393Y-128587984D01*
X119489999Y-128591887D01*
X119490000Y-128591887D01*
X119490001Y-128591887D01*
X119527171Y-128588634D01*
X119713031Y-128572374D01*
X119929286Y-128514429D01*
X120132194Y-128419812D01*
X120315588Y-128291398D01*
X120473898Y-128133088D01*
X120602312Y-127949694D01*
X120696929Y-127746786D01*
X120754874Y-127530531D01*
X120774387Y-127307500D01*
X131895613Y-127307500D01*
X131915125Y-127530526D01*
X131915127Y-127530536D01*
X131973068Y-127746778D01*
X131973073Y-127746792D01*
X132067686Y-127949690D01*
X132067690Y-127949698D01*
X132170309Y-128096252D01*
X132196102Y-128133088D01*
X132354412Y-128291398D01*
X132446108Y-128355605D01*
X132537801Y-128419809D01*
X132537803Y-128419810D01*
X132537806Y-128419812D01*
X132659879Y-128476735D01*
X132740707Y-128514426D01*
X132740709Y-128514426D01*
X132740714Y-128514429D01*
X132956969Y-128572374D01*
X133135393Y-128587984D01*
X133179999Y-128591887D01*
X133180000Y-128591887D01*
X133180001Y-128591887D01*
X133217171Y-128588634D01*
X133403031Y-128572374D01*
X133619286Y-128514429D01*
X133822194Y-128419812D01*
X134005588Y-128291398D01*
X134163898Y-128133088D01*
X134292312Y-127949694D01*
X134386929Y-127746786D01*
X134444874Y-127530531D01*
X134464387Y-127307500D01*
X134462356Y-127284284D01*
X145938945Y-127284284D01*
X145958457Y-127507310D01*
X145958459Y-127507320D01*
X146016400Y-127723562D01*
X146016405Y-127723576D01*
X146111018Y-127926474D01*
X146111022Y-127926482D01*
X146213641Y-128073036D01*
X146239434Y-128109872D01*
X146397744Y-128268182D01*
X146489441Y-128332388D01*
X146581133Y-128396593D01*
X146581135Y-128396594D01*
X146581138Y-128396596D01*
X146703211Y-128453519D01*
X146784039Y-128491210D01*
X146784041Y-128491210D01*
X146784046Y-128491213D01*
X146784051Y-128491214D01*
X146784053Y-128491215D01*
X146789368Y-128492639D01*
X147000301Y-128549158D01*
X147178725Y-128564768D01*
X147223331Y-128568671D01*
X147223332Y-128568671D01*
X147223333Y-128568671D01*
X147260503Y-128565418D01*
X147446363Y-128549158D01*
X147662618Y-128491213D01*
X147865526Y-128396596D01*
X148048920Y-128268182D01*
X148207230Y-128109872D01*
X148335644Y-127926478D01*
X148430261Y-127723570D01*
X148488206Y-127507315D01*
X148507594Y-127285710D01*
X159865613Y-127285710D01*
X159885125Y-127508736D01*
X159885127Y-127508746D01*
X159943068Y-127724988D01*
X159943073Y-127725002D01*
X160037686Y-127927900D01*
X160037690Y-127927908D01*
X160052948Y-127949698D01*
X160166102Y-128111298D01*
X160324412Y-128269608D01*
X160355536Y-128291401D01*
X160507801Y-128398019D01*
X160507803Y-128398020D01*
X160507806Y-128398022D01*
X160629879Y-128454945D01*
X160710707Y-128492636D01*
X160710709Y-128492636D01*
X160710714Y-128492639D01*
X160926969Y-128550584D01*
X161105393Y-128566194D01*
X161149999Y-128570097D01*
X161150000Y-128570097D01*
X161150001Y-128570097D01*
X161187171Y-128566844D01*
X161373031Y-128550584D01*
X161589286Y-128492639D01*
X161792194Y-128398022D01*
X161975588Y-128269608D01*
X162133898Y-128111298D01*
X162262312Y-127927904D01*
X162356929Y-127724996D01*
X162414874Y-127508741D01*
X162434387Y-127285710D01*
X162414874Y-127062679D01*
X162370877Y-126898481D01*
X162356931Y-126846431D01*
X162356930Y-126846430D01*
X162356929Y-126846424D01*
X162262312Y-126643517D01*
X162149156Y-126481913D01*
X162133899Y-126460123D01*
X162132469Y-126458693D01*
X161975588Y-126301812D01*
X161975584Y-126301809D01*
X161975583Y-126301808D01*
X161792198Y-126173400D01*
X161792190Y-126173396D01*
X161589292Y-126078783D01*
X161589278Y-126078778D01*
X161373036Y-126020837D01*
X161373026Y-126020835D01*
X161150001Y-126001323D01*
X161149999Y-126001323D01*
X160926973Y-126020835D01*
X160926963Y-126020837D01*
X160710721Y-126078778D01*
X160710712Y-126078782D01*
X160507808Y-126173397D01*
X160507806Y-126173398D01*
X160324409Y-126301813D01*
X160166103Y-126460119D01*
X160037688Y-126643516D01*
X160037687Y-126643518D01*
X159943072Y-126846422D01*
X159943068Y-126846431D01*
X159885127Y-127062673D01*
X159885125Y-127062683D01*
X159865613Y-127285709D01*
X159865613Y-127285710D01*
X148507594Y-127285710D01*
X148507719Y-127284284D01*
X148488206Y-127061253D01*
X148430261Y-126844998D01*
X148335644Y-126642091D01*
X148208229Y-126460123D01*
X148207231Y-126458697D01*
X148207227Y-126458693D01*
X148048920Y-126300386D01*
X148048916Y-126300383D01*
X148048915Y-126300382D01*
X147865530Y-126171974D01*
X147865522Y-126171970D01*
X147662624Y-126077357D01*
X147662610Y-126077352D01*
X147446368Y-126019411D01*
X147446358Y-126019409D01*
X147223333Y-125999897D01*
X147223331Y-125999897D01*
X147000305Y-126019409D01*
X147000295Y-126019411D01*
X146784053Y-126077352D01*
X146784044Y-126077356D01*
X146581140Y-126171971D01*
X146581138Y-126171972D01*
X146397741Y-126300387D01*
X146239435Y-126458693D01*
X146111020Y-126642090D01*
X146111019Y-126642092D01*
X146016404Y-126844996D01*
X146016400Y-126845005D01*
X145958459Y-127061247D01*
X145958457Y-127061257D01*
X145938945Y-127284283D01*
X145938945Y-127284284D01*
X134462356Y-127284284D01*
X134444874Y-127084469D01*
X134386929Y-126868214D01*
X134292312Y-126665307D01*
X134163898Y-126481912D01*
X134005588Y-126323602D01*
X134005584Y-126323599D01*
X134005583Y-126323598D01*
X133822198Y-126195190D01*
X133822190Y-126195186D01*
X133619292Y-126100573D01*
X133619278Y-126100568D01*
X133403036Y-126042627D01*
X133403026Y-126042625D01*
X133180001Y-126023113D01*
X133179999Y-126023113D01*
X132956973Y-126042625D01*
X132956963Y-126042627D01*
X132740721Y-126100568D01*
X132740712Y-126100572D01*
X132537808Y-126195187D01*
X132537806Y-126195188D01*
X132354409Y-126323603D01*
X132196103Y-126481909D01*
X132067688Y-126665306D01*
X132067687Y-126665308D01*
X131973072Y-126868212D01*
X131973068Y-126868221D01*
X131915127Y-127084463D01*
X131915125Y-127084473D01*
X131895613Y-127307499D01*
X131895613Y-127307500D01*
X120774387Y-127307500D01*
X120754874Y-127084469D01*
X120696929Y-126868214D01*
X120602312Y-126665307D01*
X120473898Y-126481912D01*
X120315588Y-126323602D01*
X120315584Y-126323599D01*
X120315583Y-126323598D01*
X120132198Y-126195190D01*
X120132190Y-126195186D01*
X119929292Y-126100573D01*
X119929278Y-126100568D01*
X119713036Y-126042627D01*
X119713026Y-126042625D01*
X119490001Y-126023113D01*
X119489999Y-126023113D01*
X119266973Y-126042625D01*
X119266963Y-126042627D01*
X119050721Y-126100568D01*
X119050712Y-126100572D01*
X118847808Y-126195187D01*
X118847806Y-126195188D01*
X118664409Y-126323603D01*
X118506103Y-126481909D01*
X118377688Y-126665306D01*
X118377687Y-126665308D01*
X118283072Y-126868212D01*
X118283068Y-126868221D01*
X118225127Y-127084463D01*
X118225125Y-127084473D01*
X118205613Y-127307499D01*
X118205613Y-127307500D01*
X101240000Y-127307500D01*
X101240000Y-113430000D01*
X118205613Y-113430000D01*
X118225125Y-113653026D01*
X118225127Y-113653036D01*
X118283068Y-113869278D01*
X118283073Y-113869292D01*
X118377686Y-114072190D01*
X118377690Y-114072198D01*
X118473587Y-114209152D01*
X118506102Y-114255588D01*
X118664412Y-114413898D01*
X118756108Y-114478105D01*
X118847801Y-114542309D01*
X118847803Y-114542310D01*
X118847806Y-114542312D01*
X118951138Y-114590496D01*
X119050707Y-114636926D01*
X119050709Y-114636926D01*
X119050714Y-114636929D01*
X119266969Y-114694874D01*
X119445393Y-114710484D01*
X119489999Y-114714387D01*
X119490000Y-114714387D01*
X119490001Y-114714387D01*
X119527171Y-114711134D01*
X119713031Y-114694874D01*
X119929286Y-114636929D01*
X120132194Y-114542312D01*
X120315588Y-114413898D01*
X120473898Y-114255588D01*
X120602312Y-114072194D01*
X120696929Y-113869286D01*
X120754874Y-113653031D01*
X120774387Y-113430000D01*
X131895613Y-113430000D01*
X131915125Y-113653026D01*
X131915127Y-113653036D01*
X131973068Y-113869278D01*
X131973073Y-113869292D01*
X132067686Y-114072190D01*
X132067690Y-114072198D01*
X132163587Y-114209152D01*
X132196102Y-114255588D01*
X132354412Y-114413898D01*
X132446108Y-114478104D01*
X132537801Y-114542309D01*
X132537803Y-114542310D01*
X132537806Y-114542312D01*
X132641138Y-114590496D01*
X132740707Y-114636926D01*
X132740709Y-114636926D01*
X132740714Y-114636929D01*
X132956969Y-114694874D01*
X133135393Y-114710484D01*
X133179999Y-114714387D01*
X133180000Y-114714387D01*
X133180001Y-114714387D01*
X133217171Y-114711134D01*
X133403031Y-114694874D01*
X133619286Y-114636929D01*
X133822194Y-114542312D01*
X134005588Y-114413898D01*
X134163898Y-114255588D01*
X134292312Y-114072194D01*
X134386929Y-113869286D01*
X134444874Y-113653031D01*
X134464387Y-113430000D01*
X134460325Y-113383570D01*
X145938945Y-113383570D01*
X145958457Y-113606596D01*
X145958459Y-113606606D01*
X146016400Y-113822848D01*
X146016405Y-113822862D01*
X146111018Y-114025760D01*
X146111022Y-114025768D01*
X146143533Y-114072198D01*
X146239434Y-114209158D01*
X146397744Y-114367468D01*
X146401826Y-114370326D01*
X146581133Y-114495879D01*
X146581135Y-114495880D01*
X146581138Y-114495882D01*
X146680702Y-114542309D01*
X146784039Y-114590496D01*
X146784041Y-114590496D01*
X146784046Y-114590499D01*
X146784051Y-114590500D01*
X146784053Y-114590501D01*
X146836103Y-114604447D01*
X147000301Y-114648444D01*
X147178725Y-114664054D01*
X147223331Y-114667957D01*
X147223332Y-114667957D01*
X147223333Y-114667957D01*
X147260503Y-114664704D01*
X147446363Y-114648444D01*
X147662618Y-114590499D01*
X147865526Y-114495882D01*
X148048920Y-114367468D01*
X148207230Y-114209158D01*
X148335644Y-114025764D01*
X148430261Y-113822856D01*
X148488206Y-113606601D01*
X148507469Y-113386425D01*
X159865613Y-113386425D01*
X159885125Y-113609451D01*
X159885127Y-113609461D01*
X159943068Y-113825703D01*
X159943073Y-113825717D01*
X160037686Y-114028615D01*
X160037690Y-114028623D01*
X160068202Y-114072198D01*
X160166102Y-114212013D01*
X160324412Y-114370323D01*
X160386648Y-114413901D01*
X160507801Y-114498734D01*
X160507803Y-114498735D01*
X160507806Y-114498737D01*
X160601256Y-114542313D01*
X160710707Y-114593351D01*
X160710709Y-114593351D01*
X160710714Y-114593354D01*
X160926969Y-114651299D01*
X161105393Y-114666909D01*
X161149999Y-114670812D01*
X161150000Y-114670812D01*
X161150001Y-114670812D01*
X161187171Y-114667559D01*
X161373031Y-114651299D01*
X161589286Y-114593354D01*
X161792194Y-114498737D01*
X161975588Y-114370323D01*
X162133898Y-114212013D01*
X162262312Y-114028619D01*
X162356929Y-113825711D01*
X162414874Y-113609456D01*
X162434387Y-113386425D01*
X162414874Y-113163394D01*
X162356929Y-112947139D01*
X162262312Y-112744232D01*
X162164410Y-112604413D01*
X162133899Y-112560838D01*
X162131040Y-112557979D01*
X161975588Y-112402527D01*
X161975584Y-112402524D01*
X161975583Y-112402523D01*
X161792198Y-112274115D01*
X161792190Y-112274111D01*
X161589292Y-112179498D01*
X161589278Y-112179493D01*
X161373036Y-112121552D01*
X161373026Y-112121550D01*
X161150001Y-112102038D01*
X161149999Y-112102038D01*
X160926973Y-112121550D01*
X160926963Y-112121552D01*
X160710721Y-112179493D01*
X160710712Y-112179497D01*
X160507808Y-112274112D01*
X160507806Y-112274113D01*
X160324409Y-112402528D01*
X160166103Y-112560834D01*
X160037688Y-112744231D01*
X160037687Y-112744233D01*
X159943072Y-112947137D01*
X159943068Y-112947146D01*
X159885127Y-113163388D01*
X159885125Y-113163398D01*
X159865613Y-113386424D01*
X159865613Y-113386425D01*
X148507469Y-113386425D01*
X148507719Y-113383570D01*
X148488206Y-113160539D01*
X148431026Y-112947139D01*
X148430263Y-112944291D01*
X148430262Y-112944290D01*
X148430261Y-112944284D01*
X148335644Y-112741377D01*
X148239741Y-112604413D01*
X148207231Y-112557983D01*
X148207227Y-112557979D01*
X148048920Y-112399672D01*
X148048916Y-112399669D01*
X148048915Y-112399668D01*
X147865530Y-112271260D01*
X147865522Y-112271256D01*
X147662624Y-112176643D01*
X147662610Y-112176638D01*
X147446368Y-112118697D01*
X147446358Y-112118695D01*
X147223333Y-112099183D01*
X147223331Y-112099183D01*
X147000305Y-112118695D01*
X147000295Y-112118697D01*
X146784053Y-112176638D01*
X146784046Y-112176640D01*
X146784046Y-112176641D01*
X146777921Y-112179497D01*
X146581140Y-112271257D01*
X146581138Y-112271258D01*
X146397741Y-112399673D01*
X146239435Y-112557979D01*
X146111020Y-112741376D01*
X146111019Y-112741378D01*
X146016404Y-112944282D01*
X146016400Y-112944291D01*
X145958459Y-113160533D01*
X145958457Y-113160543D01*
X145938945Y-113383569D01*
X145938945Y-113383570D01*
X134460325Y-113383570D01*
X134444874Y-113206969D01*
X134386929Y-112990714D01*
X134292312Y-112787807D01*
X134163898Y-112604412D01*
X134005588Y-112446102D01*
X134005584Y-112446099D01*
X134005583Y-112446098D01*
X133822198Y-112317690D01*
X133822190Y-112317686D01*
X133619292Y-112223073D01*
X133619278Y-112223068D01*
X133403036Y-112165127D01*
X133403026Y-112165125D01*
X133180001Y-112145613D01*
X133179999Y-112145613D01*
X132956973Y-112165125D01*
X132956963Y-112165127D01*
X132740721Y-112223068D01*
X132740712Y-112223072D01*
X132537808Y-112317687D01*
X132537806Y-112317688D01*
X132354409Y-112446103D01*
X132196103Y-112604409D01*
X132067688Y-112787806D01*
X132067687Y-112787808D01*
X131973072Y-112990712D01*
X131973068Y-112990721D01*
X131915127Y-113206963D01*
X131915125Y-113206973D01*
X131895613Y-113429999D01*
X131895613Y-113430000D01*
X120774387Y-113430000D01*
X120754874Y-113206969D01*
X120696929Y-112990714D01*
X120602312Y-112787807D01*
X120473898Y-112604412D01*
X120315588Y-112446102D01*
X120315584Y-112446099D01*
X120315583Y-112446098D01*
X120132198Y-112317690D01*
X120132190Y-112317686D01*
X119929292Y-112223073D01*
X119929278Y-112223068D01*
X119713036Y-112165127D01*
X119713026Y-112165125D01*
X119490001Y-112145613D01*
X119489999Y-112145613D01*
X119266973Y-112165125D01*
X119266963Y-112165127D01*
X119050721Y-112223068D01*
X119050712Y-112223072D01*
X118847808Y-112317687D01*
X118847806Y-112317688D01*
X118664409Y-112446103D01*
X118506103Y-112604409D01*
X118377688Y-112787806D01*
X118377687Y-112787808D01*
X118283072Y-112990712D01*
X118283068Y-112990721D01*
X118225127Y-113206963D01*
X118225125Y-113206973D01*
X118205613Y-113429999D01*
X118205613Y-113430000D01*
X101240000Y-113430000D01*
X101240000Y-99552500D01*
X118205613Y-99552500D01*
X118225125Y-99775526D01*
X118225127Y-99775536D01*
X118283068Y-99991778D01*
X118283073Y-99991792D01*
X118377686Y-100194690D01*
X118377690Y-100194698D01*
X118457332Y-100308438D01*
X118506102Y-100378088D01*
X118664412Y-100536398D01*
X118748340Y-100595165D01*
X118847801Y-100664809D01*
X118847803Y-100664810D01*
X118847806Y-100664812D01*
X118969879Y-100721735D01*
X119050707Y-100759426D01*
X119050709Y-100759426D01*
X119050714Y-100759429D01*
X119266969Y-100817374D01*
X119445393Y-100832984D01*
X119489999Y-100836887D01*
X119490000Y-100836887D01*
X119490001Y-100836887D01*
X119527171Y-100833634D01*
X119713031Y-100817374D01*
X119929286Y-100759429D01*
X120132194Y-100664812D01*
X120315588Y-100536398D01*
X120473898Y-100378088D01*
X120602312Y-100194694D01*
X120696929Y-99991786D01*
X120754874Y-99775531D01*
X120774387Y-99552500D01*
X131895613Y-99552500D01*
X131915125Y-99775526D01*
X131915127Y-99775536D01*
X131973068Y-99991778D01*
X131973073Y-99991792D01*
X132067686Y-100194690D01*
X132067690Y-100194698D01*
X132147332Y-100308438D01*
X132196102Y-100378088D01*
X132354412Y-100536398D01*
X132438340Y-100595165D01*
X132537801Y-100664809D01*
X132537803Y-100664810D01*
X132537806Y-100664812D01*
X132659879Y-100721735D01*
X132740707Y-100759426D01*
X132740709Y-100759426D01*
X132740714Y-100759429D01*
X132956969Y-100817374D01*
X133135393Y-100832984D01*
X133179999Y-100836887D01*
X133180000Y-100836887D01*
X133180001Y-100836887D01*
X133217171Y-100833634D01*
X133403031Y-100817374D01*
X133619286Y-100759429D01*
X133822194Y-100664812D01*
X134005588Y-100536398D01*
X134163898Y-100378088D01*
X134292312Y-100194694D01*
X134386929Y-99991786D01*
X134444874Y-99775531D01*
X134464387Y-99552500D01*
X134458294Y-99482856D01*
X145938945Y-99482856D01*
X145958457Y-99705882D01*
X145958459Y-99705892D01*
X146016400Y-99922134D01*
X146016405Y-99922148D01*
X146111018Y-100125046D01*
X146111022Y-100125054D01*
X146159785Y-100194694D01*
X146239434Y-100308444D01*
X146397744Y-100466754D01*
X146489441Y-100530961D01*
X146581133Y-100595165D01*
X146581135Y-100595166D01*
X146581138Y-100595168D01*
X146703211Y-100652091D01*
X146784039Y-100689782D01*
X146784041Y-100689782D01*
X146784046Y-100689785D01*
X146784051Y-100689786D01*
X146784053Y-100689787D01*
X146836103Y-100703733D01*
X147000301Y-100747730D01*
X147178725Y-100763340D01*
X147223331Y-100767243D01*
X147223332Y-100767243D01*
X147223333Y-100767243D01*
X147260503Y-100763990D01*
X147446363Y-100747730D01*
X147662618Y-100689785D01*
X147865526Y-100595168D01*
X148048920Y-100466754D01*
X148207230Y-100308444D01*
X148335644Y-100125050D01*
X148430261Y-99922142D01*
X148488206Y-99705887D01*
X148507344Y-99487140D01*
X159865613Y-99487140D01*
X159885125Y-99710166D01*
X159885127Y-99710176D01*
X159943068Y-99926418D01*
X159943073Y-99926432D01*
X160037686Y-100129330D01*
X160037690Y-100129338D01*
X160083456Y-100194698D01*
X160166102Y-100312728D01*
X160324412Y-100471038D01*
X160416109Y-100535245D01*
X160507801Y-100599449D01*
X160507803Y-100599450D01*
X160507806Y-100599452D01*
X160629879Y-100656375D01*
X160710707Y-100694066D01*
X160710709Y-100694066D01*
X160710714Y-100694069D01*
X160926969Y-100752014D01*
X161105393Y-100767624D01*
X161149999Y-100771527D01*
X161150000Y-100771527D01*
X161150001Y-100771527D01*
X161187171Y-100768274D01*
X161373031Y-100752014D01*
X161589286Y-100694069D01*
X161792194Y-100599452D01*
X161975588Y-100471038D01*
X162133898Y-100312728D01*
X162262312Y-100129334D01*
X162356929Y-99926426D01*
X162414874Y-99710171D01*
X162434387Y-99487140D01*
X162414874Y-99264109D01*
X162356929Y-99047854D01*
X162262312Y-98844947D01*
X162133898Y-98661552D01*
X161975588Y-98503242D01*
X161975584Y-98503239D01*
X161975583Y-98503238D01*
X161792198Y-98374830D01*
X161792190Y-98374826D01*
X161589292Y-98280213D01*
X161589278Y-98280208D01*
X161373036Y-98222267D01*
X161373026Y-98222265D01*
X161150001Y-98202753D01*
X161149999Y-98202753D01*
X160926973Y-98222265D01*
X160926963Y-98222267D01*
X160710721Y-98280208D01*
X160710714Y-98280210D01*
X160710714Y-98280211D01*
X160694810Y-98287627D01*
X160507808Y-98374827D01*
X160507806Y-98374828D01*
X160324409Y-98503243D01*
X160166103Y-98661549D01*
X160037688Y-98844946D01*
X160037687Y-98844948D01*
X159943072Y-99047852D01*
X159943068Y-99047861D01*
X159885127Y-99264103D01*
X159885125Y-99264113D01*
X159865613Y-99487139D01*
X159865613Y-99487140D01*
X148507344Y-99487140D01*
X148507719Y-99482856D01*
X148488206Y-99259825D01*
X148430261Y-99043570D01*
X148335644Y-98840663D01*
X148255993Y-98726909D01*
X148207231Y-98657269D01*
X148207227Y-98657265D01*
X148048920Y-98498958D01*
X148048916Y-98498955D01*
X148048915Y-98498954D01*
X147865530Y-98370546D01*
X147865522Y-98370542D01*
X147662624Y-98275929D01*
X147662610Y-98275924D01*
X147446368Y-98217983D01*
X147446358Y-98217981D01*
X147223333Y-98198469D01*
X147223331Y-98198469D01*
X147000305Y-98217981D01*
X147000295Y-98217983D01*
X146784053Y-98275924D01*
X146784044Y-98275928D01*
X146581140Y-98370543D01*
X146581138Y-98370544D01*
X146397741Y-98498959D01*
X146239435Y-98657265D01*
X146111020Y-98840662D01*
X146111019Y-98840664D01*
X146016404Y-99043568D01*
X146016400Y-99043577D01*
X145958459Y-99259819D01*
X145958457Y-99259829D01*
X145938945Y-99482855D01*
X145938945Y-99482856D01*
X134458294Y-99482856D01*
X134444874Y-99329469D01*
X134386929Y-99113214D01*
X134292312Y-98910307D01*
X134163898Y-98726912D01*
X134005588Y-98568602D01*
X134005584Y-98568599D01*
X134005583Y-98568598D01*
X133822198Y-98440190D01*
X133822190Y-98440186D01*
X133619292Y-98345573D01*
X133619278Y-98345568D01*
X133403036Y-98287627D01*
X133403026Y-98287625D01*
X133180001Y-98268113D01*
X133179999Y-98268113D01*
X132956973Y-98287625D01*
X132956963Y-98287627D01*
X132740721Y-98345568D01*
X132740712Y-98345572D01*
X132537808Y-98440187D01*
X132537806Y-98440188D01*
X132354409Y-98568603D01*
X132196103Y-98726909D01*
X132067688Y-98910306D01*
X132067687Y-98910308D01*
X131973072Y-99113212D01*
X131973068Y-99113221D01*
X131915127Y-99329463D01*
X131915125Y-99329473D01*
X131895613Y-99552499D01*
X131895613Y-99552500D01*
X120774387Y-99552500D01*
X120754874Y-99329469D01*
X120696929Y-99113214D01*
X120602312Y-98910307D01*
X120473898Y-98726912D01*
X120315588Y-98568602D01*
X120315584Y-98568599D01*
X120315583Y-98568598D01*
X120132198Y-98440190D01*
X120132190Y-98440186D01*
X119929292Y-98345573D01*
X119929278Y-98345568D01*
X119713036Y-98287627D01*
X119713026Y-98287625D01*
X119490001Y-98268113D01*
X119489999Y-98268113D01*
X119266973Y-98287625D01*
X119266963Y-98287627D01*
X119050721Y-98345568D01*
X119050712Y-98345572D01*
X118847808Y-98440187D01*
X118847806Y-98440188D01*
X118664409Y-98568603D01*
X118506103Y-98726909D01*
X118377688Y-98910306D01*
X118377687Y-98910308D01*
X118283072Y-99113212D01*
X118283068Y-99113221D01*
X118225127Y-99329463D01*
X118225125Y-99329473D01*
X118205613Y-99552499D01*
X118205613Y-99552500D01*
X101240000Y-99552500D01*
X101240000Y-86180000D01*
X118095613Y-86180000D01*
X118115125Y-86403026D01*
X118115127Y-86403036D01*
X118173068Y-86619278D01*
X118173073Y-86619292D01*
X118267686Y-86822190D01*
X118267690Y-86822198D01*
X118335078Y-86918437D01*
X118396102Y-87005588D01*
X118554412Y-87163898D01*
X118613346Y-87205164D01*
X118737801Y-87292309D01*
X118737803Y-87292310D01*
X118737806Y-87292312D01*
X118859879Y-87349235D01*
X118940707Y-87386926D01*
X118940709Y-87386926D01*
X118940714Y-87386929D01*
X119156969Y-87444874D01*
X119335393Y-87460484D01*
X119379999Y-87464387D01*
X119380000Y-87464387D01*
X119380001Y-87464387D01*
X119417171Y-87461134D01*
X119603031Y-87444874D01*
X119819286Y-87386929D01*
X120022194Y-87292312D01*
X120205588Y-87163898D01*
X120363898Y-87005588D01*
X120492312Y-86822194D01*
X120586929Y-86619286D01*
X120644874Y-86403031D01*
X120663887Y-86185713D01*
X132022281Y-86185713D01*
X132041793Y-86408739D01*
X132041795Y-86408749D01*
X132099736Y-86624991D01*
X132099741Y-86625005D01*
X132194354Y-86827903D01*
X132194358Y-86827911D01*
X132296977Y-86974465D01*
X132322770Y-87011301D01*
X132481080Y-87169611D01*
X132531855Y-87205164D01*
X132664469Y-87298022D01*
X132664471Y-87298023D01*
X132664474Y-87298025D01*
X132786547Y-87354948D01*
X132867375Y-87392639D01*
X132867377Y-87392639D01*
X132867382Y-87392642D01*
X133083637Y-87450587D01*
X133262061Y-87466197D01*
X133306667Y-87470100D01*
X133306668Y-87470100D01*
X133306669Y-87470100D01*
X133343839Y-87466847D01*
X133529699Y-87450587D01*
X133745954Y-87392642D01*
X133948862Y-87298025D01*
X134132256Y-87169611D01*
X134290566Y-87011301D01*
X134418980Y-86827907D01*
X134513597Y-86624999D01*
X134571542Y-86408744D01*
X134591055Y-86185713D01*
X134582931Y-86092855D01*
X146065613Y-86092855D01*
X146085125Y-86315881D01*
X146085127Y-86315891D01*
X146143068Y-86532133D01*
X146143073Y-86532147D01*
X146237686Y-86735045D01*
X146237690Y-86735053D01*
X146340309Y-86881607D01*
X146366102Y-86918443D01*
X146524412Y-87076753D01*
X146616109Y-87140960D01*
X146707801Y-87205164D01*
X146707803Y-87205165D01*
X146707806Y-87205167D01*
X146829879Y-87262090D01*
X146910707Y-87299781D01*
X146910709Y-87299781D01*
X146910714Y-87299784D01*
X147126969Y-87357729D01*
X147305393Y-87373339D01*
X147349999Y-87377242D01*
X147350000Y-87377242D01*
X147350001Y-87377242D01*
X147387171Y-87373989D01*
X147573031Y-87357729D01*
X147789286Y-87299784D01*
X147992194Y-87205167D01*
X148175588Y-87076753D01*
X148333898Y-86918443D01*
X148462312Y-86735049D01*
X148556929Y-86532141D01*
X148614874Y-86315886D01*
X148634387Y-86092855D01*
X159755613Y-86092855D01*
X159775125Y-86315881D01*
X159775127Y-86315891D01*
X159833068Y-86532133D01*
X159833073Y-86532147D01*
X159927686Y-86735045D01*
X159927690Y-86735053D01*
X160030309Y-86881607D01*
X160056102Y-86918443D01*
X160214412Y-87076753D01*
X160306109Y-87140960D01*
X160397801Y-87205164D01*
X160397803Y-87205165D01*
X160397806Y-87205167D01*
X160519879Y-87262090D01*
X160600707Y-87299781D01*
X160600709Y-87299781D01*
X160600714Y-87299784D01*
X160816969Y-87357729D01*
X160995393Y-87373339D01*
X161039999Y-87377242D01*
X161040000Y-87377242D01*
X161040001Y-87377242D01*
X161077171Y-87373989D01*
X161263031Y-87357729D01*
X161479286Y-87299784D01*
X161682194Y-87205167D01*
X161865588Y-87076753D01*
X162023898Y-86918443D01*
X162152312Y-86735049D01*
X162246929Y-86532141D01*
X162304874Y-86315886D01*
X162324387Y-86092855D01*
X162304874Y-85869824D01*
X162246929Y-85653569D01*
X162152312Y-85450662D01*
X162023898Y-85267267D01*
X161865588Y-85108957D01*
X161865584Y-85108954D01*
X161865583Y-85108953D01*
X161682198Y-84980545D01*
X161682190Y-84980541D01*
X161479292Y-84885928D01*
X161479278Y-84885923D01*
X161263036Y-84827982D01*
X161263026Y-84827980D01*
X161040001Y-84808468D01*
X161039999Y-84808468D01*
X160816973Y-84827980D01*
X160816963Y-84827982D01*
X160600721Y-84885923D01*
X160600712Y-84885927D01*
X160397808Y-84980542D01*
X160397806Y-84980543D01*
X160214409Y-85108958D01*
X160056103Y-85267264D01*
X159927688Y-85450661D01*
X159927687Y-85450663D01*
X159833072Y-85653567D01*
X159833068Y-85653576D01*
X159775127Y-85869818D01*
X159775125Y-85869828D01*
X159755613Y-86092854D01*
X159755613Y-86092855D01*
X148634387Y-86092855D01*
X148614874Y-85869824D01*
X148556929Y-85653569D01*
X148462312Y-85450662D01*
X148333898Y-85267267D01*
X148175588Y-85108957D01*
X148175584Y-85108954D01*
X148175583Y-85108953D01*
X147992198Y-84980545D01*
X147992190Y-84980541D01*
X147789292Y-84885928D01*
X147789278Y-84885923D01*
X147573036Y-84827982D01*
X147573026Y-84827980D01*
X147350001Y-84808468D01*
X147349999Y-84808468D01*
X147126973Y-84827980D01*
X147126963Y-84827982D01*
X146910721Y-84885923D01*
X146910712Y-84885927D01*
X146707808Y-84980542D01*
X146707806Y-84980543D01*
X146524409Y-85108958D01*
X146366103Y-85267264D01*
X146237688Y-85450661D01*
X146237687Y-85450663D01*
X146143072Y-85653567D01*
X146143068Y-85653576D01*
X146085127Y-85869818D01*
X146085125Y-85869828D01*
X146065613Y-86092854D01*
X146065613Y-86092855D01*
X134582931Y-86092855D01*
X134571542Y-85962682D01*
X134513597Y-85746427D01*
X134418980Y-85543520D01*
X134290566Y-85360125D01*
X134132256Y-85201815D01*
X134132252Y-85201812D01*
X134132251Y-85201811D01*
X133948866Y-85073403D01*
X133948858Y-85073399D01*
X133745960Y-84978786D01*
X133745946Y-84978781D01*
X133529704Y-84920840D01*
X133529694Y-84920838D01*
X133306669Y-84901326D01*
X133306667Y-84901326D01*
X133083641Y-84920838D01*
X133083631Y-84920840D01*
X132867389Y-84978781D01*
X132867380Y-84978785D01*
X132664476Y-85073400D01*
X132664474Y-85073401D01*
X132481077Y-85201816D01*
X132322771Y-85360122D01*
X132194356Y-85543519D01*
X132194355Y-85543521D01*
X132099740Y-85746425D01*
X132099736Y-85746434D01*
X132041795Y-85962676D01*
X132041793Y-85962686D01*
X132022281Y-86185712D01*
X132022281Y-86185713D01*
X120663887Y-86185713D01*
X120664387Y-86180000D01*
X120644874Y-85956969D01*
X120586929Y-85740714D01*
X120492312Y-85537807D01*
X120367899Y-85360126D01*
X120363899Y-85354413D01*
X120363895Y-85354409D01*
X120205588Y-85196102D01*
X120205584Y-85196099D01*
X120205583Y-85196098D01*
X120022198Y-85067690D01*
X120022190Y-85067686D01*
X119819292Y-84973073D01*
X119819278Y-84973068D01*
X119603036Y-84915127D01*
X119603026Y-84915125D01*
X119380001Y-84895613D01*
X119379999Y-84895613D01*
X119156973Y-84915125D01*
X119156963Y-84915127D01*
X118940721Y-84973068D01*
X118940712Y-84973072D01*
X118737808Y-85067687D01*
X118737806Y-85067688D01*
X118554409Y-85196103D01*
X118396103Y-85354409D01*
X118267688Y-85537806D01*
X118267687Y-85537808D01*
X118173072Y-85740712D01*
X118173068Y-85740721D01*
X118115127Y-85956963D01*
X118115125Y-85956973D01*
X118095613Y-86179999D01*
X118095613Y-86180000D01*
X101240000Y-86180000D01*
X101240000Y-72412858D01*
X118088944Y-72412858D01*
X118108456Y-72635884D01*
X118108458Y-72635894D01*
X118166399Y-72852136D01*
X118166404Y-72852150D01*
X118261017Y-73055048D01*
X118261021Y-73055056D01*
X118313155Y-73129510D01*
X118389433Y-73238446D01*
X118547743Y-73396756D01*
X118639440Y-73460962D01*
X118731132Y-73525167D01*
X118731134Y-73525168D01*
X118731137Y-73525170D01*
X118824707Y-73568802D01*
X118934038Y-73619784D01*
X118934040Y-73619784D01*
X118934045Y-73619787D01*
X119150300Y-73677732D01*
X119328724Y-73693342D01*
X119373330Y-73697245D01*
X119373331Y-73697245D01*
X119373332Y-73697245D01*
X119410502Y-73693992D01*
X119596362Y-73677732D01*
X119812617Y-73619787D01*
X120015525Y-73525170D01*
X120198919Y-73396756D01*
X120357229Y-73238446D01*
X120485643Y-73055052D01*
X120580260Y-72852144D01*
X120638205Y-72635889D01*
X120657093Y-72420000D01*
X132015613Y-72420000D01*
X132035125Y-72643026D01*
X132035127Y-72643036D01*
X132093068Y-72859278D01*
X132093073Y-72859292D01*
X132187686Y-73062190D01*
X132187690Y-73062198D01*
X132234823Y-73129510D01*
X132316102Y-73245588D01*
X132474412Y-73403898D01*
X132492040Y-73416241D01*
X132657801Y-73532309D01*
X132657803Y-73532310D01*
X132657806Y-73532312D01*
X132736060Y-73568802D01*
X132860707Y-73626926D01*
X132860709Y-73626926D01*
X132860714Y-73626929D01*
X133076969Y-73684874D01*
X133255393Y-73700484D01*
X133299999Y-73704387D01*
X133300000Y-73704387D01*
X133300001Y-73704387D01*
X133337171Y-73701134D01*
X133523031Y-73684874D01*
X133739286Y-73626929D01*
X133942194Y-73532312D01*
X134125588Y-73403898D01*
X134283898Y-73245588D01*
X134412312Y-73062194D01*
X134506929Y-72859286D01*
X134564874Y-72643031D01*
X134584387Y-72420000D01*
X134574232Y-72303928D01*
X146058945Y-72303928D01*
X146078457Y-72526954D01*
X146078459Y-72526964D01*
X146136400Y-72743206D01*
X146136405Y-72743220D01*
X146231018Y-72946118D01*
X146231022Y-72946126D01*
X146312297Y-73062198D01*
X146359434Y-73129516D01*
X146517744Y-73287826D01*
X146609441Y-73352033D01*
X146701133Y-73416237D01*
X146701135Y-73416238D01*
X146701138Y-73416240D01*
X146823211Y-73473163D01*
X146904039Y-73510854D01*
X146904041Y-73510854D01*
X146904046Y-73510857D01*
X147120301Y-73568802D01*
X147298725Y-73584412D01*
X147343331Y-73588315D01*
X147343332Y-73588315D01*
X147343333Y-73588315D01*
X147380503Y-73585062D01*
X147566363Y-73568802D01*
X147782618Y-73510857D01*
X147985526Y-73416240D01*
X148168920Y-73287826D01*
X148327230Y-73129516D01*
X148455644Y-72946122D01*
X148550261Y-72743214D01*
X148608206Y-72526959D01*
X148627719Y-72303928D01*
X159748944Y-72303928D01*
X159768456Y-72526954D01*
X159768458Y-72526964D01*
X159826399Y-72743206D01*
X159826404Y-72743220D01*
X159921017Y-72946118D01*
X159921021Y-72946126D01*
X160002296Y-73062198D01*
X160049433Y-73129516D01*
X160207743Y-73287826D01*
X160299440Y-73352032D01*
X160391132Y-73416237D01*
X160391134Y-73416238D01*
X160391137Y-73416240D01*
X160513210Y-73473163D01*
X160594038Y-73510854D01*
X160594040Y-73510854D01*
X160594045Y-73510857D01*
X160810300Y-73568802D01*
X160988724Y-73584412D01*
X161033330Y-73588315D01*
X161033331Y-73588315D01*
X161033332Y-73588315D01*
X161070502Y-73585062D01*
X161256362Y-73568802D01*
X161472617Y-73510857D01*
X161675525Y-73416240D01*
X161858919Y-73287826D01*
X162017229Y-73129516D01*
X162145643Y-72946122D01*
X162240260Y-72743214D01*
X162298205Y-72526959D01*
X162317718Y-72303928D01*
X162298205Y-72080897D01*
X162240260Y-71864642D01*
X162145643Y-71661735D01*
X162017229Y-71478340D01*
X161858919Y-71320030D01*
X161858915Y-71320027D01*
X161858914Y-71320026D01*
X161675529Y-71191618D01*
X161675521Y-71191614D01*
X161472623Y-71097001D01*
X161472609Y-71096996D01*
X161256367Y-71039055D01*
X161256357Y-71039053D01*
X161033332Y-71019541D01*
X161033330Y-71019541D01*
X160810304Y-71039053D01*
X160810294Y-71039055D01*
X160594052Y-71096996D01*
X160594043Y-71097000D01*
X160391139Y-71191615D01*
X160391137Y-71191616D01*
X160207740Y-71320031D01*
X160049434Y-71478337D01*
X159921019Y-71661734D01*
X159921018Y-71661736D01*
X159826403Y-71864640D01*
X159826399Y-71864649D01*
X159768458Y-72080891D01*
X159768456Y-72080901D01*
X159748944Y-72303927D01*
X159748944Y-72303928D01*
X148627719Y-72303928D01*
X148608206Y-72080897D01*
X148550261Y-71864642D01*
X148455644Y-71661735D01*
X148327230Y-71478340D01*
X148168920Y-71320030D01*
X148168916Y-71320027D01*
X148168915Y-71320026D01*
X147985530Y-71191618D01*
X147985522Y-71191614D01*
X147782624Y-71097001D01*
X147782610Y-71096996D01*
X147566368Y-71039055D01*
X147566358Y-71039053D01*
X147343333Y-71019541D01*
X147343331Y-71019541D01*
X147120305Y-71039053D01*
X147120295Y-71039055D01*
X146904053Y-71096996D01*
X146904044Y-71097000D01*
X146701140Y-71191615D01*
X146701138Y-71191616D01*
X146517741Y-71320031D01*
X146359435Y-71478337D01*
X146231020Y-71661734D01*
X146231019Y-71661736D01*
X146136404Y-71864640D01*
X146136400Y-71864649D01*
X146078459Y-72080891D01*
X146078457Y-72080901D01*
X146058945Y-72303927D01*
X146058945Y-72303928D01*
X134574232Y-72303928D01*
X134564874Y-72196969D01*
X134506929Y-71980714D01*
X134412312Y-71777807D01*
X134283898Y-71594412D01*
X134125588Y-71436102D01*
X134125584Y-71436099D01*
X134125583Y-71436098D01*
X133942198Y-71307690D01*
X133942190Y-71307686D01*
X133739292Y-71213073D01*
X133739278Y-71213068D01*
X133523036Y-71155127D01*
X133523026Y-71155125D01*
X133300001Y-71135613D01*
X133299999Y-71135613D01*
X133076973Y-71155125D01*
X133076963Y-71155127D01*
X132860721Y-71213068D01*
X132860712Y-71213072D01*
X132657808Y-71307687D01*
X132657806Y-71307688D01*
X132474409Y-71436103D01*
X132316103Y-71594409D01*
X132187688Y-71777806D01*
X132187687Y-71777808D01*
X132093072Y-71980712D01*
X132093068Y-71980721D01*
X132035127Y-72196963D01*
X132035125Y-72196973D01*
X132015613Y-72419999D01*
X132015613Y-72420000D01*
X120657093Y-72420000D01*
X120657718Y-72412858D01*
X120638205Y-72189827D01*
X120580260Y-71973572D01*
X120485643Y-71770665D01*
X120357229Y-71587270D01*
X120198919Y-71428960D01*
X120198915Y-71428957D01*
X120198914Y-71428956D01*
X120015529Y-71300548D01*
X120015521Y-71300544D01*
X119812623Y-71205931D01*
X119812609Y-71205926D01*
X119596367Y-71147985D01*
X119596357Y-71147983D01*
X119373332Y-71128471D01*
X119373330Y-71128471D01*
X119150304Y-71147983D01*
X119150294Y-71147985D01*
X118934052Y-71205926D01*
X118934043Y-71205930D01*
X118731139Y-71300545D01*
X118731137Y-71300546D01*
X118547740Y-71428961D01*
X118389434Y-71587267D01*
X118261019Y-71770664D01*
X118261018Y-71770666D01*
X118166403Y-71973570D01*
X118166399Y-71973579D01*
X118108458Y-72189821D01*
X118108456Y-72189831D01*
X118088944Y-72412857D01*
X118088944Y-72412858D01*
X101240000Y-72412858D01*
X101240000Y-62275002D01*
X195154340Y-62275002D01*
X195174914Y-62457611D01*
X195221041Y-62589432D01*
X195235611Y-62631071D01*
X195333382Y-62786673D01*
X195463327Y-62916618D01*
X195618929Y-63014389D01*
X195792386Y-63075084D01*
X195792389Y-63075084D01*
X195792391Y-63075085D01*
X195860795Y-63082792D01*
X195929199Y-63090499D01*
X195929200Y-63090500D01*
X195929204Y-63090500D01*
X196020800Y-63090500D01*
X196020800Y-63090499D01*
X196106856Y-63080803D01*
X196157608Y-63075085D01*
X196157609Y-63075084D01*
X196157614Y-63075084D01*
X196331071Y-63014389D01*
X196486673Y-62916618D01*
X196616618Y-62786673D01*
X196714389Y-62631071D01*
X196775084Y-62457614D01*
X196775084Y-62457613D01*
X196775085Y-62457611D01*
X196795660Y-62275002D01*
X196795660Y-62274997D01*
X196775085Y-62092388D01*
X196760514Y-62050747D01*
X196714389Y-61918929D01*
X196616618Y-61763327D01*
X196486673Y-61633382D01*
X196486673Y-61633381D01*
X196331072Y-61535611D01*
X196157608Y-61474914D01*
X196020800Y-61459500D01*
X196020796Y-61459500D01*
X195929204Y-61459500D01*
X195929200Y-61459500D01*
X195792391Y-61474914D01*
X195618927Y-61535611D01*
X195463326Y-61633382D01*
X195333382Y-61763326D01*
X195235612Y-61918926D01*
X195174914Y-62092388D01*
X195154340Y-62274997D01*
X195154340Y-62275002D01*
X101240000Y-62275002D01*
X101240000Y-58561429D01*
X117988944Y-58561429D01*
X118008456Y-58784455D01*
X118008458Y-58784465D01*
X118066399Y-59000707D01*
X118066404Y-59000721D01*
X118161017Y-59203619D01*
X118161021Y-59203627D01*
X118263640Y-59350181D01*
X118289433Y-59387017D01*
X118447743Y-59545327D01*
X118539440Y-59609533D01*
X118631132Y-59673738D01*
X118631134Y-59673739D01*
X118631137Y-59673741D01*
X118753210Y-59730664D01*
X118834038Y-59768355D01*
X118834040Y-59768355D01*
X118834045Y-59768358D01*
X118834050Y-59768359D01*
X118834052Y-59768360D01*
X118866040Y-59776931D01*
X119050300Y-59826303D01*
X119228724Y-59841913D01*
X119273330Y-59845816D01*
X119273331Y-59845816D01*
X119273332Y-59845816D01*
X119310502Y-59842563D01*
X119496362Y-59826303D01*
X119712617Y-59768358D01*
X119915525Y-59673741D01*
X120098919Y-59545327D01*
X120257229Y-59387017D01*
X120385643Y-59203623D01*
X120480260Y-59000715D01*
X120538205Y-58784460D01*
X120556968Y-58570000D01*
X131915613Y-58570000D01*
X131935125Y-58793026D01*
X131935127Y-58793036D01*
X131993068Y-59009278D01*
X131993073Y-59009292D01*
X132087686Y-59212190D01*
X132087690Y-59212198D01*
X132118573Y-59256303D01*
X132216102Y-59395588D01*
X132374412Y-59553898D01*
X132466108Y-59618105D01*
X132557801Y-59682309D01*
X132557803Y-59682310D01*
X132557806Y-59682312D01*
X132586277Y-59695588D01*
X132760707Y-59776926D01*
X132760709Y-59776926D01*
X132760714Y-59776929D01*
X132976969Y-59834874D01*
X133155393Y-59850484D01*
X133199999Y-59854387D01*
X133200000Y-59854387D01*
X133200001Y-59854387D01*
X133237171Y-59851134D01*
X133423031Y-59834874D01*
X133639286Y-59776929D01*
X133842194Y-59682312D01*
X134025588Y-59553898D01*
X134183898Y-59395588D01*
X134312312Y-59212194D01*
X134406929Y-59009286D01*
X134464874Y-58793031D01*
X134484387Y-58570000D01*
X134472201Y-58430714D01*
X145958944Y-58430714D01*
X145978456Y-58653740D01*
X145978458Y-58653750D01*
X146036399Y-58869992D01*
X146036404Y-58870006D01*
X146131017Y-59072904D01*
X146131021Y-59072912D01*
X146228545Y-59212190D01*
X146259433Y-59256302D01*
X146417743Y-59414612D01*
X146509440Y-59478818D01*
X146601132Y-59543023D01*
X146601134Y-59543024D01*
X146601137Y-59543026D01*
X146624459Y-59553901D01*
X146804038Y-59637640D01*
X146804040Y-59637640D01*
X146804045Y-59637643D01*
X147020300Y-59695588D01*
X147198724Y-59711198D01*
X147243330Y-59715101D01*
X147243331Y-59715101D01*
X147243332Y-59715101D01*
X147280502Y-59711848D01*
X147466362Y-59695588D01*
X147682617Y-59637643D01*
X147885525Y-59543026D01*
X148068919Y-59414612D01*
X148227229Y-59256302D01*
X148355643Y-59072908D01*
X148450260Y-58870000D01*
X148508205Y-58653745D01*
X148527718Y-58430714D01*
X159648944Y-58430714D01*
X159668456Y-58653740D01*
X159668458Y-58653750D01*
X159726399Y-58869992D01*
X159726404Y-58870006D01*
X159821017Y-59072904D01*
X159821021Y-59072912D01*
X159918545Y-59212190D01*
X159949433Y-59256302D01*
X160107743Y-59414612D01*
X160199440Y-59478819D01*
X160291132Y-59543023D01*
X160291134Y-59543024D01*
X160291137Y-59543026D01*
X160314459Y-59553901D01*
X160494038Y-59637640D01*
X160494040Y-59637640D01*
X160494045Y-59637643D01*
X160710300Y-59695588D01*
X160888724Y-59711198D01*
X160933330Y-59715101D01*
X160933331Y-59715101D01*
X160933332Y-59715101D01*
X160970502Y-59711848D01*
X161156362Y-59695588D01*
X161372617Y-59637643D01*
X161575525Y-59543026D01*
X161758919Y-59414612D01*
X161917229Y-59256302D01*
X162045643Y-59072908D01*
X162140260Y-58870000D01*
X162198205Y-58653745D01*
X162217718Y-58430714D01*
X162198205Y-58207683D01*
X162140260Y-57991428D01*
X162045643Y-57788521D01*
X161917229Y-57605126D01*
X161758919Y-57446816D01*
X161758915Y-57446813D01*
X161758914Y-57446812D01*
X161575529Y-57318404D01*
X161575521Y-57318400D01*
X161372623Y-57223787D01*
X161372609Y-57223782D01*
X161156367Y-57165841D01*
X161156357Y-57165839D01*
X160933332Y-57146327D01*
X160933330Y-57146327D01*
X160710304Y-57165839D01*
X160710294Y-57165841D01*
X160494052Y-57223782D01*
X160494043Y-57223786D01*
X160291139Y-57318401D01*
X160291137Y-57318402D01*
X160107740Y-57446817D01*
X159949434Y-57605123D01*
X159821019Y-57788520D01*
X159821018Y-57788522D01*
X159726403Y-57991426D01*
X159726399Y-57991435D01*
X159668458Y-58207677D01*
X159668456Y-58207687D01*
X159648944Y-58430713D01*
X159648944Y-58430714D01*
X148527718Y-58430714D01*
X148508205Y-58207683D01*
X148450260Y-57991428D01*
X148355643Y-57788521D01*
X148227229Y-57605126D01*
X148068919Y-57446816D01*
X148068915Y-57446813D01*
X148068914Y-57446812D01*
X147885529Y-57318404D01*
X147885521Y-57318400D01*
X147682623Y-57223787D01*
X147682609Y-57223782D01*
X147466367Y-57165841D01*
X147466357Y-57165839D01*
X147243332Y-57146327D01*
X147243330Y-57146327D01*
X147020304Y-57165839D01*
X147020294Y-57165841D01*
X146804052Y-57223782D01*
X146804043Y-57223786D01*
X146601139Y-57318401D01*
X146601137Y-57318402D01*
X146417740Y-57446817D01*
X146259434Y-57605123D01*
X146131019Y-57788520D01*
X146131018Y-57788522D01*
X146036403Y-57991426D01*
X146036399Y-57991435D01*
X145978458Y-58207677D01*
X145978456Y-58207687D01*
X145958944Y-58430713D01*
X145958944Y-58430714D01*
X134472201Y-58430714D01*
X134464874Y-58346969D01*
X134406929Y-58130714D01*
X134312312Y-57927807D01*
X134183898Y-57744412D01*
X134025588Y-57586102D01*
X134025584Y-57586099D01*
X134025583Y-57586098D01*
X133842198Y-57457690D01*
X133842190Y-57457686D01*
X133639292Y-57363073D01*
X133639278Y-57363068D01*
X133423036Y-57305127D01*
X133423026Y-57305125D01*
X133200001Y-57285613D01*
X133199999Y-57285613D01*
X132976973Y-57305125D01*
X132976963Y-57305127D01*
X132760721Y-57363068D01*
X132760712Y-57363072D01*
X132557808Y-57457687D01*
X132557806Y-57457688D01*
X132374409Y-57586103D01*
X132216103Y-57744409D01*
X132087688Y-57927806D01*
X132087687Y-57927808D01*
X131993072Y-58130712D01*
X131993068Y-58130721D01*
X131935127Y-58346963D01*
X131935125Y-58346973D01*
X131915613Y-58569999D01*
X131915613Y-58570000D01*
X120556968Y-58570000D01*
X120557718Y-58561429D01*
X120538205Y-58338398D01*
X120494208Y-58174200D01*
X120480262Y-58122150D01*
X120480261Y-58122149D01*
X120480260Y-58122143D01*
X120385643Y-57919236D01*
X120321435Y-57827538D01*
X120257230Y-57735842D01*
X120257226Y-57735838D01*
X120098919Y-57577531D01*
X120098915Y-57577528D01*
X120098914Y-57577527D01*
X119915529Y-57449119D01*
X119915521Y-57449115D01*
X119712623Y-57354502D01*
X119712609Y-57354497D01*
X119496367Y-57296556D01*
X119496357Y-57296554D01*
X119273332Y-57277042D01*
X119273330Y-57277042D01*
X119050304Y-57296554D01*
X119050294Y-57296556D01*
X118834052Y-57354497D01*
X118834043Y-57354501D01*
X118631139Y-57449116D01*
X118631137Y-57449117D01*
X118447740Y-57577532D01*
X118289434Y-57735838D01*
X118161019Y-57919235D01*
X118161018Y-57919237D01*
X118066403Y-58122141D01*
X118066399Y-58122150D01*
X118008458Y-58338392D01*
X118008456Y-58338402D01*
X117988944Y-58561428D01*
X117988944Y-58561429D01*
X101240000Y-58561429D01*
X101240000Y-42157329D01*
X105524500Y-42157329D01*
X105563932Y-42469463D01*
X105563934Y-42469476D01*
X105642180Y-42774225D01*
X105642181Y-42774228D01*
X105758001Y-43066757D01*
X105758002Y-43066758D01*
X105758004Y-43066763D01*
X105758006Y-43066766D01*
X105909584Y-43342484D01*
X105909586Y-43342488D01*
X105909591Y-43342495D01*
X106094515Y-43597021D01*
X106094523Y-43597031D01*
X106309907Y-43826391D01*
X106309909Y-43826393D01*
X106552334Y-44026945D01*
X106552338Y-44026948D01*
X106587547Y-44049292D01*
X106817993Y-44195537D01*
X106917136Y-44242190D01*
X107102678Y-44329500D01*
X107102682Y-44329501D01*
X107102685Y-44329503D01*
X107401921Y-44426731D01*
X107710985Y-44485688D01*
X107710990Y-44485688D01*
X107710995Y-44485689D01*
X107946411Y-44500500D01*
X107946417Y-44500500D01*
X108103589Y-44500500D01*
X108339004Y-44485689D01*
X108339007Y-44485688D01*
X108339015Y-44485688D01*
X108648079Y-44426731D01*
X108947315Y-44329503D01*
X109232007Y-44195537D01*
X109497663Y-44026947D01*
X109740094Y-43826390D01*
X109952689Y-43600000D01*
X145268946Y-43600000D01*
X145288458Y-43823026D01*
X145288460Y-43823036D01*
X145346401Y-44039278D01*
X145346406Y-44039292D01*
X145441019Y-44242190D01*
X145441023Y-44242198D01*
X145502155Y-44329503D01*
X145569435Y-44425588D01*
X145727745Y-44583898D01*
X145742031Y-44593901D01*
X145911134Y-44712309D01*
X145911136Y-44712310D01*
X145911139Y-44712312D01*
X146033212Y-44769235D01*
X146114040Y-44806926D01*
X146114042Y-44806926D01*
X146114047Y-44806929D01*
X146114052Y-44806930D01*
X146114054Y-44806931D01*
X146151368Y-44816929D01*
X146330302Y-44864874D01*
X146508726Y-44880484D01*
X146553332Y-44884387D01*
X146553333Y-44884387D01*
X146553334Y-44884387D01*
X146590504Y-44881134D01*
X146776364Y-44864874D01*
X146992619Y-44806929D01*
X147195527Y-44712312D01*
X147378921Y-44583898D01*
X147537231Y-44425588D01*
X147665645Y-44242194D01*
X147760262Y-44039286D01*
X147818207Y-43823031D01*
X147836845Y-43610000D01*
X159195613Y-43610000D01*
X159215125Y-43833026D01*
X159215127Y-43833036D01*
X159273068Y-44049278D01*
X159273073Y-44049292D01*
X159367686Y-44252190D01*
X159367690Y-44252198D01*
X159421820Y-44329503D01*
X159496102Y-44435588D01*
X159654412Y-44593898D01*
X159746108Y-44658105D01*
X159837801Y-44722309D01*
X159837803Y-44722310D01*
X159837806Y-44722312D01*
X159959879Y-44779235D01*
X160040707Y-44816926D01*
X160040709Y-44816926D01*
X160040714Y-44816929D01*
X160256969Y-44874874D01*
X160435393Y-44890484D01*
X160479999Y-44894387D01*
X160480000Y-44894387D01*
X160480001Y-44894387D01*
X160517171Y-44891134D01*
X160703031Y-44874874D01*
X160919286Y-44816929D01*
X161122194Y-44722312D01*
X161305588Y-44593898D01*
X161463898Y-44435588D01*
X161592312Y-44252194D01*
X161686929Y-44049286D01*
X161744874Y-43833031D01*
X161764387Y-43610000D01*
X161763251Y-43597021D01*
X161744874Y-43386973D01*
X161744874Y-43386969D01*
X161686929Y-43170714D01*
X161592312Y-42967807D01*
X161463898Y-42784412D01*
X161305588Y-42626102D01*
X161305584Y-42626099D01*
X161305583Y-42626098D01*
X161122198Y-42497690D01*
X161122190Y-42497686D01*
X160919292Y-42403073D01*
X160919278Y-42403068D01*
X160703036Y-42345127D01*
X160703026Y-42345125D01*
X160480001Y-42325613D01*
X160479999Y-42325613D01*
X160256973Y-42345125D01*
X160256963Y-42345127D01*
X160040721Y-42403068D01*
X160040712Y-42403072D01*
X159837808Y-42497687D01*
X159837806Y-42497688D01*
X159654409Y-42626103D01*
X159496103Y-42784409D01*
X159367688Y-42967806D01*
X159367687Y-42967808D01*
X159273072Y-43170712D01*
X159273068Y-43170721D01*
X159215127Y-43386963D01*
X159215125Y-43386973D01*
X159195613Y-43609999D01*
X159195613Y-43610000D01*
X147836845Y-43610000D01*
X147837720Y-43600000D01*
X147818207Y-43376969D01*
X147762943Y-43170721D01*
X147760264Y-43160721D01*
X147760263Y-43160720D01*
X147760262Y-43160714D01*
X147665645Y-42957807D01*
X147537231Y-42774412D01*
X147378921Y-42616102D01*
X147378917Y-42616099D01*
X147378916Y-42616098D01*
X147195531Y-42487690D01*
X147195523Y-42487686D01*
X146992625Y-42393073D01*
X146992611Y-42393068D01*
X146776369Y-42335127D01*
X146776359Y-42335125D01*
X146553334Y-42315613D01*
X146553332Y-42315613D01*
X146330306Y-42335125D01*
X146330296Y-42335127D01*
X146114054Y-42393068D01*
X146114045Y-42393072D01*
X145911141Y-42487687D01*
X145911139Y-42487688D01*
X145727742Y-42616103D01*
X145569436Y-42774409D01*
X145441021Y-42957806D01*
X145441020Y-42957808D01*
X145346405Y-43160712D01*
X145346401Y-43160721D01*
X145288460Y-43376963D01*
X145288458Y-43376973D01*
X145268946Y-43599999D01*
X145268946Y-43600000D01*
X109952689Y-43600000D01*
X109955478Y-43597030D01*
X110140416Y-43342484D01*
X110291994Y-43066766D01*
X110331175Y-42967808D01*
X110407818Y-42774228D01*
X110407819Y-42774225D01*
X110445850Y-42626103D01*
X110486066Y-42469473D01*
X110525500Y-42157318D01*
X110525500Y-41842682D01*
X110525499Y-41842680D01*
X110525499Y-41842670D01*
X110486067Y-41530536D01*
X110486065Y-41530523D01*
X110407819Y-41225774D01*
X110407818Y-41225771D01*
X110291998Y-40933242D01*
X110291997Y-40933241D01*
X110291996Y-40933239D01*
X110291994Y-40933234D01*
X110140416Y-40657516D01*
X110140410Y-40657509D01*
X110140408Y-40657504D01*
X109955484Y-40402978D01*
X109955476Y-40402968D01*
X109740092Y-40173608D01*
X109740090Y-40173606D01*
X109497665Y-39973054D01*
X109497661Y-39973051D01*
X109232009Y-39804464D01*
X109232003Y-39804461D01*
X108947321Y-39670499D01*
X108947316Y-39670497D01*
X108648083Y-39573270D01*
X108648080Y-39573269D01*
X108648079Y-39573269D01*
X108493547Y-39543790D01*
X108339011Y-39514311D01*
X108339004Y-39514310D01*
X108103589Y-39499500D01*
X108103583Y-39499500D01*
X107946417Y-39499500D01*
X107946411Y-39499500D01*
X107710995Y-39514310D01*
X107710988Y-39514311D01*
X107401916Y-39573270D01*
X107102683Y-39670497D01*
X107102678Y-39670499D01*
X106817996Y-39804461D01*
X106817990Y-39804464D01*
X106552338Y-39973051D01*
X106552334Y-39973054D01*
X106309909Y-40173606D01*
X106309907Y-40173608D01*
X106094523Y-40402968D01*
X106094515Y-40402978D01*
X105909591Y-40657504D01*
X105909584Y-40657516D01*
X105758002Y-40933241D01*
X105758001Y-40933242D01*
X105642181Y-41225771D01*
X105642180Y-41225774D01*
X105563934Y-41530523D01*
X105563932Y-41530536D01*
X105524500Y-41842670D01*
X105524500Y-42157329D01*
X101240000Y-42157329D01*
X101240000Y-35474819D01*
X101242382Y-35450630D01*
X101244855Y-35438196D01*
X101263370Y-35393496D01*
X101270052Y-35383496D01*
X101270413Y-35382954D01*
X101285828Y-35364171D01*
X101664171Y-34985828D01*
X101682954Y-34970413D01*
X101693496Y-34963369D01*
X101738196Y-34944855D01*
X101750630Y-34942382D01*
X101774819Y-34940000D01*
X207375181Y-34940000D01*
X207399371Y-34942382D01*
G37*
%TD.AperFunction*%
%TD*%
M02*
