M48
; DRILL file {KiCad 7.0.7} date 2023 September 15, Friday 15:36:39
; FORMAT={-:-/ absolute / inch / decimal}
; #@! TF.CreationDate,2023-09-15T15:36:39-07:00
; #@! TF.GenerationSoftware,Kicad,Pcbnew,7.0.7
; #@! TF.FileFunction,Plated,1,4,PTH
FMAT,2
INCH
; #@! TA.AperFunction,Plated,PTH,ViaDrill
T1C0.0120
; #@! TA.AperFunction,Plated,PTH,ComponentDrill
T2C0.0591
; #@! TA.AperFunction,Plated,PTH,ComponentDrill
T3C0.0669
%
G90
G05
T1
X7.7358Y-2.5335
X7.7358Y-2.6171
X7.7358Y-2.7008
X7.7358Y-2.7844
X7.7358Y-2.868
X7.7358Y-2.9517
X7.7358Y-3.0353
X7.7358Y-3.119
X7.7358Y-3.2026
X7.7358Y-3.2863
X7.7358Y-3.3699
X7.7358Y-3.4535
X7.7358Y-3.5372
X7.7358Y-3.6208
X7.7358Y-3.7045
X7.7358Y-3.7881
X7.7358Y-3.8718
X7.7358Y-3.9554
X7.7358Y-4.039
X7.7358Y-4.1227
X7.7358Y-4.2063
X7.7358Y-4.29
X7.7358Y-4.3736
X7.7358Y-4.4573
X7.7358Y-4.5409
X7.7358Y-4.6246
X7.7358Y-4.7082
X7.7358Y-4.7918
X7.7358Y-4.8755
X7.7358Y-4.9591
X7.7358Y-5.0428
X7.7358Y-5.1264
X7.7358Y-5.2101
X7.7358Y-5.2937
T2
X4.6958Y-2.3056
X4.6997Y-2.8509
X4.7Y-3.3929
X4.7043Y-3.9194
X4.7043Y-4.4657
X4.7043Y-5.0121
X4.7043Y-5.5585
X5.2433Y-3.9194
X5.2433Y-4.4657
X5.2433Y-5.0121
X5.2433Y-5.5585
X5.2441Y-2.3059
X5.248Y-2.8512
X5.2483Y-3.3931
X5.7698Y-1.7165
X5.7962Y-3.9166
X5.7962Y-4.4639
X5.7962Y-5.0112
X5.7962Y-5.5585
X5.797Y-2.3004
X5.8009Y-2.8466
X5.8012Y-3.3895
X6.3181Y-1.7169
X6.336Y-2.3004
X6.3399Y-2.8466
X6.3402Y-3.3895
X6.3445Y-3.9168
X6.3445Y-4.464
X6.3445Y-5.0112
X6.3445Y-5.5585
T3
X4.5958Y-2.2056
X4.5958Y-2.4056
X4.5997Y-2.7509
X4.5997Y-2.9509
X4.6Y-3.2929
X4.6Y-3.4929
X4.6043Y-3.8194
X4.6043Y-4.0194
X4.6043Y-4.3657
X4.6043Y-4.5657
X4.6043Y-4.9121
X4.6043Y-5.1121
X4.6043Y-5.4585
X4.6043Y-5.6585
X4.7958Y-2.2056
X4.7958Y-2.4056
X4.7997Y-2.7509
X4.7997Y-2.9509
X4.8Y-3.2929
X4.8Y-3.4929
X4.8043Y-3.8194
X4.8043Y-4.0194
X4.8043Y-4.3657
X4.8043Y-4.5657
X4.8043Y-4.9121
X4.8043Y-5.1121
X4.8043Y-5.4585
X4.8043Y-5.6585
X5.1433Y-3.8194
X5.1433Y-4.0194
X5.1433Y-4.3657
X5.1433Y-4.5657
X5.1433Y-4.9121
X5.1433Y-5.1121
X5.1433Y-5.4585
X5.1433Y-5.6585
X5.1441Y-2.2059
X5.1441Y-2.4059
X5.148Y-2.7512
X5.148Y-2.9512
X5.1483Y-3.2931
X5.1483Y-3.4931
X5.3433Y-3.8194
X5.3433Y-4.0194
X5.3433Y-4.3657
X5.3433Y-4.5657
X5.3433Y-4.9121
X5.3433Y-5.1121
X5.3433Y-5.4585
X5.3433Y-5.6585
X5.3441Y-2.2059
X5.3441Y-2.4059
X5.348Y-2.7512
X5.348Y-2.9512
X5.3483Y-3.2931
X5.3483Y-3.4931
X5.6698Y-1.6165
X5.6698Y-1.8165
X5.6962Y-3.8166
X5.6962Y-4.0166
X5.6962Y-4.3639
X5.6962Y-4.5639
X5.6962Y-4.9112
X5.6962Y-5.1112
X5.6962Y-5.4585
X5.6962Y-5.6585
X5.697Y-2.2004
X5.697Y-2.4004
X5.7009Y-2.7466
X5.7009Y-2.9466
X5.7012Y-3.2895
X5.7012Y-3.4895
X5.8698Y-1.6165
X5.8698Y-1.8165
X5.8962Y-3.8166
X5.8962Y-4.0166
X5.8962Y-4.3639
X5.8962Y-4.5639
X5.8962Y-4.9112
X5.8962Y-5.1112
X5.8962Y-5.4585
X5.8962Y-5.6585
X5.897Y-2.2004
X5.897Y-2.4004
X5.9009Y-2.7466
X5.9009Y-2.9466
X5.9012Y-3.2895
X5.9012Y-3.4895
X6.2181Y-1.6169
X6.2181Y-1.8169
X6.236Y-2.2004
X6.236Y-2.4004
X6.2399Y-2.7466
X6.2399Y-2.9466
X6.2402Y-3.2895
X6.2402Y-3.4895
X6.2445Y-3.8168
X6.2445Y-4.0168
X6.2445Y-4.364
X6.2445Y-4.564
X6.2445Y-4.9112
X6.2445Y-5.1112
X6.2445Y-5.4585
X6.2445Y-5.6585
X6.4181Y-1.6169
X6.4181Y-1.8169
X6.436Y-2.2004
X6.436Y-2.4004
X6.4399Y-2.7466
X6.4399Y-2.9466
X6.4402Y-3.2895
X6.4402Y-3.4895
X6.4445Y-3.8168
X6.4445Y-4.0168
X6.4445Y-4.364
X6.4445Y-4.564
X6.4445Y-4.9112
X6.4445Y-5.1112
X6.4445Y-5.4585
X6.4445Y-5.6585
T0
M30
