%TF.GenerationSoftware,KiCad,Pcbnew,7.0.7*%
%TF.CreationDate,2023-09-15T15:36:36-07:00*%
%TF.ProjectId,30sma-adapter,3330736d-612d-4616-9461-707465722e6b,rev?*%
%TF.SameCoordinates,Original*%
%TF.FileFunction,Legend,Top*%
%TF.FilePolarity,Positive*%
%FSLAX46Y46*%
G04 Gerber Fmt 4.6, Leading zero omitted, Abs format (unit mm)*
G04 Created by KiCad (PCBNEW 7.0.7) date 2023-09-15 15:36:36*
%MOMM*%
%LPD*%
G01*
G04 APERTURE LIST*
%ADD10C,0.150000*%
%ADD11C,0.120000*%
G04 APERTURE END LIST*
D10*
X155854819Y-141994523D02*
X156569104Y-141994523D01*
X156569104Y-141994523D02*
X156711961Y-142042142D01*
X156711961Y-142042142D02*
X156807200Y-142137380D01*
X156807200Y-142137380D02*
X156854819Y-142280237D01*
X156854819Y-142280237D02*
X156854819Y-142375475D01*
X155854819Y-141613570D02*
X155854819Y-140994523D01*
X155854819Y-140994523D02*
X156235771Y-141327856D01*
X156235771Y-141327856D02*
X156235771Y-141184999D01*
X156235771Y-141184999D02*
X156283390Y-141089761D01*
X156283390Y-141089761D02*
X156331009Y-141042142D01*
X156331009Y-141042142D02*
X156426247Y-140994523D01*
X156426247Y-140994523D02*
X156664342Y-140994523D01*
X156664342Y-140994523D02*
X156759580Y-141042142D01*
X156759580Y-141042142D02*
X156807200Y-141089761D01*
X156807200Y-141089761D02*
X156854819Y-141184999D01*
X156854819Y-141184999D02*
X156854819Y-141470713D01*
X156854819Y-141470713D02*
X156807200Y-141565951D01*
X156807200Y-141565951D02*
X156759580Y-141613570D01*
X155854819Y-140375475D02*
X155854819Y-140280237D01*
X155854819Y-140280237D02*
X155902438Y-140184999D01*
X155902438Y-140184999D02*
X155950057Y-140137380D01*
X155950057Y-140137380D02*
X156045295Y-140089761D01*
X156045295Y-140089761D02*
X156235771Y-140042142D01*
X156235771Y-140042142D02*
X156473866Y-140042142D01*
X156473866Y-140042142D02*
X156664342Y-140089761D01*
X156664342Y-140089761D02*
X156759580Y-140137380D01*
X156759580Y-140137380D02*
X156807200Y-140184999D01*
X156807200Y-140184999D02*
X156854819Y-140280237D01*
X156854819Y-140280237D02*
X156854819Y-140375475D01*
X156854819Y-140375475D02*
X156807200Y-140470713D01*
X156807200Y-140470713D02*
X156759580Y-140518332D01*
X156759580Y-140518332D02*
X156664342Y-140565951D01*
X156664342Y-140565951D02*
X156473866Y-140613570D01*
X156473866Y-140613570D02*
X156235771Y-140613570D01*
X156235771Y-140613570D02*
X156045295Y-140565951D01*
X156045295Y-140565951D02*
X155950057Y-140518332D01*
X155950057Y-140518332D02*
X155902438Y-140470713D01*
X155902438Y-140470713D02*
X155854819Y-140375475D01*
X141928151Y-141994523D02*
X142642436Y-141994523D01*
X142642436Y-141994523D02*
X142785293Y-142042142D01*
X142785293Y-142042142D02*
X142880532Y-142137380D01*
X142880532Y-142137380D02*
X142928151Y-142280237D01*
X142928151Y-142280237D02*
X142928151Y-142375475D01*
X142023389Y-141565951D02*
X141975770Y-141518332D01*
X141975770Y-141518332D02*
X141928151Y-141423094D01*
X141928151Y-141423094D02*
X141928151Y-141184999D01*
X141928151Y-141184999D02*
X141975770Y-141089761D01*
X141975770Y-141089761D02*
X142023389Y-141042142D01*
X142023389Y-141042142D02*
X142118627Y-140994523D01*
X142118627Y-140994523D02*
X142213865Y-140994523D01*
X142213865Y-140994523D02*
X142356722Y-141042142D01*
X142356722Y-141042142D02*
X142928151Y-141613570D01*
X142928151Y-141613570D02*
X142928151Y-140994523D01*
X142928151Y-140518332D02*
X142928151Y-140327856D01*
X142928151Y-140327856D02*
X142880532Y-140232618D01*
X142880532Y-140232618D02*
X142832912Y-140184999D01*
X142832912Y-140184999D02*
X142690055Y-140089761D01*
X142690055Y-140089761D02*
X142499579Y-140042142D01*
X142499579Y-140042142D02*
X142118627Y-140042142D01*
X142118627Y-140042142D02*
X142023389Y-140089761D01*
X142023389Y-140089761D02*
X141975770Y-140137380D01*
X141975770Y-140137380D02*
X141928151Y-140232618D01*
X141928151Y-140232618D02*
X141928151Y-140423094D01*
X141928151Y-140423094D02*
X141975770Y-140518332D01*
X141975770Y-140518332D02*
X142023389Y-140565951D01*
X142023389Y-140565951D02*
X142118627Y-140613570D01*
X142118627Y-140613570D02*
X142356722Y-140613570D01*
X142356722Y-140613570D02*
X142451960Y-140565951D01*
X142451960Y-140565951D02*
X142499579Y-140518332D01*
X142499579Y-140518332D02*
X142547198Y-140423094D01*
X142547198Y-140423094D02*
X142547198Y-140232618D01*
X142547198Y-140232618D02*
X142499579Y-140137380D01*
X142499579Y-140137380D02*
X142451960Y-140089761D01*
X142451960Y-140089761D02*
X142356722Y-140042142D01*
X127884819Y-141994523D02*
X128599104Y-141994523D01*
X128599104Y-141994523D02*
X128741961Y-142042142D01*
X128741961Y-142042142D02*
X128837200Y-142137380D01*
X128837200Y-142137380D02*
X128884819Y-142280237D01*
X128884819Y-142280237D02*
X128884819Y-142375475D01*
X127980057Y-141565951D02*
X127932438Y-141518332D01*
X127932438Y-141518332D02*
X127884819Y-141423094D01*
X127884819Y-141423094D02*
X127884819Y-141184999D01*
X127884819Y-141184999D02*
X127932438Y-141089761D01*
X127932438Y-141089761D02*
X127980057Y-141042142D01*
X127980057Y-141042142D02*
X128075295Y-140994523D01*
X128075295Y-140994523D02*
X128170533Y-140994523D01*
X128170533Y-140994523D02*
X128313390Y-141042142D01*
X128313390Y-141042142D02*
X128884819Y-141613570D01*
X128884819Y-141613570D02*
X128884819Y-140994523D01*
X128313390Y-140423094D02*
X128265771Y-140518332D01*
X128265771Y-140518332D02*
X128218152Y-140565951D01*
X128218152Y-140565951D02*
X128122914Y-140613570D01*
X128122914Y-140613570D02*
X128075295Y-140613570D01*
X128075295Y-140613570D02*
X127980057Y-140565951D01*
X127980057Y-140565951D02*
X127932438Y-140518332D01*
X127932438Y-140518332D02*
X127884819Y-140423094D01*
X127884819Y-140423094D02*
X127884819Y-140232618D01*
X127884819Y-140232618D02*
X127932438Y-140137380D01*
X127932438Y-140137380D02*
X127980057Y-140089761D01*
X127980057Y-140089761D02*
X128075295Y-140042142D01*
X128075295Y-140042142D02*
X128122914Y-140042142D01*
X128122914Y-140042142D02*
X128218152Y-140089761D01*
X128218152Y-140089761D02*
X128265771Y-140137380D01*
X128265771Y-140137380D02*
X128313390Y-140232618D01*
X128313390Y-140232618D02*
X128313390Y-140423094D01*
X128313390Y-140423094D02*
X128361009Y-140518332D01*
X128361009Y-140518332D02*
X128408628Y-140565951D01*
X128408628Y-140565951D02*
X128503866Y-140613570D01*
X128503866Y-140613570D02*
X128694342Y-140613570D01*
X128694342Y-140613570D02*
X128789580Y-140565951D01*
X128789580Y-140565951D02*
X128837200Y-140518332D01*
X128837200Y-140518332D02*
X128884819Y-140423094D01*
X128884819Y-140423094D02*
X128884819Y-140232618D01*
X128884819Y-140232618D02*
X128837200Y-140137380D01*
X128837200Y-140137380D02*
X128789580Y-140089761D01*
X128789580Y-140089761D02*
X128694342Y-140042142D01*
X128694342Y-140042142D02*
X128503866Y-140042142D01*
X128503866Y-140042142D02*
X128408628Y-140089761D01*
X128408628Y-140089761D02*
X128361009Y-140137380D01*
X128361009Y-140137380D02*
X128313390Y-140232618D01*
X114194819Y-141994523D02*
X114909104Y-141994523D01*
X114909104Y-141994523D02*
X115051961Y-142042142D01*
X115051961Y-142042142D02*
X115147200Y-142137380D01*
X115147200Y-142137380D02*
X115194819Y-142280237D01*
X115194819Y-142280237D02*
X115194819Y-142375475D01*
X114290057Y-141565951D02*
X114242438Y-141518332D01*
X114242438Y-141518332D02*
X114194819Y-141423094D01*
X114194819Y-141423094D02*
X114194819Y-141184999D01*
X114194819Y-141184999D02*
X114242438Y-141089761D01*
X114242438Y-141089761D02*
X114290057Y-141042142D01*
X114290057Y-141042142D02*
X114385295Y-140994523D01*
X114385295Y-140994523D02*
X114480533Y-140994523D01*
X114480533Y-140994523D02*
X114623390Y-141042142D01*
X114623390Y-141042142D02*
X115194819Y-141613570D01*
X115194819Y-141613570D02*
X115194819Y-140994523D01*
X114194819Y-140661189D02*
X114194819Y-139994523D01*
X114194819Y-139994523D02*
X115194819Y-140423094D01*
X155854819Y-128095233D02*
X156569104Y-128095233D01*
X156569104Y-128095233D02*
X156711961Y-128142852D01*
X156711961Y-128142852D02*
X156807200Y-128238090D01*
X156807200Y-128238090D02*
X156854819Y-128380947D01*
X156854819Y-128380947D02*
X156854819Y-128476185D01*
X155950057Y-127666661D02*
X155902438Y-127619042D01*
X155902438Y-127619042D02*
X155854819Y-127523804D01*
X155854819Y-127523804D02*
X155854819Y-127285709D01*
X155854819Y-127285709D02*
X155902438Y-127190471D01*
X155902438Y-127190471D02*
X155950057Y-127142852D01*
X155950057Y-127142852D02*
X156045295Y-127095233D01*
X156045295Y-127095233D02*
X156140533Y-127095233D01*
X156140533Y-127095233D02*
X156283390Y-127142852D01*
X156283390Y-127142852D02*
X156854819Y-127714280D01*
X156854819Y-127714280D02*
X156854819Y-127095233D01*
X155854819Y-126238090D02*
X155854819Y-126428566D01*
X155854819Y-126428566D02*
X155902438Y-126523804D01*
X155902438Y-126523804D02*
X155950057Y-126571423D01*
X155950057Y-126571423D02*
X156092914Y-126666661D01*
X156092914Y-126666661D02*
X156283390Y-126714280D01*
X156283390Y-126714280D02*
X156664342Y-126714280D01*
X156664342Y-126714280D02*
X156759580Y-126666661D01*
X156759580Y-126666661D02*
X156807200Y-126619042D01*
X156807200Y-126619042D02*
X156854819Y-126523804D01*
X156854819Y-126523804D02*
X156854819Y-126333328D01*
X156854819Y-126333328D02*
X156807200Y-126238090D01*
X156807200Y-126238090D02*
X156759580Y-126190471D01*
X156759580Y-126190471D02*
X156664342Y-126142852D01*
X156664342Y-126142852D02*
X156426247Y-126142852D01*
X156426247Y-126142852D02*
X156331009Y-126190471D01*
X156331009Y-126190471D02*
X156283390Y-126238090D01*
X156283390Y-126238090D02*
X156235771Y-126333328D01*
X156235771Y-126333328D02*
X156235771Y-126523804D01*
X156235771Y-126523804D02*
X156283390Y-126619042D01*
X156283390Y-126619042D02*
X156331009Y-126666661D01*
X156331009Y-126666661D02*
X156426247Y-126714280D01*
X141928151Y-128093807D02*
X142642436Y-128093807D01*
X142642436Y-128093807D02*
X142785293Y-128141426D01*
X142785293Y-128141426D02*
X142880532Y-128236664D01*
X142880532Y-128236664D02*
X142928151Y-128379521D01*
X142928151Y-128379521D02*
X142928151Y-128474759D01*
X142023389Y-127665235D02*
X141975770Y-127617616D01*
X141975770Y-127617616D02*
X141928151Y-127522378D01*
X141928151Y-127522378D02*
X141928151Y-127284283D01*
X141928151Y-127284283D02*
X141975770Y-127189045D01*
X141975770Y-127189045D02*
X142023389Y-127141426D01*
X142023389Y-127141426D02*
X142118627Y-127093807D01*
X142118627Y-127093807D02*
X142213865Y-127093807D01*
X142213865Y-127093807D02*
X142356722Y-127141426D01*
X142356722Y-127141426D02*
X142928151Y-127712854D01*
X142928151Y-127712854D02*
X142928151Y-127093807D01*
X141928151Y-126189045D02*
X141928151Y-126665235D01*
X141928151Y-126665235D02*
X142404341Y-126712854D01*
X142404341Y-126712854D02*
X142356722Y-126665235D01*
X142356722Y-126665235D02*
X142309103Y-126569997D01*
X142309103Y-126569997D02*
X142309103Y-126331902D01*
X142309103Y-126331902D02*
X142356722Y-126236664D01*
X142356722Y-126236664D02*
X142404341Y-126189045D01*
X142404341Y-126189045D02*
X142499579Y-126141426D01*
X142499579Y-126141426D02*
X142737674Y-126141426D01*
X142737674Y-126141426D02*
X142832912Y-126189045D01*
X142832912Y-126189045D02*
X142880532Y-126236664D01*
X142880532Y-126236664D02*
X142928151Y-126331902D01*
X142928151Y-126331902D02*
X142928151Y-126569997D01*
X142928151Y-126569997D02*
X142880532Y-126665235D01*
X142880532Y-126665235D02*
X142832912Y-126712854D01*
X127884819Y-128117023D02*
X128599104Y-128117023D01*
X128599104Y-128117023D02*
X128741961Y-128164642D01*
X128741961Y-128164642D02*
X128837200Y-128259880D01*
X128837200Y-128259880D02*
X128884819Y-128402737D01*
X128884819Y-128402737D02*
X128884819Y-128497975D01*
X127980057Y-127688451D02*
X127932438Y-127640832D01*
X127932438Y-127640832D02*
X127884819Y-127545594D01*
X127884819Y-127545594D02*
X127884819Y-127307499D01*
X127884819Y-127307499D02*
X127932438Y-127212261D01*
X127932438Y-127212261D02*
X127980057Y-127164642D01*
X127980057Y-127164642D02*
X128075295Y-127117023D01*
X128075295Y-127117023D02*
X128170533Y-127117023D01*
X128170533Y-127117023D02*
X128313390Y-127164642D01*
X128313390Y-127164642D02*
X128884819Y-127736070D01*
X128884819Y-127736070D02*
X128884819Y-127117023D01*
X128218152Y-126259880D02*
X128884819Y-126259880D01*
X127837200Y-126497975D02*
X128551485Y-126736070D01*
X128551485Y-126736070D02*
X128551485Y-126117023D01*
X114194819Y-128117023D02*
X114909104Y-128117023D01*
X114909104Y-128117023D02*
X115051961Y-128164642D01*
X115051961Y-128164642D02*
X115147200Y-128259880D01*
X115147200Y-128259880D02*
X115194819Y-128402737D01*
X115194819Y-128402737D02*
X115194819Y-128497975D01*
X114290057Y-127688451D02*
X114242438Y-127640832D01*
X114242438Y-127640832D02*
X114194819Y-127545594D01*
X114194819Y-127545594D02*
X114194819Y-127307499D01*
X114194819Y-127307499D02*
X114242438Y-127212261D01*
X114242438Y-127212261D02*
X114290057Y-127164642D01*
X114290057Y-127164642D02*
X114385295Y-127117023D01*
X114385295Y-127117023D02*
X114480533Y-127117023D01*
X114480533Y-127117023D02*
X114623390Y-127164642D01*
X114623390Y-127164642D02*
X115194819Y-127736070D01*
X115194819Y-127736070D02*
X115194819Y-127117023D01*
X114194819Y-126783689D02*
X114194819Y-126164642D01*
X114194819Y-126164642D02*
X114575771Y-126497975D01*
X114575771Y-126497975D02*
X114575771Y-126355118D01*
X114575771Y-126355118D02*
X114623390Y-126259880D01*
X114623390Y-126259880D02*
X114671009Y-126212261D01*
X114671009Y-126212261D02*
X114766247Y-126164642D01*
X114766247Y-126164642D02*
X115004342Y-126164642D01*
X115004342Y-126164642D02*
X115099580Y-126212261D01*
X115099580Y-126212261D02*
X115147200Y-126259880D01*
X115147200Y-126259880D02*
X115194819Y-126355118D01*
X115194819Y-126355118D02*
X115194819Y-126640832D01*
X115194819Y-126640832D02*
X115147200Y-126736070D01*
X115147200Y-126736070D02*
X115099580Y-126783689D01*
X155854819Y-114195948D02*
X156569104Y-114195948D01*
X156569104Y-114195948D02*
X156711961Y-114243567D01*
X156711961Y-114243567D02*
X156807200Y-114338805D01*
X156807200Y-114338805D02*
X156854819Y-114481662D01*
X156854819Y-114481662D02*
X156854819Y-114576900D01*
X155950057Y-113767376D02*
X155902438Y-113719757D01*
X155902438Y-113719757D02*
X155854819Y-113624519D01*
X155854819Y-113624519D02*
X155854819Y-113386424D01*
X155854819Y-113386424D02*
X155902438Y-113291186D01*
X155902438Y-113291186D02*
X155950057Y-113243567D01*
X155950057Y-113243567D02*
X156045295Y-113195948D01*
X156045295Y-113195948D02*
X156140533Y-113195948D01*
X156140533Y-113195948D02*
X156283390Y-113243567D01*
X156283390Y-113243567D02*
X156854819Y-113814995D01*
X156854819Y-113814995D02*
X156854819Y-113195948D01*
X155950057Y-112814995D02*
X155902438Y-112767376D01*
X155902438Y-112767376D02*
X155854819Y-112672138D01*
X155854819Y-112672138D02*
X155854819Y-112434043D01*
X155854819Y-112434043D02*
X155902438Y-112338805D01*
X155902438Y-112338805D02*
X155950057Y-112291186D01*
X155950057Y-112291186D02*
X156045295Y-112243567D01*
X156045295Y-112243567D02*
X156140533Y-112243567D01*
X156140533Y-112243567D02*
X156283390Y-112291186D01*
X156283390Y-112291186D02*
X156854819Y-112862614D01*
X156854819Y-112862614D02*
X156854819Y-112243567D01*
X141928151Y-114193093D02*
X142642436Y-114193093D01*
X142642436Y-114193093D02*
X142785293Y-114240712D01*
X142785293Y-114240712D02*
X142880532Y-114335950D01*
X142880532Y-114335950D02*
X142928151Y-114478807D01*
X142928151Y-114478807D02*
X142928151Y-114574045D01*
X142023389Y-113764521D02*
X141975770Y-113716902D01*
X141975770Y-113716902D02*
X141928151Y-113621664D01*
X141928151Y-113621664D02*
X141928151Y-113383569D01*
X141928151Y-113383569D02*
X141975770Y-113288331D01*
X141975770Y-113288331D02*
X142023389Y-113240712D01*
X142023389Y-113240712D02*
X142118627Y-113193093D01*
X142118627Y-113193093D02*
X142213865Y-113193093D01*
X142213865Y-113193093D02*
X142356722Y-113240712D01*
X142356722Y-113240712D02*
X142928151Y-113812140D01*
X142928151Y-113812140D02*
X142928151Y-113193093D01*
X142928151Y-112240712D02*
X142928151Y-112812140D01*
X142928151Y-112526426D02*
X141928151Y-112526426D01*
X141928151Y-112526426D02*
X142071008Y-112621664D01*
X142071008Y-112621664D02*
X142166246Y-112716902D01*
X142166246Y-112716902D02*
X142213865Y-112812140D01*
X127884819Y-114239523D02*
X128599104Y-114239523D01*
X128599104Y-114239523D02*
X128741961Y-114287142D01*
X128741961Y-114287142D02*
X128837200Y-114382380D01*
X128837200Y-114382380D02*
X128884819Y-114525237D01*
X128884819Y-114525237D02*
X128884819Y-114620475D01*
X127980057Y-113810951D02*
X127932438Y-113763332D01*
X127932438Y-113763332D02*
X127884819Y-113668094D01*
X127884819Y-113668094D02*
X127884819Y-113429999D01*
X127884819Y-113429999D02*
X127932438Y-113334761D01*
X127932438Y-113334761D02*
X127980057Y-113287142D01*
X127980057Y-113287142D02*
X128075295Y-113239523D01*
X128075295Y-113239523D02*
X128170533Y-113239523D01*
X128170533Y-113239523D02*
X128313390Y-113287142D01*
X128313390Y-113287142D02*
X128884819Y-113858570D01*
X128884819Y-113858570D02*
X128884819Y-113239523D01*
X127884819Y-112620475D02*
X127884819Y-112525237D01*
X127884819Y-112525237D02*
X127932438Y-112429999D01*
X127932438Y-112429999D02*
X127980057Y-112382380D01*
X127980057Y-112382380D02*
X128075295Y-112334761D01*
X128075295Y-112334761D02*
X128265771Y-112287142D01*
X128265771Y-112287142D02*
X128503866Y-112287142D01*
X128503866Y-112287142D02*
X128694342Y-112334761D01*
X128694342Y-112334761D02*
X128789580Y-112382380D01*
X128789580Y-112382380D02*
X128837200Y-112429999D01*
X128837200Y-112429999D02*
X128884819Y-112525237D01*
X128884819Y-112525237D02*
X128884819Y-112620475D01*
X128884819Y-112620475D02*
X128837200Y-112715713D01*
X128837200Y-112715713D02*
X128789580Y-112763332D01*
X128789580Y-112763332D02*
X128694342Y-112810951D01*
X128694342Y-112810951D02*
X128503866Y-112858570D01*
X128503866Y-112858570D02*
X128265771Y-112858570D01*
X128265771Y-112858570D02*
X128075295Y-112810951D01*
X128075295Y-112810951D02*
X127980057Y-112763332D01*
X127980057Y-112763332D02*
X127932438Y-112715713D01*
X127932438Y-112715713D02*
X127884819Y-112620475D01*
X114194819Y-114239523D02*
X114909104Y-114239523D01*
X114909104Y-114239523D02*
X115051961Y-114287142D01*
X115051961Y-114287142D02*
X115147200Y-114382380D01*
X115147200Y-114382380D02*
X115194819Y-114525237D01*
X115194819Y-114525237D02*
X115194819Y-114620475D01*
X115194819Y-113239523D02*
X115194819Y-113810951D01*
X115194819Y-113525237D02*
X114194819Y-113525237D01*
X114194819Y-113525237D02*
X114337676Y-113620475D01*
X114337676Y-113620475D02*
X114432914Y-113715713D01*
X114432914Y-113715713D02*
X114480533Y-113810951D01*
X115194819Y-112763332D02*
X115194819Y-112572856D01*
X115194819Y-112572856D02*
X115147200Y-112477618D01*
X115147200Y-112477618D02*
X115099580Y-112429999D01*
X115099580Y-112429999D02*
X114956723Y-112334761D01*
X114956723Y-112334761D02*
X114766247Y-112287142D01*
X114766247Y-112287142D02*
X114385295Y-112287142D01*
X114385295Y-112287142D02*
X114290057Y-112334761D01*
X114290057Y-112334761D02*
X114242438Y-112382380D01*
X114242438Y-112382380D02*
X114194819Y-112477618D01*
X114194819Y-112477618D02*
X114194819Y-112668094D01*
X114194819Y-112668094D02*
X114242438Y-112763332D01*
X114242438Y-112763332D02*
X114290057Y-112810951D01*
X114290057Y-112810951D02*
X114385295Y-112858570D01*
X114385295Y-112858570D02*
X114623390Y-112858570D01*
X114623390Y-112858570D02*
X114718628Y-112810951D01*
X114718628Y-112810951D02*
X114766247Y-112763332D01*
X114766247Y-112763332D02*
X114813866Y-112668094D01*
X114813866Y-112668094D02*
X114813866Y-112477618D01*
X114813866Y-112477618D02*
X114766247Y-112382380D01*
X114766247Y-112382380D02*
X114718628Y-112334761D01*
X114718628Y-112334761D02*
X114623390Y-112287142D01*
X155854819Y-100296663D02*
X156569104Y-100296663D01*
X156569104Y-100296663D02*
X156711961Y-100344282D01*
X156711961Y-100344282D02*
X156807200Y-100439520D01*
X156807200Y-100439520D02*
X156854819Y-100582377D01*
X156854819Y-100582377D02*
X156854819Y-100677615D01*
X156854819Y-99296663D02*
X156854819Y-99868091D01*
X156854819Y-99582377D02*
X155854819Y-99582377D01*
X155854819Y-99582377D02*
X155997676Y-99677615D01*
X155997676Y-99677615D02*
X156092914Y-99772853D01*
X156092914Y-99772853D02*
X156140533Y-99868091D01*
X156283390Y-98725234D02*
X156235771Y-98820472D01*
X156235771Y-98820472D02*
X156188152Y-98868091D01*
X156188152Y-98868091D02*
X156092914Y-98915710D01*
X156092914Y-98915710D02*
X156045295Y-98915710D01*
X156045295Y-98915710D02*
X155950057Y-98868091D01*
X155950057Y-98868091D02*
X155902438Y-98820472D01*
X155902438Y-98820472D02*
X155854819Y-98725234D01*
X155854819Y-98725234D02*
X155854819Y-98534758D01*
X155854819Y-98534758D02*
X155902438Y-98439520D01*
X155902438Y-98439520D02*
X155950057Y-98391901D01*
X155950057Y-98391901D02*
X156045295Y-98344282D01*
X156045295Y-98344282D02*
X156092914Y-98344282D01*
X156092914Y-98344282D02*
X156188152Y-98391901D01*
X156188152Y-98391901D02*
X156235771Y-98439520D01*
X156235771Y-98439520D02*
X156283390Y-98534758D01*
X156283390Y-98534758D02*
X156283390Y-98725234D01*
X156283390Y-98725234D02*
X156331009Y-98820472D01*
X156331009Y-98820472D02*
X156378628Y-98868091D01*
X156378628Y-98868091D02*
X156473866Y-98915710D01*
X156473866Y-98915710D02*
X156664342Y-98915710D01*
X156664342Y-98915710D02*
X156759580Y-98868091D01*
X156759580Y-98868091D02*
X156807200Y-98820472D01*
X156807200Y-98820472D02*
X156854819Y-98725234D01*
X156854819Y-98725234D02*
X156854819Y-98534758D01*
X156854819Y-98534758D02*
X156807200Y-98439520D01*
X156807200Y-98439520D02*
X156759580Y-98391901D01*
X156759580Y-98391901D02*
X156664342Y-98344282D01*
X156664342Y-98344282D02*
X156473866Y-98344282D01*
X156473866Y-98344282D02*
X156378628Y-98391901D01*
X156378628Y-98391901D02*
X156331009Y-98439520D01*
X156331009Y-98439520D02*
X156283390Y-98534758D01*
X141928151Y-100292379D02*
X142642436Y-100292379D01*
X142642436Y-100292379D02*
X142785293Y-100339998D01*
X142785293Y-100339998D02*
X142880532Y-100435236D01*
X142880532Y-100435236D02*
X142928151Y-100578093D01*
X142928151Y-100578093D02*
X142928151Y-100673331D01*
X142928151Y-99292379D02*
X142928151Y-99863807D01*
X142928151Y-99578093D02*
X141928151Y-99578093D01*
X141928151Y-99578093D02*
X142071008Y-99673331D01*
X142071008Y-99673331D02*
X142166246Y-99768569D01*
X142166246Y-99768569D02*
X142213865Y-99863807D01*
X141928151Y-98959045D02*
X141928151Y-98292379D01*
X141928151Y-98292379D02*
X142928151Y-98720950D01*
X127884819Y-100362023D02*
X128599104Y-100362023D01*
X128599104Y-100362023D02*
X128741961Y-100409642D01*
X128741961Y-100409642D02*
X128837200Y-100504880D01*
X128837200Y-100504880D02*
X128884819Y-100647737D01*
X128884819Y-100647737D02*
X128884819Y-100742975D01*
X128884819Y-99362023D02*
X128884819Y-99933451D01*
X128884819Y-99647737D02*
X127884819Y-99647737D01*
X127884819Y-99647737D02*
X128027676Y-99742975D01*
X128027676Y-99742975D02*
X128122914Y-99838213D01*
X128122914Y-99838213D02*
X128170533Y-99933451D01*
X127884819Y-98504880D02*
X127884819Y-98695356D01*
X127884819Y-98695356D02*
X127932438Y-98790594D01*
X127932438Y-98790594D02*
X127980057Y-98838213D01*
X127980057Y-98838213D02*
X128122914Y-98933451D01*
X128122914Y-98933451D02*
X128313390Y-98981070D01*
X128313390Y-98981070D02*
X128694342Y-98981070D01*
X128694342Y-98981070D02*
X128789580Y-98933451D01*
X128789580Y-98933451D02*
X128837200Y-98885832D01*
X128837200Y-98885832D02*
X128884819Y-98790594D01*
X128884819Y-98790594D02*
X128884819Y-98600118D01*
X128884819Y-98600118D02*
X128837200Y-98504880D01*
X128837200Y-98504880D02*
X128789580Y-98457261D01*
X128789580Y-98457261D02*
X128694342Y-98409642D01*
X128694342Y-98409642D02*
X128456247Y-98409642D01*
X128456247Y-98409642D02*
X128361009Y-98457261D01*
X128361009Y-98457261D02*
X128313390Y-98504880D01*
X128313390Y-98504880D02*
X128265771Y-98600118D01*
X128265771Y-98600118D02*
X128265771Y-98790594D01*
X128265771Y-98790594D02*
X128313390Y-98885832D01*
X128313390Y-98885832D02*
X128361009Y-98933451D01*
X128361009Y-98933451D02*
X128456247Y-98981070D01*
X114194819Y-100362023D02*
X114909104Y-100362023D01*
X114909104Y-100362023D02*
X115051961Y-100409642D01*
X115051961Y-100409642D02*
X115147200Y-100504880D01*
X115147200Y-100504880D02*
X115194819Y-100647737D01*
X115194819Y-100647737D02*
X115194819Y-100742975D01*
X115194819Y-99362023D02*
X115194819Y-99933451D01*
X115194819Y-99647737D02*
X114194819Y-99647737D01*
X114194819Y-99647737D02*
X114337676Y-99742975D01*
X114337676Y-99742975D02*
X114432914Y-99838213D01*
X114432914Y-99838213D02*
X114480533Y-99933451D01*
X114194819Y-98457261D02*
X114194819Y-98933451D01*
X114194819Y-98933451D02*
X114671009Y-98981070D01*
X114671009Y-98981070D02*
X114623390Y-98933451D01*
X114623390Y-98933451D02*
X114575771Y-98838213D01*
X114575771Y-98838213D02*
X114575771Y-98600118D01*
X114575771Y-98600118D02*
X114623390Y-98504880D01*
X114623390Y-98504880D02*
X114671009Y-98457261D01*
X114671009Y-98457261D02*
X114766247Y-98409642D01*
X114766247Y-98409642D02*
X115004342Y-98409642D01*
X115004342Y-98409642D02*
X115099580Y-98457261D01*
X115099580Y-98457261D02*
X115147200Y-98504880D01*
X115147200Y-98504880D02*
X115194819Y-98600118D01*
X115194819Y-98600118D02*
X115194819Y-98838213D01*
X115194819Y-98838213D02*
X115147200Y-98933451D01*
X115147200Y-98933451D02*
X115099580Y-98981070D01*
X155744819Y-86902378D02*
X156459104Y-86902378D01*
X156459104Y-86902378D02*
X156601961Y-86949997D01*
X156601961Y-86949997D02*
X156697200Y-87045235D01*
X156697200Y-87045235D02*
X156744819Y-87188092D01*
X156744819Y-87188092D02*
X156744819Y-87283330D01*
X156744819Y-85902378D02*
X156744819Y-86473806D01*
X156744819Y-86188092D02*
X155744819Y-86188092D01*
X155744819Y-86188092D02*
X155887676Y-86283330D01*
X155887676Y-86283330D02*
X155982914Y-86378568D01*
X155982914Y-86378568D02*
X156030533Y-86473806D01*
X156078152Y-85045235D02*
X156744819Y-85045235D01*
X155697200Y-85283330D02*
X156411485Y-85521425D01*
X156411485Y-85521425D02*
X156411485Y-84902378D01*
X142054819Y-86902378D02*
X142769104Y-86902378D01*
X142769104Y-86902378D02*
X142911961Y-86949997D01*
X142911961Y-86949997D02*
X143007200Y-87045235D01*
X143007200Y-87045235D02*
X143054819Y-87188092D01*
X143054819Y-87188092D02*
X143054819Y-87283330D01*
X143054819Y-85902378D02*
X143054819Y-86473806D01*
X143054819Y-86188092D02*
X142054819Y-86188092D01*
X142054819Y-86188092D02*
X142197676Y-86283330D01*
X142197676Y-86283330D02*
X142292914Y-86378568D01*
X142292914Y-86378568D02*
X142340533Y-86473806D01*
X142054819Y-85569044D02*
X142054819Y-84949997D01*
X142054819Y-84949997D02*
X142435771Y-85283330D01*
X142435771Y-85283330D02*
X142435771Y-85140473D01*
X142435771Y-85140473D02*
X142483390Y-85045235D01*
X142483390Y-85045235D02*
X142531009Y-84997616D01*
X142531009Y-84997616D02*
X142626247Y-84949997D01*
X142626247Y-84949997D02*
X142864342Y-84949997D01*
X142864342Y-84949997D02*
X142959580Y-84997616D01*
X142959580Y-84997616D02*
X143007200Y-85045235D01*
X143007200Y-85045235D02*
X143054819Y-85140473D01*
X143054819Y-85140473D02*
X143054819Y-85426187D01*
X143054819Y-85426187D02*
X143007200Y-85521425D01*
X143007200Y-85521425D02*
X142959580Y-85569044D01*
X128011487Y-86995236D02*
X128725772Y-86995236D01*
X128725772Y-86995236D02*
X128868629Y-87042855D01*
X128868629Y-87042855D02*
X128963868Y-87138093D01*
X128963868Y-87138093D02*
X129011487Y-87280950D01*
X129011487Y-87280950D02*
X129011487Y-87376188D01*
X129011487Y-85995236D02*
X129011487Y-86566664D01*
X129011487Y-86280950D02*
X128011487Y-86280950D01*
X128011487Y-86280950D02*
X128154344Y-86376188D01*
X128154344Y-86376188D02*
X128249582Y-86471426D01*
X128249582Y-86471426D02*
X128297201Y-86566664D01*
X128106725Y-85614283D02*
X128059106Y-85566664D01*
X128059106Y-85566664D02*
X128011487Y-85471426D01*
X128011487Y-85471426D02*
X128011487Y-85233331D01*
X128011487Y-85233331D02*
X128059106Y-85138093D01*
X128059106Y-85138093D02*
X128106725Y-85090474D01*
X128106725Y-85090474D02*
X128201963Y-85042855D01*
X128201963Y-85042855D02*
X128297201Y-85042855D01*
X128297201Y-85042855D02*
X128440058Y-85090474D01*
X128440058Y-85090474D02*
X129011487Y-85661902D01*
X129011487Y-85661902D02*
X129011487Y-85042855D01*
X114084819Y-86989523D02*
X114799104Y-86989523D01*
X114799104Y-86989523D02*
X114941961Y-87037142D01*
X114941961Y-87037142D02*
X115037200Y-87132380D01*
X115037200Y-87132380D02*
X115084819Y-87275237D01*
X115084819Y-87275237D02*
X115084819Y-87370475D01*
X115084819Y-85989523D02*
X115084819Y-86560951D01*
X115084819Y-86275237D02*
X114084819Y-86275237D01*
X114084819Y-86275237D02*
X114227676Y-86370475D01*
X114227676Y-86370475D02*
X114322914Y-86465713D01*
X114322914Y-86465713D02*
X114370533Y-86560951D01*
X115084819Y-85037142D02*
X115084819Y-85608570D01*
X115084819Y-85322856D02*
X114084819Y-85322856D01*
X114084819Y-85322856D02*
X114227676Y-85418094D01*
X114227676Y-85418094D02*
X114322914Y-85513332D01*
X114322914Y-85513332D02*
X114370533Y-85608570D01*
X155738150Y-73113451D02*
X156452435Y-73113451D01*
X156452435Y-73113451D02*
X156595292Y-73161070D01*
X156595292Y-73161070D02*
X156690531Y-73256308D01*
X156690531Y-73256308D02*
X156738150Y-73399165D01*
X156738150Y-73399165D02*
X156738150Y-73494403D01*
X156738150Y-72113451D02*
X156738150Y-72684879D01*
X156738150Y-72399165D02*
X155738150Y-72399165D01*
X155738150Y-72399165D02*
X155881007Y-72494403D01*
X155881007Y-72494403D02*
X155976245Y-72589641D01*
X155976245Y-72589641D02*
X156023864Y-72684879D01*
X155738150Y-71494403D02*
X155738150Y-71399165D01*
X155738150Y-71399165D02*
X155785769Y-71303927D01*
X155785769Y-71303927D02*
X155833388Y-71256308D01*
X155833388Y-71256308D02*
X155928626Y-71208689D01*
X155928626Y-71208689D02*
X156119102Y-71161070D01*
X156119102Y-71161070D02*
X156357197Y-71161070D01*
X156357197Y-71161070D02*
X156547673Y-71208689D01*
X156547673Y-71208689D02*
X156642911Y-71256308D01*
X156642911Y-71256308D02*
X156690531Y-71303927D01*
X156690531Y-71303927D02*
X156738150Y-71399165D01*
X156738150Y-71399165D02*
X156738150Y-71494403D01*
X156738150Y-71494403D02*
X156690531Y-71589641D01*
X156690531Y-71589641D02*
X156642911Y-71637260D01*
X156642911Y-71637260D02*
X156547673Y-71684879D01*
X156547673Y-71684879D02*
X156357197Y-71732498D01*
X156357197Y-71732498D02*
X156119102Y-71732498D01*
X156119102Y-71732498D02*
X155928626Y-71684879D01*
X155928626Y-71684879D02*
X155833388Y-71637260D01*
X155833388Y-71637260D02*
X155785769Y-71589641D01*
X155785769Y-71589641D02*
X155738150Y-71494403D01*
X142048151Y-72637261D02*
X142762436Y-72637261D01*
X142762436Y-72637261D02*
X142905293Y-72684880D01*
X142905293Y-72684880D02*
X143000532Y-72780118D01*
X143000532Y-72780118D02*
X143048151Y-72922975D01*
X143048151Y-72922975D02*
X143048151Y-73018213D01*
X143048151Y-72113451D02*
X143048151Y-71922975D01*
X143048151Y-71922975D02*
X143000532Y-71827737D01*
X143000532Y-71827737D02*
X142952912Y-71780118D01*
X142952912Y-71780118D02*
X142810055Y-71684880D01*
X142810055Y-71684880D02*
X142619579Y-71637261D01*
X142619579Y-71637261D02*
X142238627Y-71637261D01*
X142238627Y-71637261D02*
X142143389Y-71684880D01*
X142143389Y-71684880D02*
X142095770Y-71732499D01*
X142095770Y-71732499D02*
X142048151Y-71827737D01*
X142048151Y-71827737D02*
X142048151Y-72018213D01*
X142048151Y-72018213D02*
X142095770Y-72113451D01*
X142095770Y-72113451D02*
X142143389Y-72161070D01*
X142143389Y-72161070D02*
X142238627Y-72208689D01*
X142238627Y-72208689D02*
X142476722Y-72208689D01*
X142476722Y-72208689D02*
X142571960Y-72161070D01*
X142571960Y-72161070D02*
X142619579Y-72113451D01*
X142619579Y-72113451D02*
X142667198Y-72018213D01*
X142667198Y-72018213D02*
X142667198Y-71827737D01*
X142667198Y-71827737D02*
X142619579Y-71732499D01*
X142619579Y-71732499D02*
X142571960Y-71684880D01*
X142571960Y-71684880D02*
X142476722Y-71637261D01*
X128004819Y-72753333D02*
X128719104Y-72753333D01*
X128719104Y-72753333D02*
X128861961Y-72800952D01*
X128861961Y-72800952D02*
X128957200Y-72896190D01*
X128957200Y-72896190D02*
X129004819Y-73039047D01*
X129004819Y-73039047D02*
X129004819Y-73134285D01*
X128433390Y-72134285D02*
X128385771Y-72229523D01*
X128385771Y-72229523D02*
X128338152Y-72277142D01*
X128338152Y-72277142D02*
X128242914Y-72324761D01*
X128242914Y-72324761D02*
X128195295Y-72324761D01*
X128195295Y-72324761D02*
X128100057Y-72277142D01*
X128100057Y-72277142D02*
X128052438Y-72229523D01*
X128052438Y-72229523D02*
X128004819Y-72134285D01*
X128004819Y-72134285D02*
X128004819Y-71943809D01*
X128004819Y-71943809D02*
X128052438Y-71848571D01*
X128052438Y-71848571D02*
X128100057Y-71800952D01*
X128100057Y-71800952D02*
X128195295Y-71753333D01*
X128195295Y-71753333D02*
X128242914Y-71753333D01*
X128242914Y-71753333D02*
X128338152Y-71800952D01*
X128338152Y-71800952D02*
X128385771Y-71848571D01*
X128385771Y-71848571D02*
X128433390Y-71943809D01*
X128433390Y-71943809D02*
X128433390Y-72134285D01*
X128433390Y-72134285D02*
X128481009Y-72229523D01*
X128481009Y-72229523D02*
X128528628Y-72277142D01*
X128528628Y-72277142D02*
X128623866Y-72324761D01*
X128623866Y-72324761D02*
X128814342Y-72324761D01*
X128814342Y-72324761D02*
X128909580Y-72277142D01*
X128909580Y-72277142D02*
X128957200Y-72229523D01*
X128957200Y-72229523D02*
X129004819Y-72134285D01*
X129004819Y-72134285D02*
X129004819Y-71943809D01*
X129004819Y-71943809D02*
X128957200Y-71848571D01*
X128957200Y-71848571D02*
X128909580Y-71800952D01*
X128909580Y-71800952D02*
X128814342Y-71753333D01*
X128814342Y-71753333D02*
X128623866Y-71753333D01*
X128623866Y-71753333D02*
X128528628Y-71800952D01*
X128528628Y-71800952D02*
X128481009Y-71848571D01*
X128481009Y-71848571D02*
X128433390Y-71943809D01*
X114078150Y-72746191D02*
X114792435Y-72746191D01*
X114792435Y-72746191D02*
X114935292Y-72793810D01*
X114935292Y-72793810D02*
X115030531Y-72889048D01*
X115030531Y-72889048D02*
X115078150Y-73031905D01*
X115078150Y-73031905D02*
X115078150Y-73127143D01*
X114078150Y-72365238D02*
X114078150Y-71698572D01*
X114078150Y-71698572D02*
X115078150Y-72127143D01*
X155638150Y-58764047D02*
X156352435Y-58764047D01*
X156352435Y-58764047D02*
X156495292Y-58811666D01*
X156495292Y-58811666D02*
X156590531Y-58906904D01*
X156590531Y-58906904D02*
X156638150Y-59049761D01*
X156638150Y-59049761D02*
X156638150Y-59144999D01*
X155638150Y-57859285D02*
X155638150Y-58049761D01*
X155638150Y-58049761D02*
X155685769Y-58144999D01*
X155685769Y-58144999D02*
X155733388Y-58192618D01*
X155733388Y-58192618D02*
X155876245Y-58287856D01*
X155876245Y-58287856D02*
X156066721Y-58335475D01*
X156066721Y-58335475D02*
X156447673Y-58335475D01*
X156447673Y-58335475D02*
X156542911Y-58287856D01*
X156542911Y-58287856D02*
X156590531Y-58240237D01*
X156590531Y-58240237D02*
X156638150Y-58144999D01*
X156638150Y-58144999D02*
X156638150Y-57954523D01*
X156638150Y-57954523D02*
X156590531Y-57859285D01*
X156590531Y-57859285D02*
X156542911Y-57811666D01*
X156542911Y-57811666D02*
X156447673Y-57764047D01*
X156447673Y-57764047D02*
X156209578Y-57764047D01*
X156209578Y-57764047D02*
X156114340Y-57811666D01*
X156114340Y-57811666D02*
X156066721Y-57859285D01*
X156066721Y-57859285D02*
X156019102Y-57954523D01*
X156019102Y-57954523D02*
X156019102Y-58144999D01*
X156019102Y-58144999D02*
X156066721Y-58240237D01*
X156066721Y-58240237D02*
X156114340Y-58287856D01*
X156114340Y-58287856D02*
X156209578Y-58335475D01*
X141948150Y-58764047D02*
X142662435Y-58764047D01*
X142662435Y-58764047D02*
X142805292Y-58811666D01*
X142805292Y-58811666D02*
X142900531Y-58906904D01*
X142900531Y-58906904D02*
X142948150Y-59049761D01*
X142948150Y-59049761D02*
X142948150Y-59144999D01*
X141948150Y-57811666D02*
X141948150Y-58287856D01*
X141948150Y-58287856D02*
X142424340Y-58335475D01*
X142424340Y-58335475D02*
X142376721Y-58287856D01*
X142376721Y-58287856D02*
X142329102Y-58192618D01*
X142329102Y-58192618D02*
X142329102Y-57954523D01*
X142329102Y-57954523D02*
X142376721Y-57859285D01*
X142376721Y-57859285D02*
X142424340Y-57811666D01*
X142424340Y-57811666D02*
X142519578Y-57764047D01*
X142519578Y-57764047D02*
X142757673Y-57764047D01*
X142757673Y-57764047D02*
X142852911Y-57811666D01*
X142852911Y-57811666D02*
X142900531Y-57859285D01*
X142900531Y-57859285D02*
X142948150Y-57954523D01*
X142948150Y-57954523D02*
X142948150Y-58192618D01*
X142948150Y-58192618D02*
X142900531Y-58287856D01*
X142900531Y-58287856D02*
X142852911Y-58335475D01*
X127904819Y-58903333D02*
X128619104Y-58903333D01*
X128619104Y-58903333D02*
X128761961Y-58950952D01*
X128761961Y-58950952D02*
X128857200Y-59046190D01*
X128857200Y-59046190D02*
X128904819Y-59189047D01*
X128904819Y-59189047D02*
X128904819Y-59284285D01*
X128238152Y-57998571D02*
X128904819Y-57998571D01*
X127857200Y-58236666D02*
X128571485Y-58474761D01*
X128571485Y-58474761D02*
X128571485Y-57855714D01*
X113978150Y-58894762D02*
X114692435Y-58894762D01*
X114692435Y-58894762D02*
X114835292Y-58942381D01*
X114835292Y-58942381D02*
X114930531Y-59037619D01*
X114930531Y-59037619D02*
X114978150Y-59180476D01*
X114978150Y-59180476D02*
X114978150Y-59275714D01*
X113978150Y-58513809D02*
X113978150Y-57894762D01*
X113978150Y-57894762D02*
X114359102Y-58228095D01*
X114359102Y-58228095D02*
X114359102Y-58085238D01*
X114359102Y-58085238D02*
X114406721Y-57990000D01*
X114406721Y-57990000D02*
X114454340Y-57942381D01*
X114454340Y-57942381D02*
X114549578Y-57894762D01*
X114549578Y-57894762D02*
X114787673Y-57894762D01*
X114787673Y-57894762D02*
X114882911Y-57942381D01*
X114882911Y-57942381D02*
X114930531Y-57990000D01*
X114930531Y-57990000D02*
X114978150Y-58085238D01*
X114978150Y-58085238D02*
X114978150Y-58370952D01*
X114978150Y-58370952D02*
X114930531Y-58466190D01*
X114930531Y-58466190D02*
X114882911Y-58513809D01*
X155184819Y-43943333D02*
X155899104Y-43943333D01*
X155899104Y-43943333D02*
X156041961Y-43990952D01*
X156041961Y-43990952D02*
X156137200Y-44086190D01*
X156137200Y-44086190D02*
X156184819Y-44229047D01*
X156184819Y-44229047D02*
X156184819Y-44324285D01*
X155280057Y-43514761D02*
X155232438Y-43467142D01*
X155232438Y-43467142D02*
X155184819Y-43371904D01*
X155184819Y-43371904D02*
X155184819Y-43133809D01*
X155184819Y-43133809D02*
X155232438Y-43038571D01*
X155232438Y-43038571D02*
X155280057Y-42990952D01*
X155280057Y-42990952D02*
X155375295Y-42943333D01*
X155375295Y-42943333D02*
X155470533Y-42943333D01*
X155470533Y-42943333D02*
X155613390Y-42990952D01*
X155613390Y-42990952D02*
X156184819Y-43562380D01*
X156184819Y-43562380D02*
X156184819Y-42943333D01*
X141258152Y-43933333D02*
X141972437Y-43933333D01*
X141972437Y-43933333D02*
X142115294Y-43980952D01*
X142115294Y-43980952D02*
X142210533Y-44076190D01*
X142210533Y-44076190D02*
X142258152Y-44219047D01*
X142258152Y-44219047D02*
X142258152Y-44314285D01*
X142258152Y-42933333D02*
X142258152Y-43504761D01*
X142258152Y-43219047D02*
X141258152Y-43219047D01*
X141258152Y-43219047D02*
X141401009Y-43314285D01*
X141401009Y-43314285D02*
X141496247Y-43409523D01*
X141496247Y-43409523D02*
X141543866Y-43504761D01*
X106691666Y-36954819D02*
X106358333Y-36478628D01*
X106120238Y-36954819D02*
X106120238Y-35954819D01*
X106120238Y-35954819D02*
X106501190Y-35954819D01*
X106501190Y-35954819D02*
X106596428Y-36002438D01*
X106596428Y-36002438D02*
X106644047Y-36050057D01*
X106644047Y-36050057D02*
X106691666Y-36145295D01*
X106691666Y-36145295D02*
X106691666Y-36288152D01*
X106691666Y-36288152D02*
X106644047Y-36383390D01*
X106644047Y-36383390D02*
X106596428Y-36431009D01*
X106596428Y-36431009D02*
X106501190Y-36478628D01*
X106501190Y-36478628D02*
X106120238Y-36478628D01*
X107120238Y-36431009D02*
X107453571Y-36431009D01*
X107596428Y-36954819D02*
X107120238Y-36954819D01*
X107120238Y-36954819D02*
X107120238Y-35954819D01*
X107120238Y-35954819D02*
X107596428Y-35954819D01*
X108358333Y-36431009D02*
X108025000Y-36431009D01*
X108025000Y-36954819D02*
X108025000Y-35954819D01*
X108025000Y-35954819D02*
X108501190Y-35954819D01*
X109025000Y-35954819D02*
X109025000Y-36192914D01*
X108786905Y-36097676D02*
X109025000Y-36192914D01*
X109025000Y-36192914D02*
X109263095Y-36097676D01*
X108882143Y-36383390D02*
X109025000Y-36192914D01*
X109025000Y-36192914D02*
X109167857Y-36383390D01*
X109786905Y-35954819D02*
X109786905Y-36192914D01*
X109548810Y-36097676D02*
X109786905Y-36192914D01*
X109786905Y-36192914D02*
X110025000Y-36097676D01*
X109644048Y-36383390D02*
X109786905Y-36192914D01*
X109786905Y-36192914D02*
X109929762Y-36383390D01*
X106691666Y-150229819D02*
X106358333Y-149753628D01*
X106120238Y-150229819D02*
X106120238Y-149229819D01*
X106120238Y-149229819D02*
X106501190Y-149229819D01*
X106501190Y-149229819D02*
X106596428Y-149277438D01*
X106596428Y-149277438D02*
X106644047Y-149325057D01*
X106644047Y-149325057D02*
X106691666Y-149420295D01*
X106691666Y-149420295D02*
X106691666Y-149563152D01*
X106691666Y-149563152D02*
X106644047Y-149658390D01*
X106644047Y-149658390D02*
X106596428Y-149706009D01*
X106596428Y-149706009D02*
X106501190Y-149753628D01*
X106501190Y-149753628D02*
X106120238Y-149753628D01*
X107120238Y-149706009D02*
X107453571Y-149706009D01*
X107596428Y-150229819D02*
X107120238Y-150229819D01*
X107120238Y-150229819D02*
X107120238Y-149229819D01*
X107120238Y-149229819D02*
X107596428Y-149229819D01*
X108358333Y-149706009D02*
X108025000Y-149706009D01*
X108025000Y-150229819D02*
X108025000Y-149229819D01*
X108025000Y-149229819D02*
X108501190Y-149229819D01*
X109025000Y-149229819D02*
X109025000Y-149467914D01*
X108786905Y-149372676D02*
X109025000Y-149467914D01*
X109025000Y-149467914D02*
X109263095Y-149372676D01*
X108882143Y-149658390D02*
X109025000Y-149467914D01*
X109025000Y-149467914D02*
X109167857Y-149658390D01*
X109786905Y-149229819D02*
X109786905Y-149467914D01*
X109548810Y-149372676D02*
X109786905Y-149467914D01*
X109786905Y-149467914D02*
X110025000Y-149372676D01*
X109644048Y-149658390D02*
X109786905Y-149467914D01*
X109786905Y-149467914D02*
X109929762Y-149658390D01*
X122066666Y-150229819D02*
X121733333Y-149753628D01*
X121495238Y-150229819D02*
X121495238Y-149229819D01*
X121495238Y-149229819D02*
X121876190Y-149229819D01*
X121876190Y-149229819D02*
X121971428Y-149277438D01*
X121971428Y-149277438D02*
X122019047Y-149325057D01*
X122019047Y-149325057D02*
X122066666Y-149420295D01*
X122066666Y-149420295D02*
X122066666Y-149563152D01*
X122066666Y-149563152D02*
X122019047Y-149658390D01*
X122019047Y-149658390D02*
X121971428Y-149706009D01*
X121971428Y-149706009D02*
X121876190Y-149753628D01*
X121876190Y-149753628D02*
X121495238Y-149753628D01*
X122495238Y-149706009D02*
X122828571Y-149706009D01*
X122971428Y-150229819D02*
X122495238Y-150229819D01*
X122495238Y-150229819D02*
X122495238Y-149229819D01*
X122495238Y-149229819D02*
X122971428Y-149229819D01*
X123733333Y-149706009D02*
X123400000Y-149706009D01*
X123400000Y-150229819D02*
X123400000Y-149229819D01*
X123400000Y-149229819D02*
X123876190Y-149229819D01*
X124400000Y-149229819D02*
X124400000Y-149467914D01*
X124161905Y-149372676D02*
X124400000Y-149467914D01*
X124400000Y-149467914D02*
X124638095Y-149372676D01*
X124257143Y-149658390D02*
X124400000Y-149467914D01*
X124400000Y-149467914D02*
X124542857Y-149658390D01*
X125161905Y-149229819D02*
X125161905Y-149467914D01*
X124923810Y-149372676D02*
X125161905Y-149467914D01*
X125161905Y-149467914D02*
X125400000Y-149372676D01*
X125019048Y-149658390D02*
X125161905Y-149467914D01*
X125161905Y-149467914D02*
X125304762Y-149658390D01*
D11*
%TO.C,J30*%
X157470000Y-142985000D02*
X157470000Y-139385000D01*
X159350000Y-137505000D02*
X162950000Y-137505000D01*
X164830000Y-142985000D02*
X164830000Y-139385000D01*
X159350000Y-144865000D02*
X162950000Y-144865000D01*
%TO.C,J29*%
X143543332Y-142985000D02*
X143543332Y-139385000D01*
X145423332Y-137505000D02*
X149023332Y-137505000D01*
X150903332Y-142985000D02*
X150903332Y-139385000D01*
X145423332Y-144865000D02*
X149023332Y-144865000D01*
%TO.C,J28*%
X131380000Y-144865000D02*
X134980000Y-144865000D01*
X136860000Y-142985000D02*
X136860000Y-139385000D01*
X131380000Y-137505000D02*
X134980000Y-137505000D01*
X129500000Y-142985000D02*
X129500000Y-139385000D01*
%TO.C,J27*%
X115810000Y-142985000D02*
X115810000Y-139385000D01*
X117690000Y-137505000D02*
X121290000Y-137505000D01*
X123170000Y-142985000D02*
X123170000Y-139385000D01*
X117690000Y-144865000D02*
X121290000Y-144865000D01*
%TO.C,J26*%
X157470000Y-129085710D02*
X157470000Y-125485710D01*
X159350000Y-123605710D02*
X162950000Y-123605710D01*
X164830000Y-129085710D02*
X164830000Y-125485710D01*
X159350000Y-130965710D02*
X162950000Y-130965710D01*
%TO.C,J25*%
X143543332Y-129084284D02*
X143543332Y-125484284D01*
X145423332Y-123604284D02*
X149023332Y-123604284D01*
X150903332Y-129084284D02*
X150903332Y-125484284D01*
X145423332Y-130964284D02*
X149023332Y-130964284D01*
%TO.C,J24*%
X129500000Y-129107500D02*
X129500000Y-125507500D01*
X131380000Y-123627500D02*
X134980000Y-123627500D01*
X136860000Y-129107500D02*
X136860000Y-125507500D01*
X131380000Y-130987500D02*
X134980000Y-130987500D01*
%TO.C,J23*%
X115810000Y-129107500D02*
X115810000Y-125507500D01*
X117690000Y-123627500D02*
X121290000Y-123627500D01*
X123170000Y-129107500D02*
X123170000Y-125507500D01*
X117690000Y-130987500D02*
X121290000Y-130987500D01*
%TO.C,J22*%
X157470000Y-115186425D02*
X157470000Y-111586425D01*
X159350000Y-109706425D02*
X162950000Y-109706425D01*
X164830000Y-115186425D02*
X164830000Y-111586425D01*
X159350000Y-117066425D02*
X162950000Y-117066425D01*
%TO.C,J21*%
X143543332Y-115183570D02*
X143543332Y-111583570D01*
X145423332Y-109703570D02*
X149023332Y-109703570D01*
X150903332Y-115183570D02*
X150903332Y-111583570D01*
X145423332Y-117063570D02*
X149023332Y-117063570D01*
%TO.C,J20*%
X129500000Y-115230000D02*
X129500000Y-111630000D01*
X131380000Y-109750000D02*
X134980000Y-109750000D01*
X136860000Y-115230000D02*
X136860000Y-111630000D01*
X131380000Y-117110000D02*
X134980000Y-117110000D01*
%TO.C,J19*%
X115810000Y-115230000D02*
X115810000Y-111630000D01*
X117690000Y-109750000D02*
X121290000Y-109750000D01*
X123170000Y-115230000D02*
X123170000Y-111630000D01*
X117690000Y-117110000D02*
X121290000Y-117110000D01*
%TO.C,J18*%
X157470000Y-101287140D02*
X157470000Y-97687140D01*
X159350000Y-95807140D02*
X162950000Y-95807140D01*
X164830000Y-101287140D02*
X164830000Y-97687140D01*
X159350000Y-103167140D02*
X162950000Y-103167140D01*
%TO.C,J17*%
X143543332Y-101282856D02*
X143543332Y-97682856D01*
X145423332Y-95802856D02*
X149023332Y-95802856D01*
X150903332Y-101282856D02*
X150903332Y-97682856D01*
X145423332Y-103162856D02*
X149023332Y-103162856D01*
%TO.C,J16*%
X129500000Y-101352500D02*
X129500000Y-97752500D01*
X131380000Y-95872500D02*
X134980000Y-95872500D01*
X136860000Y-101352500D02*
X136860000Y-97752500D01*
X131380000Y-103232500D02*
X134980000Y-103232500D01*
%TO.C,J15*%
X115810000Y-101352500D02*
X115810000Y-97752500D01*
X117690000Y-95872500D02*
X121290000Y-95872500D01*
X123170000Y-101352500D02*
X123170000Y-97752500D01*
X117690000Y-103232500D02*
X121290000Y-103232500D01*
%TO.C,J14*%
X157360000Y-87892855D02*
X157360000Y-84292855D01*
X159240000Y-82412855D02*
X162840000Y-82412855D01*
X164720000Y-87892855D02*
X164720000Y-84292855D01*
X159240000Y-89772855D02*
X162840000Y-89772855D01*
%TO.C,J13*%
X143670000Y-87892855D02*
X143670000Y-84292855D01*
X145550000Y-82412855D02*
X149150000Y-82412855D01*
X151030000Y-87892855D02*
X151030000Y-84292855D01*
X145550000Y-89772855D02*
X149150000Y-89772855D01*
%TO.C,J12*%
X129626668Y-87985713D02*
X129626668Y-84385713D01*
X131506668Y-82505713D02*
X135106668Y-82505713D01*
X136986668Y-87985713D02*
X136986668Y-84385713D01*
X131506668Y-89865713D02*
X135106668Y-89865713D01*
%TO.C,J11*%
X115700000Y-87980000D02*
X115700000Y-84380000D01*
X117580000Y-82500000D02*
X121180000Y-82500000D01*
X123060000Y-87980000D02*
X123060000Y-84380000D01*
X117580000Y-89860000D02*
X121180000Y-89860000D01*
%TO.C,J10*%
X157353331Y-74103928D02*
X157353331Y-70503928D01*
X159233331Y-68623928D02*
X162833331Y-68623928D01*
X164713331Y-74103928D02*
X164713331Y-70503928D01*
X159233331Y-75983928D02*
X162833331Y-75983928D01*
%TO.C,J9*%
X143663332Y-74103928D02*
X143663332Y-70503928D01*
X145543332Y-68623928D02*
X149143332Y-68623928D01*
X151023332Y-74103928D02*
X151023332Y-70503928D01*
X145543332Y-75983928D02*
X149143332Y-75983928D01*
%TO.C,J8*%
X129620000Y-74220000D02*
X129620000Y-70620000D01*
X131500000Y-68740000D02*
X135100000Y-68740000D01*
X136980000Y-74220000D02*
X136980000Y-70620000D01*
X131500000Y-76100000D02*
X135100000Y-76100000D01*
%TO.C,J7*%
X115693331Y-74212858D02*
X115693331Y-70612858D01*
X117573331Y-68732858D02*
X121173331Y-68732858D01*
X123053331Y-74212858D02*
X123053331Y-70612858D01*
X117573331Y-76092858D02*
X121173331Y-76092858D01*
%TO.C,J6*%
X157253331Y-60230714D02*
X157253331Y-56630714D01*
X159133331Y-54750714D02*
X162733331Y-54750714D01*
X164613331Y-60230714D02*
X164613331Y-56630714D01*
X159133331Y-62110714D02*
X162733331Y-62110714D01*
%TO.C,J5*%
X143563331Y-60230714D02*
X143563331Y-56630714D01*
X145443331Y-54750714D02*
X149043331Y-54750714D01*
X150923331Y-60230714D02*
X150923331Y-56630714D01*
X145443331Y-62110714D02*
X149043331Y-62110714D01*
%TO.C,J4*%
X129520000Y-60370000D02*
X129520000Y-56770000D01*
X131400000Y-54890000D02*
X135000000Y-54890000D01*
X136880000Y-60370000D02*
X136880000Y-56770000D01*
X131400000Y-62250000D02*
X135000000Y-62250000D01*
%TO.C,J3*%
X115593331Y-60361429D02*
X115593331Y-56761429D01*
X117473331Y-54881429D02*
X121073331Y-54881429D01*
X122953331Y-60361429D02*
X122953331Y-56761429D01*
X117473331Y-62241429D02*
X121073331Y-62241429D01*
%TO.C,J2*%
X156800000Y-45410000D02*
X156800000Y-41810000D01*
X158680000Y-39930000D02*
X162280000Y-39930000D01*
X164160000Y-45410000D02*
X164160000Y-41810000D01*
X158680000Y-47290000D02*
X162280000Y-47290000D01*
%TO.C,J1*%
X142873333Y-45400000D02*
X142873333Y-41800000D01*
X144753333Y-39920000D02*
X148353333Y-39920000D01*
X150233333Y-45400000D02*
X150233333Y-41800000D01*
X144753333Y-47280000D02*
X148353333Y-47280000D01*
%TD*%
M02*
