%TF.GenerationSoftware,KiCad,Pcbnew,7.0.7*%
%TF.CreationDate,2023-09-22T00:52:09+02:00*%
%TF.ProjectId,30sma-adapter,3330736d-612d-4616-9461-707465722e6b,rev?*%
%TF.SameCoordinates,Original*%
%TF.FileFunction,Legend,Top*%
%TF.FilePolarity,Positive*%
%FSLAX46Y46*%
G04 Gerber Fmt 4.6, Leading zero omitted, Abs format (unit mm)*
G04 Created by KiCad (PCBNEW 7.0.7) date 2023-09-22 00:52:09*
%MOMM*%
%LPD*%
G01*
G04 APERTURE LIST*
%ADD10C,0.100000*%
%ADD11C,0.150000*%
%ADD12C,0.300000*%
%ADD13C,0.400000*%
%ADD14C,0.120000*%
G04 APERTURE END LIST*
D10*
D11*
X177002200Y-166007200D02*
X285002200Y-166007200D01*
X285002200Y-198007200D01*
X177002200Y-198007200D01*
X177002200Y-166007200D01*
D10*
D11*
X10000000Y-10000000D02*
X287002200Y-10000000D01*
X287002200Y-200007200D01*
X10000000Y-200007200D01*
X10000000Y-10000000D01*
D10*
D11*
X12000000Y-12000000D02*
X285002200Y-12000000D01*
X285002200Y-198007200D01*
X12000000Y-198007200D01*
X12000000Y-12000000D01*
D10*
D11*
X60000000Y-12000000D02*
X60000000Y-10000000D01*
D10*
D11*
X110000000Y-12000000D02*
X110000000Y-10000000D01*
D10*
D11*
X160000000Y-12000000D02*
X160000000Y-10000000D01*
D10*
D11*
X210000000Y-12000000D02*
X210000000Y-10000000D01*
D10*
D11*
X260000000Y-12000000D02*
X260000000Y-10000000D01*
D10*
D11*
X36089160Y-11593604D02*
X35346303Y-11593604D01*
X35717731Y-11593604D02*
X35717731Y-10293604D01*
X35717731Y-10293604D02*
X35593922Y-10479319D01*
X35593922Y-10479319D02*
X35470112Y-10603128D01*
X35470112Y-10603128D02*
X35346303Y-10665033D01*
D10*
D11*
X85346303Y-10417414D02*
X85408207Y-10355509D01*
X85408207Y-10355509D02*
X85532017Y-10293604D01*
X85532017Y-10293604D02*
X85841541Y-10293604D01*
X85841541Y-10293604D02*
X85965350Y-10355509D01*
X85965350Y-10355509D02*
X86027255Y-10417414D01*
X86027255Y-10417414D02*
X86089160Y-10541223D01*
X86089160Y-10541223D02*
X86089160Y-10665033D01*
X86089160Y-10665033D02*
X86027255Y-10850747D01*
X86027255Y-10850747D02*
X85284398Y-11593604D01*
X85284398Y-11593604D02*
X86089160Y-11593604D01*
D10*
D11*
X135284398Y-10293604D02*
X136089160Y-10293604D01*
X136089160Y-10293604D02*
X135655826Y-10788842D01*
X135655826Y-10788842D02*
X135841541Y-10788842D01*
X135841541Y-10788842D02*
X135965350Y-10850747D01*
X135965350Y-10850747D02*
X136027255Y-10912652D01*
X136027255Y-10912652D02*
X136089160Y-11036461D01*
X136089160Y-11036461D02*
X136089160Y-11345985D01*
X136089160Y-11345985D02*
X136027255Y-11469795D01*
X136027255Y-11469795D02*
X135965350Y-11531700D01*
X135965350Y-11531700D02*
X135841541Y-11593604D01*
X135841541Y-11593604D02*
X135470112Y-11593604D01*
X135470112Y-11593604D02*
X135346303Y-11531700D01*
X135346303Y-11531700D02*
X135284398Y-11469795D01*
D10*
D11*
X185965350Y-10726938D02*
X185965350Y-11593604D01*
X185655826Y-10231700D02*
X185346303Y-11160271D01*
X185346303Y-11160271D02*
X186151064Y-11160271D01*
D10*
D11*
X236027255Y-10293604D02*
X235408207Y-10293604D01*
X235408207Y-10293604D02*
X235346303Y-10912652D01*
X235346303Y-10912652D02*
X235408207Y-10850747D01*
X235408207Y-10850747D02*
X235532017Y-10788842D01*
X235532017Y-10788842D02*
X235841541Y-10788842D01*
X235841541Y-10788842D02*
X235965350Y-10850747D01*
X235965350Y-10850747D02*
X236027255Y-10912652D01*
X236027255Y-10912652D02*
X236089160Y-11036461D01*
X236089160Y-11036461D02*
X236089160Y-11345985D01*
X236089160Y-11345985D02*
X236027255Y-11469795D01*
X236027255Y-11469795D02*
X235965350Y-11531700D01*
X235965350Y-11531700D02*
X235841541Y-11593604D01*
X235841541Y-11593604D02*
X235532017Y-11593604D01*
X235532017Y-11593604D02*
X235408207Y-11531700D01*
X235408207Y-11531700D02*
X235346303Y-11469795D01*
D10*
D11*
X285965350Y-10293604D02*
X285717731Y-10293604D01*
X285717731Y-10293604D02*
X285593922Y-10355509D01*
X285593922Y-10355509D02*
X285532017Y-10417414D01*
X285532017Y-10417414D02*
X285408207Y-10603128D01*
X285408207Y-10603128D02*
X285346303Y-10850747D01*
X285346303Y-10850747D02*
X285346303Y-11345985D01*
X285346303Y-11345985D02*
X285408207Y-11469795D01*
X285408207Y-11469795D02*
X285470112Y-11531700D01*
X285470112Y-11531700D02*
X285593922Y-11593604D01*
X285593922Y-11593604D02*
X285841541Y-11593604D01*
X285841541Y-11593604D02*
X285965350Y-11531700D01*
X285965350Y-11531700D02*
X286027255Y-11469795D01*
X286027255Y-11469795D02*
X286089160Y-11345985D01*
X286089160Y-11345985D02*
X286089160Y-11036461D01*
X286089160Y-11036461D02*
X286027255Y-10912652D01*
X286027255Y-10912652D02*
X285965350Y-10850747D01*
X285965350Y-10850747D02*
X285841541Y-10788842D01*
X285841541Y-10788842D02*
X285593922Y-10788842D01*
X285593922Y-10788842D02*
X285470112Y-10850747D01*
X285470112Y-10850747D02*
X285408207Y-10912652D01*
X285408207Y-10912652D02*
X285346303Y-11036461D01*
D10*
D11*
X60000000Y-198007200D02*
X60000000Y-200007200D01*
D10*
D11*
X110000000Y-198007200D02*
X110000000Y-200007200D01*
D10*
D11*
X160000000Y-198007200D02*
X160000000Y-200007200D01*
D10*
D11*
X210000000Y-198007200D02*
X210000000Y-200007200D01*
D10*
D11*
X260000000Y-198007200D02*
X260000000Y-200007200D01*
D10*
D11*
X36089160Y-199600804D02*
X35346303Y-199600804D01*
X35717731Y-199600804D02*
X35717731Y-198300804D01*
X35717731Y-198300804D02*
X35593922Y-198486519D01*
X35593922Y-198486519D02*
X35470112Y-198610328D01*
X35470112Y-198610328D02*
X35346303Y-198672233D01*
D10*
D11*
X85346303Y-198424614D02*
X85408207Y-198362709D01*
X85408207Y-198362709D02*
X85532017Y-198300804D01*
X85532017Y-198300804D02*
X85841541Y-198300804D01*
X85841541Y-198300804D02*
X85965350Y-198362709D01*
X85965350Y-198362709D02*
X86027255Y-198424614D01*
X86027255Y-198424614D02*
X86089160Y-198548423D01*
X86089160Y-198548423D02*
X86089160Y-198672233D01*
X86089160Y-198672233D02*
X86027255Y-198857947D01*
X86027255Y-198857947D02*
X85284398Y-199600804D01*
X85284398Y-199600804D02*
X86089160Y-199600804D01*
D10*
D11*
X135284398Y-198300804D02*
X136089160Y-198300804D01*
X136089160Y-198300804D02*
X135655826Y-198796042D01*
X135655826Y-198796042D02*
X135841541Y-198796042D01*
X135841541Y-198796042D02*
X135965350Y-198857947D01*
X135965350Y-198857947D02*
X136027255Y-198919852D01*
X136027255Y-198919852D02*
X136089160Y-199043661D01*
X136089160Y-199043661D02*
X136089160Y-199353185D01*
X136089160Y-199353185D02*
X136027255Y-199476995D01*
X136027255Y-199476995D02*
X135965350Y-199538900D01*
X135965350Y-199538900D02*
X135841541Y-199600804D01*
X135841541Y-199600804D02*
X135470112Y-199600804D01*
X135470112Y-199600804D02*
X135346303Y-199538900D01*
X135346303Y-199538900D02*
X135284398Y-199476995D01*
D10*
D11*
X185965350Y-198734138D02*
X185965350Y-199600804D01*
X185655826Y-198238900D02*
X185346303Y-199167471D01*
X185346303Y-199167471D02*
X186151064Y-199167471D01*
D10*
D11*
X236027255Y-198300804D02*
X235408207Y-198300804D01*
X235408207Y-198300804D02*
X235346303Y-198919852D01*
X235346303Y-198919852D02*
X235408207Y-198857947D01*
X235408207Y-198857947D02*
X235532017Y-198796042D01*
X235532017Y-198796042D02*
X235841541Y-198796042D01*
X235841541Y-198796042D02*
X235965350Y-198857947D01*
X235965350Y-198857947D02*
X236027255Y-198919852D01*
X236027255Y-198919852D02*
X236089160Y-199043661D01*
X236089160Y-199043661D02*
X236089160Y-199353185D01*
X236089160Y-199353185D02*
X236027255Y-199476995D01*
X236027255Y-199476995D02*
X235965350Y-199538900D01*
X235965350Y-199538900D02*
X235841541Y-199600804D01*
X235841541Y-199600804D02*
X235532017Y-199600804D01*
X235532017Y-199600804D02*
X235408207Y-199538900D01*
X235408207Y-199538900D02*
X235346303Y-199476995D01*
D10*
D11*
X285965350Y-198300804D02*
X285717731Y-198300804D01*
X285717731Y-198300804D02*
X285593922Y-198362709D01*
X285593922Y-198362709D02*
X285532017Y-198424614D01*
X285532017Y-198424614D02*
X285408207Y-198610328D01*
X285408207Y-198610328D02*
X285346303Y-198857947D01*
X285346303Y-198857947D02*
X285346303Y-199353185D01*
X285346303Y-199353185D02*
X285408207Y-199476995D01*
X285408207Y-199476995D02*
X285470112Y-199538900D01*
X285470112Y-199538900D02*
X285593922Y-199600804D01*
X285593922Y-199600804D02*
X285841541Y-199600804D01*
X285841541Y-199600804D02*
X285965350Y-199538900D01*
X285965350Y-199538900D02*
X286027255Y-199476995D01*
X286027255Y-199476995D02*
X286089160Y-199353185D01*
X286089160Y-199353185D02*
X286089160Y-199043661D01*
X286089160Y-199043661D02*
X286027255Y-198919852D01*
X286027255Y-198919852D02*
X285965350Y-198857947D01*
X285965350Y-198857947D02*
X285841541Y-198796042D01*
X285841541Y-198796042D02*
X285593922Y-198796042D01*
X285593922Y-198796042D02*
X285470112Y-198857947D01*
X285470112Y-198857947D02*
X285408207Y-198919852D01*
X285408207Y-198919852D02*
X285346303Y-199043661D01*
D10*
D11*
X10000000Y-60000000D02*
X12000000Y-60000000D01*
D10*
D11*
X10000000Y-110000000D02*
X12000000Y-110000000D01*
D10*
D11*
X10000000Y-160000000D02*
X12000000Y-160000000D01*
D10*
D11*
X10690476Y-35222176D02*
X11309523Y-35222176D01*
X10566666Y-35593604D02*
X10999999Y-34293604D01*
X10999999Y-34293604D02*
X11433333Y-35593604D01*
D10*
D11*
X11092857Y-84912652D02*
X11278571Y-84974557D01*
X11278571Y-84974557D02*
X11340476Y-85036461D01*
X11340476Y-85036461D02*
X11402380Y-85160271D01*
X11402380Y-85160271D02*
X11402380Y-85345985D01*
X11402380Y-85345985D02*
X11340476Y-85469795D01*
X11340476Y-85469795D02*
X11278571Y-85531700D01*
X11278571Y-85531700D02*
X11154761Y-85593604D01*
X11154761Y-85593604D02*
X10659523Y-85593604D01*
X10659523Y-85593604D02*
X10659523Y-84293604D01*
X10659523Y-84293604D02*
X11092857Y-84293604D01*
X11092857Y-84293604D02*
X11216666Y-84355509D01*
X11216666Y-84355509D02*
X11278571Y-84417414D01*
X11278571Y-84417414D02*
X11340476Y-84541223D01*
X11340476Y-84541223D02*
X11340476Y-84665033D01*
X11340476Y-84665033D02*
X11278571Y-84788842D01*
X11278571Y-84788842D02*
X11216666Y-84850747D01*
X11216666Y-84850747D02*
X11092857Y-84912652D01*
X11092857Y-84912652D02*
X10659523Y-84912652D01*
D10*
D11*
X11402380Y-135469795D02*
X11340476Y-135531700D01*
X11340476Y-135531700D02*
X11154761Y-135593604D01*
X11154761Y-135593604D02*
X11030952Y-135593604D01*
X11030952Y-135593604D02*
X10845238Y-135531700D01*
X10845238Y-135531700D02*
X10721428Y-135407890D01*
X10721428Y-135407890D02*
X10659523Y-135284080D01*
X10659523Y-135284080D02*
X10597619Y-135036461D01*
X10597619Y-135036461D02*
X10597619Y-134850747D01*
X10597619Y-134850747D02*
X10659523Y-134603128D01*
X10659523Y-134603128D02*
X10721428Y-134479319D01*
X10721428Y-134479319D02*
X10845238Y-134355509D01*
X10845238Y-134355509D02*
X11030952Y-134293604D01*
X11030952Y-134293604D02*
X11154761Y-134293604D01*
X11154761Y-134293604D02*
X11340476Y-134355509D01*
X11340476Y-134355509D02*
X11402380Y-134417414D01*
D10*
D11*
X10659523Y-185593604D02*
X10659523Y-184293604D01*
X10659523Y-184293604D02*
X10969047Y-184293604D01*
X10969047Y-184293604D02*
X11154761Y-184355509D01*
X11154761Y-184355509D02*
X11278571Y-184479319D01*
X11278571Y-184479319D02*
X11340476Y-184603128D01*
X11340476Y-184603128D02*
X11402380Y-184850747D01*
X11402380Y-184850747D02*
X11402380Y-185036461D01*
X11402380Y-185036461D02*
X11340476Y-185284080D01*
X11340476Y-185284080D02*
X11278571Y-185407890D01*
X11278571Y-185407890D02*
X11154761Y-185531700D01*
X11154761Y-185531700D02*
X10969047Y-185593604D01*
X10969047Y-185593604D02*
X10659523Y-185593604D01*
D10*
D11*
X287002200Y-60000000D02*
X285002200Y-60000000D01*
D10*
D11*
X287002200Y-110000000D02*
X285002200Y-110000000D01*
D10*
D11*
X287002200Y-160000000D02*
X285002200Y-160000000D01*
D10*
D11*
X285692676Y-35222176D02*
X286311723Y-35222176D01*
X285568866Y-35593604D02*
X286002199Y-34293604D01*
X286002199Y-34293604D02*
X286435533Y-35593604D01*
D10*
D11*
X286095057Y-84912652D02*
X286280771Y-84974557D01*
X286280771Y-84974557D02*
X286342676Y-85036461D01*
X286342676Y-85036461D02*
X286404580Y-85160271D01*
X286404580Y-85160271D02*
X286404580Y-85345985D01*
X286404580Y-85345985D02*
X286342676Y-85469795D01*
X286342676Y-85469795D02*
X286280771Y-85531700D01*
X286280771Y-85531700D02*
X286156961Y-85593604D01*
X286156961Y-85593604D02*
X285661723Y-85593604D01*
X285661723Y-85593604D02*
X285661723Y-84293604D01*
X285661723Y-84293604D02*
X286095057Y-84293604D01*
X286095057Y-84293604D02*
X286218866Y-84355509D01*
X286218866Y-84355509D02*
X286280771Y-84417414D01*
X286280771Y-84417414D02*
X286342676Y-84541223D01*
X286342676Y-84541223D02*
X286342676Y-84665033D01*
X286342676Y-84665033D02*
X286280771Y-84788842D01*
X286280771Y-84788842D02*
X286218866Y-84850747D01*
X286218866Y-84850747D02*
X286095057Y-84912652D01*
X286095057Y-84912652D02*
X285661723Y-84912652D01*
D10*
D11*
X286404580Y-135469795D02*
X286342676Y-135531700D01*
X286342676Y-135531700D02*
X286156961Y-135593604D01*
X286156961Y-135593604D02*
X286033152Y-135593604D01*
X286033152Y-135593604D02*
X285847438Y-135531700D01*
X285847438Y-135531700D02*
X285723628Y-135407890D01*
X285723628Y-135407890D02*
X285661723Y-135284080D01*
X285661723Y-135284080D02*
X285599819Y-135036461D01*
X285599819Y-135036461D02*
X285599819Y-134850747D01*
X285599819Y-134850747D02*
X285661723Y-134603128D01*
X285661723Y-134603128D02*
X285723628Y-134479319D01*
X285723628Y-134479319D02*
X285847438Y-134355509D01*
X285847438Y-134355509D02*
X286033152Y-134293604D01*
X286033152Y-134293604D02*
X286156961Y-134293604D01*
X286156961Y-134293604D02*
X286342676Y-134355509D01*
X286342676Y-134355509D02*
X286404580Y-134417414D01*
D10*
D11*
X285661723Y-185593604D02*
X285661723Y-184293604D01*
X285661723Y-184293604D02*
X285971247Y-184293604D01*
X285971247Y-184293604D02*
X286156961Y-184355509D01*
X286156961Y-184355509D02*
X286280771Y-184479319D01*
X286280771Y-184479319D02*
X286342676Y-184603128D01*
X286342676Y-184603128D02*
X286404580Y-184850747D01*
X286404580Y-184850747D02*
X286404580Y-185036461D01*
X286404580Y-185036461D02*
X286342676Y-185284080D01*
X286342676Y-185284080D02*
X286280771Y-185407890D01*
X286280771Y-185407890D02*
X286156961Y-185531700D01*
X286156961Y-185531700D02*
X285971247Y-185593604D01*
X285971247Y-185593604D02*
X285661723Y-185593604D01*
D10*
D11*
X200458026Y-193793328D02*
X200458026Y-192293328D01*
X200458026Y-192293328D02*
X200815169Y-192293328D01*
X200815169Y-192293328D02*
X201029455Y-192364757D01*
X201029455Y-192364757D02*
X201172312Y-192507614D01*
X201172312Y-192507614D02*
X201243741Y-192650471D01*
X201243741Y-192650471D02*
X201315169Y-192936185D01*
X201315169Y-192936185D02*
X201315169Y-193150471D01*
X201315169Y-193150471D02*
X201243741Y-193436185D01*
X201243741Y-193436185D02*
X201172312Y-193579042D01*
X201172312Y-193579042D02*
X201029455Y-193721900D01*
X201029455Y-193721900D02*
X200815169Y-193793328D01*
X200815169Y-193793328D02*
X200458026Y-193793328D01*
X202600884Y-193793328D02*
X202600884Y-193007614D01*
X202600884Y-193007614D02*
X202529455Y-192864757D01*
X202529455Y-192864757D02*
X202386598Y-192793328D01*
X202386598Y-192793328D02*
X202100884Y-192793328D01*
X202100884Y-192793328D02*
X201958026Y-192864757D01*
X202600884Y-193721900D02*
X202458026Y-193793328D01*
X202458026Y-193793328D02*
X202100884Y-193793328D01*
X202100884Y-193793328D02*
X201958026Y-193721900D01*
X201958026Y-193721900D02*
X201886598Y-193579042D01*
X201886598Y-193579042D02*
X201886598Y-193436185D01*
X201886598Y-193436185D02*
X201958026Y-193293328D01*
X201958026Y-193293328D02*
X202100884Y-193221900D01*
X202100884Y-193221900D02*
X202458026Y-193221900D01*
X202458026Y-193221900D02*
X202600884Y-193150471D01*
X203100884Y-192793328D02*
X203672312Y-192793328D01*
X203315169Y-192293328D02*
X203315169Y-193579042D01*
X203315169Y-193579042D02*
X203386598Y-193721900D01*
X203386598Y-193721900D02*
X203529455Y-193793328D01*
X203529455Y-193793328D02*
X203672312Y-193793328D01*
X204743741Y-193721900D02*
X204600884Y-193793328D01*
X204600884Y-193793328D02*
X204315170Y-193793328D01*
X204315170Y-193793328D02*
X204172312Y-193721900D01*
X204172312Y-193721900D02*
X204100884Y-193579042D01*
X204100884Y-193579042D02*
X204100884Y-193007614D01*
X204100884Y-193007614D02*
X204172312Y-192864757D01*
X204172312Y-192864757D02*
X204315170Y-192793328D01*
X204315170Y-192793328D02*
X204600884Y-192793328D01*
X204600884Y-192793328D02*
X204743741Y-192864757D01*
X204743741Y-192864757D02*
X204815170Y-193007614D01*
X204815170Y-193007614D02*
X204815170Y-193150471D01*
X204815170Y-193150471D02*
X204100884Y-193293328D01*
X205458026Y-193650471D02*
X205529455Y-193721900D01*
X205529455Y-193721900D02*
X205458026Y-193793328D01*
X205458026Y-193793328D02*
X205386598Y-193721900D01*
X205386598Y-193721900D02*
X205458026Y-193650471D01*
X205458026Y-193650471D02*
X205458026Y-193793328D01*
X205458026Y-192864757D02*
X205529455Y-192936185D01*
X205529455Y-192936185D02*
X205458026Y-193007614D01*
X205458026Y-193007614D02*
X205386598Y-192936185D01*
X205386598Y-192936185D02*
X205458026Y-192864757D01*
X205458026Y-192864757D02*
X205458026Y-193007614D01*
D10*
D11*
X177002200Y-194507200D02*
X285002200Y-194507200D01*
D10*
D11*
X178458026Y-196593328D02*
X178458026Y-195093328D01*
X179315169Y-196593328D02*
X178672312Y-195736185D01*
X179315169Y-195093328D02*
X178458026Y-195950471D01*
X179958026Y-196593328D02*
X179958026Y-195593328D01*
X179958026Y-195093328D02*
X179886598Y-195164757D01*
X179886598Y-195164757D02*
X179958026Y-195236185D01*
X179958026Y-195236185D02*
X180029455Y-195164757D01*
X180029455Y-195164757D02*
X179958026Y-195093328D01*
X179958026Y-195093328D02*
X179958026Y-195236185D01*
X181529455Y-196450471D02*
X181458027Y-196521900D01*
X181458027Y-196521900D02*
X181243741Y-196593328D01*
X181243741Y-196593328D02*
X181100884Y-196593328D01*
X181100884Y-196593328D02*
X180886598Y-196521900D01*
X180886598Y-196521900D02*
X180743741Y-196379042D01*
X180743741Y-196379042D02*
X180672312Y-196236185D01*
X180672312Y-196236185D02*
X180600884Y-195950471D01*
X180600884Y-195950471D02*
X180600884Y-195736185D01*
X180600884Y-195736185D02*
X180672312Y-195450471D01*
X180672312Y-195450471D02*
X180743741Y-195307614D01*
X180743741Y-195307614D02*
X180886598Y-195164757D01*
X180886598Y-195164757D02*
X181100884Y-195093328D01*
X181100884Y-195093328D02*
X181243741Y-195093328D01*
X181243741Y-195093328D02*
X181458027Y-195164757D01*
X181458027Y-195164757D02*
X181529455Y-195236185D01*
X182815170Y-196593328D02*
X182815170Y-195807614D01*
X182815170Y-195807614D02*
X182743741Y-195664757D01*
X182743741Y-195664757D02*
X182600884Y-195593328D01*
X182600884Y-195593328D02*
X182315170Y-195593328D01*
X182315170Y-195593328D02*
X182172312Y-195664757D01*
X182815170Y-196521900D02*
X182672312Y-196593328D01*
X182672312Y-196593328D02*
X182315170Y-196593328D01*
X182315170Y-196593328D02*
X182172312Y-196521900D01*
X182172312Y-196521900D02*
X182100884Y-196379042D01*
X182100884Y-196379042D02*
X182100884Y-196236185D01*
X182100884Y-196236185D02*
X182172312Y-196093328D01*
X182172312Y-196093328D02*
X182315170Y-196021900D01*
X182315170Y-196021900D02*
X182672312Y-196021900D01*
X182672312Y-196021900D02*
X182815170Y-195950471D01*
X184172313Y-196593328D02*
X184172313Y-195093328D01*
X184172313Y-196521900D02*
X184029455Y-196593328D01*
X184029455Y-196593328D02*
X183743741Y-196593328D01*
X183743741Y-196593328D02*
X183600884Y-196521900D01*
X183600884Y-196521900D02*
X183529455Y-196450471D01*
X183529455Y-196450471D02*
X183458027Y-196307614D01*
X183458027Y-196307614D02*
X183458027Y-195879042D01*
X183458027Y-195879042D02*
X183529455Y-195736185D01*
X183529455Y-195736185D02*
X183600884Y-195664757D01*
X183600884Y-195664757D02*
X183743741Y-195593328D01*
X183743741Y-195593328D02*
X184029455Y-195593328D01*
X184029455Y-195593328D02*
X184172313Y-195664757D01*
X186029455Y-195807614D02*
X186529455Y-195807614D01*
X186743741Y-196593328D02*
X186029455Y-196593328D01*
X186029455Y-196593328D02*
X186029455Y-195093328D01*
X186029455Y-195093328D02*
X186743741Y-195093328D01*
X187386598Y-196450471D02*
X187458027Y-196521900D01*
X187458027Y-196521900D02*
X187386598Y-196593328D01*
X187386598Y-196593328D02*
X187315170Y-196521900D01*
X187315170Y-196521900D02*
X187386598Y-196450471D01*
X187386598Y-196450471D02*
X187386598Y-196593328D01*
X188100884Y-196593328D02*
X188100884Y-195093328D01*
X188100884Y-195093328D02*
X188458027Y-195093328D01*
X188458027Y-195093328D02*
X188672313Y-195164757D01*
X188672313Y-195164757D02*
X188815170Y-195307614D01*
X188815170Y-195307614D02*
X188886599Y-195450471D01*
X188886599Y-195450471D02*
X188958027Y-195736185D01*
X188958027Y-195736185D02*
X188958027Y-195950471D01*
X188958027Y-195950471D02*
X188886599Y-196236185D01*
X188886599Y-196236185D02*
X188815170Y-196379042D01*
X188815170Y-196379042D02*
X188672313Y-196521900D01*
X188672313Y-196521900D02*
X188458027Y-196593328D01*
X188458027Y-196593328D02*
X188100884Y-196593328D01*
X189600884Y-196450471D02*
X189672313Y-196521900D01*
X189672313Y-196521900D02*
X189600884Y-196593328D01*
X189600884Y-196593328D02*
X189529456Y-196521900D01*
X189529456Y-196521900D02*
X189600884Y-196450471D01*
X189600884Y-196450471D02*
X189600884Y-196593328D01*
X190243742Y-196164757D02*
X190958028Y-196164757D01*
X190100885Y-196593328D02*
X190600885Y-195093328D01*
X190600885Y-195093328D02*
X191100885Y-196593328D01*
X191600884Y-196450471D02*
X191672313Y-196521900D01*
X191672313Y-196521900D02*
X191600884Y-196593328D01*
X191600884Y-196593328D02*
X191529456Y-196521900D01*
X191529456Y-196521900D02*
X191600884Y-196450471D01*
X191600884Y-196450471D02*
X191600884Y-196593328D01*
X194600884Y-196593328D02*
X194600884Y-195093328D01*
X194743742Y-196021900D02*
X195172313Y-196593328D01*
X195172313Y-195593328D02*
X194600884Y-196164757D01*
X195815170Y-196593328D02*
X195815170Y-195593328D01*
X195815170Y-195093328D02*
X195743742Y-195164757D01*
X195743742Y-195164757D02*
X195815170Y-195236185D01*
X195815170Y-195236185D02*
X195886599Y-195164757D01*
X195886599Y-195164757D02*
X195815170Y-195093328D01*
X195815170Y-195093328D02*
X195815170Y-195236185D01*
X197172314Y-196521900D02*
X197029456Y-196593328D01*
X197029456Y-196593328D02*
X196743742Y-196593328D01*
X196743742Y-196593328D02*
X196600885Y-196521900D01*
X196600885Y-196521900D02*
X196529456Y-196450471D01*
X196529456Y-196450471D02*
X196458028Y-196307614D01*
X196458028Y-196307614D02*
X196458028Y-195879042D01*
X196458028Y-195879042D02*
X196529456Y-195736185D01*
X196529456Y-195736185D02*
X196600885Y-195664757D01*
X196600885Y-195664757D02*
X196743742Y-195593328D01*
X196743742Y-195593328D02*
X197029456Y-195593328D01*
X197029456Y-195593328D02*
X197172314Y-195664757D01*
X198458028Y-196593328D02*
X198458028Y-195807614D01*
X198458028Y-195807614D02*
X198386599Y-195664757D01*
X198386599Y-195664757D02*
X198243742Y-195593328D01*
X198243742Y-195593328D02*
X197958028Y-195593328D01*
X197958028Y-195593328D02*
X197815170Y-195664757D01*
X198458028Y-196521900D02*
X198315170Y-196593328D01*
X198315170Y-196593328D02*
X197958028Y-196593328D01*
X197958028Y-196593328D02*
X197815170Y-196521900D01*
X197815170Y-196521900D02*
X197743742Y-196379042D01*
X197743742Y-196379042D02*
X197743742Y-196236185D01*
X197743742Y-196236185D02*
X197815170Y-196093328D01*
X197815170Y-196093328D02*
X197958028Y-196021900D01*
X197958028Y-196021900D02*
X198315170Y-196021900D01*
X198315170Y-196021900D02*
X198458028Y-195950471D01*
X199815171Y-196593328D02*
X199815171Y-195093328D01*
X199815171Y-196521900D02*
X199672313Y-196593328D01*
X199672313Y-196593328D02*
X199386599Y-196593328D01*
X199386599Y-196593328D02*
X199243742Y-196521900D01*
X199243742Y-196521900D02*
X199172313Y-196450471D01*
X199172313Y-196450471D02*
X199100885Y-196307614D01*
X199100885Y-196307614D02*
X199100885Y-195879042D01*
X199100885Y-195879042D02*
X199172313Y-195736185D01*
X199172313Y-195736185D02*
X199243742Y-195664757D01*
X199243742Y-195664757D02*
X199386599Y-195593328D01*
X199386599Y-195593328D02*
X199672313Y-195593328D01*
X199672313Y-195593328D02*
X199815171Y-195664757D01*
X201529456Y-195093328D02*
X202529456Y-195093328D01*
X202529456Y-195093328D02*
X201886599Y-196593328D01*
X203100884Y-196450471D02*
X203172313Y-196521900D01*
X203172313Y-196521900D02*
X203100884Y-196593328D01*
X203100884Y-196593328D02*
X203029456Y-196521900D01*
X203029456Y-196521900D02*
X203100884Y-196450471D01*
X203100884Y-196450471D02*
X203100884Y-196593328D01*
X204100885Y-195093328D02*
X204243742Y-195093328D01*
X204243742Y-195093328D02*
X204386599Y-195164757D01*
X204386599Y-195164757D02*
X204458028Y-195236185D01*
X204458028Y-195236185D02*
X204529456Y-195379042D01*
X204529456Y-195379042D02*
X204600885Y-195664757D01*
X204600885Y-195664757D02*
X204600885Y-196021900D01*
X204600885Y-196021900D02*
X204529456Y-196307614D01*
X204529456Y-196307614D02*
X204458028Y-196450471D01*
X204458028Y-196450471D02*
X204386599Y-196521900D01*
X204386599Y-196521900D02*
X204243742Y-196593328D01*
X204243742Y-196593328D02*
X204100885Y-196593328D01*
X204100885Y-196593328D02*
X203958028Y-196521900D01*
X203958028Y-196521900D02*
X203886599Y-196450471D01*
X203886599Y-196450471D02*
X203815170Y-196307614D01*
X203815170Y-196307614D02*
X203743742Y-196021900D01*
X203743742Y-196021900D02*
X203743742Y-195664757D01*
X203743742Y-195664757D02*
X203815170Y-195379042D01*
X203815170Y-195379042D02*
X203886599Y-195236185D01*
X203886599Y-195236185D02*
X203958028Y-195164757D01*
X203958028Y-195164757D02*
X204100885Y-195093328D01*
X205243741Y-196450471D02*
X205315170Y-196521900D01*
X205315170Y-196521900D02*
X205243741Y-196593328D01*
X205243741Y-196593328D02*
X205172313Y-196521900D01*
X205172313Y-196521900D02*
X205243741Y-196450471D01*
X205243741Y-196450471D02*
X205243741Y-196593328D01*
X205815170Y-195093328D02*
X206815170Y-195093328D01*
X206815170Y-195093328D02*
X206172313Y-196593328D01*
D10*
D11*
X177002200Y-191507200D02*
X285002200Y-191507200D01*
D10*
D12*
X264413853Y-193785528D02*
X263913853Y-193071242D01*
X263556710Y-193785528D02*
X263556710Y-192285528D01*
X263556710Y-192285528D02*
X264128139Y-192285528D01*
X264128139Y-192285528D02*
X264270996Y-192356957D01*
X264270996Y-192356957D02*
X264342425Y-192428385D01*
X264342425Y-192428385D02*
X264413853Y-192571242D01*
X264413853Y-192571242D02*
X264413853Y-192785528D01*
X264413853Y-192785528D02*
X264342425Y-192928385D01*
X264342425Y-192928385D02*
X264270996Y-192999814D01*
X264270996Y-192999814D02*
X264128139Y-193071242D01*
X264128139Y-193071242D02*
X263556710Y-193071242D01*
X265628139Y-193714100D02*
X265485282Y-193785528D01*
X265485282Y-193785528D02*
X265199568Y-193785528D01*
X265199568Y-193785528D02*
X265056710Y-193714100D01*
X265056710Y-193714100D02*
X264985282Y-193571242D01*
X264985282Y-193571242D02*
X264985282Y-192999814D01*
X264985282Y-192999814D02*
X265056710Y-192856957D01*
X265056710Y-192856957D02*
X265199568Y-192785528D01*
X265199568Y-192785528D02*
X265485282Y-192785528D01*
X265485282Y-192785528D02*
X265628139Y-192856957D01*
X265628139Y-192856957D02*
X265699568Y-192999814D01*
X265699568Y-192999814D02*
X265699568Y-193142671D01*
X265699568Y-193142671D02*
X264985282Y-193285528D01*
X266199567Y-192785528D02*
X266556710Y-193785528D01*
X266556710Y-193785528D02*
X266913853Y-192785528D01*
X267485281Y-193642671D02*
X267556710Y-193714100D01*
X267556710Y-193714100D02*
X267485281Y-193785528D01*
X267485281Y-193785528D02*
X267413853Y-193714100D01*
X267413853Y-193714100D02*
X267485281Y-193642671D01*
X267485281Y-193642671D02*
X267485281Y-193785528D01*
X267485281Y-192856957D02*
X267556710Y-192928385D01*
X267556710Y-192928385D02*
X267485281Y-192999814D01*
X267485281Y-192999814D02*
X267413853Y-192928385D01*
X267413853Y-192928385D02*
X267485281Y-192856957D01*
X267485281Y-192856957D02*
X267485281Y-192999814D01*
D10*
D11*
X178386598Y-193721900D02*
X178600884Y-193793328D01*
X178600884Y-193793328D02*
X178958026Y-193793328D01*
X178958026Y-193793328D02*
X179100884Y-193721900D01*
X179100884Y-193721900D02*
X179172312Y-193650471D01*
X179172312Y-193650471D02*
X179243741Y-193507614D01*
X179243741Y-193507614D02*
X179243741Y-193364757D01*
X179243741Y-193364757D02*
X179172312Y-193221900D01*
X179172312Y-193221900D02*
X179100884Y-193150471D01*
X179100884Y-193150471D02*
X178958026Y-193079042D01*
X178958026Y-193079042D02*
X178672312Y-193007614D01*
X178672312Y-193007614D02*
X178529455Y-192936185D01*
X178529455Y-192936185D02*
X178458026Y-192864757D01*
X178458026Y-192864757D02*
X178386598Y-192721900D01*
X178386598Y-192721900D02*
X178386598Y-192579042D01*
X178386598Y-192579042D02*
X178458026Y-192436185D01*
X178458026Y-192436185D02*
X178529455Y-192364757D01*
X178529455Y-192364757D02*
X178672312Y-192293328D01*
X178672312Y-192293328D02*
X179029455Y-192293328D01*
X179029455Y-192293328D02*
X179243741Y-192364757D01*
X179886597Y-193793328D02*
X179886597Y-192793328D01*
X179886597Y-192293328D02*
X179815169Y-192364757D01*
X179815169Y-192364757D02*
X179886597Y-192436185D01*
X179886597Y-192436185D02*
X179958026Y-192364757D01*
X179958026Y-192364757D02*
X179886597Y-192293328D01*
X179886597Y-192293328D02*
X179886597Y-192436185D01*
X180458026Y-192793328D02*
X181243741Y-192793328D01*
X181243741Y-192793328D02*
X180458026Y-193793328D01*
X180458026Y-193793328D02*
X181243741Y-193793328D01*
X182386598Y-193721900D02*
X182243741Y-193793328D01*
X182243741Y-193793328D02*
X181958027Y-193793328D01*
X181958027Y-193793328D02*
X181815169Y-193721900D01*
X181815169Y-193721900D02*
X181743741Y-193579042D01*
X181743741Y-193579042D02*
X181743741Y-193007614D01*
X181743741Y-193007614D02*
X181815169Y-192864757D01*
X181815169Y-192864757D02*
X181958027Y-192793328D01*
X181958027Y-192793328D02*
X182243741Y-192793328D01*
X182243741Y-192793328D02*
X182386598Y-192864757D01*
X182386598Y-192864757D02*
X182458027Y-193007614D01*
X182458027Y-193007614D02*
X182458027Y-193150471D01*
X182458027Y-193150471D02*
X181743741Y-193293328D01*
X183100883Y-193650471D02*
X183172312Y-193721900D01*
X183172312Y-193721900D02*
X183100883Y-193793328D01*
X183100883Y-193793328D02*
X183029455Y-193721900D01*
X183029455Y-193721900D02*
X183100883Y-193650471D01*
X183100883Y-193650471D02*
X183100883Y-193793328D01*
X183100883Y-192864757D02*
X183172312Y-192936185D01*
X183172312Y-192936185D02*
X183100883Y-193007614D01*
X183100883Y-193007614D02*
X183029455Y-192936185D01*
X183029455Y-192936185D02*
X183100883Y-192864757D01*
X183100883Y-192864757D02*
X183100883Y-193007614D01*
X184886598Y-193364757D02*
X185600884Y-193364757D01*
X184743741Y-193793328D02*
X185243741Y-192293328D01*
X185243741Y-192293328D02*
X185743741Y-193793328D01*
X186886598Y-192793328D02*
X186886598Y-193793328D01*
X186529455Y-192221900D02*
X186172312Y-193293328D01*
X186172312Y-193293328D02*
X187100883Y-193293328D01*
D10*
D11*
X263458026Y-196593328D02*
X263458026Y-195093328D01*
X264815170Y-196593328D02*
X264815170Y-195093328D01*
X264815170Y-196521900D02*
X264672312Y-196593328D01*
X264672312Y-196593328D02*
X264386598Y-196593328D01*
X264386598Y-196593328D02*
X264243741Y-196521900D01*
X264243741Y-196521900D02*
X264172312Y-196450471D01*
X264172312Y-196450471D02*
X264100884Y-196307614D01*
X264100884Y-196307614D02*
X264100884Y-195879042D01*
X264100884Y-195879042D02*
X264172312Y-195736185D01*
X264172312Y-195736185D02*
X264243741Y-195664757D01*
X264243741Y-195664757D02*
X264386598Y-195593328D01*
X264386598Y-195593328D02*
X264672312Y-195593328D01*
X264672312Y-195593328D02*
X264815170Y-195664757D01*
X265529455Y-196450471D02*
X265600884Y-196521900D01*
X265600884Y-196521900D02*
X265529455Y-196593328D01*
X265529455Y-196593328D02*
X265458027Y-196521900D01*
X265458027Y-196521900D02*
X265529455Y-196450471D01*
X265529455Y-196450471D02*
X265529455Y-196593328D01*
X265529455Y-195664757D02*
X265600884Y-195736185D01*
X265600884Y-195736185D02*
X265529455Y-195807614D01*
X265529455Y-195807614D02*
X265458027Y-195736185D01*
X265458027Y-195736185D02*
X265529455Y-195664757D01*
X265529455Y-195664757D02*
X265529455Y-195807614D01*
X268172313Y-196593328D02*
X267315170Y-196593328D01*
X267743741Y-196593328D02*
X267743741Y-195093328D01*
X267743741Y-195093328D02*
X267600884Y-195307614D01*
X267600884Y-195307614D02*
X267458027Y-195450471D01*
X267458027Y-195450471D02*
X267315170Y-195521900D01*
X269886598Y-195021900D02*
X268600884Y-196950471D01*
X271172313Y-196593328D02*
X270315170Y-196593328D01*
X270743741Y-196593328D02*
X270743741Y-195093328D01*
X270743741Y-195093328D02*
X270600884Y-195307614D01*
X270600884Y-195307614D02*
X270458027Y-195450471D01*
X270458027Y-195450471D02*
X270315170Y-195521900D01*
D10*
D11*
X177002200Y-187507200D02*
X285002200Y-187507200D01*
D10*
D13*
X178693928Y-188211638D02*
X179836785Y-188211638D01*
X179015357Y-190211638D02*
X179265357Y-188211638D01*
X180253452Y-190211638D02*
X180420119Y-188878304D01*
X180503452Y-188211638D02*
X180396309Y-188306876D01*
X180396309Y-188306876D02*
X180479643Y-188402114D01*
X180479643Y-188402114D02*
X180586786Y-188306876D01*
X180586786Y-188306876D02*
X180503452Y-188211638D01*
X180503452Y-188211638D02*
X180479643Y-188402114D01*
X181086786Y-188878304D02*
X181848690Y-188878304D01*
X181455833Y-188211638D02*
X181241548Y-189925923D01*
X181241548Y-189925923D02*
X181312976Y-190116400D01*
X181312976Y-190116400D02*
X181491548Y-190211638D01*
X181491548Y-190211638D02*
X181682024Y-190211638D01*
X182634405Y-190211638D02*
X182455833Y-190116400D01*
X182455833Y-190116400D02*
X182384405Y-189925923D01*
X182384405Y-189925923D02*
X182598690Y-188211638D01*
X184170119Y-190116400D02*
X183967738Y-190211638D01*
X183967738Y-190211638D02*
X183586785Y-190211638D01*
X183586785Y-190211638D02*
X183408214Y-190116400D01*
X183408214Y-190116400D02*
X183336785Y-189925923D01*
X183336785Y-189925923D02*
X183432024Y-189164019D01*
X183432024Y-189164019D02*
X183551071Y-188973542D01*
X183551071Y-188973542D02*
X183753452Y-188878304D01*
X183753452Y-188878304D02*
X184134404Y-188878304D01*
X184134404Y-188878304D02*
X184312976Y-188973542D01*
X184312976Y-188973542D02*
X184384404Y-189164019D01*
X184384404Y-189164019D02*
X184360595Y-189354495D01*
X184360595Y-189354495D02*
X183384404Y-189544971D01*
X185134405Y-190021161D02*
X185217738Y-190116400D01*
X185217738Y-190116400D02*
X185110595Y-190211638D01*
X185110595Y-190211638D02*
X185027262Y-190116400D01*
X185027262Y-190116400D02*
X185134405Y-190021161D01*
X185134405Y-190021161D02*
X185110595Y-190211638D01*
X185265357Y-188973542D02*
X185348690Y-189068780D01*
X185348690Y-189068780D02*
X185241548Y-189164019D01*
X185241548Y-189164019D02*
X185158214Y-189068780D01*
X185158214Y-189068780D02*
X185265357Y-188973542D01*
X185265357Y-188973542D02*
X185241548Y-189164019D01*
D10*
D11*
X178958026Y-185607614D02*
X178458026Y-185607614D01*
X178458026Y-186393328D02*
X178458026Y-184893328D01*
X178458026Y-184893328D02*
X179172312Y-184893328D01*
X179743740Y-186393328D02*
X179743740Y-185393328D01*
X179743740Y-184893328D02*
X179672312Y-184964757D01*
X179672312Y-184964757D02*
X179743740Y-185036185D01*
X179743740Y-185036185D02*
X179815169Y-184964757D01*
X179815169Y-184964757D02*
X179743740Y-184893328D01*
X179743740Y-184893328D02*
X179743740Y-185036185D01*
X180672312Y-186393328D02*
X180529455Y-186321900D01*
X180529455Y-186321900D02*
X180458026Y-186179042D01*
X180458026Y-186179042D02*
X180458026Y-184893328D01*
X181815169Y-186321900D02*
X181672312Y-186393328D01*
X181672312Y-186393328D02*
X181386598Y-186393328D01*
X181386598Y-186393328D02*
X181243740Y-186321900D01*
X181243740Y-186321900D02*
X181172312Y-186179042D01*
X181172312Y-186179042D02*
X181172312Y-185607614D01*
X181172312Y-185607614D02*
X181243740Y-185464757D01*
X181243740Y-185464757D02*
X181386598Y-185393328D01*
X181386598Y-185393328D02*
X181672312Y-185393328D01*
X181672312Y-185393328D02*
X181815169Y-185464757D01*
X181815169Y-185464757D02*
X181886598Y-185607614D01*
X181886598Y-185607614D02*
X181886598Y-185750471D01*
X181886598Y-185750471D02*
X181172312Y-185893328D01*
X182529454Y-186250471D02*
X182600883Y-186321900D01*
X182600883Y-186321900D02*
X182529454Y-186393328D01*
X182529454Y-186393328D02*
X182458026Y-186321900D01*
X182458026Y-186321900D02*
X182529454Y-186250471D01*
X182529454Y-186250471D02*
X182529454Y-186393328D01*
X182529454Y-185464757D02*
X182600883Y-185536185D01*
X182600883Y-185536185D02*
X182529454Y-185607614D01*
X182529454Y-185607614D02*
X182458026Y-185536185D01*
X182458026Y-185536185D02*
X182529454Y-185464757D01*
X182529454Y-185464757D02*
X182529454Y-185607614D01*
X184243740Y-184893328D02*
X185172312Y-184893328D01*
X185172312Y-184893328D02*
X184672312Y-185464757D01*
X184672312Y-185464757D02*
X184886597Y-185464757D01*
X184886597Y-185464757D02*
X185029455Y-185536185D01*
X185029455Y-185536185D02*
X185100883Y-185607614D01*
X185100883Y-185607614D02*
X185172312Y-185750471D01*
X185172312Y-185750471D02*
X185172312Y-186107614D01*
X185172312Y-186107614D02*
X185100883Y-186250471D01*
X185100883Y-186250471D02*
X185029455Y-186321900D01*
X185029455Y-186321900D02*
X184886597Y-186393328D01*
X184886597Y-186393328D02*
X184458026Y-186393328D01*
X184458026Y-186393328D02*
X184315169Y-186321900D01*
X184315169Y-186321900D02*
X184243740Y-186250471D01*
X186100883Y-184893328D02*
X186243740Y-184893328D01*
X186243740Y-184893328D02*
X186386597Y-184964757D01*
X186386597Y-184964757D02*
X186458026Y-185036185D01*
X186458026Y-185036185D02*
X186529454Y-185179042D01*
X186529454Y-185179042D02*
X186600883Y-185464757D01*
X186600883Y-185464757D02*
X186600883Y-185821900D01*
X186600883Y-185821900D02*
X186529454Y-186107614D01*
X186529454Y-186107614D02*
X186458026Y-186250471D01*
X186458026Y-186250471D02*
X186386597Y-186321900D01*
X186386597Y-186321900D02*
X186243740Y-186393328D01*
X186243740Y-186393328D02*
X186100883Y-186393328D01*
X186100883Y-186393328D02*
X185958026Y-186321900D01*
X185958026Y-186321900D02*
X185886597Y-186250471D01*
X185886597Y-186250471D02*
X185815168Y-186107614D01*
X185815168Y-186107614D02*
X185743740Y-185821900D01*
X185743740Y-185821900D02*
X185743740Y-185464757D01*
X185743740Y-185464757D02*
X185815168Y-185179042D01*
X185815168Y-185179042D02*
X185886597Y-185036185D01*
X185886597Y-185036185D02*
X185958026Y-184964757D01*
X185958026Y-184964757D02*
X186100883Y-184893328D01*
X187172311Y-186321900D02*
X187315168Y-186393328D01*
X187315168Y-186393328D02*
X187600882Y-186393328D01*
X187600882Y-186393328D02*
X187743739Y-186321900D01*
X187743739Y-186321900D02*
X187815168Y-186179042D01*
X187815168Y-186179042D02*
X187815168Y-186107614D01*
X187815168Y-186107614D02*
X187743739Y-185964757D01*
X187743739Y-185964757D02*
X187600882Y-185893328D01*
X187600882Y-185893328D02*
X187386597Y-185893328D01*
X187386597Y-185893328D02*
X187243739Y-185821900D01*
X187243739Y-185821900D02*
X187172311Y-185679042D01*
X187172311Y-185679042D02*
X187172311Y-185607614D01*
X187172311Y-185607614D02*
X187243739Y-185464757D01*
X187243739Y-185464757D02*
X187386597Y-185393328D01*
X187386597Y-185393328D02*
X187600882Y-185393328D01*
X187600882Y-185393328D02*
X187743739Y-185464757D01*
X188458025Y-186393328D02*
X188458025Y-185393328D01*
X188458025Y-185536185D02*
X188529454Y-185464757D01*
X188529454Y-185464757D02*
X188672311Y-185393328D01*
X188672311Y-185393328D02*
X188886597Y-185393328D01*
X188886597Y-185393328D02*
X189029454Y-185464757D01*
X189029454Y-185464757D02*
X189100883Y-185607614D01*
X189100883Y-185607614D02*
X189100883Y-186393328D01*
X189100883Y-185607614D02*
X189172311Y-185464757D01*
X189172311Y-185464757D02*
X189315168Y-185393328D01*
X189315168Y-185393328D02*
X189529454Y-185393328D01*
X189529454Y-185393328D02*
X189672311Y-185464757D01*
X189672311Y-185464757D02*
X189743740Y-185607614D01*
X189743740Y-185607614D02*
X189743740Y-186393328D01*
X191100883Y-186393328D02*
X191100883Y-185607614D01*
X191100883Y-185607614D02*
X191029454Y-185464757D01*
X191029454Y-185464757D02*
X190886597Y-185393328D01*
X190886597Y-185393328D02*
X190600883Y-185393328D01*
X190600883Y-185393328D02*
X190458025Y-185464757D01*
X191100883Y-186321900D02*
X190958025Y-186393328D01*
X190958025Y-186393328D02*
X190600883Y-186393328D01*
X190600883Y-186393328D02*
X190458025Y-186321900D01*
X190458025Y-186321900D02*
X190386597Y-186179042D01*
X190386597Y-186179042D02*
X190386597Y-186036185D01*
X190386597Y-186036185D02*
X190458025Y-185893328D01*
X190458025Y-185893328D02*
X190600883Y-185821900D01*
X190600883Y-185821900D02*
X190958025Y-185821900D01*
X190958025Y-185821900D02*
X191100883Y-185750471D01*
X191815168Y-185821900D02*
X192958026Y-185821900D01*
X194315169Y-186393328D02*
X194315169Y-185607614D01*
X194315169Y-185607614D02*
X194243740Y-185464757D01*
X194243740Y-185464757D02*
X194100883Y-185393328D01*
X194100883Y-185393328D02*
X193815169Y-185393328D01*
X193815169Y-185393328D02*
X193672311Y-185464757D01*
X194315169Y-186321900D02*
X194172311Y-186393328D01*
X194172311Y-186393328D02*
X193815169Y-186393328D01*
X193815169Y-186393328D02*
X193672311Y-186321900D01*
X193672311Y-186321900D02*
X193600883Y-186179042D01*
X193600883Y-186179042D02*
X193600883Y-186036185D01*
X193600883Y-186036185D02*
X193672311Y-185893328D01*
X193672311Y-185893328D02*
X193815169Y-185821900D01*
X193815169Y-185821900D02*
X194172311Y-185821900D01*
X194172311Y-185821900D02*
X194315169Y-185750471D01*
X195672312Y-186393328D02*
X195672312Y-184893328D01*
X195672312Y-186321900D02*
X195529454Y-186393328D01*
X195529454Y-186393328D02*
X195243740Y-186393328D01*
X195243740Y-186393328D02*
X195100883Y-186321900D01*
X195100883Y-186321900D02*
X195029454Y-186250471D01*
X195029454Y-186250471D02*
X194958026Y-186107614D01*
X194958026Y-186107614D02*
X194958026Y-185679042D01*
X194958026Y-185679042D02*
X195029454Y-185536185D01*
X195029454Y-185536185D02*
X195100883Y-185464757D01*
X195100883Y-185464757D02*
X195243740Y-185393328D01*
X195243740Y-185393328D02*
X195529454Y-185393328D01*
X195529454Y-185393328D02*
X195672312Y-185464757D01*
X197029455Y-186393328D02*
X197029455Y-185607614D01*
X197029455Y-185607614D02*
X196958026Y-185464757D01*
X196958026Y-185464757D02*
X196815169Y-185393328D01*
X196815169Y-185393328D02*
X196529455Y-185393328D01*
X196529455Y-185393328D02*
X196386597Y-185464757D01*
X197029455Y-186321900D02*
X196886597Y-186393328D01*
X196886597Y-186393328D02*
X196529455Y-186393328D01*
X196529455Y-186393328D02*
X196386597Y-186321900D01*
X196386597Y-186321900D02*
X196315169Y-186179042D01*
X196315169Y-186179042D02*
X196315169Y-186036185D01*
X196315169Y-186036185D02*
X196386597Y-185893328D01*
X196386597Y-185893328D02*
X196529455Y-185821900D01*
X196529455Y-185821900D02*
X196886597Y-185821900D01*
X196886597Y-185821900D02*
X197029455Y-185750471D01*
X197743740Y-185393328D02*
X197743740Y-186893328D01*
X197743740Y-185464757D02*
X197886598Y-185393328D01*
X197886598Y-185393328D02*
X198172312Y-185393328D01*
X198172312Y-185393328D02*
X198315169Y-185464757D01*
X198315169Y-185464757D02*
X198386598Y-185536185D01*
X198386598Y-185536185D02*
X198458026Y-185679042D01*
X198458026Y-185679042D02*
X198458026Y-186107614D01*
X198458026Y-186107614D02*
X198386598Y-186250471D01*
X198386598Y-186250471D02*
X198315169Y-186321900D01*
X198315169Y-186321900D02*
X198172312Y-186393328D01*
X198172312Y-186393328D02*
X197886598Y-186393328D01*
X197886598Y-186393328D02*
X197743740Y-186321900D01*
X198886598Y-185393328D02*
X199458026Y-185393328D01*
X199100883Y-184893328D02*
X199100883Y-186179042D01*
X199100883Y-186179042D02*
X199172312Y-186321900D01*
X199172312Y-186321900D02*
X199315169Y-186393328D01*
X199315169Y-186393328D02*
X199458026Y-186393328D01*
X200529455Y-186321900D02*
X200386598Y-186393328D01*
X200386598Y-186393328D02*
X200100884Y-186393328D01*
X200100884Y-186393328D02*
X199958026Y-186321900D01*
X199958026Y-186321900D02*
X199886598Y-186179042D01*
X199886598Y-186179042D02*
X199886598Y-185607614D01*
X199886598Y-185607614D02*
X199958026Y-185464757D01*
X199958026Y-185464757D02*
X200100884Y-185393328D01*
X200100884Y-185393328D02*
X200386598Y-185393328D01*
X200386598Y-185393328D02*
X200529455Y-185464757D01*
X200529455Y-185464757D02*
X200600884Y-185607614D01*
X200600884Y-185607614D02*
X200600884Y-185750471D01*
X200600884Y-185750471D02*
X199886598Y-185893328D01*
X201243740Y-186393328D02*
X201243740Y-185393328D01*
X201243740Y-185679042D02*
X201315169Y-185536185D01*
X201315169Y-185536185D02*
X201386598Y-185464757D01*
X201386598Y-185464757D02*
X201529455Y-185393328D01*
X201529455Y-185393328D02*
X201672312Y-185393328D01*
X202172311Y-186250471D02*
X202243740Y-186321900D01*
X202243740Y-186321900D02*
X202172311Y-186393328D01*
X202172311Y-186393328D02*
X202100883Y-186321900D01*
X202100883Y-186321900D02*
X202172311Y-186250471D01*
X202172311Y-186250471D02*
X202172311Y-186393328D01*
X202886597Y-186393328D02*
X202886597Y-184893328D01*
X203029455Y-185821900D02*
X203458026Y-186393328D01*
X203458026Y-185393328D02*
X202886597Y-185964757D01*
X204100883Y-186393328D02*
X204100883Y-185393328D01*
X204100883Y-184893328D02*
X204029455Y-184964757D01*
X204029455Y-184964757D02*
X204100883Y-185036185D01*
X204100883Y-185036185D02*
X204172312Y-184964757D01*
X204172312Y-184964757D02*
X204100883Y-184893328D01*
X204100883Y-184893328D02*
X204100883Y-185036185D01*
X205458027Y-186321900D02*
X205315169Y-186393328D01*
X205315169Y-186393328D02*
X205029455Y-186393328D01*
X205029455Y-186393328D02*
X204886598Y-186321900D01*
X204886598Y-186321900D02*
X204815169Y-186250471D01*
X204815169Y-186250471D02*
X204743741Y-186107614D01*
X204743741Y-186107614D02*
X204743741Y-185679042D01*
X204743741Y-185679042D02*
X204815169Y-185536185D01*
X204815169Y-185536185D02*
X204886598Y-185464757D01*
X204886598Y-185464757D02*
X205029455Y-185393328D01*
X205029455Y-185393328D02*
X205315169Y-185393328D01*
X205315169Y-185393328D02*
X205458027Y-185464757D01*
X206743741Y-186393328D02*
X206743741Y-185607614D01*
X206743741Y-185607614D02*
X206672312Y-185464757D01*
X206672312Y-185464757D02*
X206529455Y-185393328D01*
X206529455Y-185393328D02*
X206243741Y-185393328D01*
X206243741Y-185393328D02*
X206100883Y-185464757D01*
X206743741Y-186321900D02*
X206600883Y-186393328D01*
X206600883Y-186393328D02*
X206243741Y-186393328D01*
X206243741Y-186393328D02*
X206100883Y-186321900D01*
X206100883Y-186321900D02*
X206029455Y-186179042D01*
X206029455Y-186179042D02*
X206029455Y-186036185D01*
X206029455Y-186036185D02*
X206100883Y-185893328D01*
X206100883Y-185893328D02*
X206243741Y-185821900D01*
X206243741Y-185821900D02*
X206600883Y-185821900D01*
X206600883Y-185821900D02*
X206743741Y-185750471D01*
X208100884Y-186393328D02*
X208100884Y-184893328D01*
X208100884Y-186321900D02*
X207958026Y-186393328D01*
X207958026Y-186393328D02*
X207672312Y-186393328D01*
X207672312Y-186393328D02*
X207529455Y-186321900D01*
X207529455Y-186321900D02*
X207458026Y-186250471D01*
X207458026Y-186250471D02*
X207386598Y-186107614D01*
X207386598Y-186107614D02*
X207386598Y-185679042D01*
X207386598Y-185679042D02*
X207458026Y-185536185D01*
X207458026Y-185536185D02*
X207529455Y-185464757D01*
X207529455Y-185464757D02*
X207672312Y-185393328D01*
X207672312Y-185393328D02*
X207958026Y-185393328D01*
X207958026Y-185393328D02*
X208100884Y-185464757D01*
X208458027Y-186536185D02*
X209600884Y-186536185D01*
X209958026Y-185393328D02*
X209958026Y-186893328D01*
X209958026Y-185464757D02*
X210100884Y-185393328D01*
X210100884Y-185393328D02*
X210386598Y-185393328D01*
X210386598Y-185393328D02*
X210529455Y-185464757D01*
X210529455Y-185464757D02*
X210600884Y-185536185D01*
X210600884Y-185536185D02*
X210672312Y-185679042D01*
X210672312Y-185679042D02*
X210672312Y-186107614D01*
X210672312Y-186107614D02*
X210600884Y-186250471D01*
X210600884Y-186250471D02*
X210529455Y-186321900D01*
X210529455Y-186321900D02*
X210386598Y-186393328D01*
X210386598Y-186393328D02*
X210100884Y-186393328D01*
X210100884Y-186393328D02*
X209958026Y-186321900D01*
X211958027Y-186321900D02*
X211815169Y-186393328D01*
X211815169Y-186393328D02*
X211529455Y-186393328D01*
X211529455Y-186393328D02*
X211386598Y-186321900D01*
X211386598Y-186321900D02*
X211315169Y-186250471D01*
X211315169Y-186250471D02*
X211243741Y-186107614D01*
X211243741Y-186107614D02*
X211243741Y-185679042D01*
X211243741Y-185679042D02*
X211315169Y-185536185D01*
X211315169Y-185536185D02*
X211386598Y-185464757D01*
X211386598Y-185464757D02*
X211529455Y-185393328D01*
X211529455Y-185393328D02*
X211815169Y-185393328D01*
X211815169Y-185393328D02*
X211958027Y-185464757D01*
X212600883Y-186393328D02*
X212600883Y-184893328D01*
X212600883Y-185464757D02*
X212743741Y-185393328D01*
X212743741Y-185393328D02*
X213029455Y-185393328D01*
X213029455Y-185393328D02*
X213172312Y-185464757D01*
X213172312Y-185464757D02*
X213243741Y-185536185D01*
X213243741Y-185536185D02*
X213315169Y-185679042D01*
X213315169Y-185679042D02*
X213315169Y-186107614D01*
X213315169Y-186107614D02*
X213243741Y-186250471D01*
X213243741Y-186250471D02*
X213172312Y-186321900D01*
X213172312Y-186321900D02*
X213029455Y-186393328D01*
X213029455Y-186393328D02*
X212743741Y-186393328D01*
X212743741Y-186393328D02*
X212600883Y-186321900D01*
D10*
D11*
X177002200Y-181507200D02*
X285002200Y-181507200D01*
D10*
D11*
X178386598Y-183621900D02*
X178600884Y-183693328D01*
X178600884Y-183693328D02*
X178958026Y-183693328D01*
X178958026Y-183693328D02*
X179100884Y-183621900D01*
X179100884Y-183621900D02*
X179172312Y-183550471D01*
X179172312Y-183550471D02*
X179243741Y-183407614D01*
X179243741Y-183407614D02*
X179243741Y-183264757D01*
X179243741Y-183264757D02*
X179172312Y-183121900D01*
X179172312Y-183121900D02*
X179100884Y-183050471D01*
X179100884Y-183050471D02*
X178958026Y-182979042D01*
X178958026Y-182979042D02*
X178672312Y-182907614D01*
X178672312Y-182907614D02*
X178529455Y-182836185D01*
X178529455Y-182836185D02*
X178458026Y-182764757D01*
X178458026Y-182764757D02*
X178386598Y-182621900D01*
X178386598Y-182621900D02*
X178386598Y-182479042D01*
X178386598Y-182479042D02*
X178458026Y-182336185D01*
X178458026Y-182336185D02*
X178529455Y-182264757D01*
X178529455Y-182264757D02*
X178672312Y-182193328D01*
X178672312Y-182193328D02*
X179029455Y-182193328D01*
X179029455Y-182193328D02*
X179243741Y-182264757D01*
X179886597Y-183693328D02*
X179886597Y-182193328D01*
X180529455Y-183693328D02*
X180529455Y-182907614D01*
X180529455Y-182907614D02*
X180458026Y-182764757D01*
X180458026Y-182764757D02*
X180315169Y-182693328D01*
X180315169Y-182693328D02*
X180100883Y-182693328D01*
X180100883Y-182693328D02*
X179958026Y-182764757D01*
X179958026Y-182764757D02*
X179886597Y-182836185D01*
X181815169Y-183621900D02*
X181672312Y-183693328D01*
X181672312Y-183693328D02*
X181386598Y-183693328D01*
X181386598Y-183693328D02*
X181243740Y-183621900D01*
X181243740Y-183621900D02*
X181172312Y-183479042D01*
X181172312Y-183479042D02*
X181172312Y-182907614D01*
X181172312Y-182907614D02*
X181243740Y-182764757D01*
X181243740Y-182764757D02*
X181386598Y-182693328D01*
X181386598Y-182693328D02*
X181672312Y-182693328D01*
X181672312Y-182693328D02*
X181815169Y-182764757D01*
X181815169Y-182764757D02*
X181886598Y-182907614D01*
X181886598Y-182907614D02*
X181886598Y-183050471D01*
X181886598Y-183050471D02*
X181172312Y-183193328D01*
X183100883Y-183621900D02*
X182958026Y-183693328D01*
X182958026Y-183693328D02*
X182672312Y-183693328D01*
X182672312Y-183693328D02*
X182529454Y-183621900D01*
X182529454Y-183621900D02*
X182458026Y-183479042D01*
X182458026Y-183479042D02*
X182458026Y-182907614D01*
X182458026Y-182907614D02*
X182529454Y-182764757D01*
X182529454Y-182764757D02*
X182672312Y-182693328D01*
X182672312Y-182693328D02*
X182958026Y-182693328D01*
X182958026Y-182693328D02*
X183100883Y-182764757D01*
X183100883Y-182764757D02*
X183172312Y-182907614D01*
X183172312Y-182907614D02*
X183172312Y-183050471D01*
X183172312Y-183050471D02*
X182458026Y-183193328D01*
X183600883Y-182693328D02*
X184172311Y-182693328D01*
X183815168Y-182193328D02*
X183815168Y-183479042D01*
X183815168Y-183479042D02*
X183886597Y-183621900D01*
X183886597Y-183621900D02*
X184029454Y-183693328D01*
X184029454Y-183693328D02*
X184172311Y-183693328D01*
X184672311Y-183550471D02*
X184743740Y-183621900D01*
X184743740Y-183621900D02*
X184672311Y-183693328D01*
X184672311Y-183693328D02*
X184600883Y-183621900D01*
X184600883Y-183621900D02*
X184672311Y-183550471D01*
X184672311Y-183550471D02*
X184672311Y-183693328D01*
X184672311Y-182764757D02*
X184743740Y-182836185D01*
X184743740Y-182836185D02*
X184672311Y-182907614D01*
X184672311Y-182907614D02*
X184600883Y-182836185D01*
X184600883Y-182836185D02*
X184672311Y-182764757D01*
X184672311Y-182764757D02*
X184672311Y-182907614D01*
D10*
D12*
D10*
D11*
D10*
D11*
D10*
D11*
D10*
D11*
D10*
D11*
X197002200Y-191507200D02*
X197002200Y-194507200D01*
D10*
D11*
X261002200Y-191507200D02*
X261002200Y-198007200D01*
X137909636Y-157679819D02*
X137814398Y-157632200D01*
X137814398Y-157632200D02*
X137766779Y-157584580D01*
X137766779Y-157584580D02*
X137719160Y-157489342D01*
X137719160Y-157489342D02*
X137719160Y-157203628D01*
X137719160Y-157203628D02*
X137766779Y-157108390D01*
X137766779Y-157108390D02*
X137814398Y-157060771D01*
X137814398Y-157060771D02*
X137909636Y-157013152D01*
X137909636Y-157013152D02*
X138052493Y-157013152D01*
X138052493Y-157013152D02*
X138147731Y-157060771D01*
X138147731Y-157060771D02*
X138195350Y-157108390D01*
X138195350Y-157108390D02*
X138242969Y-157203628D01*
X138242969Y-157203628D02*
X138242969Y-157489342D01*
X138242969Y-157489342D02*
X138195350Y-157584580D01*
X138195350Y-157584580D02*
X138147731Y-157632200D01*
X138147731Y-157632200D02*
X138052493Y-157679819D01*
X138052493Y-157679819D02*
X137909636Y-157679819D01*
X138671541Y-157013152D02*
X138671541Y-158013152D01*
X138671541Y-157060771D02*
X138766779Y-157013152D01*
X138766779Y-157013152D02*
X138957255Y-157013152D01*
X138957255Y-157013152D02*
X139052493Y-157060771D01*
X139052493Y-157060771D02*
X139100112Y-157108390D01*
X139100112Y-157108390D02*
X139147731Y-157203628D01*
X139147731Y-157203628D02*
X139147731Y-157489342D01*
X139147731Y-157489342D02*
X139100112Y-157584580D01*
X139100112Y-157584580D02*
X139052493Y-157632200D01*
X139052493Y-157632200D02*
X138957255Y-157679819D01*
X138957255Y-157679819D02*
X138766779Y-157679819D01*
X138766779Y-157679819D02*
X138671541Y-157632200D01*
X139433446Y-157013152D02*
X139814398Y-157013152D01*
X139576303Y-156679819D02*
X139576303Y-157536961D01*
X139576303Y-157536961D02*
X139623922Y-157632200D01*
X139623922Y-157632200D02*
X139719160Y-157679819D01*
X139719160Y-157679819D02*
X139814398Y-157679819D01*
X140147732Y-157679819D02*
X140147732Y-157013152D01*
X140147732Y-156679819D02*
X140100113Y-156727438D01*
X140100113Y-156727438D02*
X140147732Y-156775057D01*
X140147732Y-156775057D02*
X140195351Y-156727438D01*
X140195351Y-156727438D02*
X140147732Y-156679819D01*
X140147732Y-156679819D02*
X140147732Y-156775057D01*
X140766779Y-157679819D02*
X140671541Y-157632200D01*
X140671541Y-157632200D02*
X140623922Y-157584580D01*
X140623922Y-157584580D02*
X140576303Y-157489342D01*
X140576303Y-157489342D02*
X140576303Y-157203628D01*
X140576303Y-157203628D02*
X140623922Y-157108390D01*
X140623922Y-157108390D02*
X140671541Y-157060771D01*
X140671541Y-157060771D02*
X140766779Y-157013152D01*
X140766779Y-157013152D02*
X140909636Y-157013152D01*
X140909636Y-157013152D02*
X141004874Y-157060771D01*
X141004874Y-157060771D02*
X141052493Y-157108390D01*
X141052493Y-157108390D02*
X141100112Y-157203628D01*
X141100112Y-157203628D02*
X141100112Y-157489342D01*
X141100112Y-157489342D02*
X141052493Y-157584580D01*
X141052493Y-157584580D02*
X141004874Y-157632200D01*
X141004874Y-157632200D02*
X140909636Y-157679819D01*
X140909636Y-157679819D02*
X140766779Y-157679819D01*
X141528684Y-157013152D02*
X141528684Y-157679819D01*
X141528684Y-157108390D02*
X141576303Y-157060771D01*
X141576303Y-157060771D02*
X141671541Y-157013152D01*
X141671541Y-157013152D02*
X141814398Y-157013152D01*
X141814398Y-157013152D02*
X141909636Y-157060771D01*
X141909636Y-157060771D02*
X141957255Y-157156009D01*
X141957255Y-157156009D02*
X141957255Y-157679819D01*
X142862017Y-157679819D02*
X142862017Y-157156009D01*
X142862017Y-157156009D02*
X142814398Y-157060771D01*
X142814398Y-157060771D02*
X142719160Y-157013152D01*
X142719160Y-157013152D02*
X142528684Y-157013152D01*
X142528684Y-157013152D02*
X142433446Y-157060771D01*
X142862017Y-157632200D02*
X142766779Y-157679819D01*
X142766779Y-157679819D02*
X142528684Y-157679819D01*
X142528684Y-157679819D02*
X142433446Y-157632200D01*
X142433446Y-157632200D02*
X142385827Y-157536961D01*
X142385827Y-157536961D02*
X142385827Y-157441723D01*
X142385827Y-157441723D02*
X142433446Y-157346485D01*
X142433446Y-157346485D02*
X142528684Y-157298866D01*
X142528684Y-157298866D02*
X142766779Y-157298866D01*
X142766779Y-157298866D02*
X142862017Y-157251247D01*
X143481065Y-157679819D02*
X143385827Y-157632200D01*
X143385827Y-157632200D02*
X143338208Y-157536961D01*
X143338208Y-157536961D02*
X143338208Y-156679819D01*
X138195350Y-158623152D02*
X138195350Y-159432676D01*
X138195350Y-159432676D02*
X138147731Y-159527914D01*
X138147731Y-159527914D02*
X138100112Y-159575533D01*
X138100112Y-159575533D02*
X138004874Y-159623152D01*
X138004874Y-159623152D02*
X137862017Y-159623152D01*
X137862017Y-159623152D02*
X137766779Y-159575533D01*
X138195350Y-159242200D02*
X138100112Y-159289819D01*
X138100112Y-159289819D02*
X137909636Y-159289819D01*
X137909636Y-159289819D02*
X137814398Y-159242200D01*
X137814398Y-159242200D02*
X137766779Y-159194580D01*
X137766779Y-159194580D02*
X137719160Y-159099342D01*
X137719160Y-159099342D02*
X137719160Y-158813628D01*
X137719160Y-158813628D02*
X137766779Y-158718390D01*
X137766779Y-158718390D02*
X137814398Y-158670771D01*
X137814398Y-158670771D02*
X137909636Y-158623152D01*
X137909636Y-158623152D02*
X138100112Y-158623152D01*
X138100112Y-158623152D02*
X138195350Y-158670771D01*
X138671541Y-158623152D02*
X138671541Y-159289819D01*
X138671541Y-158718390D02*
X138719160Y-158670771D01*
X138719160Y-158670771D02*
X138814398Y-158623152D01*
X138814398Y-158623152D02*
X138957255Y-158623152D01*
X138957255Y-158623152D02*
X139052493Y-158670771D01*
X139052493Y-158670771D02*
X139100112Y-158766009D01*
X139100112Y-158766009D02*
X139100112Y-159289819D01*
X140004874Y-159289819D02*
X140004874Y-158289819D01*
X140004874Y-159242200D02*
X139909636Y-159289819D01*
X139909636Y-159289819D02*
X139719160Y-159289819D01*
X139719160Y-159289819D02*
X139623922Y-159242200D01*
X139623922Y-159242200D02*
X139576303Y-159194580D01*
X139576303Y-159194580D02*
X139528684Y-159099342D01*
X139528684Y-159099342D02*
X139528684Y-158813628D01*
X139528684Y-158813628D02*
X139576303Y-158718390D01*
X139576303Y-158718390D02*
X139623922Y-158670771D01*
X139623922Y-158670771D02*
X139719160Y-158623152D01*
X139719160Y-158623152D02*
X139909636Y-158623152D01*
X139909636Y-158623152D02*
X140004874Y-158670771D01*
X141242970Y-158623152D02*
X141242970Y-159623152D01*
X141242970Y-158670771D02*
X141338208Y-158623152D01*
X141338208Y-158623152D02*
X141528684Y-158623152D01*
X141528684Y-158623152D02*
X141623922Y-158670771D01*
X141623922Y-158670771D02*
X141671541Y-158718390D01*
X141671541Y-158718390D02*
X141719160Y-158813628D01*
X141719160Y-158813628D02*
X141719160Y-159099342D01*
X141719160Y-159099342D02*
X141671541Y-159194580D01*
X141671541Y-159194580D02*
X141623922Y-159242200D01*
X141623922Y-159242200D02*
X141528684Y-159289819D01*
X141528684Y-159289819D02*
X141338208Y-159289819D01*
X141338208Y-159289819D02*
X141242970Y-159242200D01*
X142576303Y-159289819D02*
X142576303Y-158766009D01*
X142576303Y-158766009D02*
X142528684Y-158670771D01*
X142528684Y-158670771D02*
X142433446Y-158623152D01*
X142433446Y-158623152D02*
X142242970Y-158623152D01*
X142242970Y-158623152D02*
X142147732Y-158670771D01*
X142576303Y-159242200D02*
X142481065Y-159289819D01*
X142481065Y-159289819D02*
X142242970Y-159289819D01*
X142242970Y-159289819D02*
X142147732Y-159242200D01*
X142147732Y-159242200D02*
X142100113Y-159146961D01*
X142100113Y-159146961D02*
X142100113Y-159051723D01*
X142100113Y-159051723D02*
X142147732Y-158956485D01*
X142147732Y-158956485D02*
X142242970Y-158908866D01*
X142242970Y-158908866D02*
X142481065Y-158908866D01*
X142481065Y-158908866D02*
X142576303Y-158861247D01*
X143481065Y-159289819D02*
X143481065Y-158289819D01*
X143481065Y-159242200D02*
X143385827Y-159289819D01*
X143385827Y-159289819D02*
X143195351Y-159289819D01*
X143195351Y-159289819D02*
X143100113Y-159242200D01*
X143100113Y-159242200D02*
X143052494Y-159194580D01*
X143052494Y-159194580D02*
X143004875Y-159099342D01*
X143004875Y-159099342D02*
X143004875Y-158813628D01*
X143004875Y-158813628D02*
X143052494Y-158718390D01*
X143052494Y-158718390D02*
X143100113Y-158670771D01*
X143100113Y-158670771D02*
X143195351Y-158623152D01*
X143195351Y-158623152D02*
X143385827Y-158623152D01*
X143385827Y-158623152D02*
X143481065Y-158670771D01*
X122059636Y-43199819D02*
X121964398Y-43152200D01*
X121964398Y-43152200D02*
X121916779Y-43104580D01*
X121916779Y-43104580D02*
X121869160Y-43009342D01*
X121869160Y-43009342D02*
X121869160Y-42723628D01*
X121869160Y-42723628D02*
X121916779Y-42628390D01*
X121916779Y-42628390D02*
X121964398Y-42580771D01*
X121964398Y-42580771D02*
X122059636Y-42533152D01*
X122059636Y-42533152D02*
X122202493Y-42533152D01*
X122202493Y-42533152D02*
X122297731Y-42580771D01*
X122297731Y-42580771D02*
X122345350Y-42628390D01*
X122345350Y-42628390D02*
X122392969Y-42723628D01*
X122392969Y-42723628D02*
X122392969Y-43009342D01*
X122392969Y-43009342D02*
X122345350Y-43104580D01*
X122345350Y-43104580D02*
X122297731Y-43152200D01*
X122297731Y-43152200D02*
X122202493Y-43199819D01*
X122202493Y-43199819D02*
X122059636Y-43199819D01*
X122821541Y-42533152D02*
X122821541Y-43533152D01*
X122821541Y-42580771D02*
X122916779Y-42533152D01*
X122916779Y-42533152D02*
X123107255Y-42533152D01*
X123107255Y-42533152D02*
X123202493Y-42580771D01*
X123202493Y-42580771D02*
X123250112Y-42628390D01*
X123250112Y-42628390D02*
X123297731Y-42723628D01*
X123297731Y-42723628D02*
X123297731Y-43009342D01*
X123297731Y-43009342D02*
X123250112Y-43104580D01*
X123250112Y-43104580D02*
X123202493Y-43152200D01*
X123202493Y-43152200D02*
X123107255Y-43199819D01*
X123107255Y-43199819D02*
X122916779Y-43199819D01*
X122916779Y-43199819D02*
X122821541Y-43152200D01*
X123583446Y-42533152D02*
X123964398Y-42533152D01*
X123726303Y-42199819D02*
X123726303Y-43056961D01*
X123726303Y-43056961D02*
X123773922Y-43152200D01*
X123773922Y-43152200D02*
X123869160Y-43199819D01*
X123869160Y-43199819D02*
X123964398Y-43199819D01*
X124297732Y-43199819D02*
X124297732Y-42533152D01*
X124297732Y-42199819D02*
X124250113Y-42247438D01*
X124250113Y-42247438D02*
X124297732Y-42295057D01*
X124297732Y-42295057D02*
X124345351Y-42247438D01*
X124345351Y-42247438D02*
X124297732Y-42199819D01*
X124297732Y-42199819D02*
X124297732Y-42295057D01*
X124916779Y-43199819D02*
X124821541Y-43152200D01*
X124821541Y-43152200D02*
X124773922Y-43104580D01*
X124773922Y-43104580D02*
X124726303Y-43009342D01*
X124726303Y-43009342D02*
X124726303Y-42723628D01*
X124726303Y-42723628D02*
X124773922Y-42628390D01*
X124773922Y-42628390D02*
X124821541Y-42580771D01*
X124821541Y-42580771D02*
X124916779Y-42533152D01*
X124916779Y-42533152D02*
X125059636Y-42533152D01*
X125059636Y-42533152D02*
X125154874Y-42580771D01*
X125154874Y-42580771D02*
X125202493Y-42628390D01*
X125202493Y-42628390D02*
X125250112Y-42723628D01*
X125250112Y-42723628D02*
X125250112Y-43009342D01*
X125250112Y-43009342D02*
X125202493Y-43104580D01*
X125202493Y-43104580D02*
X125154874Y-43152200D01*
X125154874Y-43152200D02*
X125059636Y-43199819D01*
X125059636Y-43199819D02*
X124916779Y-43199819D01*
X125678684Y-42533152D02*
X125678684Y-43199819D01*
X125678684Y-42628390D02*
X125726303Y-42580771D01*
X125726303Y-42580771D02*
X125821541Y-42533152D01*
X125821541Y-42533152D02*
X125964398Y-42533152D01*
X125964398Y-42533152D02*
X126059636Y-42580771D01*
X126059636Y-42580771D02*
X126107255Y-42676009D01*
X126107255Y-42676009D02*
X126107255Y-43199819D01*
X127012017Y-43199819D02*
X127012017Y-42676009D01*
X127012017Y-42676009D02*
X126964398Y-42580771D01*
X126964398Y-42580771D02*
X126869160Y-42533152D01*
X126869160Y-42533152D02*
X126678684Y-42533152D01*
X126678684Y-42533152D02*
X126583446Y-42580771D01*
X127012017Y-43152200D02*
X126916779Y-43199819D01*
X126916779Y-43199819D02*
X126678684Y-43199819D01*
X126678684Y-43199819D02*
X126583446Y-43152200D01*
X126583446Y-43152200D02*
X126535827Y-43056961D01*
X126535827Y-43056961D02*
X126535827Y-42961723D01*
X126535827Y-42961723D02*
X126583446Y-42866485D01*
X126583446Y-42866485D02*
X126678684Y-42818866D01*
X126678684Y-42818866D02*
X126916779Y-42818866D01*
X126916779Y-42818866D02*
X127012017Y-42771247D01*
X127631065Y-43199819D02*
X127535827Y-43152200D01*
X127535827Y-43152200D02*
X127488208Y-43056961D01*
X127488208Y-43056961D02*
X127488208Y-42199819D01*
X122345350Y-44143152D02*
X122345350Y-44952676D01*
X122345350Y-44952676D02*
X122297731Y-45047914D01*
X122297731Y-45047914D02*
X122250112Y-45095533D01*
X122250112Y-45095533D02*
X122154874Y-45143152D01*
X122154874Y-45143152D02*
X122012017Y-45143152D01*
X122012017Y-45143152D02*
X121916779Y-45095533D01*
X122345350Y-44762200D02*
X122250112Y-44809819D01*
X122250112Y-44809819D02*
X122059636Y-44809819D01*
X122059636Y-44809819D02*
X121964398Y-44762200D01*
X121964398Y-44762200D02*
X121916779Y-44714580D01*
X121916779Y-44714580D02*
X121869160Y-44619342D01*
X121869160Y-44619342D02*
X121869160Y-44333628D01*
X121869160Y-44333628D02*
X121916779Y-44238390D01*
X121916779Y-44238390D02*
X121964398Y-44190771D01*
X121964398Y-44190771D02*
X122059636Y-44143152D01*
X122059636Y-44143152D02*
X122250112Y-44143152D01*
X122250112Y-44143152D02*
X122345350Y-44190771D01*
X122821541Y-44143152D02*
X122821541Y-44809819D01*
X122821541Y-44238390D02*
X122869160Y-44190771D01*
X122869160Y-44190771D02*
X122964398Y-44143152D01*
X122964398Y-44143152D02*
X123107255Y-44143152D01*
X123107255Y-44143152D02*
X123202493Y-44190771D01*
X123202493Y-44190771D02*
X123250112Y-44286009D01*
X123250112Y-44286009D02*
X123250112Y-44809819D01*
X124154874Y-44809819D02*
X124154874Y-43809819D01*
X124154874Y-44762200D02*
X124059636Y-44809819D01*
X124059636Y-44809819D02*
X123869160Y-44809819D01*
X123869160Y-44809819D02*
X123773922Y-44762200D01*
X123773922Y-44762200D02*
X123726303Y-44714580D01*
X123726303Y-44714580D02*
X123678684Y-44619342D01*
X123678684Y-44619342D02*
X123678684Y-44333628D01*
X123678684Y-44333628D02*
X123726303Y-44238390D01*
X123726303Y-44238390D02*
X123773922Y-44190771D01*
X123773922Y-44190771D02*
X123869160Y-44143152D01*
X123869160Y-44143152D02*
X124059636Y-44143152D01*
X124059636Y-44143152D02*
X124154874Y-44190771D01*
X125392970Y-44143152D02*
X125392970Y-45143152D01*
X125392970Y-44190771D02*
X125488208Y-44143152D01*
X125488208Y-44143152D02*
X125678684Y-44143152D01*
X125678684Y-44143152D02*
X125773922Y-44190771D01*
X125773922Y-44190771D02*
X125821541Y-44238390D01*
X125821541Y-44238390D02*
X125869160Y-44333628D01*
X125869160Y-44333628D02*
X125869160Y-44619342D01*
X125869160Y-44619342D02*
X125821541Y-44714580D01*
X125821541Y-44714580D02*
X125773922Y-44762200D01*
X125773922Y-44762200D02*
X125678684Y-44809819D01*
X125678684Y-44809819D02*
X125488208Y-44809819D01*
X125488208Y-44809819D02*
X125392970Y-44762200D01*
X126726303Y-44809819D02*
X126726303Y-44286009D01*
X126726303Y-44286009D02*
X126678684Y-44190771D01*
X126678684Y-44190771D02*
X126583446Y-44143152D01*
X126583446Y-44143152D02*
X126392970Y-44143152D01*
X126392970Y-44143152D02*
X126297732Y-44190771D01*
X126726303Y-44762200D02*
X126631065Y-44809819D01*
X126631065Y-44809819D02*
X126392970Y-44809819D01*
X126392970Y-44809819D02*
X126297732Y-44762200D01*
X126297732Y-44762200D02*
X126250113Y-44666961D01*
X126250113Y-44666961D02*
X126250113Y-44571723D01*
X126250113Y-44571723D02*
X126297732Y-44476485D01*
X126297732Y-44476485D02*
X126392970Y-44428866D01*
X126392970Y-44428866D02*
X126631065Y-44428866D01*
X126631065Y-44428866D02*
X126726303Y-44381247D01*
X127631065Y-44809819D02*
X127631065Y-43809819D01*
X127631065Y-44762200D02*
X127535827Y-44809819D01*
X127535827Y-44809819D02*
X127345351Y-44809819D01*
X127345351Y-44809819D02*
X127250113Y-44762200D01*
X127250113Y-44762200D02*
X127202494Y-44714580D01*
X127202494Y-44714580D02*
X127154875Y-44619342D01*
X127154875Y-44619342D02*
X127154875Y-44333628D01*
X127154875Y-44333628D02*
X127202494Y-44238390D01*
X127202494Y-44238390D02*
X127250113Y-44190771D01*
X127250113Y-44190771D02*
X127345351Y-44143152D01*
X127345351Y-44143152D02*
X127535827Y-44143152D01*
X127535827Y-44143152D02*
X127631065Y-44190771D01*
X152249160Y-154774104D02*
X152725350Y-154774104D01*
X152153922Y-155059819D02*
X152487255Y-154059819D01*
X152487255Y-154059819D02*
X152820588Y-155059819D01*
X153725350Y-154964580D02*
X153677731Y-155012200D01*
X153677731Y-155012200D02*
X153534874Y-155059819D01*
X153534874Y-155059819D02*
X153439636Y-155059819D01*
X153439636Y-155059819D02*
X153296779Y-155012200D01*
X153296779Y-155012200D02*
X153201541Y-154916961D01*
X153201541Y-154916961D02*
X153153922Y-154821723D01*
X153153922Y-154821723D02*
X153106303Y-154631247D01*
X153106303Y-154631247D02*
X153106303Y-154488390D01*
X153106303Y-154488390D02*
X153153922Y-154297914D01*
X153153922Y-154297914D02*
X153201541Y-154202676D01*
X153201541Y-154202676D02*
X153296779Y-154107438D01*
X153296779Y-154107438D02*
X153439636Y-154059819D01*
X153439636Y-154059819D02*
X153534874Y-154059819D01*
X153534874Y-154059819D02*
X153677731Y-154107438D01*
X153677731Y-154107438D02*
X153725350Y-154155057D01*
X154153922Y-155059819D02*
X154153922Y-154059819D01*
X154153922Y-154059819D02*
X154392017Y-154059819D01*
X154392017Y-154059819D02*
X154534874Y-154107438D01*
X154534874Y-154107438D02*
X154630112Y-154202676D01*
X154630112Y-154202676D02*
X154677731Y-154297914D01*
X154677731Y-154297914D02*
X154725350Y-154488390D01*
X154725350Y-154488390D02*
X154725350Y-154631247D01*
X154725350Y-154631247D02*
X154677731Y-154821723D01*
X154677731Y-154821723D02*
X154630112Y-154916961D01*
X154630112Y-154916961D02*
X154534874Y-155012200D01*
X154534874Y-155012200D02*
X154392017Y-155059819D01*
X154392017Y-155059819D02*
X154153922Y-155059819D01*
X155725350Y-154964580D02*
X155677731Y-155012200D01*
X155677731Y-155012200D02*
X155534874Y-155059819D01*
X155534874Y-155059819D02*
X155439636Y-155059819D01*
X155439636Y-155059819D02*
X155296779Y-155012200D01*
X155296779Y-155012200D02*
X155201541Y-154916961D01*
X155201541Y-154916961D02*
X155153922Y-154821723D01*
X155153922Y-154821723D02*
X155106303Y-154631247D01*
X155106303Y-154631247D02*
X155106303Y-154488390D01*
X155106303Y-154488390D02*
X155153922Y-154297914D01*
X155153922Y-154297914D02*
X155201541Y-154202676D01*
X155201541Y-154202676D02*
X155296779Y-154107438D01*
X155296779Y-154107438D02*
X155439636Y-154059819D01*
X155439636Y-154059819D02*
X155534874Y-154059819D01*
X155534874Y-154059819D02*
X155677731Y-154107438D01*
X155677731Y-154107438D02*
X155725350Y-154155057D01*
X156153922Y-154678866D02*
X156915827Y-154678866D01*
X157344398Y-155012200D02*
X157487255Y-155059819D01*
X157487255Y-155059819D02*
X157725350Y-155059819D01*
X157725350Y-155059819D02*
X157820588Y-155012200D01*
X157820588Y-155012200D02*
X157868207Y-154964580D01*
X157868207Y-154964580D02*
X157915826Y-154869342D01*
X157915826Y-154869342D02*
X157915826Y-154774104D01*
X157915826Y-154774104D02*
X157868207Y-154678866D01*
X157868207Y-154678866D02*
X157820588Y-154631247D01*
X157820588Y-154631247D02*
X157725350Y-154583628D01*
X157725350Y-154583628D02*
X157534874Y-154536009D01*
X157534874Y-154536009D02*
X157439636Y-154488390D01*
X157439636Y-154488390D02*
X157392017Y-154440771D01*
X157392017Y-154440771D02*
X157344398Y-154345533D01*
X157344398Y-154345533D02*
X157344398Y-154250295D01*
X157344398Y-154250295D02*
X157392017Y-154155057D01*
X157392017Y-154155057D02*
X157439636Y-154107438D01*
X157439636Y-154107438D02*
X157534874Y-154059819D01*
X157534874Y-154059819D02*
X157772969Y-154059819D01*
X157772969Y-154059819D02*
X157915826Y-154107438D01*
X158344398Y-155059819D02*
X158344398Y-154059819D01*
X158344398Y-154059819D02*
X158677731Y-154774104D01*
X158677731Y-154774104D02*
X159011064Y-154059819D01*
X159011064Y-154059819D02*
X159011064Y-155059819D01*
X159439636Y-154774104D02*
X159915826Y-154774104D01*
X159344398Y-155059819D02*
X159677731Y-154059819D01*
X159677731Y-154059819D02*
X160011064Y-155059819D01*
X161439636Y-154536009D02*
X161582493Y-154583628D01*
X161582493Y-154583628D02*
X161630112Y-154631247D01*
X161630112Y-154631247D02*
X161677731Y-154726485D01*
X161677731Y-154726485D02*
X161677731Y-154869342D01*
X161677731Y-154869342D02*
X161630112Y-154964580D01*
X161630112Y-154964580D02*
X161582493Y-155012200D01*
X161582493Y-155012200D02*
X161487255Y-155059819D01*
X161487255Y-155059819D02*
X161106303Y-155059819D01*
X161106303Y-155059819D02*
X161106303Y-154059819D01*
X161106303Y-154059819D02*
X161439636Y-154059819D01*
X161439636Y-154059819D02*
X161534874Y-154107438D01*
X161534874Y-154107438D02*
X161582493Y-154155057D01*
X161582493Y-154155057D02*
X161630112Y-154250295D01*
X161630112Y-154250295D02*
X161630112Y-154345533D01*
X161630112Y-154345533D02*
X161582493Y-154440771D01*
X161582493Y-154440771D02*
X161534874Y-154488390D01*
X161534874Y-154488390D02*
X161439636Y-154536009D01*
X161439636Y-154536009D02*
X161106303Y-154536009D01*
X162106303Y-155059819D02*
X162106303Y-154393152D01*
X162106303Y-154583628D02*
X162153922Y-154488390D01*
X162153922Y-154488390D02*
X162201541Y-154440771D01*
X162201541Y-154440771D02*
X162296779Y-154393152D01*
X162296779Y-154393152D02*
X162392017Y-154393152D01*
X163106303Y-155012200D02*
X163011065Y-155059819D01*
X163011065Y-155059819D02*
X162820589Y-155059819D01*
X162820589Y-155059819D02*
X162725351Y-155012200D01*
X162725351Y-155012200D02*
X162677732Y-154916961D01*
X162677732Y-154916961D02*
X162677732Y-154536009D01*
X162677732Y-154536009D02*
X162725351Y-154440771D01*
X162725351Y-154440771D02*
X162820589Y-154393152D01*
X162820589Y-154393152D02*
X163011065Y-154393152D01*
X163011065Y-154393152D02*
X163106303Y-154440771D01*
X163106303Y-154440771D02*
X163153922Y-154536009D01*
X163153922Y-154536009D02*
X163153922Y-154631247D01*
X163153922Y-154631247D02*
X162677732Y-154726485D01*
X164011065Y-155059819D02*
X164011065Y-154536009D01*
X164011065Y-154536009D02*
X163963446Y-154440771D01*
X163963446Y-154440771D02*
X163868208Y-154393152D01*
X163868208Y-154393152D02*
X163677732Y-154393152D01*
X163677732Y-154393152D02*
X163582494Y-154440771D01*
X164011065Y-155012200D02*
X163915827Y-155059819D01*
X163915827Y-155059819D02*
X163677732Y-155059819D01*
X163677732Y-155059819D02*
X163582494Y-155012200D01*
X163582494Y-155012200D02*
X163534875Y-154916961D01*
X163534875Y-154916961D02*
X163534875Y-154821723D01*
X163534875Y-154821723D02*
X163582494Y-154726485D01*
X163582494Y-154726485D02*
X163677732Y-154678866D01*
X163677732Y-154678866D02*
X163915827Y-154678866D01*
X163915827Y-154678866D02*
X164011065Y-154631247D01*
X164487256Y-155059819D02*
X164487256Y-154059819D01*
X164582494Y-154678866D02*
X164868208Y-155059819D01*
X164868208Y-154393152D02*
X164487256Y-154774104D01*
X165439637Y-155059819D02*
X165344399Y-155012200D01*
X165344399Y-155012200D02*
X165296780Y-154964580D01*
X165296780Y-154964580D02*
X165249161Y-154869342D01*
X165249161Y-154869342D02*
X165249161Y-154583628D01*
X165249161Y-154583628D02*
X165296780Y-154488390D01*
X165296780Y-154488390D02*
X165344399Y-154440771D01*
X165344399Y-154440771D02*
X165439637Y-154393152D01*
X165439637Y-154393152D02*
X165582494Y-154393152D01*
X165582494Y-154393152D02*
X165677732Y-154440771D01*
X165677732Y-154440771D02*
X165725351Y-154488390D01*
X165725351Y-154488390D02*
X165772970Y-154583628D01*
X165772970Y-154583628D02*
X165772970Y-154869342D01*
X165772970Y-154869342D02*
X165725351Y-154964580D01*
X165725351Y-154964580D02*
X165677732Y-155012200D01*
X165677732Y-155012200D02*
X165582494Y-155059819D01*
X165582494Y-155059819D02*
X165439637Y-155059819D01*
X166630113Y-154393152D02*
X166630113Y-155059819D01*
X166201542Y-154393152D02*
X166201542Y-154916961D01*
X166201542Y-154916961D02*
X166249161Y-155012200D01*
X166249161Y-155012200D02*
X166344399Y-155059819D01*
X166344399Y-155059819D02*
X166487256Y-155059819D01*
X166487256Y-155059819D02*
X166582494Y-155012200D01*
X166582494Y-155012200D02*
X166630113Y-154964580D01*
X166963447Y-154393152D02*
X167344399Y-154393152D01*
X167106304Y-154059819D02*
X167106304Y-154916961D01*
X167106304Y-154916961D02*
X167153923Y-155012200D01*
X167153923Y-155012200D02*
X167249161Y-155059819D01*
X167249161Y-155059819D02*
X167344399Y-155059819D01*
X168772971Y-154536009D02*
X168915828Y-154583628D01*
X168915828Y-154583628D02*
X168963447Y-154631247D01*
X168963447Y-154631247D02*
X169011066Y-154726485D01*
X169011066Y-154726485D02*
X169011066Y-154869342D01*
X169011066Y-154869342D02*
X168963447Y-154964580D01*
X168963447Y-154964580D02*
X168915828Y-155012200D01*
X168915828Y-155012200D02*
X168820590Y-155059819D01*
X168820590Y-155059819D02*
X168439638Y-155059819D01*
X168439638Y-155059819D02*
X168439638Y-154059819D01*
X168439638Y-154059819D02*
X168772971Y-154059819D01*
X168772971Y-154059819D02*
X168868209Y-154107438D01*
X168868209Y-154107438D02*
X168915828Y-154155057D01*
X168915828Y-154155057D02*
X168963447Y-154250295D01*
X168963447Y-154250295D02*
X168963447Y-154345533D01*
X168963447Y-154345533D02*
X168915828Y-154440771D01*
X168915828Y-154440771D02*
X168868209Y-154488390D01*
X168868209Y-154488390D02*
X168772971Y-154536009D01*
X168772971Y-154536009D02*
X168439638Y-154536009D01*
X169582495Y-155059819D02*
X169487257Y-155012200D01*
X169487257Y-155012200D02*
X169439638Y-154964580D01*
X169439638Y-154964580D02*
X169392019Y-154869342D01*
X169392019Y-154869342D02*
X169392019Y-154583628D01*
X169392019Y-154583628D02*
X169439638Y-154488390D01*
X169439638Y-154488390D02*
X169487257Y-154440771D01*
X169487257Y-154440771D02*
X169582495Y-154393152D01*
X169582495Y-154393152D02*
X169725352Y-154393152D01*
X169725352Y-154393152D02*
X169820590Y-154440771D01*
X169820590Y-154440771D02*
X169868209Y-154488390D01*
X169868209Y-154488390D02*
X169915828Y-154583628D01*
X169915828Y-154583628D02*
X169915828Y-154869342D01*
X169915828Y-154869342D02*
X169868209Y-154964580D01*
X169868209Y-154964580D02*
X169820590Y-155012200D01*
X169820590Y-155012200D02*
X169725352Y-155059819D01*
X169725352Y-155059819D02*
X169582495Y-155059819D01*
X170772971Y-155059819D02*
X170772971Y-154536009D01*
X170772971Y-154536009D02*
X170725352Y-154440771D01*
X170725352Y-154440771D02*
X170630114Y-154393152D01*
X170630114Y-154393152D02*
X170439638Y-154393152D01*
X170439638Y-154393152D02*
X170344400Y-154440771D01*
X170772971Y-155012200D02*
X170677733Y-155059819D01*
X170677733Y-155059819D02*
X170439638Y-155059819D01*
X170439638Y-155059819D02*
X170344400Y-155012200D01*
X170344400Y-155012200D02*
X170296781Y-154916961D01*
X170296781Y-154916961D02*
X170296781Y-154821723D01*
X170296781Y-154821723D02*
X170344400Y-154726485D01*
X170344400Y-154726485D02*
X170439638Y-154678866D01*
X170439638Y-154678866D02*
X170677733Y-154678866D01*
X170677733Y-154678866D02*
X170772971Y-154631247D01*
X171249162Y-155059819D02*
X171249162Y-154393152D01*
X171249162Y-154583628D02*
X171296781Y-154488390D01*
X171296781Y-154488390D02*
X171344400Y-154440771D01*
X171344400Y-154440771D02*
X171439638Y-154393152D01*
X171439638Y-154393152D02*
X171534876Y-154393152D01*
X172296781Y-155059819D02*
X172296781Y-154059819D01*
X172296781Y-155012200D02*
X172201543Y-155059819D01*
X172201543Y-155059819D02*
X172011067Y-155059819D01*
X172011067Y-155059819D02*
X171915829Y-155012200D01*
X171915829Y-155012200D02*
X171868210Y-154964580D01*
X171868210Y-154964580D02*
X171820591Y-154869342D01*
X171820591Y-154869342D02*
X171820591Y-154583628D01*
X171820591Y-154583628D02*
X171868210Y-154488390D01*
X171868210Y-154488390D02*
X171915829Y-154440771D01*
X171915829Y-154440771D02*
X172011067Y-154393152D01*
X172011067Y-154393152D02*
X172201543Y-154393152D01*
X172201543Y-154393152D02*
X172296781Y-154440771D01*
X152296779Y-156146009D02*
X152630112Y-156146009D01*
X152772969Y-156669819D02*
X152296779Y-156669819D01*
X152296779Y-156669819D02*
X152296779Y-155669819D01*
X152296779Y-155669819D02*
X152772969Y-155669819D01*
X153201541Y-156574580D02*
X153249160Y-156622200D01*
X153249160Y-156622200D02*
X153201541Y-156669819D01*
X153201541Y-156669819D02*
X153153922Y-156622200D01*
X153153922Y-156622200D02*
X153201541Y-156574580D01*
X153201541Y-156574580D02*
X153201541Y-156669819D01*
X154392017Y-156384104D02*
X154868207Y-156384104D01*
X154296779Y-156669819D02*
X154630112Y-155669819D01*
X154630112Y-155669819D02*
X154963445Y-156669819D01*
X155296779Y-156003152D02*
X155296779Y-156669819D01*
X155296779Y-156098390D02*
X155344398Y-156050771D01*
X155344398Y-156050771D02*
X155439636Y-156003152D01*
X155439636Y-156003152D02*
X155582493Y-156003152D01*
X155582493Y-156003152D02*
X155677731Y-156050771D01*
X155677731Y-156050771D02*
X155725350Y-156146009D01*
X155725350Y-156146009D02*
X155725350Y-156669819D01*
X156630112Y-156003152D02*
X156630112Y-156812676D01*
X156630112Y-156812676D02*
X156582493Y-156907914D01*
X156582493Y-156907914D02*
X156534874Y-156955533D01*
X156534874Y-156955533D02*
X156439636Y-157003152D01*
X156439636Y-157003152D02*
X156296779Y-157003152D01*
X156296779Y-157003152D02*
X156201541Y-156955533D01*
X156630112Y-156622200D02*
X156534874Y-156669819D01*
X156534874Y-156669819D02*
X156344398Y-156669819D01*
X156344398Y-156669819D02*
X156249160Y-156622200D01*
X156249160Y-156622200D02*
X156201541Y-156574580D01*
X156201541Y-156574580D02*
X156153922Y-156479342D01*
X156153922Y-156479342D02*
X156153922Y-156193628D01*
X156153922Y-156193628D02*
X156201541Y-156098390D01*
X156201541Y-156098390D02*
X156249160Y-156050771D01*
X156249160Y-156050771D02*
X156344398Y-156003152D01*
X156344398Y-156003152D02*
X156534874Y-156003152D01*
X156534874Y-156003152D02*
X156630112Y-156050771D01*
X157487255Y-156622200D02*
X157392017Y-156669819D01*
X157392017Y-156669819D02*
X157201541Y-156669819D01*
X157201541Y-156669819D02*
X157106303Y-156622200D01*
X157106303Y-156622200D02*
X157058684Y-156526961D01*
X157058684Y-156526961D02*
X157058684Y-156146009D01*
X157058684Y-156146009D02*
X157106303Y-156050771D01*
X157106303Y-156050771D02*
X157201541Y-156003152D01*
X157201541Y-156003152D02*
X157392017Y-156003152D01*
X157392017Y-156003152D02*
X157487255Y-156050771D01*
X157487255Y-156050771D02*
X157534874Y-156146009D01*
X157534874Y-156146009D02*
X157534874Y-156241247D01*
X157534874Y-156241247D02*
X157058684Y-156336485D01*
X158106303Y-156669819D02*
X158011065Y-156622200D01*
X158011065Y-156622200D02*
X157963446Y-156526961D01*
X157963446Y-156526961D02*
X157963446Y-155669819D01*
X158487256Y-156669819D02*
X158487256Y-156003152D01*
X158487256Y-155669819D02*
X158439637Y-155717438D01*
X158439637Y-155717438D02*
X158487256Y-155765057D01*
X158487256Y-155765057D02*
X158534875Y-155717438D01*
X158534875Y-155717438D02*
X158487256Y-155669819D01*
X158487256Y-155669819D02*
X158487256Y-155765057D01*
X159392017Y-156622200D02*
X159296779Y-156669819D01*
X159296779Y-156669819D02*
X159106303Y-156669819D01*
X159106303Y-156669819D02*
X159011065Y-156622200D01*
X159011065Y-156622200D02*
X158963446Y-156574580D01*
X158963446Y-156574580D02*
X158915827Y-156479342D01*
X158915827Y-156479342D02*
X158915827Y-156193628D01*
X158915827Y-156193628D02*
X158963446Y-156098390D01*
X158963446Y-156098390D02*
X159011065Y-156050771D01*
X159011065Y-156050771D02*
X159106303Y-156003152D01*
X159106303Y-156003152D02*
X159296779Y-156003152D01*
X159296779Y-156003152D02*
X159392017Y-156050771D01*
X159963446Y-156669819D02*
X159868208Y-156622200D01*
X159868208Y-156622200D02*
X159820589Y-156574580D01*
X159820589Y-156574580D02*
X159772970Y-156479342D01*
X159772970Y-156479342D02*
X159772970Y-156193628D01*
X159772970Y-156193628D02*
X159820589Y-156098390D01*
X159820589Y-156098390D02*
X159868208Y-156050771D01*
X159868208Y-156050771D02*
X159963446Y-156003152D01*
X159963446Y-156003152D02*
X160106303Y-156003152D01*
X160106303Y-156003152D02*
X160201541Y-156050771D01*
X160201541Y-156050771D02*
X160249160Y-156098390D01*
X160249160Y-156098390D02*
X160296779Y-156193628D01*
X160296779Y-156193628D02*
X160296779Y-156479342D01*
X160296779Y-156479342D02*
X160249160Y-156574580D01*
X160249160Y-156574580D02*
X160201541Y-156622200D01*
X160201541Y-156622200D02*
X160106303Y-156669819D01*
X160106303Y-156669819D02*
X159963446Y-156669819D01*
X160772970Y-156622200D02*
X160772970Y-156669819D01*
X160772970Y-156669819D02*
X160725351Y-156765057D01*
X160725351Y-156765057D02*
X160677732Y-156812676D01*
X161915827Y-156622200D02*
X162058684Y-156669819D01*
X162058684Y-156669819D02*
X162296779Y-156669819D01*
X162296779Y-156669819D02*
X162392017Y-156622200D01*
X162392017Y-156622200D02*
X162439636Y-156574580D01*
X162439636Y-156574580D02*
X162487255Y-156479342D01*
X162487255Y-156479342D02*
X162487255Y-156384104D01*
X162487255Y-156384104D02*
X162439636Y-156288866D01*
X162439636Y-156288866D02*
X162392017Y-156241247D01*
X162392017Y-156241247D02*
X162296779Y-156193628D01*
X162296779Y-156193628D02*
X162106303Y-156146009D01*
X162106303Y-156146009D02*
X162011065Y-156098390D01*
X162011065Y-156098390D02*
X161963446Y-156050771D01*
X161963446Y-156050771D02*
X161915827Y-155955533D01*
X161915827Y-155955533D02*
X161915827Y-155860295D01*
X161915827Y-155860295D02*
X161963446Y-155765057D01*
X161963446Y-155765057D02*
X162011065Y-155717438D01*
X162011065Y-155717438D02*
X162106303Y-155669819D01*
X162106303Y-155669819D02*
X162344398Y-155669819D01*
X162344398Y-155669819D02*
X162487255Y-155717438D01*
X163296779Y-156622200D02*
X163201541Y-156669819D01*
X163201541Y-156669819D02*
X163011065Y-156669819D01*
X163011065Y-156669819D02*
X162915827Y-156622200D01*
X162915827Y-156622200D02*
X162868208Y-156526961D01*
X162868208Y-156526961D02*
X162868208Y-156146009D01*
X162868208Y-156146009D02*
X162915827Y-156050771D01*
X162915827Y-156050771D02*
X163011065Y-156003152D01*
X163011065Y-156003152D02*
X163201541Y-156003152D01*
X163201541Y-156003152D02*
X163296779Y-156050771D01*
X163296779Y-156050771D02*
X163344398Y-156146009D01*
X163344398Y-156146009D02*
X163344398Y-156241247D01*
X163344398Y-156241247D02*
X162868208Y-156336485D01*
X163772970Y-156003152D02*
X163772970Y-157003152D01*
X163772970Y-156050771D02*
X163868208Y-156003152D01*
X163868208Y-156003152D02*
X164058684Y-156003152D01*
X164058684Y-156003152D02*
X164153922Y-156050771D01*
X164153922Y-156050771D02*
X164201541Y-156098390D01*
X164201541Y-156098390D02*
X164249160Y-156193628D01*
X164249160Y-156193628D02*
X164249160Y-156479342D01*
X164249160Y-156479342D02*
X164201541Y-156574580D01*
X164201541Y-156574580D02*
X164153922Y-156622200D01*
X164153922Y-156622200D02*
X164058684Y-156669819D01*
X164058684Y-156669819D02*
X163868208Y-156669819D01*
X163868208Y-156669819D02*
X163772970Y-156622200D01*
X164534875Y-156003152D02*
X164915827Y-156003152D01*
X164677732Y-155669819D02*
X164677732Y-156526961D01*
X164677732Y-156526961D02*
X164725351Y-156622200D01*
X164725351Y-156622200D02*
X164820589Y-156669819D01*
X164820589Y-156669819D02*
X164915827Y-156669819D01*
X165249161Y-156574580D02*
X165296780Y-156622200D01*
X165296780Y-156622200D02*
X165249161Y-156669819D01*
X165249161Y-156669819D02*
X165201542Y-156622200D01*
X165201542Y-156622200D02*
X165249161Y-156574580D01*
X165249161Y-156574580D02*
X165249161Y-156669819D01*
X166439637Y-155765057D02*
X166487256Y-155717438D01*
X166487256Y-155717438D02*
X166582494Y-155669819D01*
X166582494Y-155669819D02*
X166820589Y-155669819D01*
X166820589Y-155669819D02*
X166915827Y-155717438D01*
X166915827Y-155717438D02*
X166963446Y-155765057D01*
X166963446Y-155765057D02*
X167011065Y-155860295D01*
X167011065Y-155860295D02*
X167011065Y-155955533D01*
X167011065Y-155955533D02*
X166963446Y-156098390D01*
X166963446Y-156098390D02*
X166392018Y-156669819D01*
X166392018Y-156669819D02*
X167011065Y-156669819D01*
X167630113Y-155669819D02*
X167725351Y-155669819D01*
X167725351Y-155669819D02*
X167820589Y-155717438D01*
X167820589Y-155717438D02*
X167868208Y-155765057D01*
X167868208Y-155765057D02*
X167915827Y-155860295D01*
X167915827Y-155860295D02*
X167963446Y-156050771D01*
X167963446Y-156050771D02*
X167963446Y-156288866D01*
X167963446Y-156288866D02*
X167915827Y-156479342D01*
X167915827Y-156479342D02*
X167868208Y-156574580D01*
X167868208Y-156574580D02*
X167820589Y-156622200D01*
X167820589Y-156622200D02*
X167725351Y-156669819D01*
X167725351Y-156669819D02*
X167630113Y-156669819D01*
X167630113Y-156669819D02*
X167534875Y-156622200D01*
X167534875Y-156622200D02*
X167487256Y-156574580D01*
X167487256Y-156574580D02*
X167439637Y-156479342D01*
X167439637Y-156479342D02*
X167392018Y-156288866D01*
X167392018Y-156288866D02*
X167392018Y-156050771D01*
X167392018Y-156050771D02*
X167439637Y-155860295D01*
X167439637Y-155860295D02*
X167487256Y-155765057D01*
X167487256Y-155765057D02*
X167534875Y-155717438D01*
X167534875Y-155717438D02*
X167630113Y-155669819D01*
X168344399Y-155765057D02*
X168392018Y-155717438D01*
X168392018Y-155717438D02*
X168487256Y-155669819D01*
X168487256Y-155669819D02*
X168725351Y-155669819D01*
X168725351Y-155669819D02*
X168820589Y-155717438D01*
X168820589Y-155717438D02*
X168868208Y-155765057D01*
X168868208Y-155765057D02*
X168915827Y-155860295D01*
X168915827Y-155860295D02*
X168915827Y-155955533D01*
X168915827Y-155955533D02*
X168868208Y-156098390D01*
X168868208Y-156098390D02*
X168296780Y-156669819D01*
X168296780Y-156669819D02*
X168915827Y-156669819D01*
X169249161Y-155669819D02*
X169868208Y-155669819D01*
X169868208Y-155669819D02*
X169534875Y-156050771D01*
X169534875Y-156050771D02*
X169677732Y-156050771D01*
X169677732Y-156050771D02*
X169772970Y-156098390D01*
X169772970Y-156098390D02*
X169820589Y-156146009D01*
X169820589Y-156146009D02*
X169868208Y-156241247D01*
X169868208Y-156241247D02*
X169868208Y-156479342D01*
X169868208Y-156479342D02*
X169820589Y-156574580D01*
X169820589Y-156574580D02*
X169772970Y-156622200D01*
X169772970Y-156622200D02*
X169677732Y-156669819D01*
X169677732Y-156669819D02*
X169392018Y-156669819D01*
X169392018Y-156669819D02*
X169296780Y-156622200D01*
X169296780Y-156622200D02*
X169249161Y-156574580D01*
X152249160Y-157279819D02*
X152249160Y-157470295D01*
X152630112Y-157279819D02*
X152630112Y-157470295D01*
X153011065Y-157994104D02*
X153487255Y-157994104D01*
X152915827Y-158279819D02*
X153249160Y-157279819D01*
X153249160Y-157279819D02*
X153582493Y-158279819D01*
X154058684Y-158279819D02*
X153963446Y-158232200D01*
X153963446Y-158232200D02*
X153915827Y-158136961D01*
X153915827Y-158136961D02*
X153915827Y-157279819D01*
X154439637Y-158279819D02*
X154439637Y-157613152D01*
X154439637Y-157803628D02*
X154487256Y-157708390D01*
X154487256Y-157708390D02*
X154534875Y-157660771D01*
X154534875Y-157660771D02*
X154630113Y-157613152D01*
X154630113Y-157613152D02*
X154725351Y-157613152D01*
X155058685Y-158279819D02*
X155058685Y-157613152D01*
X155058685Y-157279819D02*
X155011066Y-157327438D01*
X155011066Y-157327438D02*
X155058685Y-157375057D01*
X155058685Y-157375057D02*
X155106304Y-157327438D01*
X155106304Y-157327438D02*
X155058685Y-157279819D01*
X155058685Y-157279819D02*
X155058685Y-157375057D01*
X155963446Y-157613152D02*
X155963446Y-158422676D01*
X155963446Y-158422676D02*
X155915827Y-158517914D01*
X155915827Y-158517914D02*
X155868208Y-158565533D01*
X155868208Y-158565533D02*
X155772970Y-158613152D01*
X155772970Y-158613152D02*
X155630113Y-158613152D01*
X155630113Y-158613152D02*
X155534875Y-158565533D01*
X155963446Y-158232200D02*
X155868208Y-158279819D01*
X155868208Y-158279819D02*
X155677732Y-158279819D01*
X155677732Y-158279819D02*
X155582494Y-158232200D01*
X155582494Y-158232200D02*
X155534875Y-158184580D01*
X155534875Y-158184580D02*
X155487256Y-158089342D01*
X155487256Y-158089342D02*
X155487256Y-157803628D01*
X155487256Y-157803628D02*
X155534875Y-157708390D01*
X155534875Y-157708390D02*
X155582494Y-157660771D01*
X155582494Y-157660771D02*
X155677732Y-157613152D01*
X155677732Y-157613152D02*
X155868208Y-157613152D01*
X155868208Y-157613152D02*
X155963446Y-157660771D01*
X156439637Y-158279819D02*
X156439637Y-157279819D01*
X156868208Y-158279819D02*
X156868208Y-157756009D01*
X156868208Y-157756009D02*
X156820589Y-157660771D01*
X156820589Y-157660771D02*
X156725351Y-157613152D01*
X156725351Y-157613152D02*
X156582494Y-157613152D01*
X156582494Y-157613152D02*
X156487256Y-157660771D01*
X156487256Y-157660771D02*
X156439637Y-157708390D01*
X157201542Y-157613152D02*
X157582494Y-157613152D01*
X157344399Y-157279819D02*
X157344399Y-158136961D01*
X157344399Y-158136961D02*
X157392018Y-158232200D01*
X157392018Y-158232200D02*
X157487256Y-158279819D01*
X157487256Y-158279819D02*
X157582494Y-158279819D01*
X157963447Y-158232200D02*
X157963447Y-158279819D01*
X157963447Y-158279819D02*
X157915828Y-158375057D01*
X157915828Y-158375057D02*
X157868209Y-158422676D01*
X159058685Y-157613152D02*
X159249161Y-158279819D01*
X159249161Y-158279819D02*
X159439637Y-157803628D01*
X159439637Y-157803628D02*
X159630113Y-158279819D01*
X159630113Y-158279819D02*
X159820589Y-157613152D01*
X160201542Y-158279819D02*
X160201542Y-157279819D01*
X160630113Y-158279819D02*
X160630113Y-157756009D01*
X160630113Y-157756009D02*
X160582494Y-157660771D01*
X160582494Y-157660771D02*
X160487256Y-157613152D01*
X160487256Y-157613152D02*
X160344399Y-157613152D01*
X160344399Y-157613152D02*
X160249161Y-157660771D01*
X160249161Y-157660771D02*
X160201542Y-157708390D01*
X161534875Y-158279819D02*
X161534875Y-157756009D01*
X161534875Y-157756009D02*
X161487256Y-157660771D01*
X161487256Y-157660771D02*
X161392018Y-157613152D01*
X161392018Y-157613152D02*
X161201542Y-157613152D01*
X161201542Y-157613152D02*
X161106304Y-157660771D01*
X161534875Y-158232200D02*
X161439637Y-158279819D01*
X161439637Y-158279819D02*
X161201542Y-158279819D01*
X161201542Y-158279819D02*
X161106304Y-158232200D01*
X161106304Y-158232200D02*
X161058685Y-158136961D01*
X161058685Y-158136961D02*
X161058685Y-158041723D01*
X161058685Y-158041723D02*
X161106304Y-157946485D01*
X161106304Y-157946485D02*
X161201542Y-157898866D01*
X161201542Y-157898866D02*
X161439637Y-157898866D01*
X161439637Y-157898866D02*
X161534875Y-157851247D01*
X161868209Y-157613152D02*
X162249161Y-157613152D01*
X162011066Y-157279819D02*
X162011066Y-158136961D01*
X162011066Y-158136961D02*
X162058685Y-158232200D01*
X162058685Y-158232200D02*
X162153923Y-158279819D01*
X162153923Y-158279819D02*
X162249161Y-158279819D01*
X163344400Y-157613152D02*
X163344400Y-158470295D01*
X163344400Y-158470295D02*
X163296781Y-158565533D01*
X163296781Y-158565533D02*
X163201543Y-158613152D01*
X163201543Y-158613152D02*
X163153924Y-158613152D01*
X163344400Y-157279819D02*
X163296781Y-157327438D01*
X163296781Y-157327438D02*
X163344400Y-157375057D01*
X163344400Y-157375057D02*
X163392019Y-157327438D01*
X163392019Y-157327438D02*
X163344400Y-157279819D01*
X163344400Y-157279819D02*
X163344400Y-157375057D01*
X164249161Y-157613152D02*
X164249161Y-158279819D01*
X163820590Y-157613152D02*
X163820590Y-158136961D01*
X163820590Y-158136961D02*
X163868209Y-158232200D01*
X163868209Y-158232200D02*
X163963447Y-158279819D01*
X163963447Y-158279819D02*
X164106304Y-158279819D01*
X164106304Y-158279819D02*
X164201542Y-158232200D01*
X164201542Y-158232200D02*
X164249161Y-158184580D01*
X164725352Y-157613152D02*
X164725352Y-158279819D01*
X164725352Y-157708390D02*
X164772971Y-157660771D01*
X164772971Y-157660771D02*
X164868209Y-157613152D01*
X164868209Y-157613152D02*
X165011066Y-157613152D01*
X165011066Y-157613152D02*
X165106304Y-157660771D01*
X165106304Y-157660771D02*
X165153923Y-157756009D01*
X165153923Y-157756009D02*
X165153923Y-158279819D01*
X165630114Y-158279819D02*
X165630114Y-157279819D01*
X165725352Y-157898866D02*
X166011066Y-158279819D01*
X166011066Y-157613152D02*
X165630114Y-157994104D01*
X167630114Y-158279819D02*
X167630114Y-157756009D01*
X167630114Y-157756009D02*
X167582495Y-157660771D01*
X167582495Y-157660771D02*
X167487257Y-157613152D01*
X167487257Y-157613152D02*
X167296781Y-157613152D01*
X167296781Y-157613152D02*
X167201543Y-157660771D01*
X167630114Y-158232200D02*
X167534876Y-158279819D01*
X167534876Y-158279819D02*
X167296781Y-158279819D01*
X167296781Y-158279819D02*
X167201543Y-158232200D01*
X167201543Y-158232200D02*
X167153924Y-158136961D01*
X167153924Y-158136961D02*
X167153924Y-158041723D01*
X167153924Y-158041723D02*
X167201543Y-157946485D01*
X167201543Y-157946485D02*
X167296781Y-157898866D01*
X167296781Y-157898866D02*
X167534876Y-157898866D01*
X167534876Y-157898866D02*
X167630114Y-157851247D01*
X168106305Y-158279819D02*
X168106305Y-157613152D01*
X168106305Y-157803628D02*
X168153924Y-157708390D01*
X168153924Y-157708390D02*
X168201543Y-157660771D01*
X168201543Y-157660771D02*
X168296781Y-157613152D01*
X168296781Y-157613152D02*
X168392019Y-157613152D01*
X169106305Y-158232200D02*
X169011067Y-158279819D01*
X169011067Y-158279819D02*
X168820591Y-158279819D01*
X168820591Y-158279819D02*
X168725353Y-158232200D01*
X168725353Y-158232200D02*
X168677734Y-158136961D01*
X168677734Y-158136961D02*
X168677734Y-157756009D01*
X168677734Y-157756009D02*
X168725353Y-157660771D01*
X168725353Y-157660771D02*
X168820591Y-157613152D01*
X168820591Y-157613152D02*
X169011067Y-157613152D01*
X169011067Y-157613152D02*
X169106305Y-157660771D01*
X169106305Y-157660771D02*
X169153924Y-157756009D01*
X169153924Y-157756009D02*
X169153924Y-157851247D01*
X169153924Y-157851247D02*
X168677734Y-157946485D01*
X170249163Y-157613152D02*
X170439639Y-158279819D01*
X170439639Y-158279819D02*
X170630115Y-157803628D01*
X170630115Y-157803628D02*
X170820591Y-158279819D01*
X170820591Y-158279819D02*
X171011067Y-157613152D01*
X171772972Y-158232200D02*
X171677734Y-158279819D01*
X171677734Y-158279819D02*
X171487258Y-158279819D01*
X171487258Y-158279819D02*
X171392020Y-158232200D01*
X171392020Y-158232200D02*
X171344401Y-158136961D01*
X171344401Y-158136961D02*
X171344401Y-157756009D01*
X171344401Y-157756009D02*
X171392020Y-157660771D01*
X171392020Y-157660771D02*
X171487258Y-157613152D01*
X171487258Y-157613152D02*
X171677734Y-157613152D01*
X171677734Y-157613152D02*
X171772972Y-157660771D01*
X171772972Y-157660771D02*
X171820591Y-157756009D01*
X171820591Y-157756009D02*
X171820591Y-157851247D01*
X171820591Y-157851247D02*
X171344401Y-157946485D01*
X173439639Y-158279819D02*
X173439639Y-157279819D01*
X173439639Y-158232200D02*
X173344401Y-158279819D01*
X173344401Y-158279819D02*
X173153925Y-158279819D01*
X173153925Y-158279819D02*
X173058687Y-158232200D01*
X173058687Y-158232200D02*
X173011068Y-158184580D01*
X173011068Y-158184580D02*
X172963449Y-158089342D01*
X172963449Y-158089342D02*
X172963449Y-157803628D01*
X172963449Y-157803628D02*
X173011068Y-157708390D01*
X173011068Y-157708390D02*
X173058687Y-157660771D01*
X173058687Y-157660771D02*
X173153925Y-157613152D01*
X173153925Y-157613152D02*
X173344401Y-157613152D01*
X173344401Y-157613152D02*
X173439639Y-157660771D01*
X174058687Y-158279819D02*
X173963449Y-158232200D01*
X173963449Y-158232200D02*
X173915830Y-158184580D01*
X173915830Y-158184580D02*
X173868211Y-158089342D01*
X173868211Y-158089342D02*
X173868211Y-157803628D01*
X173868211Y-157803628D02*
X173915830Y-157708390D01*
X173915830Y-157708390D02*
X173963449Y-157660771D01*
X173963449Y-157660771D02*
X174058687Y-157613152D01*
X174058687Y-157613152D02*
X174201544Y-157613152D01*
X174201544Y-157613152D02*
X174296782Y-157660771D01*
X174296782Y-157660771D02*
X174344401Y-157708390D01*
X174344401Y-157708390D02*
X174392020Y-157803628D01*
X174392020Y-157803628D02*
X174392020Y-158089342D01*
X174392020Y-158089342D02*
X174344401Y-158184580D01*
X174344401Y-158184580D02*
X174296782Y-158232200D01*
X174296782Y-158232200D02*
X174201544Y-158279819D01*
X174201544Y-158279819D02*
X174058687Y-158279819D01*
X174820592Y-158279819D02*
X174820592Y-157613152D01*
X174820592Y-157279819D02*
X174772973Y-157327438D01*
X174772973Y-157327438D02*
X174820592Y-157375057D01*
X174820592Y-157375057D02*
X174868211Y-157327438D01*
X174868211Y-157327438D02*
X174820592Y-157279819D01*
X174820592Y-157279819D02*
X174820592Y-157375057D01*
X175296782Y-157613152D02*
X175296782Y-158279819D01*
X175296782Y-157708390D02*
X175344401Y-157660771D01*
X175344401Y-157660771D02*
X175439639Y-157613152D01*
X175439639Y-157613152D02*
X175582496Y-157613152D01*
X175582496Y-157613152D02*
X175677734Y-157660771D01*
X175677734Y-157660771D02*
X175725353Y-157756009D01*
X175725353Y-157756009D02*
X175725353Y-158279819D01*
X176630115Y-157613152D02*
X176630115Y-158422676D01*
X176630115Y-158422676D02*
X176582496Y-158517914D01*
X176582496Y-158517914D02*
X176534877Y-158565533D01*
X176534877Y-158565533D02*
X176439639Y-158613152D01*
X176439639Y-158613152D02*
X176296782Y-158613152D01*
X176296782Y-158613152D02*
X176201544Y-158565533D01*
X176630115Y-158232200D02*
X176534877Y-158279819D01*
X176534877Y-158279819D02*
X176344401Y-158279819D01*
X176344401Y-158279819D02*
X176249163Y-158232200D01*
X176249163Y-158232200D02*
X176201544Y-158184580D01*
X176201544Y-158184580D02*
X176153925Y-158089342D01*
X176153925Y-158089342D02*
X176153925Y-157803628D01*
X176153925Y-157803628D02*
X176201544Y-157708390D01*
X176201544Y-157708390D02*
X176249163Y-157660771D01*
X176249163Y-157660771D02*
X176344401Y-157613152D01*
X176344401Y-157613152D02*
X176534877Y-157613152D01*
X176534877Y-157613152D02*
X176630115Y-157660771D01*
X177725354Y-157613152D02*
X178106306Y-157613152D01*
X177868211Y-157279819D02*
X177868211Y-158136961D01*
X177868211Y-158136961D02*
X177915830Y-158232200D01*
X177915830Y-158232200D02*
X178011068Y-158279819D01*
X178011068Y-158279819D02*
X178106306Y-158279819D01*
X178582497Y-158279819D02*
X178487259Y-158232200D01*
X178487259Y-158232200D02*
X178439640Y-158184580D01*
X178439640Y-158184580D02*
X178392021Y-158089342D01*
X178392021Y-158089342D02*
X178392021Y-157803628D01*
X178392021Y-157803628D02*
X178439640Y-157708390D01*
X178439640Y-157708390D02*
X178487259Y-157660771D01*
X178487259Y-157660771D02*
X178582497Y-157613152D01*
X178582497Y-157613152D02*
X178725354Y-157613152D01*
X178725354Y-157613152D02*
X178820592Y-157660771D01*
X178820592Y-157660771D02*
X178868211Y-157708390D01*
X178868211Y-157708390D02*
X178915830Y-157803628D01*
X178915830Y-157803628D02*
X178915830Y-158089342D01*
X178915830Y-158089342D02*
X178868211Y-158184580D01*
X178868211Y-158184580D02*
X178820592Y-158232200D01*
X178820592Y-158232200D02*
X178725354Y-158279819D01*
X178725354Y-158279819D02*
X178582497Y-158279819D01*
X179772973Y-158279819D02*
X179772973Y-157279819D01*
X179772973Y-158232200D02*
X179677735Y-158279819D01*
X179677735Y-158279819D02*
X179487259Y-158279819D01*
X179487259Y-158279819D02*
X179392021Y-158232200D01*
X179392021Y-158232200D02*
X179344402Y-158184580D01*
X179344402Y-158184580D02*
X179296783Y-158089342D01*
X179296783Y-158089342D02*
X179296783Y-157803628D01*
X179296783Y-157803628D02*
X179344402Y-157708390D01*
X179344402Y-157708390D02*
X179392021Y-157660771D01*
X179392021Y-157660771D02*
X179487259Y-157613152D01*
X179487259Y-157613152D02*
X179677735Y-157613152D01*
X179677735Y-157613152D02*
X179772973Y-157660771D01*
X180677735Y-158279819D02*
X180677735Y-157756009D01*
X180677735Y-157756009D02*
X180630116Y-157660771D01*
X180630116Y-157660771D02*
X180534878Y-157613152D01*
X180534878Y-157613152D02*
X180344402Y-157613152D01*
X180344402Y-157613152D02*
X180249164Y-157660771D01*
X180677735Y-158232200D02*
X180582497Y-158279819D01*
X180582497Y-158279819D02*
X180344402Y-158279819D01*
X180344402Y-158279819D02*
X180249164Y-158232200D01*
X180249164Y-158232200D02*
X180201545Y-158136961D01*
X180201545Y-158136961D02*
X180201545Y-158041723D01*
X180201545Y-158041723D02*
X180249164Y-157946485D01*
X180249164Y-157946485D02*
X180344402Y-157898866D01*
X180344402Y-157898866D02*
X180582497Y-157898866D01*
X180582497Y-157898866D02*
X180677735Y-157851247D01*
X181058688Y-157613152D02*
X181296783Y-158279819D01*
X181534878Y-157613152D02*
X181296783Y-158279819D01*
X181296783Y-158279819D02*
X181201545Y-158517914D01*
X181201545Y-158517914D02*
X181153926Y-158565533D01*
X181153926Y-158565533D02*
X181058688Y-158613152D01*
X181868212Y-157279819D02*
X181868212Y-157470295D01*
X182249164Y-157279819D02*
X182249164Y-157470295D01*
X183439641Y-157898866D02*
X184201546Y-157898866D01*
X185772974Y-157756009D02*
X185915831Y-157803628D01*
X185915831Y-157803628D02*
X185963450Y-157851247D01*
X185963450Y-157851247D02*
X186011069Y-157946485D01*
X186011069Y-157946485D02*
X186011069Y-158089342D01*
X186011069Y-158089342D02*
X185963450Y-158184580D01*
X185963450Y-158184580D02*
X185915831Y-158232200D01*
X185915831Y-158232200D02*
X185820593Y-158279819D01*
X185820593Y-158279819D02*
X185439641Y-158279819D01*
X185439641Y-158279819D02*
X185439641Y-157279819D01*
X185439641Y-157279819D02*
X185772974Y-157279819D01*
X185772974Y-157279819D02*
X185868212Y-157327438D01*
X185868212Y-157327438D02*
X185915831Y-157375057D01*
X185915831Y-157375057D02*
X185963450Y-157470295D01*
X185963450Y-157470295D02*
X185963450Y-157565533D01*
X185963450Y-157565533D02*
X185915831Y-157660771D01*
X185915831Y-157660771D02*
X185868212Y-157708390D01*
X185868212Y-157708390D02*
X185772974Y-157756009D01*
X185772974Y-157756009D02*
X185439641Y-157756009D01*
X186868212Y-158279819D02*
X186868212Y-157756009D01*
X186868212Y-157756009D02*
X186820593Y-157660771D01*
X186820593Y-157660771D02*
X186725355Y-157613152D01*
X186725355Y-157613152D02*
X186534879Y-157613152D01*
X186534879Y-157613152D02*
X186439641Y-157660771D01*
X186868212Y-158232200D02*
X186772974Y-158279819D01*
X186772974Y-158279819D02*
X186534879Y-158279819D01*
X186534879Y-158279819D02*
X186439641Y-158232200D01*
X186439641Y-158232200D02*
X186392022Y-158136961D01*
X186392022Y-158136961D02*
X186392022Y-158041723D01*
X186392022Y-158041723D02*
X186439641Y-157946485D01*
X186439641Y-157946485D02*
X186534879Y-157898866D01*
X186534879Y-157898866D02*
X186772974Y-157898866D01*
X186772974Y-157898866D02*
X186868212Y-157851247D01*
X187249165Y-157613152D02*
X187487260Y-158279819D01*
X187725355Y-157613152D02*
X187487260Y-158279819D01*
X187487260Y-158279819D02*
X187392022Y-158517914D01*
X187392022Y-158517914D02*
X187344403Y-158565533D01*
X187344403Y-158565533D02*
X187249165Y-158613152D01*
X189296784Y-158279819D02*
X189296784Y-157756009D01*
X189296784Y-157756009D02*
X189249165Y-157660771D01*
X189249165Y-157660771D02*
X189153927Y-157613152D01*
X189153927Y-157613152D02*
X188963451Y-157613152D01*
X188963451Y-157613152D02*
X188868213Y-157660771D01*
X189296784Y-158232200D02*
X189201546Y-158279819D01*
X189201546Y-158279819D02*
X188963451Y-158279819D01*
X188963451Y-158279819D02*
X188868213Y-158232200D01*
X188868213Y-158232200D02*
X188820594Y-158136961D01*
X188820594Y-158136961D02*
X188820594Y-158041723D01*
X188820594Y-158041723D02*
X188868213Y-157946485D01*
X188868213Y-157946485D02*
X188963451Y-157898866D01*
X188963451Y-157898866D02*
X189201546Y-157898866D01*
X189201546Y-157898866D02*
X189296784Y-157851247D01*
X189772975Y-158279819D02*
X189772975Y-157613152D01*
X189772975Y-157803628D02*
X189820594Y-157708390D01*
X189820594Y-157708390D02*
X189868213Y-157660771D01*
X189868213Y-157660771D02*
X189963451Y-157613152D01*
X189963451Y-157613152D02*
X190058689Y-157613152D01*
X190772975Y-158232200D02*
X190677737Y-158279819D01*
X190677737Y-158279819D02*
X190487261Y-158279819D01*
X190487261Y-158279819D02*
X190392023Y-158232200D01*
X190392023Y-158232200D02*
X190344404Y-158136961D01*
X190344404Y-158136961D02*
X190344404Y-157756009D01*
X190344404Y-157756009D02*
X190392023Y-157660771D01*
X190392023Y-157660771D02*
X190487261Y-157613152D01*
X190487261Y-157613152D02*
X190677737Y-157613152D01*
X190677737Y-157613152D02*
X190772975Y-157660771D01*
X190772975Y-157660771D02*
X190820594Y-157756009D01*
X190820594Y-157756009D02*
X190820594Y-157851247D01*
X190820594Y-157851247D02*
X190344404Y-157946485D01*
X191677737Y-158279819D02*
X191677737Y-157756009D01*
X191677737Y-157756009D02*
X191630118Y-157660771D01*
X191630118Y-157660771D02*
X191534880Y-157613152D01*
X191534880Y-157613152D02*
X191344404Y-157613152D01*
X191344404Y-157613152D02*
X191249166Y-157660771D01*
X191677737Y-158232200D02*
X191582499Y-158279819D01*
X191582499Y-158279819D02*
X191344404Y-158279819D01*
X191344404Y-158279819D02*
X191249166Y-158232200D01*
X191249166Y-158232200D02*
X191201547Y-158136961D01*
X191201547Y-158136961D02*
X191201547Y-158041723D01*
X191201547Y-158041723D02*
X191249166Y-157946485D01*
X191249166Y-157946485D02*
X191344404Y-157898866D01*
X191344404Y-157898866D02*
X191582499Y-157898866D01*
X191582499Y-157898866D02*
X191677737Y-157851247D01*
X193392023Y-157279819D02*
X192915833Y-157279819D01*
X192915833Y-157279819D02*
X192868214Y-157756009D01*
X192868214Y-157756009D02*
X192915833Y-157708390D01*
X192915833Y-157708390D02*
X193011071Y-157660771D01*
X193011071Y-157660771D02*
X193249166Y-157660771D01*
X193249166Y-157660771D02*
X193344404Y-157708390D01*
X193344404Y-157708390D02*
X193392023Y-157756009D01*
X193392023Y-157756009D02*
X193439642Y-157851247D01*
X193439642Y-157851247D02*
X193439642Y-158089342D01*
X193439642Y-158089342D02*
X193392023Y-158184580D01*
X193392023Y-158184580D02*
X193344404Y-158232200D01*
X193344404Y-158232200D02*
X193249166Y-158279819D01*
X193249166Y-158279819D02*
X193011071Y-158279819D01*
X193011071Y-158279819D02*
X192915833Y-158232200D01*
X192915833Y-158232200D02*
X192868214Y-158184580D01*
X193725357Y-157613152D02*
X194106309Y-157613152D01*
X193868214Y-157279819D02*
X193868214Y-158136961D01*
X193868214Y-158136961D02*
X193915833Y-158232200D01*
X193915833Y-158232200D02*
X194011071Y-158279819D01*
X194011071Y-158279819D02*
X194106309Y-158279819D01*
X194439643Y-158279819D02*
X194439643Y-157279819D01*
X194868214Y-158279819D02*
X194868214Y-157756009D01*
X194868214Y-157756009D02*
X194820595Y-157660771D01*
X194820595Y-157660771D02*
X194725357Y-157613152D01*
X194725357Y-157613152D02*
X194582500Y-157613152D01*
X194582500Y-157613152D02*
X194487262Y-157660771D01*
X194487262Y-157660771D02*
X194439643Y-157708390D01*
X196534881Y-157613152D02*
X196534881Y-158422676D01*
X196534881Y-158422676D02*
X196487262Y-158517914D01*
X196487262Y-158517914D02*
X196439643Y-158565533D01*
X196439643Y-158565533D02*
X196344405Y-158613152D01*
X196344405Y-158613152D02*
X196201548Y-158613152D01*
X196201548Y-158613152D02*
X196106310Y-158565533D01*
X196534881Y-158232200D02*
X196439643Y-158279819D01*
X196439643Y-158279819D02*
X196249167Y-158279819D01*
X196249167Y-158279819D02*
X196153929Y-158232200D01*
X196153929Y-158232200D02*
X196106310Y-158184580D01*
X196106310Y-158184580D02*
X196058691Y-158089342D01*
X196058691Y-158089342D02*
X196058691Y-157803628D01*
X196058691Y-157803628D02*
X196106310Y-157708390D01*
X196106310Y-157708390D02*
X196153929Y-157660771D01*
X196153929Y-157660771D02*
X196249167Y-157613152D01*
X196249167Y-157613152D02*
X196439643Y-157613152D01*
X196439643Y-157613152D02*
X196534881Y-157660771D01*
X197011072Y-158279819D02*
X197011072Y-157613152D01*
X197011072Y-157803628D02*
X197058691Y-157708390D01*
X197058691Y-157708390D02*
X197106310Y-157660771D01*
X197106310Y-157660771D02*
X197201548Y-157613152D01*
X197201548Y-157613152D02*
X197296786Y-157613152D01*
X198058691Y-158279819D02*
X198058691Y-157756009D01*
X198058691Y-157756009D02*
X198011072Y-157660771D01*
X198011072Y-157660771D02*
X197915834Y-157613152D01*
X197915834Y-157613152D02*
X197725358Y-157613152D01*
X197725358Y-157613152D02*
X197630120Y-157660771D01*
X198058691Y-158232200D02*
X197963453Y-158279819D01*
X197963453Y-158279819D02*
X197725358Y-158279819D01*
X197725358Y-158279819D02*
X197630120Y-158232200D01*
X197630120Y-158232200D02*
X197582501Y-158136961D01*
X197582501Y-158136961D02*
X197582501Y-158041723D01*
X197582501Y-158041723D02*
X197630120Y-157946485D01*
X197630120Y-157946485D02*
X197725358Y-157898866D01*
X197725358Y-157898866D02*
X197963453Y-157898866D01*
X197963453Y-157898866D02*
X198058691Y-157851247D01*
X198963453Y-158279819D02*
X198963453Y-157279819D01*
X198963453Y-158232200D02*
X198868215Y-158279819D01*
X198868215Y-158279819D02*
X198677739Y-158279819D01*
X198677739Y-158279819D02*
X198582501Y-158232200D01*
X198582501Y-158232200D02*
X198534882Y-158184580D01*
X198534882Y-158184580D02*
X198487263Y-158089342D01*
X198487263Y-158089342D02*
X198487263Y-157803628D01*
X198487263Y-157803628D02*
X198534882Y-157708390D01*
X198534882Y-157708390D02*
X198582501Y-157660771D01*
X198582501Y-157660771D02*
X198677739Y-157613152D01*
X198677739Y-157613152D02*
X198868215Y-157613152D01*
X198868215Y-157613152D02*
X198963453Y-157660771D01*
X199820596Y-158232200D02*
X199725358Y-158279819D01*
X199725358Y-158279819D02*
X199534882Y-158279819D01*
X199534882Y-158279819D02*
X199439644Y-158232200D01*
X199439644Y-158232200D02*
X199392025Y-158136961D01*
X199392025Y-158136961D02*
X199392025Y-157756009D01*
X199392025Y-157756009D02*
X199439644Y-157660771D01*
X199439644Y-157660771D02*
X199534882Y-157613152D01*
X199534882Y-157613152D02*
X199725358Y-157613152D01*
X199725358Y-157613152D02*
X199820596Y-157660771D01*
X199820596Y-157660771D02*
X199868215Y-157756009D01*
X199868215Y-157756009D02*
X199868215Y-157851247D01*
X199868215Y-157851247D02*
X199392025Y-157946485D01*
X200296787Y-158279819D02*
X200296787Y-157613152D01*
X200296787Y-157803628D02*
X200344406Y-157708390D01*
X200344406Y-157708390D02*
X200392025Y-157660771D01*
X200392025Y-157660771D02*
X200487263Y-157613152D01*
X200487263Y-157613152D02*
X200582501Y-157613152D01*
X118615350Y-134272200D02*
X118520112Y-134319819D01*
X118520112Y-134319819D02*
X118329636Y-134319819D01*
X118329636Y-134319819D02*
X118234398Y-134272200D01*
X118234398Y-134272200D02*
X118186779Y-134224580D01*
X118186779Y-134224580D02*
X118139160Y-134129342D01*
X118139160Y-134129342D02*
X118139160Y-133843628D01*
X118139160Y-133843628D02*
X118186779Y-133748390D01*
X118186779Y-133748390D02*
X118234398Y-133700771D01*
X118234398Y-133700771D02*
X118329636Y-133653152D01*
X118329636Y-133653152D02*
X118520112Y-133653152D01*
X118520112Y-133653152D02*
X118615350Y-133700771D01*
X119043922Y-134319819D02*
X119043922Y-133319819D01*
X119472493Y-134319819D02*
X119472493Y-133796009D01*
X119472493Y-133796009D02*
X119424874Y-133700771D01*
X119424874Y-133700771D02*
X119329636Y-133653152D01*
X119329636Y-133653152D02*
X119186779Y-133653152D01*
X119186779Y-133653152D02*
X119091541Y-133700771D01*
X119091541Y-133700771D02*
X119043922Y-133748390D01*
X119901065Y-133415057D02*
X119948684Y-133367438D01*
X119948684Y-133367438D02*
X120043922Y-133319819D01*
X120043922Y-133319819D02*
X120282017Y-133319819D01*
X120282017Y-133319819D02*
X120377255Y-133367438D01*
X120377255Y-133367438D02*
X120424874Y-133415057D01*
X120424874Y-133415057D02*
X120472493Y-133510295D01*
X120472493Y-133510295D02*
X120472493Y-133605533D01*
X120472493Y-133605533D02*
X120424874Y-133748390D01*
X120424874Y-133748390D02*
X119853446Y-134319819D01*
X119853446Y-134319819D02*
X120472493Y-134319819D01*
X120805827Y-133319819D02*
X121472493Y-133319819D01*
X121472493Y-133319819D02*
X121043922Y-134319819D01*
X132395350Y-134242200D02*
X132300112Y-134289819D01*
X132300112Y-134289819D02*
X132109636Y-134289819D01*
X132109636Y-134289819D02*
X132014398Y-134242200D01*
X132014398Y-134242200D02*
X131966779Y-134194580D01*
X131966779Y-134194580D02*
X131919160Y-134099342D01*
X131919160Y-134099342D02*
X131919160Y-133813628D01*
X131919160Y-133813628D02*
X131966779Y-133718390D01*
X131966779Y-133718390D02*
X132014398Y-133670771D01*
X132014398Y-133670771D02*
X132109636Y-133623152D01*
X132109636Y-133623152D02*
X132300112Y-133623152D01*
X132300112Y-133623152D02*
X132395350Y-133670771D01*
X132823922Y-134289819D02*
X132823922Y-133289819D01*
X133252493Y-134289819D02*
X133252493Y-133766009D01*
X133252493Y-133766009D02*
X133204874Y-133670771D01*
X133204874Y-133670771D02*
X133109636Y-133623152D01*
X133109636Y-133623152D02*
X132966779Y-133623152D01*
X132966779Y-133623152D02*
X132871541Y-133670771D01*
X132871541Y-133670771D02*
X132823922Y-133718390D01*
X133681065Y-133385057D02*
X133728684Y-133337438D01*
X133728684Y-133337438D02*
X133823922Y-133289819D01*
X133823922Y-133289819D02*
X134062017Y-133289819D01*
X134062017Y-133289819D02*
X134157255Y-133337438D01*
X134157255Y-133337438D02*
X134204874Y-133385057D01*
X134204874Y-133385057D02*
X134252493Y-133480295D01*
X134252493Y-133480295D02*
X134252493Y-133575533D01*
X134252493Y-133575533D02*
X134204874Y-133718390D01*
X134204874Y-133718390D02*
X133633446Y-134289819D01*
X133633446Y-134289819D02*
X134252493Y-134289819D01*
X135109636Y-133289819D02*
X134919160Y-133289819D01*
X134919160Y-133289819D02*
X134823922Y-133337438D01*
X134823922Y-133337438D02*
X134776303Y-133385057D01*
X134776303Y-133385057D02*
X134681065Y-133527914D01*
X134681065Y-133527914D02*
X134633446Y-133718390D01*
X134633446Y-133718390D02*
X134633446Y-134099342D01*
X134633446Y-134099342D02*
X134681065Y-134194580D01*
X134681065Y-134194580D02*
X134728684Y-134242200D01*
X134728684Y-134242200D02*
X134823922Y-134289819D01*
X134823922Y-134289819D02*
X135014398Y-134289819D01*
X135014398Y-134289819D02*
X135109636Y-134242200D01*
X135109636Y-134242200D02*
X135157255Y-134194580D01*
X135157255Y-134194580D02*
X135204874Y-134099342D01*
X135204874Y-134099342D02*
X135204874Y-133861247D01*
X135204874Y-133861247D02*
X135157255Y-133766009D01*
X135157255Y-133766009D02*
X135109636Y-133718390D01*
X135109636Y-133718390D02*
X135014398Y-133670771D01*
X135014398Y-133670771D02*
X134823922Y-133670771D01*
X134823922Y-133670771D02*
X134728684Y-133718390D01*
X134728684Y-133718390D02*
X134681065Y-133766009D01*
X134681065Y-133766009D02*
X134633446Y-133861247D01*
X146615350Y-134242200D02*
X146520112Y-134289819D01*
X146520112Y-134289819D02*
X146329636Y-134289819D01*
X146329636Y-134289819D02*
X146234398Y-134242200D01*
X146234398Y-134242200D02*
X146186779Y-134194580D01*
X146186779Y-134194580D02*
X146139160Y-134099342D01*
X146139160Y-134099342D02*
X146139160Y-133813628D01*
X146139160Y-133813628D02*
X146186779Y-133718390D01*
X146186779Y-133718390D02*
X146234398Y-133670771D01*
X146234398Y-133670771D02*
X146329636Y-133623152D01*
X146329636Y-133623152D02*
X146520112Y-133623152D01*
X146520112Y-133623152D02*
X146615350Y-133670771D01*
X147043922Y-134289819D02*
X147043922Y-133289819D01*
X147472493Y-134289819D02*
X147472493Y-133766009D01*
X147472493Y-133766009D02*
X147424874Y-133670771D01*
X147424874Y-133670771D02*
X147329636Y-133623152D01*
X147329636Y-133623152D02*
X147186779Y-133623152D01*
X147186779Y-133623152D02*
X147091541Y-133670771D01*
X147091541Y-133670771D02*
X147043922Y-133718390D01*
X147901065Y-133385057D02*
X147948684Y-133337438D01*
X147948684Y-133337438D02*
X148043922Y-133289819D01*
X148043922Y-133289819D02*
X148282017Y-133289819D01*
X148282017Y-133289819D02*
X148377255Y-133337438D01*
X148377255Y-133337438D02*
X148424874Y-133385057D01*
X148424874Y-133385057D02*
X148472493Y-133480295D01*
X148472493Y-133480295D02*
X148472493Y-133575533D01*
X148472493Y-133575533D02*
X148424874Y-133718390D01*
X148424874Y-133718390D02*
X147853446Y-134289819D01*
X147853446Y-134289819D02*
X148472493Y-134289819D01*
X149377255Y-133289819D02*
X148901065Y-133289819D01*
X148901065Y-133289819D02*
X148853446Y-133766009D01*
X148853446Y-133766009D02*
X148901065Y-133718390D01*
X148901065Y-133718390D02*
X148996303Y-133670771D01*
X148996303Y-133670771D02*
X149234398Y-133670771D01*
X149234398Y-133670771D02*
X149329636Y-133718390D01*
X149329636Y-133718390D02*
X149377255Y-133766009D01*
X149377255Y-133766009D02*
X149424874Y-133861247D01*
X149424874Y-133861247D02*
X149424874Y-134099342D01*
X149424874Y-134099342D02*
X149377255Y-134194580D01*
X149377255Y-134194580D02*
X149329636Y-134242200D01*
X149329636Y-134242200D02*
X149234398Y-134289819D01*
X149234398Y-134289819D02*
X148996303Y-134289819D01*
X148996303Y-134289819D02*
X148901065Y-134242200D01*
X148901065Y-134242200D02*
X148853446Y-134194580D01*
X160125350Y-134242200D02*
X160030112Y-134289819D01*
X160030112Y-134289819D02*
X159839636Y-134289819D01*
X159839636Y-134289819D02*
X159744398Y-134242200D01*
X159744398Y-134242200D02*
X159696779Y-134194580D01*
X159696779Y-134194580D02*
X159649160Y-134099342D01*
X159649160Y-134099342D02*
X159649160Y-133813628D01*
X159649160Y-133813628D02*
X159696779Y-133718390D01*
X159696779Y-133718390D02*
X159744398Y-133670771D01*
X159744398Y-133670771D02*
X159839636Y-133623152D01*
X159839636Y-133623152D02*
X160030112Y-133623152D01*
X160030112Y-133623152D02*
X160125350Y-133670771D01*
X160553922Y-134289819D02*
X160553922Y-133289819D01*
X160982493Y-134289819D02*
X160982493Y-133766009D01*
X160982493Y-133766009D02*
X160934874Y-133670771D01*
X160934874Y-133670771D02*
X160839636Y-133623152D01*
X160839636Y-133623152D02*
X160696779Y-133623152D01*
X160696779Y-133623152D02*
X160601541Y-133670771D01*
X160601541Y-133670771D02*
X160553922Y-133718390D01*
X161411065Y-133385057D02*
X161458684Y-133337438D01*
X161458684Y-133337438D02*
X161553922Y-133289819D01*
X161553922Y-133289819D02*
X161792017Y-133289819D01*
X161792017Y-133289819D02*
X161887255Y-133337438D01*
X161887255Y-133337438D02*
X161934874Y-133385057D01*
X161934874Y-133385057D02*
X161982493Y-133480295D01*
X161982493Y-133480295D02*
X161982493Y-133575533D01*
X161982493Y-133575533D02*
X161934874Y-133718390D01*
X161934874Y-133718390D02*
X161363446Y-134289819D01*
X161363446Y-134289819D02*
X161982493Y-134289819D01*
X162839636Y-133623152D02*
X162839636Y-134289819D01*
X162601541Y-133242200D02*
X162363446Y-133956485D01*
X162363446Y-133956485D02*
X162982493Y-133956485D01*
X118615350Y-120562200D02*
X118520112Y-120609819D01*
X118520112Y-120609819D02*
X118329636Y-120609819D01*
X118329636Y-120609819D02*
X118234398Y-120562200D01*
X118234398Y-120562200D02*
X118186779Y-120514580D01*
X118186779Y-120514580D02*
X118139160Y-120419342D01*
X118139160Y-120419342D02*
X118139160Y-120133628D01*
X118139160Y-120133628D02*
X118186779Y-120038390D01*
X118186779Y-120038390D02*
X118234398Y-119990771D01*
X118234398Y-119990771D02*
X118329636Y-119943152D01*
X118329636Y-119943152D02*
X118520112Y-119943152D01*
X118520112Y-119943152D02*
X118615350Y-119990771D01*
X119043922Y-120609819D02*
X119043922Y-119609819D01*
X119472493Y-120609819D02*
X119472493Y-120086009D01*
X119472493Y-120086009D02*
X119424874Y-119990771D01*
X119424874Y-119990771D02*
X119329636Y-119943152D01*
X119329636Y-119943152D02*
X119186779Y-119943152D01*
X119186779Y-119943152D02*
X119091541Y-119990771D01*
X119091541Y-119990771D02*
X119043922Y-120038390D01*
X120472493Y-120609819D02*
X119901065Y-120609819D01*
X120186779Y-120609819D02*
X120186779Y-119609819D01*
X120186779Y-119609819D02*
X120091541Y-119752676D01*
X120091541Y-119752676D02*
X119996303Y-119847914D01*
X119996303Y-119847914D02*
X119901065Y-119895533D01*
X120948684Y-120609819D02*
X121139160Y-120609819D01*
X121139160Y-120609819D02*
X121234398Y-120562200D01*
X121234398Y-120562200D02*
X121282017Y-120514580D01*
X121282017Y-120514580D02*
X121377255Y-120371723D01*
X121377255Y-120371723D02*
X121424874Y-120181247D01*
X121424874Y-120181247D02*
X121424874Y-119800295D01*
X121424874Y-119800295D02*
X121377255Y-119705057D01*
X121377255Y-119705057D02*
X121329636Y-119657438D01*
X121329636Y-119657438D02*
X121234398Y-119609819D01*
X121234398Y-119609819D02*
X121043922Y-119609819D01*
X121043922Y-119609819D02*
X120948684Y-119657438D01*
X120948684Y-119657438D02*
X120901065Y-119705057D01*
X120901065Y-119705057D02*
X120853446Y-119800295D01*
X120853446Y-119800295D02*
X120853446Y-120038390D01*
X120853446Y-120038390D02*
X120901065Y-120133628D01*
X120901065Y-120133628D02*
X120948684Y-120181247D01*
X120948684Y-120181247D02*
X121043922Y-120228866D01*
X121043922Y-120228866D02*
X121234398Y-120228866D01*
X121234398Y-120228866D02*
X121329636Y-120181247D01*
X121329636Y-120181247D02*
X121377255Y-120133628D01*
X121377255Y-120133628D02*
X121424874Y-120038390D01*
X146615350Y-120532200D02*
X146520112Y-120579819D01*
X146520112Y-120579819D02*
X146329636Y-120579819D01*
X146329636Y-120579819D02*
X146234398Y-120532200D01*
X146234398Y-120532200D02*
X146186779Y-120484580D01*
X146186779Y-120484580D02*
X146139160Y-120389342D01*
X146139160Y-120389342D02*
X146139160Y-120103628D01*
X146139160Y-120103628D02*
X146186779Y-120008390D01*
X146186779Y-120008390D02*
X146234398Y-119960771D01*
X146234398Y-119960771D02*
X146329636Y-119913152D01*
X146329636Y-119913152D02*
X146520112Y-119913152D01*
X146520112Y-119913152D02*
X146615350Y-119960771D01*
X147043922Y-120579819D02*
X147043922Y-119579819D01*
X147472493Y-120579819D02*
X147472493Y-120056009D01*
X147472493Y-120056009D02*
X147424874Y-119960771D01*
X147424874Y-119960771D02*
X147329636Y-119913152D01*
X147329636Y-119913152D02*
X147186779Y-119913152D01*
X147186779Y-119913152D02*
X147091541Y-119960771D01*
X147091541Y-119960771D02*
X147043922Y-120008390D01*
X147901065Y-119675057D02*
X147948684Y-119627438D01*
X147948684Y-119627438D02*
X148043922Y-119579819D01*
X148043922Y-119579819D02*
X148282017Y-119579819D01*
X148282017Y-119579819D02*
X148377255Y-119627438D01*
X148377255Y-119627438D02*
X148424874Y-119675057D01*
X148424874Y-119675057D02*
X148472493Y-119770295D01*
X148472493Y-119770295D02*
X148472493Y-119865533D01*
X148472493Y-119865533D02*
X148424874Y-120008390D01*
X148424874Y-120008390D02*
X147853446Y-120579819D01*
X147853446Y-120579819D02*
X148472493Y-120579819D01*
X148948684Y-120579819D02*
X149139160Y-120579819D01*
X149139160Y-120579819D02*
X149234398Y-120532200D01*
X149234398Y-120532200D02*
X149282017Y-120484580D01*
X149282017Y-120484580D02*
X149377255Y-120341723D01*
X149377255Y-120341723D02*
X149424874Y-120151247D01*
X149424874Y-120151247D02*
X149424874Y-119770295D01*
X149424874Y-119770295D02*
X149377255Y-119675057D01*
X149377255Y-119675057D02*
X149329636Y-119627438D01*
X149329636Y-119627438D02*
X149234398Y-119579819D01*
X149234398Y-119579819D02*
X149043922Y-119579819D01*
X149043922Y-119579819D02*
X148948684Y-119627438D01*
X148948684Y-119627438D02*
X148901065Y-119675057D01*
X148901065Y-119675057D02*
X148853446Y-119770295D01*
X148853446Y-119770295D02*
X148853446Y-120008390D01*
X148853446Y-120008390D02*
X148901065Y-120103628D01*
X148901065Y-120103628D02*
X148948684Y-120151247D01*
X148948684Y-120151247D02*
X149043922Y-120198866D01*
X149043922Y-120198866D02*
X149234398Y-120198866D01*
X149234398Y-120198866D02*
X149329636Y-120151247D01*
X149329636Y-120151247D02*
X149377255Y-120103628D01*
X149377255Y-120103628D02*
X149424874Y-120008390D01*
X132395350Y-120532200D02*
X132300112Y-120579819D01*
X132300112Y-120579819D02*
X132109636Y-120579819D01*
X132109636Y-120579819D02*
X132014398Y-120532200D01*
X132014398Y-120532200D02*
X131966779Y-120484580D01*
X131966779Y-120484580D02*
X131919160Y-120389342D01*
X131919160Y-120389342D02*
X131919160Y-120103628D01*
X131919160Y-120103628D02*
X131966779Y-120008390D01*
X131966779Y-120008390D02*
X132014398Y-119960771D01*
X132014398Y-119960771D02*
X132109636Y-119913152D01*
X132109636Y-119913152D02*
X132300112Y-119913152D01*
X132300112Y-119913152D02*
X132395350Y-119960771D01*
X132823922Y-120579819D02*
X132823922Y-119579819D01*
X133252493Y-120579819D02*
X133252493Y-120056009D01*
X133252493Y-120056009D02*
X133204874Y-119960771D01*
X133204874Y-119960771D02*
X133109636Y-119913152D01*
X133109636Y-119913152D02*
X132966779Y-119913152D01*
X132966779Y-119913152D02*
X132871541Y-119960771D01*
X132871541Y-119960771D02*
X132823922Y-120008390D01*
X134252493Y-120579819D02*
X133681065Y-120579819D01*
X133966779Y-120579819D02*
X133966779Y-119579819D01*
X133966779Y-119579819D02*
X133871541Y-119722676D01*
X133871541Y-119722676D02*
X133776303Y-119817914D01*
X133776303Y-119817914D02*
X133681065Y-119865533D01*
X134823922Y-120008390D02*
X134728684Y-119960771D01*
X134728684Y-119960771D02*
X134681065Y-119913152D01*
X134681065Y-119913152D02*
X134633446Y-119817914D01*
X134633446Y-119817914D02*
X134633446Y-119770295D01*
X134633446Y-119770295D02*
X134681065Y-119675057D01*
X134681065Y-119675057D02*
X134728684Y-119627438D01*
X134728684Y-119627438D02*
X134823922Y-119579819D01*
X134823922Y-119579819D02*
X135014398Y-119579819D01*
X135014398Y-119579819D02*
X135109636Y-119627438D01*
X135109636Y-119627438D02*
X135157255Y-119675057D01*
X135157255Y-119675057D02*
X135204874Y-119770295D01*
X135204874Y-119770295D02*
X135204874Y-119817914D01*
X135204874Y-119817914D02*
X135157255Y-119913152D01*
X135157255Y-119913152D02*
X135109636Y-119960771D01*
X135109636Y-119960771D02*
X135014398Y-120008390D01*
X135014398Y-120008390D02*
X134823922Y-120008390D01*
X134823922Y-120008390D02*
X134728684Y-120056009D01*
X134728684Y-120056009D02*
X134681065Y-120103628D01*
X134681065Y-120103628D02*
X134633446Y-120198866D01*
X134633446Y-120198866D02*
X134633446Y-120389342D01*
X134633446Y-120389342D02*
X134681065Y-120484580D01*
X134681065Y-120484580D02*
X134728684Y-120532200D01*
X134728684Y-120532200D02*
X134823922Y-120579819D01*
X134823922Y-120579819D02*
X135014398Y-120579819D01*
X135014398Y-120579819D02*
X135109636Y-120532200D01*
X135109636Y-120532200D02*
X135157255Y-120484580D01*
X135157255Y-120484580D02*
X135204874Y-120389342D01*
X135204874Y-120389342D02*
X135204874Y-120198866D01*
X135204874Y-120198866D02*
X135157255Y-120103628D01*
X135157255Y-120103628D02*
X135109636Y-120056009D01*
X135109636Y-120056009D02*
X135014398Y-120008390D01*
X160125350Y-120532200D02*
X160030112Y-120579819D01*
X160030112Y-120579819D02*
X159839636Y-120579819D01*
X159839636Y-120579819D02*
X159744398Y-120532200D01*
X159744398Y-120532200D02*
X159696779Y-120484580D01*
X159696779Y-120484580D02*
X159649160Y-120389342D01*
X159649160Y-120389342D02*
X159649160Y-120103628D01*
X159649160Y-120103628D02*
X159696779Y-120008390D01*
X159696779Y-120008390D02*
X159744398Y-119960771D01*
X159744398Y-119960771D02*
X159839636Y-119913152D01*
X159839636Y-119913152D02*
X160030112Y-119913152D01*
X160030112Y-119913152D02*
X160125350Y-119960771D01*
X160553922Y-120579819D02*
X160553922Y-119579819D01*
X160982493Y-120579819D02*
X160982493Y-120056009D01*
X160982493Y-120056009D02*
X160934874Y-119960771D01*
X160934874Y-119960771D02*
X160839636Y-119913152D01*
X160839636Y-119913152D02*
X160696779Y-119913152D01*
X160696779Y-119913152D02*
X160601541Y-119960771D01*
X160601541Y-119960771D02*
X160553922Y-120008390D01*
X161411065Y-119675057D02*
X161458684Y-119627438D01*
X161458684Y-119627438D02*
X161553922Y-119579819D01*
X161553922Y-119579819D02*
X161792017Y-119579819D01*
X161792017Y-119579819D02*
X161887255Y-119627438D01*
X161887255Y-119627438D02*
X161934874Y-119675057D01*
X161934874Y-119675057D02*
X161982493Y-119770295D01*
X161982493Y-119770295D02*
X161982493Y-119865533D01*
X161982493Y-119865533D02*
X161934874Y-120008390D01*
X161934874Y-120008390D02*
X161363446Y-120579819D01*
X161363446Y-120579819D02*
X161982493Y-120579819D01*
X162553922Y-120008390D02*
X162458684Y-119960771D01*
X162458684Y-119960771D02*
X162411065Y-119913152D01*
X162411065Y-119913152D02*
X162363446Y-119817914D01*
X162363446Y-119817914D02*
X162363446Y-119770295D01*
X162363446Y-119770295D02*
X162411065Y-119675057D01*
X162411065Y-119675057D02*
X162458684Y-119627438D01*
X162458684Y-119627438D02*
X162553922Y-119579819D01*
X162553922Y-119579819D02*
X162744398Y-119579819D01*
X162744398Y-119579819D02*
X162839636Y-119627438D01*
X162839636Y-119627438D02*
X162887255Y-119675057D01*
X162887255Y-119675057D02*
X162934874Y-119770295D01*
X162934874Y-119770295D02*
X162934874Y-119817914D01*
X162934874Y-119817914D02*
X162887255Y-119913152D01*
X162887255Y-119913152D02*
X162839636Y-119960771D01*
X162839636Y-119960771D02*
X162744398Y-120008390D01*
X162744398Y-120008390D02*
X162553922Y-120008390D01*
X162553922Y-120008390D02*
X162458684Y-120056009D01*
X162458684Y-120056009D02*
X162411065Y-120103628D01*
X162411065Y-120103628D02*
X162363446Y-120198866D01*
X162363446Y-120198866D02*
X162363446Y-120389342D01*
X162363446Y-120389342D02*
X162411065Y-120484580D01*
X162411065Y-120484580D02*
X162458684Y-120532200D01*
X162458684Y-120532200D02*
X162553922Y-120579819D01*
X162553922Y-120579819D02*
X162744398Y-120579819D01*
X162744398Y-120579819D02*
X162839636Y-120532200D01*
X162839636Y-120532200D02*
X162887255Y-120484580D01*
X162887255Y-120484580D02*
X162934874Y-120389342D01*
X162934874Y-120389342D02*
X162934874Y-120198866D01*
X162934874Y-120198866D02*
X162887255Y-120103628D01*
X162887255Y-120103628D02*
X162839636Y-120056009D01*
X162839636Y-120056009D02*
X162744398Y-120008390D01*
X146635350Y-106682200D02*
X146540112Y-106729819D01*
X146540112Y-106729819D02*
X146349636Y-106729819D01*
X146349636Y-106729819D02*
X146254398Y-106682200D01*
X146254398Y-106682200D02*
X146206779Y-106634580D01*
X146206779Y-106634580D02*
X146159160Y-106539342D01*
X146159160Y-106539342D02*
X146159160Y-106253628D01*
X146159160Y-106253628D02*
X146206779Y-106158390D01*
X146206779Y-106158390D02*
X146254398Y-106110771D01*
X146254398Y-106110771D02*
X146349636Y-106063152D01*
X146349636Y-106063152D02*
X146540112Y-106063152D01*
X146540112Y-106063152D02*
X146635350Y-106110771D01*
X147063922Y-106729819D02*
X147063922Y-105729819D01*
X147492493Y-106729819D02*
X147492493Y-106206009D01*
X147492493Y-106206009D02*
X147444874Y-106110771D01*
X147444874Y-106110771D02*
X147349636Y-106063152D01*
X147349636Y-106063152D02*
X147206779Y-106063152D01*
X147206779Y-106063152D02*
X147111541Y-106110771D01*
X147111541Y-106110771D02*
X147063922Y-106158390D01*
X147921065Y-105825057D02*
X147968684Y-105777438D01*
X147968684Y-105777438D02*
X148063922Y-105729819D01*
X148063922Y-105729819D02*
X148302017Y-105729819D01*
X148302017Y-105729819D02*
X148397255Y-105777438D01*
X148397255Y-105777438D02*
X148444874Y-105825057D01*
X148444874Y-105825057D02*
X148492493Y-105920295D01*
X148492493Y-105920295D02*
X148492493Y-106015533D01*
X148492493Y-106015533D02*
X148444874Y-106158390D01*
X148444874Y-106158390D02*
X147873446Y-106729819D01*
X147873446Y-106729819D02*
X148492493Y-106729819D01*
X149444874Y-106729819D02*
X148873446Y-106729819D01*
X149159160Y-106729819D02*
X149159160Y-105729819D01*
X149159160Y-105729819D02*
X149063922Y-105872676D01*
X149063922Y-105872676D02*
X148968684Y-105967914D01*
X148968684Y-105967914D02*
X148873446Y-106015533D01*
X118635350Y-106712200D02*
X118540112Y-106759819D01*
X118540112Y-106759819D02*
X118349636Y-106759819D01*
X118349636Y-106759819D02*
X118254398Y-106712200D01*
X118254398Y-106712200D02*
X118206779Y-106664580D01*
X118206779Y-106664580D02*
X118159160Y-106569342D01*
X118159160Y-106569342D02*
X118159160Y-106283628D01*
X118159160Y-106283628D02*
X118206779Y-106188390D01*
X118206779Y-106188390D02*
X118254398Y-106140771D01*
X118254398Y-106140771D02*
X118349636Y-106093152D01*
X118349636Y-106093152D02*
X118540112Y-106093152D01*
X118540112Y-106093152D02*
X118635350Y-106140771D01*
X119063922Y-106759819D02*
X119063922Y-105759819D01*
X119492493Y-106759819D02*
X119492493Y-106236009D01*
X119492493Y-106236009D02*
X119444874Y-106140771D01*
X119444874Y-106140771D02*
X119349636Y-106093152D01*
X119349636Y-106093152D02*
X119206779Y-106093152D01*
X119206779Y-106093152D02*
X119111541Y-106140771D01*
X119111541Y-106140771D02*
X119063922Y-106188390D01*
X119921065Y-105855057D02*
X119968684Y-105807438D01*
X119968684Y-105807438D02*
X120063922Y-105759819D01*
X120063922Y-105759819D02*
X120302017Y-105759819D01*
X120302017Y-105759819D02*
X120397255Y-105807438D01*
X120397255Y-105807438D02*
X120444874Y-105855057D01*
X120444874Y-105855057D02*
X120492493Y-105950295D01*
X120492493Y-105950295D02*
X120492493Y-106045533D01*
X120492493Y-106045533D02*
X120444874Y-106188390D01*
X120444874Y-106188390D02*
X119873446Y-106759819D01*
X119873446Y-106759819D02*
X120492493Y-106759819D01*
X120825827Y-105759819D02*
X121444874Y-105759819D01*
X121444874Y-105759819D02*
X121111541Y-106140771D01*
X121111541Y-106140771D02*
X121254398Y-106140771D01*
X121254398Y-106140771D02*
X121349636Y-106188390D01*
X121349636Y-106188390D02*
X121397255Y-106236009D01*
X121397255Y-106236009D02*
X121444874Y-106331247D01*
X121444874Y-106331247D02*
X121444874Y-106569342D01*
X121444874Y-106569342D02*
X121397255Y-106664580D01*
X121397255Y-106664580D02*
X121349636Y-106712200D01*
X121349636Y-106712200D02*
X121254398Y-106759819D01*
X121254398Y-106759819D02*
X120968684Y-106759819D01*
X120968684Y-106759819D02*
X120873446Y-106712200D01*
X120873446Y-106712200D02*
X120825827Y-106664580D01*
X160145350Y-106682200D02*
X160050112Y-106729819D01*
X160050112Y-106729819D02*
X159859636Y-106729819D01*
X159859636Y-106729819D02*
X159764398Y-106682200D01*
X159764398Y-106682200D02*
X159716779Y-106634580D01*
X159716779Y-106634580D02*
X159669160Y-106539342D01*
X159669160Y-106539342D02*
X159669160Y-106253628D01*
X159669160Y-106253628D02*
X159716779Y-106158390D01*
X159716779Y-106158390D02*
X159764398Y-106110771D01*
X159764398Y-106110771D02*
X159859636Y-106063152D01*
X159859636Y-106063152D02*
X160050112Y-106063152D01*
X160050112Y-106063152D02*
X160145350Y-106110771D01*
X160573922Y-106729819D02*
X160573922Y-105729819D01*
X161002493Y-106729819D02*
X161002493Y-106206009D01*
X161002493Y-106206009D02*
X160954874Y-106110771D01*
X160954874Y-106110771D02*
X160859636Y-106063152D01*
X160859636Y-106063152D02*
X160716779Y-106063152D01*
X160716779Y-106063152D02*
X160621541Y-106110771D01*
X160621541Y-106110771D02*
X160573922Y-106158390D01*
X161431065Y-105825057D02*
X161478684Y-105777438D01*
X161478684Y-105777438D02*
X161573922Y-105729819D01*
X161573922Y-105729819D02*
X161812017Y-105729819D01*
X161812017Y-105729819D02*
X161907255Y-105777438D01*
X161907255Y-105777438D02*
X161954874Y-105825057D01*
X161954874Y-105825057D02*
X162002493Y-105920295D01*
X162002493Y-105920295D02*
X162002493Y-106015533D01*
X162002493Y-106015533D02*
X161954874Y-106158390D01*
X161954874Y-106158390D02*
X161383446Y-106729819D01*
X161383446Y-106729819D02*
X162002493Y-106729819D01*
X162621541Y-105729819D02*
X162716779Y-105729819D01*
X162716779Y-105729819D02*
X162812017Y-105777438D01*
X162812017Y-105777438D02*
X162859636Y-105825057D01*
X162859636Y-105825057D02*
X162907255Y-105920295D01*
X162907255Y-105920295D02*
X162954874Y-106110771D01*
X162954874Y-106110771D02*
X162954874Y-106348866D01*
X162954874Y-106348866D02*
X162907255Y-106539342D01*
X162907255Y-106539342D02*
X162859636Y-106634580D01*
X162859636Y-106634580D02*
X162812017Y-106682200D01*
X162812017Y-106682200D02*
X162716779Y-106729819D01*
X162716779Y-106729819D02*
X162621541Y-106729819D01*
X162621541Y-106729819D02*
X162526303Y-106682200D01*
X162526303Y-106682200D02*
X162478684Y-106634580D01*
X162478684Y-106634580D02*
X162431065Y-106539342D01*
X162431065Y-106539342D02*
X162383446Y-106348866D01*
X162383446Y-106348866D02*
X162383446Y-106110771D01*
X162383446Y-106110771D02*
X162431065Y-105920295D01*
X162431065Y-105920295D02*
X162478684Y-105825057D01*
X162478684Y-105825057D02*
X162526303Y-105777438D01*
X162526303Y-105777438D02*
X162621541Y-105729819D01*
X132415350Y-106682200D02*
X132320112Y-106729819D01*
X132320112Y-106729819D02*
X132129636Y-106729819D01*
X132129636Y-106729819D02*
X132034398Y-106682200D01*
X132034398Y-106682200D02*
X131986779Y-106634580D01*
X131986779Y-106634580D02*
X131939160Y-106539342D01*
X131939160Y-106539342D02*
X131939160Y-106253628D01*
X131939160Y-106253628D02*
X131986779Y-106158390D01*
X131986779Y-106158390D02*
X132034398Y-106110771D01*
X132034398Y-106110771D02*
X132129636Y-106063152D01*
X132129636Y-106063152D02*
X132320112Y-106063152D01*
X132320112Y-106063152D02*
X132415350Y-106110771D01*
X132843922Y-106729819D02*
X132843922Y-105729819D01*
X133272493Y-106729819D02*
X133272493Y-106206009D01*
X133272493Y-106206009D02*
X133224874Y-106110771D01*
X133224874Y-106110771D02*
X133129636Y-106063152D01*
X133129636Y-106063152D02*
X132986779Y-106063152D01*
X132986779Y-106063152D02*
X132891541Y-106110771D01*
X132891541Y-106110771D02*
X132843922Y-106158390D01*
X133701065Y-105825057D02*
X133748684Y-105777438D01*
X133748684Y-105777438D02*
X133843922Y-105729819D01*
X133843922Y-105729819D02*
X134082017Y-105729819D01*
X134082017Y-105729819D02*
X134177255Y-105777438D01*
X134177255Y-105777438D02*
X134224874Y-105825057D01*
X134224874Y-105825057D02*
X134272493Y-105920295D01*
X134272493Y-105920295D02*
X134272493Y-106015533D01*
X134272493Y-106015533D02*
X134224874Y-106158390D01*
X134224874Y-106158390D02*
X133653446Y-106729819D01*
X133653446Y-106729819D02*
X134272493Y-106729819D01*
X134653446Y-105825057D02*
X134701065Y-105777438D01*
X134701065Y-105777438D02*
X134796303Y-105729819D01*
X134796303Y-105729819D02*
X135034398Y-105729819D01*
X135034398Y-105729819D02*
X135129636Y-105777438D01*
X135129636Y-105777438D02*
X135177255Y-105825057D01*
X135177255Y-105825057D02*
X135224874Y-105920295D01*
X135224874Y-105920295D02*
X135224874Y-106015533D01*
X135224874Y-106015533D02*
X135177255Y-106158390D01*
X135177255Y-106158390D02*
X134605827Y-106729819D01*
X134605827Y-106729819D02*
X135224874Y-106729819D01*
X146635350Y-93222200D02*
X146540112Y-93269819D01*
X146540112Y-93269819D02*
X146349636Y-93269819D01*
X146349636Y-93269819D02*
X146254398Y-93222200D01*
X146254398Y-93222200D02*
X146206779Y-93174580D01*
X146206779Y-93174580D02*
X146159160Y-93079342D01*
X146159160Y-93079342D02*
X146159160Y-92793628D01*
X146159160Y-92793628D02*
X146206779Y-92698390D01*
X146206779Y-92698390D02*
X146254398Y-92650771D01*
X146254398Y-92650771D02*
X146349636Y-92603152D01*
X146349636Y-92603152D02*
X146540112Y-92603152D01*
X146540112Y-92603152D02*
X146635350Y-92650771D01*
X147063922Y-93269819D02*
X147063922Y-92269819D01*
X147492493Y-93269819D02*
X147492493Y-92746009D01*
X147492493Y-92746009D02*
X147444874Y-92650771D01*
X147444874Y-92650771D02*
X147349636Y-92603152D01*
X147349636Y-92603152D02*
X147206779Y-92603152D01*
X147206779Y-92603152D02*
X147111541Y-92650771D01*
X147111541Y-92650771D02*
X147063922Y-92698390D01*
X148492493Y-93269819D02*
X147921065Y-93269819D01*
X148206779Y-93269819D02*
X148206779Y-92269819D01*
X148206779Y-92269819D02*
X148111541Y-92412676D01*
X148111541Y-92412676D02*
X148016303Y-92507914D01*
X148016303Y-92507914D02*
X147921065Y-92555533D01*
X148825827Y-92269819D02*
X149444874Y-92269819D01*
X149444874Y-92269819D02*
X149111541Y-92650771D01*
X149111541Y-92650771D02*
X149254398Y-92650771D01*
X149254398Y-92650771D02*
X149349636Y-92698390D01*
X149349636Y-92698390D02*
X149397255Y-92746009D01*
X149397255Y-92746009D02*
X149444874Y-92841247D01*
X149444874Y-92841247D02*
X149444874Y-93079342D01*
X149444874Y-93079342D02*
X149397255Y-93174580D01*
X149397255Y-93174580D02*
X149349636Y-93222200D01*
X149349636Y-93222200D02*
X149254398Y-93269819D01*
X149254398Y-93269819D02*
X148968684Y-93269819D01*
X148968684Y-93269819D02*
X148873446Y-93222200D01*
X148873446Y-93222200D02*
X148825827Y-93174580D01*
X118635350Y-93252200D02*
X118540112Y-93299819D01*
X118540112Y-93299819D02*
X118349636Y-93299819D01*
X118349636Y-93299819D02*
X118254398Y-93252200D01*
X118254398Y-93252200D02*
X118206779Y-93204580D01*
X118206779Y-93204580D02*
X118159160Y-93109342D01*
X118159160Y-93109342D02*
X118159160Y-92823628D01*
X118159160Y-92823628D02*
X118206779Y-92728390D01*
X118206779Y-92728390D02*
X118254398Y-92680771D01*
X118254398Y-92680771D02*
X118349636Y-92633152D01*
X118349636Y-92633152D02*
X118540112Y-92633152D01*
X118540112Y-92633152D02*
X118635350Y-92680771D01*
X119063922Y-93299819D02*
X119063922Y-92299819D01*
X119492493Y-93299819D02*
X119492493Y-92776009D01*
X119492493Y-92776009D02*
X119444874Y-92680771D01*
X119444874Y-92680771D02*
X119349636Y-92633152D01*
X119349636Y-92633152D02*
X119206779Y-92633152D01*
X119206779Y-92633152D02*
X119111541Y-92680771D01*
X119111541Y-92680771D02*
X119063922Y-92728390D01*
X120492493Y-93299819D02*
X119921065Y-93299819D01*
X120206779Y-93299819D02*
X120206779Y-92299819D01*
X120206779Y-92299819D02*
X120111541Y-92442676D01*
X120111541Y-92442676D02*
X120016303Y-92537914D01*
X120016303Y-92537914D02*
X119921065Y-92585533D01*
X121397255Y-92299819D02*
X120921065Y-92299819D01*
X120921065Y-92299819D02*
X120873446Y-92776009D01*
X120873446Y-92776009D02*
X120921065Y-92728390D01*
X120921065Y-92728390D02*
X121016303Y-92680771D01*
X121016303Y-92680771D02*
X121254398Y-92680771D01*
X121254398Y-92680771D02*
X121349636Y-92728390D01*
X121349636Y-92728390D02*
X121397255Y-92776009D01*
X121397255Y-92776009D02*
X121444874Y-92871247D01*
X121444874Y-92871247D02*
X121444874Y-93109342D01*
X121444874Y-93109342D02*
X121397255Y-93204580D01*
X121397255Y-93204580D02*
X121349636Y-93252200D01*
X121349636Y-93252200D02*
X121254398Y-93299819D01*
X121254398Y-93299819D02*
X121016303Y-93299819D01*
X121016303Y-93299819D02*
X120921065Y-93252200D01*
X120921065Y-93252200D02*
X120873446Y-93204580D01*
X160145350Y-93222200D02*
X160050112Y-93269819D01*
X160050112Y-93269819D02*
X159859636Y-93269819D01*
X159859636Y-93269819D02*
X159764398Y-93222200D01*
X159764398Y-93222200D02*
X159716779Y-93174580D01*
X159716779Y-93174580D02*
X159669160Y-93079342D01*
X159669160Y-93079342D02*
X159669160Y-92793628D01*
X159669160Y-92793628D02*
X159716779Y-92698390D01*
X159716779Y-92698390D02*
X159764398Y-92650771D01*
X159764398Y-92650771D02*
X159859636Y-92603152D01*
X159859636Y-92603152D02*
X160050112Y-92603152D01*
X160050112Y-92603152D02*
X160145350Y-92650771D01*
X160573922Y-93269819D02*
X160573922Y-92269819D01*
X161002493Y-93269819D02*
X161002493Y-92746009D01*
X161002493Y-92746009D02*
X160954874Y-92650771D01*
X160954874Y-92650771D02*
X160859636Y-92603152D01*
X160859636Y-92603152D02*
X160716779Y-92603152D01*
X160716779Y-92603152D02*
X160621541Y-92650771D01*
X160621541Y-92650771D02*
X160573922Y-92698390D01*
X162002493Y-93269819D02*
X161431065Y-93269819D01*
X161716779Y-93269819D02*
X161716779Y-92269819D01*
X161716779Y-92269819D02*
X161621541Y-92412676D01*
X161621541Y-92412676D02*
X161526303Y-92507914D01*
X161526303Y-92507914D02*
X161431065Y-92555533D01*
X162383446Y-92365057D02*
X162431065Y-92317438D01*
X162431065Y-92317438D02*
X162526303Y-92269819D01*
X162526303Y-92269819D02*
X162764398Y-92269819D01*
X162764398Y-92269819D02*
X162859636Y-92317438D01*
X162859636Y-92317438D02*
X162907255Y-92365057D01*
X162907255Y-92365057D02*
X162954874Y-92460295D01*
X162954874Y-92460295D02*
X162954874Y-92555533D01*
X162954874Y-92555533D02*
X162907255Y-92698390D01*
X162907255Y-92698390D02*
X162335827Y-93269819D01*
X162335827Y-93269819D02*
X162954874Y-93269819D01*
X132415350Y-93222200D02*
X132320112Y-93269819D01*
X132320112Y-93269819D02*
X132129636Y-93269819D01*
X132129636Y-93269819D02*
X132034398Y-93222200D01*
X132034398Y-93222200D02*
X131986779Y-93174580D01*
X131986779Y-93174580D02*
X131939160Y-93079342D01*
X131939160Y-93079342D02*
X131939160Y-92793628D01*
X131939160Y-92793628D02*
X131986779Y-92698390D01*
X131986779Y-92698390D02*
X132034398Y-92650771D01*
X132034398Y-92650771D02*
X132129636Y-92603152D01*
X132129636Y-92603152D02*
X132320112Y-92603152D01*
X132320112Y-92603152D02*
X132415350Y-92650771D01*
X132843922Y-93269819D02*
X132843922Y-92269819D01*
X133272493Y-93269819D02*
X133272493Y-92746009D01*
X133272493Y-92746009D02*
X133224874Y-92650771D01*
X133224874Y-92650771D02*
X133129636Y-92603152D01*
X133129636Y-92603152D02*
X132986779Y-92603152D01*
X132986779Y-92603152D02*
X132891541Y-92650771D01*
X132891541Y-92650771D02*
X132843922Y-92698390D01*
X134272493Y-93269819D02*
X133701065Y-93269819D01*
X133986779Y-93269819D02*
X133986779Y-92269819D01*
X133986779Y-92269819D02*
X133891541Y-92412676D01*
X133891541Y-92412676D02*
X133796303Y-92507914D01*
X133796303Y-92507914D02*
X133701065Y-92555533D01*
X135129636Y-92603152D02*
X135129636Y-93269819D01*
X134891541Y-92222200D02*
X134653446Y-92936485D01*
X134653446Y-92936485D02*
X135272493Y-92936485D01*
X146645350Y-79422200D02*
X146550112Y-79469819D01*
X146550112Y-79469819D02*
X146359636Y-79469819D01*
X146359636Y-79469819D02*
X146264398Y-79422200D01*
X146264398Y-79422200D02*
X146216779Y-79374580D01*
X146216779Y-79374580D02*
X146169160Y-79279342D01*
X146169160Y-79279342D02*
X146169160Y-78993628D01*
X146169160Y-78993628D02*
X146216779Y-78898390D01*
X146216779Y-78898390D02*
X146264398Y-78850771D01*
X146264398Y-78850771D02*
X146359636Y-78803152D01*
X146359636Y-78803152D02*
X146550112Y-78803152D01*
X146550112Y-78803152D02*
X146645350Y-78850771D01*
X147073922Y-79469819D02*
X147073922Y-78469819D01*
X147502493Y-79469819D02*
X147502493Y-78946009D01*
X147502493Y-78946009D02*
X147454874Y-78850771D01*
X147454874Y-78850771D02*
X147359636Y-78803152D01*
X147359636Y-78803152D02*
X147216779Y-78803152D01*
X147216779Y-78803152D02*
X147121541Y-78850771D01*
X147121541Y-78850771D02*
X147073922Y-78898390D01*
X148502493Y-79469819D02*
X147931065Y-79469819D01*
X148216779Y-79469819D02*
X148216779Y-78469819D01*
X148216779Y-78469819D02*
X148121541Y-78612676D01*
X148121541Y-78612676D02*
X148026303Y-78707914D01*
X148026303Y-78707914D02*
X147931065Y-78755533D01*
X148835827Y-78469819D02*
X149502493Y-78469819D01*
X149502493Y-78469819D02*
X149073922Y-79469819D01*
X132425350Y-79422200D02*
X132330112Y-79469819D01*
X132330112Y-79469819D02*
X132139636Y-79469819D01*
X132139636Y-79469819D02*
X132044398Y-79422200D01*
X132044398Y-79422200D02*
X131996779Y-79374580D01*
X131996779Y-79374580D02*
X131949160Y-79279342D01*
X131949160Y-79279342D02*
X131949160Y-78993628D01*
X131949160Y-78993628D02*
X131996779Y-78898390D01*
X131996779Y-78898390D02*
X132044398Y-78850771D01*
X132044398Y-78850771D02*
X132139636Y-78803152D01*
X132139636Y-78803152D02*
X132330112Y-78803152D01*
X132330112Y-78803152D02*
X132425350Y-78850771D01*
X132853922Y-79469819D02*
X132853922Y-78469819D01*
X133282493Y-79469819D02*
X133282493Y-78946009D01*
X133282493Y-78946009D02*
X133234874Y-78850771D01*
X133234874Y-78850771D02*
X133139636Y-78803152D01*
X133139636Y-78803152D02*
X132996779Y-78803152D01*
X132996779Y-78803152D02*
X132901541Y-78850771D01*
X132901541Y-78850771D02*
X132853922Y-78898390D01*
X134187255Y-78469819D02*
X133996779Y-78469819D01*
X133996779Y-78469819D02*
X133901541Y-78517438D01*
X133901541Y-78517438D02*
X133853922Y-78565057D01*
X133853922Y-78565057D02*
X133758684Y-78707914D01*
X133758684Y-78707914D02*
X133711065Y-78898390D01*
X133711065Y-78898390D02*
X133711065Y-79279342D01*
X133711065Y-79279342D02*
X133758684Y-79374580D01*
X133758684Y-79374580D02*
X133806303Y-79422200D01*
X133806303Y-79422200D02*
X133901541Y-79469819D01*
X133901541Y-79469819D02*
X134092017Y-79469819D01*
X134092017Y-79469819D02*
X134187255Y-79422200D01*
X134187255Y-79422200D02*
X134234874Y-79374580D01*
X134234874Y-79374580D02*
X134282493Y-79279342D01*
X134282493Y-79279342D02*
X134282493Y-79041247D01*
X134282493Y-79041247D02*
X134234874Y-78946009D01*
X134234874Y-78946009D02*
X134187255Y-78898390D01*
X134187255Y-78898390D02*
X134092017Y-78850771D01*
X134092017Y-78850771D02*
X133901541Y-78850771D01*
X133901541Y-78850771D02*
X133806303Y-78898390D01*
X133806303Y-78898390D02*
X133758684Y-78946009D01*
X133758684Y-78946009D02*
X133711065Y-79041247D01*
X160155350Y-79422200D02*
X160060112Y-79469819D01*
X160060112Y-79469819D02*
X159869636Y-79469819D01*
X159869636Y-79469819D02*
X159774398Y-79422200D01*
X159774398Y-79422200D02*
X159726779Y-79374580D01*
X159726779Y-79374580D02*
X159679160Y-79279342D01*
X159679160Y-79279342D02*
X159679160Y-78993628D01*
X159679160Y-78993628D02*
X159726779Y-78898390D01*
X159726779Y-78898390D02*
X159774398Y-78850771D01*
X159774398Y-78850771D02*
X159869636Y-78803152D01*
X159869636Y-78803152D02*
X160060112Y-78803152D01*
X160060112Y-78803152D02*
X160155350Y-78850771D01*
X160583922Y-79469819D02*
X160583922Y-78469819D01*
X161012493Y-79469819D02*
X161012493Y-78946009D01*
X161012493Y-78946009D02*
X160964874Y-78850771D01*
X160964874Y-78850771D02*
X160869636Y-78803152D01*
X160869636Y-78803152D02*
X160726779Y-78803152D01*
X160726779Y-78803152D02*
X160631541Y-78850771D01*
X160631541Y-78850771D02*
X160583922Y-78898390D01*
X162012493Y-79469819D02*
X161441065Y-79469819D01*
X161726779Y-79469819D02*
X161726779Y-78469819D01*
X161726779Y-78469819D02*
X161631541Y-78612676D01*
X161631541Y-78612676D02*
X161536303Y-78707914D01*
X161536303Y-78707914D02*
X161441065Y-78755533D01*
X162869636Y-78469819D02*
X162679160Y-78469819D01*
X162679160Y-78469819D02*
X162583922Y-78517438D01*
X162583922Y-78517438D02*
X162536303Y-78565057D01*
X162536303Y-78565057D02*
X162441065Y-78707914D01*
X162441065Y-78707914D02*
X162393446Y-78898390D01*
X162393446Y-78898390D02*
X162393446Y-79279342D01*
X162393446Y-79279342D02*
X162441065Y-79374580D01*
X162441065Y-79374580D02*
X162488684Y-79422200D01*
X162488684Y-79422200D02*
X162583922Y-79469819D01*
X162583922Y-79469819D02*
X162774398Y-79469819D01*
X162774398Y-79469819D02*
X162869636Y-79422200D01*
X162869636Y-79422200D02*
X162917255Y-79374580D01*
X162917255Y-79374580D02*
X162964874Y-79279342D01*
X162964874Y-79279342D02*
X162964874Y-79041247D01*
X162964874Y-79041247D02*
X162917255Y-78946009D01*
X162917255Y-78946009D02*
X162869636Y-78898390D01*
X162869636Y-78898390D02*
X162774398Y-78850771D01*
X162774398Y-78850771D02*
X162583922Y-78850771D01*
X162583922Y-78850771D02*
X162488684Y-78898390D01*
X162488684Y-78898390D02*
X162441065Y-78946009D01*
X162441065Y-78946009D02*
X162393446Y-79041247D01*
X118645350Y-79452200D02*
X118550112Y-79499819D01*
X118550112Y-79499819D02*
X118359636Y-79499819D01*
X118359636Y-79499819D02*
X118264398Y-79452200D01*
X118264398Y-79452200D02*
X118216779Y-79404580D01*
X118216779Y-79404580D02*
X118169160Y-79309342D01*
X118169160Y-79309342D02*
X118169160Y-79023628D01*
X118169160Y-79023628D02*
X118216779Y-78928390D01*
X118216779Y-78928390D02*
X118264398Y-78880771D01*
X118264398Y-78880771D02*
X118359636Y-78833152D01*
X118359636Y-78833152D02*
X118550112Y-78833152D01*
X118550112Y-78833152D02*
X118645350Y-78880771D01*
X119073922Y-79499819D02*
X119073922Y-78499819D01*
X119502493Y-79499819D02*
X119502493Y-78976009D01*
X119502493Y-78976009D02*
X119454874Y-78880771D01*
X119454874Y-78880771D02*
X119359636Y-78833152D01*
X119359636Y-78833152D02*
X119216779Y-78833152D01*
X119216779Y-78833152D02*
X119121541Y-78880771D01*
X119121541Y-78880771D02*
X119073922Y-78928390D01*
X119883446Y-78499819D02*
X120550112Y-78499819D01*
X120550112Y-78499819D02*
X120121541Y-79499819D01*
X160155350Y-65982200D02*
X160060112Y-66029819D01*
X160060112Y-66029819D02*
X159869636Y-66029819D01*
X159869636Y-66029819D02*
X159774398Y-65982200D01*
X159774398Y-65982200D02*
X159726779Y-65934580D01*
X159726779Y-65934580D02*
X159679160Y-65839342D01*
X159679160Y-65839342D02*
X159679160Y-65553628D01*
X159679160Y-65553628D02*
X159726779Y-65458390D01*
X159726779Y-65458390D02*
X159774398Y-65410771D01*
X159774398Y-65410771D02*
X159869636Y-65363152D01*
X159869636Y-65363152D02*
X160060112Y-65363152D01*
X160060112Y-65363152D02*
X160155350Y-65410771D01*
X160583922Y-66029819D02*
X160583922Y-65029819D01*
X161012493Y-66029819D02*
X161012493Y-65506009D01*
X161012493Y-65506009D02*
X160964874Y-65410771D01*
X160964874Y-65410771D02*
X160869636Y-65363152D01*
X160869636Y-65363152D02*
X160726779Y-65363152D01*
X160726779Y-65363152D02*
X160631541Y-65410771D01*
X160631541Y-65410771D02*
X160583922Y-65458390D01*
X161631541Y-65458390D02*
X161536303Y-65410771D01*
X161536303Y-65410771D02*
X161488684Y-65363152D01*
X161488684Y-65363152D02*
X161441065Y-65267914D01*
X161441065Y-65267914D02*
X161441065Y-65220295D01*
X161441065Y-65220295D02*
X161488684Y-65125057D01*
X161488684Y-65125057D02*
X161536303Y-65077438D01*
X161536303Y-65077438D02*
X161631541Y-65029819D01*
X161631541Y-65029819D02*
X161822017Y-65029819D01*
X161822017Y-65029819D02*
X161917255Y-65077438D01*
X161917255Y-65077438D02*
X161964874Y-65125057D01*
X161964874Y-65125057D02*
X162012493Y-65220295D01*
X162012493Y-65220295D02*
X162012493Y-65267914D01*
X162012493Y-65267914D02*
X161964874Y-65363152D01*
X161964874Y-65363152D02*
X161917255Y-65410771D01*
X161917255Y-65410771D02*
X161822017Y-65458390D01*
X161822017Y-65458390D02*
X161631541Y-65458390D01*
X161631541Y-65458390D02*
X161536303Y-65506009D01*
X161536303Y-65506009D02*
X161488684Y-65553628D01*
X161488684Y-65553628D02*
X161441065Y-65648866D01*
X161441065Y-65648866D02*
X161441065Y-65839342D01*
X161441065Y-65839342D02*
X161488684Y-65934580D01*
X161488684Y-65934580D02*
X161536303Y-65982200D01*
X161536303Y-65982200D02*
X161631541Y-66029819D01*
X161631541Y-66029819D02*
X161822017Y-66029819D01*
X161822017Y-66029819D02*
X161917255Y-65982200D01*
X161917255Y-65982200D02*
X161964874Y-65934580D01*
X161964874Y-65934580D02*
X162012493Y-65839342D01*
X162012493Y-65839342D02*
X162012493Y-65648866D01*
X162012493Y-65648866D02*
X161964874Y-65553628D01*
X161964874Y-65553628D02*
X161917255Y-65506009D01*
X161917255Y-65506009D02*
X161822017Y-65458390D01*
X132425350Y-65982200D02*
X132330112Y-66029819D01*
X132330112Y-66029819D02*
X132139636Y-66029819D01*
X132139636Y-66029819D02*
X132044398Y-65982200D01*
X132044398Y-65982200D02*
X131996779Y-65934580D01*
X131996779Y-65934580D02*
X131949160Y-65839342D01*
X131949160Y-65839342D02*
X131949160Y-65553628D01*
X131949160Y-65553628D02*
X131996779Y-65458390D01*
X131996779Y-65458390D02*
X132044398Y-65410771D01*
X132044398Y-65410771D02*
X132139636Y-65363152D01*
X132139636Y-65363152D02*
X132330112Y-65363152D01*
X132330112Y-65363152D02*
X132425350Y-65410771D01*
X132853922Y-66029819D02*
X132853922Y-65029819D01*
X133282493Y-66029819D02*
X133282493Y-65506009D01*
X133282493Y-65506009D02*
X133234874Y-65410771D01*
X133234874Y-65410771D02*
X133139636Y-65363152D01*
X133139636Y-65363152D02*
X132996779Y-65363152D01*
X132996779Y-65363152D02*
X132901541Y-65410771D01*
X132901541Y-65410771D02*
X132853922Y-65458390D01*
X134282493Y-66029819D02*
X133711065Y-66029819D01*
X133996779Y-66029819D02*
X133996779Y-65029819D01*
X133996779Y-65029819D02*
X133901541Y-65172676D01*
X133901541Y-65172676D02*
X133806303Y-65267914D01*
X133806303Y-65267914D02*
X133711065Y-65315533D01*
X134901541Y-65029819D02*
X134996779Y-65029819D01*
X134996779Y-65029819D02*
X135092017Y-65077438D01*
X135092017Y-65077438D02*
X135139636Y-65125057D01*
X135139636Y-65125057D02*
X135187255Y-65220295D01*
X135187255Y-65220295D02*
X135234874Y-65410771D01*
X135234874Y-65410771D02*
X135234874Y-65648866D01*
X135234874Y-65648866D02*
X135187255Y-65839342D01*
X135187255Y-65839342D02*
X135139636Y-65934580D01*
X135139636Y-65934580D02*
X135092017Y-65982200D01*
X135092017Y-65982200D02*
X134996779Y-66029819D01*
X134996779Y-66029819D02*
X134901541Y-66029819D01*
X134901541Y-66029819D02*
X134806303Y-65982200D01*
X134806303Y-65982200D02*
X134758684Y-65934580D01*
X134758684Y-65934580D02*
X134711065Y-65839342D01*
X134711065Y-65839342D02*
X134663446Y-65648866D01*
X134663446Y-65648866D02*
X134663446Y-65410771D01*
X134663446Y-65410771D02*
X134711065Y-65220295D01*
X134711065Y-65220295D02*
X134758684Y-65125057D01*
X134758684Y-65125057D02*
X134806303Y-65077438D01*
X134806303Y-65077438D02*
X134901541Y-65029819D01*
X146645350Y-65982200D02*
X146550112Y-66029819D01*
X146550112Y-66029819D02*
X146359636Y-66029819D01*
X146359636Y-66029819D02*
X146264398Y-65982200D01*
X146264398Y-65982200D02*
X146216779Y-65934580D01*
X146216779Y-65934580D02*
X146169160Y-65839342D01*
X146169160Y-65839342D02*
X146169160Y-65553628D01*
X146169160Y-65553628D02*
X146216779Y-65458390D01*
X146216779Y-65458390D02*
X146264398Y-65410771D01*
X146264398Y-65410771D02*
X146359636Y-65363152D01*
X146359636Y-65363152D02*
X146550112Y-65363152D01*
X146550112Y-65363152D02*
X146645350Y-65410771D01*
X147073922Y-66029819D02*
X147073922Y-65029819D01*
X147502493Y-66029819D02*
X147502493Y-65506009D01*
X147502493Y-65506009D02*
X147454874Y-65410771D01*
X147454874Y-65410771D02*
X147359636Y-65363152D01*
X147359636Y-65363152D02*
X147216779Y-65363152D01*
X147216779Y-65363152D02*
X147121541Y-65410771D01*
X147121541Y-65410771D02*
X147073922Y-65458390D01*
X148026303Y-66029819D02*
X148216779Y-66029819D01*
X148216779Y-66029819D02*
X148312017Y-65982200D01*
X148312017Y-65982200D02*
X148359636Y-65934580D01*
X148359636Y-65934580D02*
X148454874Y-65791723D01*
X148454874Y-65791723D02*
X148502493Y-65601247D01*
X148502493Y-65601247D02*
X148502493Y-65220295D01*
X148502493Y-65220295D02*
X148454874Y-65125057D01*
X148454874Y-65125057D02*
X148407255Y-65077438D01*
X148407255Y-65077438D02*
X148312017Y-65029819D01*
X148312017Y-65029819D02*
X148121541Y-65029819D01*
X148121541Y-65029819D02*
X148026303Y-65077438D01*
X148026303Y-65077438D02*
X147978684Y-65125057D01*
X147978684Y-65125057D02*
X147931065Y-65220295D01*
X147931065Y-65220295D02*
X147931065Y-65458390D01*
X147931065Y-65458390D02*
X147978684Y-65553628D01*
X147978684Y-65553628D02*
X148026303Y-65601247D01*
X148026303Y-65601247D02*
X148121541Y-65648866D01*
X148121541Y-65648866D02*
X148312017Y-65648866D01*
X148312017Y-65648866D02*
X148407255Y-65601247D01*
X148407255Y-65601247D02*
X148454874Y-65553628D01*
X148454874Y-65553628D02*
X148502493Y-65458390D01*
X118645350Y-66012200D02*
X118550112Y-66059819D01*
X118550112Y-66059819D02*
X118359636Y-66059819D01*
X118359636Y-66059819D02*
X118264398Y-66012200D01*
X118264398Y-66012200D02*
X118216779Y-65964580D01*
X118216779Y-65964580D02*
X118169160Y-65869342D01*
X118169160Y-65869342D02*
X118169160Y-65583628D01*
X118169160Y-65583628D02*
X118216779Y-65488390D01*
X118216779Y-65488390D02*
X118264398Y-65440771D01*
X118264398Y-65440771D02*
X118359636Y-65393152D01*
X118359636Y-65393152D02*
X118550112Y-65393152D01*
X118550112Y-65393152D02*
X118645350Y-65440771D01*
X119073922Y-66059819D02*
X119073922Y-65059819D01*
X119502493Y-66059819D02*
X119502493Y-65536009D01*
X119502493Y-65536009D02*
X119454874Y-65440771D01*
X119454874Y-65440771D02*
X119359636Y-65393152D01*
X119359636Y-65393152D02*
X119216779Y-65393152D01*
X119216779Y-65393152D02*
X119121541Y-65440771D01*
X119121541Y-65440771D02*
X119073922Y-65488390D01*
X120502493Y-66059819D02*
X119931065Y-66059819D01*
X120216779Y-66059819D02*
X120216779Y-65059819D01*
X120216779Y-65059819D02*
X120121541Y-65202676D01*
X120121541Y-65202676D02*
X120026303Y-65297914D01*
X120026303Y-65297914D02*
X119931065Y-65345533D01*
X121454874Y-66059819D02*
X120883446Y-66059819D01*
X121169160Y-66059819D02*
X121169160Y-65059819D01*
X121169160Y-65059819D02*
X121073922Y-65202676D01*
X121073922Y-65202676D02*
X120978684Y-65297914D01*
X120978684Y-65297914D02*
X120883446Y-65345533D01*
X118645350Y-52052200D02*
X118550112Y-52099819D01*
X118550112Y-52099819D02*
X118359636Y-52099819D01*
X118359636Y-52099819D02*
X118264398Y-52052200D01*
X118264398Y-52052200D02*
X118216779Y-52004580D01*
X118216779Y-52004580D02*
X118169160Y-51909342D01*
X118169160Y-51909342D02*
X118169160Y-51623628D01*
X118169160Y-51623628D02*
X118216779Y-51528390D01*
X118216779Y-51528390D02*
X118264398Y-51480771D01*
X118264398Y-51480771D02*
X118359636Y-51433152D01*
X118359636Y-51433152D02*
X118550112Y-51433152D01*
X118550112Y-51433152D02*
X118645350Y-51480771D01*
X119073922Y-52099819D02*
X119073922Y-51099819D01*
X119502493Y-52099819D02*
X119502493Y-51576009D01*
X119502493Y-51576009D02*
X119454874Y-51480771D01*
X119454874Y-51480771D02*
X119359636Y-51433152D01*
X119359636Y-51433152D02*
X119216779Y-51433152D01*
X119216779Y-51433152D02*
X119121541Y-51480771D01*
X119121541Y-51480771D02*
X119073922Y-51528390D01*
X119883446Y-51099819D02*
X120502493Y-51099819D01*
X120502493Y-51099819D02*
X120169160Y-51480771D01*
X120169160Y-51480771D02*
X120312017Y-51480771D01*
X120312017Y-51480771D02*
X120407255Y-51528390D01*
X120407255Y-51528390D02*
X120454874Y-51576009D01*
X120454874Y-51576009D02*
X120502493Y-51671247D01*
X120502493Y-51671247D02*
X120502493Y-51909342D01*
X120502493Y-51909342D02*
X120454874Y-52004580D01*
X120454874Y-52004580D02*
X120407255Y-52052200D01*
X120407255Y-52052200D02*
X120312017Y-52099819D01*
X120312017Y-52099819D02*
X120026303Y-52099819D01*
X120026303Y-52099819D02*
X119931065Y-52052200D01*
X119931065Y-52052200D02*
X119883446Y-52004580D01*
X132425350Y-52022200D02*
X132330112Y-52069819D01*
X132330112Y-52069819D02*
X132139636Y-52069819D01*
X132139636Y-52069819D02*
X132044398Y-52022200D01*
X132044398Y-52022200D02*
X131996779Y-51974580D01*
X131996779Y-51974580D02*
X131949160Y-51879342D01*
X131949160Y-51879342D02*
X131949160Y-51593628D01*
X131949160Y-51593628D02*
X131996779Y-51498390D01*
X131996779Y-51498390D02*
X132044398Y-51450771D01*
X132044398Y-51450771D02*
X132139636Y-51403152D01*
X132139636Y-51403152D02*
X132330112Y-51403152D01*
X132330112Y-51403152D02*
X132425350Y-51450771D01*
X132853922Y-52069819D02*
X132853922Y-51069819D01*
X133282493Y-52069819D02*
X133282493Y-51546009D01*
X133282493Y-51546009D02*
X133234874Y-51450771D01*
X133234874Y-51450771D02*
X133139636Y-51403152D01*
X133139636Y-51403152D02*
X132996779Y-51403152D01*
X132996779Y-51403152D02*
X132901541Y-51450771D01*
X132901541Y-51450771D02*
X132853922Y-51498390D01*
X133711065Y-51165057D02*
X133758684Y-51117438D01*
X133758684Y-51117438D02*
X133853922Y-51069819D01*
X133853922Y-51069819D02*
X134092017Y-51069819D01*
X134092017Y-51069819D02*
X134187255Y-51117438D01*
X134187255Y-51117438D02*
X134234874Y-51165057D01*
X134234874Y-51165057D02*
X134282493Y-51260295D01*
X134282493Y-51260295D02*
X134282493Y-51355533D01*
X134282493Y-51355533D02*
X134234874Y-51498390D01*
X134234874Y-51498390D02*
X133663446Y-52069819D01*
X133663446Y-52069819D02*
X134282493Y-52069819D01*
X146645350Y-52022200D02*
X146550112Y-52069819D01*
X146550112Y-52069819D02*
X146359636Y-52069819D01*
X146359636Y-52069819D02*
X146264398Y-52022200D01*
X146264398Y-52022200D02*
X146216779Y-51974580D01*
X146216779Y-51974580D02*
X146169160Y-51879342D01*
X146169160Y-51879342D02*
X146169160Y-51593628D01*
X146169160Y-51593628D02*
X146216779Y-51498390D01*
X146216779Y-51498390D02*
X146264398Y-51450771D01*
X146264398Y-51450771D02*
X146359636Y-51403152D01*
X146359636Y-51403152D02*
X146550112Y-51403152D01*
X146550112Y-51403152D02*
X146645350Y-51450771D01*
X147073922Y-52069819D02*
X147073922Y-51069819D01*
X147502493Y-52069819D02*
X147502493Y-51546009D01*
X147502493Y-51546009D02*
X147454874Y-51450771D01*
X147454874Y-51450771D02*
X147359636Y-51403152D01*
X147359636Y-51403152D02*
X147216779Y-51403152D01*
X147216779Y-51403152D02*
X147121541Y-51450771D01*
X147121541Y-51450771D02*
X147073922Y-51498390D01*
X148502493Y-52069819D02*
X147931065Y-52069819D01*
X148216779Y-52069819D02*
X148216779Y-51069819D01*
X148216779Y-51069819D02*
X148121541Y-51212676D01*
X148121541Y-51212676D02*
X148026303Y-51307914D01*
X148026303Y-51307914D02*
X147931065Y-51355533D01*
X160155350Y-52022200D02*
X160060112Y-52069819D01*
X160060112Y-52069819D02*
X159869636Y-52069819D01*
X159869636Y-52069819D02*
X159774398Y-52022200D01*
X159774398Y-52022200D02*
X159726779Y-51974580D01*
X159726779Y-51974580D02*
X159679160Y-51879342D01*
X159679160Y-51879342D02*
X159679160Y-51593628D01*
X159679160Y-51593628D02*
X159726779Y-51498390D01*
X159726779Y-51498390D02*
X159774398Y-51450771D01*
X159774398Y-51450771D02*
X159869636Y-51403152D01*
X159869636Y-51403152D02*
X160060112Y-51403152D01*
X160060112Y-51403152D02*
X160155350Y-51450771D01*
X160583922Y-52069819D02*
X160583922Y-51069819D01*
X161012493Y-52069819D02*
X161012493Y-51546009D01*
X161012493Y-51546009D02*
X160964874Y-51450771D01*
X160964874Y-51450771D02*
X160869636Y-51403152D01*
X160869636Y-51403152D02*
X160726779Y-51403152D01*
X160726779Y-51403152D02*
X160631541Y-51450771D01*
X160631541Y-51450771D02*
X160583922Y-51498390D01*
X161679160Y-51069819D02*
X161774398Y-51069819D01*
X161774398Y-51069819D02*
X161869636Y-51117438D01*
X161869636Y-51117438D02*
X161917255Y-51165057D01*
X161917255Y-51165057D02*
X161964874Y-51260295D01*
X161964874Y-51260295D02*
X162012493Y-51450771D01*
X162012493Y-51450771D02*
X162012493Y-51688866D01*
X162012493Y-51688866D02*
X161964874Y-51879342D01*
X161964874Y-51879342D02*
X161917255Y-51974580D01*
X161917255Y-51974580D02*
X161869636Y-52022200D01*
X161869636Y-52022200D02*
X161774398Y-52069819D01*
X161774398Y-52069819D02*
X161679160Y-52069819D01*
X161679160Y-52069819D02*
X161583922Y-52022200D01*
X161583922Y-52022200D02*
X161536303Y-51974580D01*
X161536303Y-51974580D02*
X161488684Y-51879342D01*
X161488684Y-51879342D02*
X161441065Y-51688866D01*
X161441065Y-51688866D02*
X161441065Y-51450771D01*
X161441065Y-51450771D02*
X161488684Y-51260295D01*
X161488684Y-51260295D02*
X161536303Y-51165057D01*
X161536303Y-51165057D02*
X161583922Y-51117438D01*
X161583922Y-51117438D02*
X161679160Y-51069819D01*
X145935350Y-37322200D02*
X145840112Y-37369819D01*
X145840112Y-37369819D02*
X145649636Y-37369819D01*
X145649636Y-37369819D02*
X145554398Y-37322200D01*
X145554398Y-37322200D02*
X145506779Y-37274580D01*
X145506779Y-37274580D02*
X145459160Y-37179342D01*
X145459160Y-37179342D02*
X145459160Y-36893628D01*
X145459160Y-36893628D02*
X145506779Y-36798390D01*
X145506779Y-36798390D02*
X145554398Y-36750771D01*
X145554398Y-36750771D02*
X145649636Y-36703152D01*
X145649636Y-36703152D02*
X145840112Y-36703152D01*
X145840112Y-36703152D02*
X145935350Y-36750771D01*
X146363922Y-37369819D02*
X146363922Y-36369819D01*
X146792493Y-37369819D02*
X146792493Y-36846009D01*
X146792493Y-36846009D02*
X146744874Y-36750771D01*
X146744874Y-36750771D02*
X146649636Y-36703152D01*
X146649636Y-36703152D02*
X146506779Y-36703152D01*
X146506779Y-36703152D02*
X146411541Y-36750771D01*
X146411541Y-36750771D02*
X146363922Y-36798390D01*
X147744874Y-36369819D02*
X147268684Y-36369819D01*
X147268684Y-36369819D02*
X147221065Y-36846009D01*
X147221065Y-36846009D02*
X147268684Y-36798390D01*
X147268684Y-36798390D02*
X147363922Y-36750771D01*
X147363922Y-36750771D02*
X147602017Y-36750771D01*
X147602017Y-36750771D02*
X147697255Y-36798390D01*
X147697255Y-36798390D02*
X147744874Y-36846009D01*
X147744874Y-36846009D02*
X147792493Y-36941247D01*
X147792493Y-36941247D02*
X147792493Y-37179342D01*
X147792493Y-37179342D02*
X147744874Y-37274580D01*
X147744874Y-37274580D02*
X147697255Y-37322200D01*
X147697255Y-37322200D02*
X147602017Y-37369819D01*
X147602017Y-37369819D02*
X147363922Y-37369819D01*
X147363922Y-37369819D02*
X147268684Y-37322200D01*
X147268684Y-37322200D02*
X147221065Y-37274580D01*
X159865350Y-37262200D02*
X159770112Y-37309819D01*
X159770112Y-37309819D02*
X159579636Y-37309819D01*
X159579636Y-37309819D02*
X159484398Y-37262200D01*
X159484398Y-37262200D02*
X159436779Y-37214580D01*
X159436779Y-37214580D02*
X159389160Y-37119342D01*
X159389160Y-37119342D02*
X159389160Y-36833628D01*
X159389160Y-36833628D02*
X159436779Y-36738390D01*
X159436779Y-36738390D02*
X159484398Y-36690771D01*
X159484398Y-36690771D02*
X159579636Y-36643152D01*
X159579636Y-36643152D02*
X159770112Y-36643152D01*
X159770112Y-36643152D02*
X159865350Y-36690771D01*
X160293922Y-37309819D02*
X160293922Y-36309819D01*
X160722493Y-37309819D02*
X160722493Y-36786009D01*
X160722493Y-36786009D02*
X160674874Y-36690771D01*
X160674874Y-36690771D02*
X160579636Y-36643152D01*
X160579636Y-36643152D02*
X160436779Y-36643152D01*
X160436779Y-36643152D02*
X160341541Y-36690771D01*
X160341541Y-36690771D02*
X160293922Y-36738390D01*
X161627255Y-36643152D02*
X161627255Y-37309819D01*
X161389160Y-36262200D02*
X161151065Y-36976485D01*
X161151065Y-36976485D02*
X161770112Y-36976485D01*
X139316666Y-151076819D02*
X138983333Y-150600628D01*
X138745238Y-151076819D02*
X138745238Y-150076819D01*
X138745238Y-150076819D02*
X139126190Y-150076819D01*
X139126190Y-150076819D02*
X139221428Y-150124438D01*
X139221428Y-150124438D02*
X139269047Y-150172057D01*
X139269047Y-150172057D02*
X139316666Y-150267295D01*
X139316666Y-150267295D02*
X139316666Y-150410152D01*
X139316666Y-150410152D02*
X139269047Y-150505390D01*
X139269047Y-150505390D02*
X139221428Y-150553009D01*
X139221428Y-150553009D02*
X139126190Y-150600628D01*
X139126190Y-150600628D02*
X138745238Y-150600628D01*
X139745238Y-150553009D02*
X140078571Y-150553009D01*
X140221428Y-151076819D02*
X139745238Y-151076819D01*
X139745238Y-151076819D02*
X139745238Y-150076819D01*
X139745238Y-150076819D02*
X140221428Y-150076819D01*
X140983333Y-150553009D02*
X140650000Y-150553009D01*
X140650000Y-151076819D02*
X140650000Y-150076819D01*
X140650000Y-150076819D02*
X141126190Y-150076819D01*
X141650000Y-150076819D02*
X141650000Y-150314914D01*
X141411905Y-150219676D02*
X141650000Y-150314914D01*
X141650000Y-150314914D02*
X141888095Y-150219676D01*
X141507143Y-150505390D02*
X141650000Y-150314914D01*
X141650000Y-150314914D02*
X141792857Y-150505390D01*
X142411905Y-150076819D02*
X142411905Y-150314914D01*
X142173810Y-150219676D02*
X142411905Y-150314914D01*
X142411905Y-150314914D02*
X142650000Y-150219676D01*
X142269048Y-150505390D02*
X142411905Y-150314914D01*
X142411905Y-150314914D02*
X142554762Y-150505390D01*
X123466666Y-36596819D02*
X123133333Y-36120628D01*
X122895238Y-36596819D02*
X122895238Y-35596819D01*
X122895238Y-35596819D02*
X123276190Y-35596819D01*
X123276190Y-35596819D02*
X123371428Y-35644438D01*
X123371428Y-35644438D02*
X123419047Y-35692057D01*
X123419047Y-35692057D02*
X123466666Y-35787295D01*
X123466666Y-35787295D02*
X123466666Y-35930152D01*
X123466666Y-35930152D02*
X123419047Y-36025390D01*
X123419047Y-36025390D02*
X123371428Y-36073009D01*
X123371428Y-36073009D02*
X123276190Y-36120628D01*
X123276190Y-36120628D02*
X122895238Y-36120628D01*
X123895238Y-36073009D02*
X124228571Y-36073009D01*
X124371428Y-36596819D02*
X123895238Y-36596819D01*
X123895238Y-36596819D02*
X123895238Y-35596819D01*
X123895238Y-35596819D02*
X124371428Y-35596819D01*
X125133333Y-36073009D02*
X124800000Y-36073009D01*
X124800000Y-36596819D02*
X124800000Y-35596819D01*
X124800000Y-35596819D02*
X125276190Y-35596819D01*
X125800000Y-35596819D02*
X125800000Y-35834914D01*
X125561905Y-35739676D02*
X125800000Y-35834914D01*
X125800000Y-35834914D02*
X126038095Y-35739676D01*
X125657143Y-36025390D02*
X125800000Y-35834914D01*
X125800000Y-35834914D02*
X125942857Y-36025390D01*
X126561905Y-35596819D02*
X126561905Y-35834914D01*
X126323810Y-35739676D02*
X126561905Y-35834914D01*
X126561905Y-35834914D02*
X126800000Y-35739676D01*
X126419048Y-36025390D02*
X126561905Y-35834914D01*
X126561905Y-35834914D02*
X126704762Y-36025390D01*
X106691666Y-36954819D02*
X106358333Y-36478628D01*
X106120238Y-36954819D02*
X106120238Y-35954819D01*
X106120238Y-35954819D02*
X106501190Y-35954819D01*
X106501190Y-35954819D02*
X106596428Y-36002438D01*
X106596428Y-36002438D02*
X106644047Y-36050057D01*
X106644047Y-36050057D02*
X106691666Y-36145295D01*
X106691666Y-36145295D02*
X106691666Y-36288152D01*
X106691666Y-36288152D02*
X106644047Y-36383390D01*
X106644047Y-36383390D02*
X106596428Y-36431009D01*
X106596428Y-36431009D02*
X106501190Y-36478628D01*
X106501190Y-36478628D02*
X106120238Y-36478628D01*
X107120238Y-36431009D02*
X107453571Y-36431009D01*
X107596428Y-36954819D02*
X107120238Y-36954819D01*
X107120238Y-36954819D02*
X107120238Y-35954819D01*
X107120238Y-35954819D02*
X107596428Y-35954819D01*
X108358333Y-36431009D02*
X108025000Y-36431009D01*
X108025000Y-36954819D02*
X108025000Y-35954819D01*
X108025000Y-35954819D02*
X108501190Y-35954819D01*
X109025000Y-35954819D02*
X109025000Y-36192914D01*
X108786905Y-36097676D02*
X109025000Y-36192914D01*
X109025000Y-36192914D02*
X109263095Y-36097676D01*
X108882143Y-36383390D02*
X109025000Y-36192914D01*
X109025000Y-36192914D02*
X109167857Y-36383390D01*
X109786905Y-35954819D02*
X109786905Y-36192914D01*
X109548810Y-36097676D02*
X109786905Y-36192914D01*
X109786905Y-36192914D02*
X110025000Y-36097676D01*
X109644048Y-36383390D02*
X109786905Y-36192914D01*
X109786905Y-36192914D02*
X109929762Y-36383390D01*
X106691666Y-150229819D02*
X106358333Y-149753628D01*
X106120238Y-150229819D02*
X106120238Y-149229819D01*
X106120238Y-149229819D02*
X106501190Y-149229819D01*
X106501190Y-149229819D02*
X106596428Y-149277438D01*
X106596428Y-149277438D02*
X106644047Y-149325057D01*
X106644047Y-149325057D02*
X106691666Y-149420295D01*
X106691666Y-149420295D02*
X106691666Y-149563152D01*
X106691666Y-149563152D02*
X106644047Y-149658390D01*
X106644047Y-149658390D02*
X106596428Y-149706009D01*
X106596428Y-149706009D02*
X106501190Y-149753628D01*
X106501190Y-149753628D02*
X106120238Y-149753628D01*
X107120238Y-149706009D02*
X107453571Y-149706009D01*
X107596428Y-150229819D02*
X107120238Y-150229819D01*
X107120238Y-150229819D02*
X107120238Y-149229819D01*
X107120238Y-149229819D02*
X107596428Y-149229819D01*
X108358333Y-149706009D02*
X108025000Y-149706009D01*
X108025000Y-150229819D02*
X108025000Y-149229819D01*
X108025000Y-149229819D02*
X108501190Y-149229819D01*
X109025000Y-149229819D02*
X109025000Y-149467914D01*
X108786905Y-149372676D02*
X109025000Y-149467914D01*
X109025000Y-149467914D02*
X109263095Y-149372676D01*
X108882143Y-149658390D02*
X109025000Y-149467914D01*
X109025000Y-149467914D02*
X109167857Y-149658390D01*
X109786905Y-149229819D02*
X109786905Y-149467914D01*
X109548810Y-149372676D02*
X109786905Y-149467914D01*
X109786905Y-149467914D02*
X110025000Y-149372676D01*
X109644048Y-149658390D02*
X109786905Y-149467914D01*
X109786905Y-149467914D02*
X109929762Y-149658390D01*
X122066666Y-150229819D02*
X121733333Y-149753628D01*
X121495238Y-150229819D02*
X121495238Y-149229819D01*
X121495238Y-149229819D02*
X121876190Y-149229819D01*
X121876190Y-149229819D02*
X121971428Y-149277438D01*
X121971428Y-149277438D02*
X122019047Y-149325057D01*
X122019047Y-149325057D02*
X122066666Y-149420295D01*
X122066666Y-149420295D02*
X122066666Y-149563152D01*
X122066666Y-149563152D02*
X122019047Y-149658390D01*
X122019047Y-149658390D02*
X121971428Y-149706009D01*
X121971428Y-149706009D02*
X121876190Y-149753628D01*
X121876190Y-149753628D02*
X121495238Y-149753628D01*
X122495238Y-149706009D02*
X122828571Y-149706009D01*
X122971428Y-150229819D02*
X122495238Y-150229819D01*
X122495238Y-150229819D02*
X122495238Y-149229819D01*
X122495238Y-149229819D02*
X122971428Y-149229819D01*
X123733333Y-149706009D02*
X123400000Y-149706009D01*
X123400000Y-150229819D02*
X123400000Y-149229819D01*
X123400000Y-149229819D02*
X123876190Y-149229819D01*
X124400000Y-149229819D02*
X124400000Y-149467914D01*
X124161905Y-149372676D02*
X124400000Y-149467914D01*
X124400000Y-149467914D02*
X124638095Y-149372676D01*
X124257143Y-149658390D02*
X124400000Y-149467914D01*
X124400000Y-149467914D02*
X124542857Y-149658390D01*
X125161905Y-149229819D02*
X125161905Y-149467914D01*
X124923810Y-149372676D02*
X125161905Y-149467914D01*
X125161905Y-149467914D02*
X125400000Y-149372676D01*
X125019048Y-149658390D02*
X125161905Y-149467914D01*
X125161905Y-149467914D02*
X125304762Y-149658390D01*
D14*
%TO.C,REF\u002A\u002A*%
X142900000Y-153520000D02*
G75*
G03*
X142900000Y-153520000I-2250000J0D01*
G01*
X127050000Y-39040000D02*
G75*
G03*
X127050000Y-39040000I-2250000J0D01*
G01*
%TD*%
M02*
