%TF.GenerationSoftware,KiCad,Pcbnew,7.0.7*%
%TF.CreationDate,2023-09-15T15:36:36-07:00*%
%TF.ProjectId,30sma-adapter,3330736d-612d-4616-9461-707465722e6b,rev?*%
%TF.SameCoordinates,Original*%
%TF.FileFunction,Copper,L4,Bot*%
%TF.FilePolarity,Positive*%
%FSLAX46Y46*%
G04 Gerber Fmt 4.6, Leading zero omitted, Abs format (unit mm)*
G04 Created by KiCad (PCBNEW 7.0.7) date 2023-09-15 15:36:36*
%MOMM*%
%LPD*%
G01*
G04 APERTURE LIST*
%TA.AperFunction,ComponentPad*%
%ADD10C,2.250000*%
%TD*%
%TA.AperFunction,ComponentPad*%
%ADD11C,2.050000*%
%TD*%
%TA.AperFunction,SMDPad,CuDef*%
%ADD12R,1.500000X0.500000*%
%TD*%
%TA.AperFunction,SMDPad,CuDef*%
%ADD13R,0.510000X3.280000*%
%TD*%
%TA.AperFunction,SMDPad,CuDef*%
%ADD14R,0.510000X13.150000*%
%TD*%
%TA.AperFunction,ViaPad*%
%ADD15C,0.464820*%
%TD*%
%TA.AperFunction,Conductor*%
%ADD16C,0.313944*%
%TD*%
G04 APERTURE END LIST*
D10*
%TO.P,J30,2,Ext*%
%TO.N,/gnd*%
X158610000Y-138645000D03*
X163690000Y-143725000D03*
X158610000Y-143725000D03*
X163690000Y-138645000D03*
D11*
%TO.P,J30,1,In*%
%TO.N,/ai29*%
X161150000Y-141185000D03*
%TD*%
D10*
%TO.P,J29,2,Ext*%
%TO.N,/gnd*%
X144683332Y-138645000D03*
X149763332Y-143725000D03*
X144683332Y-143725000D03*
X149763332Y-138645000D03*
D11*
%TO.P,J29,1,In*%
%TO.N,/ai28*%
X147223332Y-141185000D03*
%TD*%
%TO.P,J28,1,In*%
%TO.N,/ai27*%
X133180000Y-141185000D03*
D10*
%TO.P,J28,2,Ext*%
%TO.N,/gnd*%
X135720000Y-138645000D03*
X130640000Y-143725000D03*
X135720000Y-143725000D03*
X130640000Y-138645000D03*
%TD*%
%TO.P,J27,2,Ext*%
%TO.N,/gnd*%
X116950000Y-138645000D03*
X122030000Y-143725000D03*
X116950000Y-143725000D03*
X122030000Y-138645000D03*
D11*
%TO.P,J27,1,In*%
%TO.N,/ai26*%
X119490000Y-141185000D03*
%TD*%
D10*
%TO.P,J26,2,Ext*%
%TO.N,/gnd*%
X158610000Y-124745710D03*
X163690000Y-129825710D03*
X158610000Y-129825710D03*
X163690000Y-124745710D03*
D11*
%TO.P,J26,1,In*%
%TO.N,/ai25*%
X161150000Y-127285710D03*
%TD*%
D10*
%TO.P,J25,2,Ext*%
%TO.N,/gnd*%
X144683332Y-124744284D03*
X149763332Y-129824284D03*
X144683332Y-129824284D03*
X149763332Y-124744284D03*
D11*
%TO.P,J25,1,In*%
%TO.N,/ai24*%
X147223332Y-127284284D03*
%TD*%
D10*
%TO.P,J24,2,Ext*%
%TO.N,/gnd*%
X130640000Y-124767500D03*
X135720000Y-129847500D03*
X130640000Y-129847500D03*
X135720000Y-124767500D03*
D11*
%TO.P,J24,1,In*%
%TO.N,/ai23*%
X133180000Y-127307500D03*
%TD*%
D10*
%TO.P,J23,2,Ext*%
%TO.N,/gnd*%
X116950000Y-124767500D03*
X122030000Y-129847500D03*
X116950000Y-129847500D03*
X122030000Y-124767500D03*
D11*
%TO.P,J23,1,In*%
%TO.N,/ai22*%
X119490000Y-127307500D03*
%TD*%
D10*
%TO.P,J22,2,Ext*%
%TO.N,/gnd*%
X158610000Y-110846425D03*
X163690000Y-115926425D03*
X158610000Y-115926425D03*
X163690000Y-110846425D03*
D11*
%TO.P,J22,1,In*%
%TO.N,/ai21*%
X161150000Y-113386425D03*
%TD*%
D10*
%TO.P,J21,2,Ext*%
%TO.N,/gnd*%
X144683332Y-110843570D03*
X149763332Y-115923570D03*
X144683332Y-115923570D03*
X149763332Y-110843570D03*
D11*
%TO.P,J21,1,In*%
%TO.N,/ai20*%
X147223332Y-113383570D03*
%TD*%
D10*
%TO.P,J20,2,Ext*%
%TO.N,/gnd*%
X130640000Y-110890000D03*
X135720000Y-115970000D03*
X130640000Y-115970000D03*
X135720000Y-110890000D03*
D11*
%TO.P,J20,1,In*%
%TO.N,/ai19*%
X133180000Y-113430000D03*
%TD*%
D10*
%TO.P,J19,2,Ext*%
%TO.N,/gnd*%
X116950000Y-110890000D03*
X122030000Y-115970000D03*
X116950000Y-115970000D03*
X122030000Y-110890000D03*
D11*
%TO.P,J19,1,In*%
%TO.N,/ai18*%
X119490000Y-113430000D03*
%TD*%
D10*
%TO.P,J18,2,Ext*%
%TO.N,/gnd*%
X158610000Y-96947140D03*
X163690000Y-102027140D03*
X158610000Y-102027140D03*
X163690000Y-96947140D03*
D11*
%TO.P,J18,1,In*%
%TO.N,/ai17*%
X161150000Y-99487140D03*
%TD*%
D10*
%TO.P,J17,2,Ext*%
%TO.N,/gnd*%
X144683332Y-96942856D03*
X149763332Y-102022856D03*
X144683332Y-102022856D03*
X149763332Y-96942856D03*
D11*
%TO.P,J17,1,In*%
%TO.N,/ai16*%
X147223332Y-99482856D03*
%TD*%
D10*
%TO.P,J16,2,Ext*%
%TO.N,/gnd*%
X130640000Y-97012500D03*
X135720000Y-102092500D03*
X130640000Y-102092500D03*
X135720000Y-97012500D03*
D11*
%TO.P,J16,1,In*%
%TO.N,/ai15*%
X133180000Y-99552500D03*
%TD*%
D10*
%TO.P,J15,2,Ext*%
%TO.N,/gnd*%
X116950000Y-97012500D03*
X122030000Y-102092500D03*
X116950000Y-102092500D03*
X122030000Y-97012500D03*
D11*
%TO.P,J15,1,In*%
%TO.N,/ai14*%
X119490000Y-99552500D03*
%TD*%
D10*
%TO.P,J14,2,Ext*%
%TO.N,/gnd*%
X158500000Y-83552855D03*
X163580000Y-88632855D03*
X158500000Y-88632855D03*
X163580000Y-83552855D03*
D11*
%TO.P,J14,1,In*%
%TO.N,/ai13*%
X161040000Y-86092855D03*
%TD*%
D10*
%TO.P,J13,2,Ext*%
%TO.N,/gnd*%
X144810000Y-83552855D03*
X149890000Y-88632855D03*
X144810000Y-88632855D03*
X149890000Y-83552855D03*
D11*
%TO.P,J13,1,In*%
%TO.N,/ai12*%
X147350000Y-86092855D03*
%TD*%
D10*
%TO.P,J12,2,Ext*%
%TO.N,/gnd*%
X130766668Y-83645713D03*
X135846668Y-88725713D03*
X130766668Y-88725713D03*
X135846668Y-83645713D03*
D11*
%TO.P,J12,1,In*%
%TO.N,/ai11*%
X133306668Y-86185713D03*
%TD*%
D10*
%TO.P,J11,2,Ext*%
%TO.N,/gnd*%
X116840000Y-83640000D03*
X121920000Y-88720000D03*
X116840000Y-88720000D03*
X121920000Y-83640000D03*
D11*
%TO.P,J11,1,In*%
%TO.N,/ai10*%
X119380000Y-86180000D03*
%TD*%
D10*
%TO.P,J10,2,Ext*%
%TO.N,/gnd*%
X158493331Y-69763928D03*
X163573331Y-74843928D03*
X158493331Y-74843928D03*
X163573331Y-69763928D03*
D11*
%TO.P,J10,1,In*%
%TO.N,/ai9*%
X161033331Y-72303928D03*
%TD*%
D10*
%TO.P,J9,2,Ext*%
%TO.N,/gnd*%
X144803332Y-69763928D03*
X149883332Y-74843928D03*
X144803332Y-74843928D03*
X149883332Y-69763928D03*
D11*
%TO.P,J9,1,In*%
%TO.N,/ai8*%
X147343332Y-72303928D03*
%TD*%
D10*
%TO.P,J8,2,Ext*%
%TO.N,/gnd*%
X130760000Y-69880000D03*
X135840000Y-74960000D03*
X130760000Y-74960000D03*
X135840000Y-69880000D03*
D11*
%TO.P,J8,1,In*%
%TO.N,/ai7*%
X133300000Y-72420000D03*
%TD*%
D10*
%TO.P,J7,2,Ext*%
%TO.N,/gnd*%
X116833331Y-69872858D03*
X121913331Y-74952858D03*
X116833331Y-74952858D03*
X121913331Y-69872858D03*
D11*
%TO.P,J7,1,In*%
%TO.N,/ai6*%
X119373331Y-72412858D03*
%TD*%
D10*
%TO.P,J6,2,Ext*%
%TO.N,/gnd*%
X158393331Y-55890714D03*
X163473331Y-60970714D03*
X158393331Y-60970714D03*
X163473331Y-55890714D03*
D11*
%TO.P,J6,1,In*%
%TO.N,/ai5*%
X160933331Y-58430714D03*
%TD*%
D10*
%TO.P,J5,2,Ext*%
%TO.N,/gnd*%
X144703331Y-55890714D03*
X149783331Y-60970714D03*
X144703331Y-60970714D03*
X149783331Y-55890714D03*
D11*
%TO.P,J5,1,In*%
%TO.N,/ai4*%
X147243331Y-58430714D03*
%TD*%
D10*
%TO.P,J4,2,Ext*%
%TO.N,/gnd*%
X130660000Y-56030000D03*
X135740000Y-61110000D03*
X130660000Y-61110000D03*
X135740000Y-56030000D03*
D11*
%TO.P,J4,1,In*%
%TO.N,/ai3*%
X133200000Y-58570000D03*
%TD*%
D10*
%TO.P,J3,2,Ext*%
%TO.N,/gnd*%
X116733331Y-56021429D03*
X121813331Y-61101429D03*
X116733331Y-61101429D03*
X121813331Y-56021429D03*
D11*
%TO.P,J3,1,In*%
%TO.N,/ai2*%
X119273331Y-58561429D03*
%TD*%
D10*
%TO.P,J2,2,Ext*%
%TO.N,/gnd*%
X157940000Y-41070000D03*
X163020000Y-46150000D03*
X157940000Y-46150000D03*
X163020000Y-41070000D03*
D11*
%TO.P,J2,1,In*%
%TO.N,/ai1*%
X160480000Y-43610000D03*
%TD*%
D10*
%TO.P,J1,2,Ext*%
%TO.N,/gnd*%
X144013333Y-41060000D03*
X149093333Y-46140000D03*
X144013333Y-46140000D03*
X149093333Y-41060000D03*
D11*
%TO.P,J1,1,In*%
%TO.N,/ai0*%
X146553333Y-43600000D03*
%TD*%
D12*
%TO.P,SC1,01,PIN1*%
%TO.N,/gnd*%
X197900000Y-133725000D03*
%TO.P,SC1,02,PIN2*%
X195050000Y-133725000D03*
%TO.P,SC1,03,PIN3*%
X197900000Y-132925000D03*
%TO.P,SC1,04,PIN4*%
X195050000Y-132925000D03*
%TO.P,SC1,05,PIN5*%
X197900000Y-132125000D03*
%TO.P,SC1,06,PIN6*%
X195050000Y-132125000D03*
%TO.P,SC1,07,PIN7*%
X197900000Y-131325000D03*
%TO.P,SC1,08,PIN8*%
X195050000Y-131325000D03*
%TO.P,SC1,09,PIN9*%
X197900000Y-130525000D03*
%TO.P,SC1,10,PIN10*%
X195050000Y-130525000D03*
%TO.P,SC1,11,PIN11*%
X197900000Y-129725000D03*
%TO.P,SC1,12,PIN12*%
X195050000Y-129725000D03*
%TO.P,SC1,13,PIN13*%
X197900000Y-128925000D03*
%TO.P,SC1,14,PIN14*%
X195050000Y-128925000D03*
%TO.P,SC1,15,PIN15*%
X197900000Y-128125000D03*
%TO.P,SC1,16,PIN16*%
X195050000Y-128125000D03*
%TO.P,SC1,17,PIN17*%
X197900000Y-127325000D03*
%TO.P,SC1,18,PIN18*%
X195050000Y-127325000D03*
%TO.P,SC1,19,PIN19*%
X197900000Y-126525000D03*
%TO.P,SC1,20,PIN20*%
%TO.N,/ai29*%
X195050000Y-126525000D03*
%TO.P,SC1,21,PIN21*%
%TO.N,/gnd*%
X197900000Y-125725000D03*
%TO.P,SC1,22,PIN22*%
X195050000Y-125725000D03*
%TO.P,SC1,23,PIN23*%
X197900000Y-124925000D03*
%TO.P,SC1,24,PIN24*%
%TO.N,/ai28*%
X195050000Y-124925000D03*
%TO.P,SC1,25,PIN25*%
%TO.N,/gnd*%
X197900000Y-124125000D03*
%TO.P,SC1,26,PIN26*%
X195050000Y-124125000D03*
%TO.P,SC1,27,PIN27*%
X197900000Y-123325000D03*
%TO.P,SC1,28,PIN28*%
%TO.N,/ai27*%
X195050000Y-123325000D03*
%TO.P,SC1,29,PIN29*%
%TO.N,/gnd*%
X197900000Y-122525000D03*
%TO.P,SC1,30,PIN30*%
X195050000Y-122525000D03*
%TO.P,SC1,31,PIN31*%
X197900000Y-121725000D03*
%TO.P,SC1,32,PIN32*%
%TO.N,/ai26*%
X195050000Y-121725000D03*
%TO.P,SC1,33,PIN33*%
%TO.N,/gnd*%
X197900000Y-120925000D03*
%TO.P,SC1,34,PIN34*%
X195050000Y-120925000D03*
%TO.P,SC1,35,PIN35*%
X197900000Y-120125000D03*
%TO.P,SC1,36,PIN36*%
%TO.N,/ai25*%
X195050000Y-120125000D03*
%TO.P,SC1,37,PIN37*%
%TO.N,/gnd*%
X197900000Y-119325000D03*
%TO.P,SC1,38,PIN38*%
X195050000Y-119325000D03*
%TO.P,SC1,39,PIN39*%
X197900000Y-118525000D03*
%TO.P,SC1,40,PIN40*%
%TO.N,/ai24*%
X195050000Y-118525000D03*
%TO.P,SC1,41,PIN41*%
%TO.N,/gnd*%
X197900000Y-117725000D03*
%TO.P,SC1,42,PIN42*%
X195050000Y-117725000D03*
%TO.P,SC1,43,PIN43*%
X197900000Y-116925000D03*
%TO.P,SC1,44,PIN44*%
%TO.N,/ai23*%
X195050000Y-116925000D03*
%TO.P,SC1,45,PIN45*%
%TO.N,/gnd*%
X197900000Y-116125000D03*
%TO.P,SC1,46,PIN46*%
X195050000Y-116125000D03*
%TO.P,SC1,47,PIN47*%
X197900000Y-115325000D03*
%TO.P,SC1,48,PIN48*%
%TO.N,/ai22*%
X195050000Y-115325000D03*
%TO.P,SC1,49,PIN49*%
%TO.N,/gnd*%
X197900000Y-114525000D03*
%TO.P,SC1,50,PIN50*%
X195050000Y-114525000D03*
%TO.P,SC1,51,PIN51*%
X197900000Y-113725000D03*
%TO.P,SC1,52,PIN52*%
%TO.N,/ai21*%
X195050000Y-113725000D03*
%TO.P,SC1,53,PIN53*%
%TO.N,/gnd*%
X197900000Y-108925000D03*
%TO.P,SC1,54,PIN54*%
X195050000Y-108925000D03*
%TO.P,SC1,55,PIN55*%
X197900000Y-108125000D03*
%TO.P,SC1,56,PIN56*%
%TO.N,/ai20*%
X195050000Y-108125000D03*
%TO.P,SC1,57,PIN57*%
%TO.N,/gnd*%
X197900000Y-107325000D03*
%TO.P,SC1,58,PIN58*%
X195050000Y-107325000D03*
%TO.P,SC1,59,PIN59*%
X197900000Y-106525000D03*
%TO.P,SC1,60,PIN60*%
%TO.N,/ai19*%
X195050000Y-106525000D03*
%TO.P,SC1,61,PIN61*%
%TO.N,/gnd*%
X197900000Y-105725000D03*
%TO.P,SC1,62,PIN62*%
X195050000Y-105725000D03*
%TO.P,SC1,63,PIN63*%
X197900000Y-104925000D03*
%TO.P,SC1,64,PIN64*%
%TO.N,/ai18*%
X195050000Y-104925000D03*
%TO.P,SC1,65,PIN65*%
%TO.N,/gnd*%
X197900000Y-104125000D03*
%TO.P,SC1,66,PIN66*%
X195050000Y-104125000D03*
%TO.P,SC1,67,PIN67*%
X197900000Y-103325000D03*
%TO.P,SC1,68,PIN68*%
%TO.N,/ai17*%
X195050000Y-103325000D03*
%TO.P,SC1,69,PIN69*%
%TO.N,/gnd*%
X197900000Y-102525000D03*
%TO.P,SC1,70,PIN70*%
X195050000Y-102525000D03*
%TO.P,SC1,71,PIN71*%
X197900000Y-101725000D03*
%TO.P,SC1,72,PIN72*%
%TO.N,/ai16*%
X195050000Y-101725000D03*
%TO.P,SC1,73,PIN73*%
%TO.N,/gnd*%
X197900000Y-100925000D03*
%TO.P,SC1,74,PIN74*%
X195050000Y-100925000D03*
%TO.P,SC1,75,PIN75*%
X197900000Y-100125000D03*
%TO.P,SC1,76,PIN76*%
%TO.N,/ai15*%
X195050000Y-100125000D03*
%TO.P,SC1,77,PIN77*%
%TO.N,/gnd*%
X197900000Y-99325000D03*
%TO.P,SC1,78,PIN78*%
X195050000Y-99325000D03*
%TO.P,SC1,79,PIN79*%
X197900000Y-98525000D03*
%TO.P,SC1,80,PIN80*%
%TO.N,/ai14*%
X195050000Y-98525000D03*
%TO.P,SC1,81,PIN81*%
%TO.N,/gnd*%
X197900000Y-97725000D03*
%TO.P,SC1,82,PIN82*%
X195050000Y-97725000D03*
%TO.P,SC1,83,PIN83*%
X197900000Y-96925000D03*
%TO.P,SC1,84,PIN84*%
%TO.N,/ai13*%
X195050000Y-96925000D03*
%TO.P,SC1,85,PIN85*%
%TO.N,/gnd*%
X197900000Y-96125000D03*
%TO.P,SC1,86,PIN86*%
X195050000Y-96125000D03*
%TO.P,SC1,87,PIN87*%
X197900000Y-95325000D03*
%TO.P,SC1,88,PIN88*%
%TO.N,/ai12*%
X195050000Y-95325000D03*
%TO.P,SC1,89,PIN89*%
%TO.N,/gnd*%
X197900000Y-94525000D03*
%TO.P,SC1,90,PIN90*%
X195050000Y-94525000D03*
%TO.P,SC1,91,PIN91*%
X197900000Y-93725000D03*
%TO.P,SC1,92,PIN92*%
%TO.N,/ai11*%
X195050000Y-93725000D03*
%TO.P,SC1,93,PIN93*%
%TO.N,/gnd*%
X197900000Y-92925000D03*
%TO.P,SC1,94,PIN94*%
X195050000Y-92925000D03*
%TO.P,SC1,95,PIN95*%
X197900000Y-92125000D03*
%TO.P,SC1,96,PIN96*%
%TO.N,/ai10*%
X195050000Y-92125000D03*
%TO.P,SC1,97,PIN97*%
%TO.N,/gnd*%
X197900000Y-91325000D03*
%TO.P,SC1,98,PIN98*%
X195050000Y-91325000D03*
%TO.P,SC1,99,PIN99*%
X197900000Y-90525000D03*
%TO.P,SC1,100,PIN100*%
%TO.N,/ai9*%
X195050000Y-90525000D03*
%TO.P,SC1,101,PIN101*%
%TO.N,/gnd*%
X197900000Y-89725000D03*
%TO.P,SC1,102,PIN102*%
X195050000Y-89725000D03*
%TO.P,SC1,103,PIN103*%
X197900000Y-88925000D03*
%TO.P,SC1,104,PIN104*%
%TO.N,/ai8*%
X195050000Y-88925000D03*
%TO.P,SC1,105,PIN105*%
%TO.N,/gnd*%
X197900000Y-84125000D03*
%TO.P,SC1,106,PIN106*%
X195050000Y-84125000D03*
%TO.P,SC1,107,PIN107*%
X197900000Y-83325000D03*
%TO.P,SC1,108,PIN108*%
%TO.N,/ai7*%
X195050000Y-83325000D03*
%TO.P,SC1,109,PIN109*%
%TO.N,/gnd*%
X197900000Y-82525000D03*
%TO.P,SC1,110,PIN110*%
X195050000Y-82525000D03*
%TO.P,SC1,111,PIN111*%
X197900000Y-81725000D03*
%TO.P,SC1,112,PIN112*%
%TO.N,/ai6*%
X195050000Y-81725000D03*
%TO.P,SC1,113,PIN113*%
%TO.N,/gnd*%
X197900000Y-80925000D03*
%TO.P,SC1,114,PIN114*%
X195050000Y-80925000D03*
%TO.P,SC1,115,PIN115*%
X197900000Y-80125000D03*
%TO.P,SC1,116,PIN116*%
%TO.N,/ai5*%
X195050000Y-80125000D03*
%TO.P,SC1,117,PIN117*%
%TO.N,/gnd*%
X197900000Y-79325000D03*
%TO.P,SC1,118,PIN118*%
X195050000Y-79325000D03*
%TO.P,SC1,119,PIN119*%
X197900000Y-78525000D03*
%TO.P,SC1,120,PIN120*%
%TO.N,/ai4*%
X195050000Y-78525000D03*
%TO.P,SC1,121,PIN121*%
%TO.N,/gnd*%
X197900000Y-77725000D03*
%TO.P,SC1,122,PIN122*%
X195050000Y-77725000D03*
%TO.P,SC1,123,PIN123*%
X197900000Y-76925000D03*
%TO.P,SC1,124,PIN124*%
%TO.N,/ai3*%
X195050000Y-76925000D03*
%TO.P,SC1,125,PIN125*%
%TO.N,/gnd*%
X197900000Y-76125000D03*
%TO.P,SC1,126,PIN126*%
X195050000Y-76125000D03*
%TO.P,SC1,127,PIN127*%
X197900000Y-75325000D03*
%TO.P,SC1,128,PIN128*%
%TO.N,/ai2*%
X195050000Y-75325000D03*
%TO.P,SC1,129,PIN129*%
%TO.N,/gnd*%
X197900000Y-74525000D03*
%TO.P,SC1,130,PIN130*%
X195050000Y-74525000D03*
%TO.P,SC1,131,PIN131*%
X197900000Y-73725000D03*
%TO.P,SC1,132,PIN132*%
%TO.N,/ai1*%
X195050000Y-73725000D03*
%TO.P,SC1,133,PIN133*%
%TO.N,/gnd*%
X197900000Y-72925000D03*
%TO.P,SC1,134,PIN134*%
X195050000Y-72925000D03*
%TO.P,SC1,135,PIN135*%
X197900000Y-72125000D03*
%TO.P,SC1,136,PIN136*%
%TO.N,/ai0*%
X195050000Y-72125000D03*
%TO.P,SC1,137,PIN137*%
%TO.N,/gnd*%
X197900000Y-71325000D03*
%TO.P,SC1,138,PIN138*%
X195050000Y-71325000D03*
%TO.P,SC1,139,PIN139*%
X197900000Y-70525000D03*
%TO.P,SC1,140,PIN140*%
X195050000Y-70525000D03*
%TO.P,SC1,141,PIN141*%
X197900000Y-69725000D03*
%TO.P,SC1,142,PIN142*%
X195050000Y-69725000D03*
%TO.P,SC1,143,PIN143*%
X197900000Y-68925000D03*
%TO.P,SC1,144,PIN144*%
X195050000Y-68925000D03*
%TO.P,SC1,145,PIN145*%
X197900000Y-68125000D03*
%TO.P,SC1,146,PIN146*%
X195050000Y-68125000D03*
%TO.P,SC1,147,PIN147*%
X197900000Y-67325000D03*
%TO.P,SC1,148,PIN148*%
X195050000Y-67325000D03*
%TO.P,SC1,149,PIN149*%
X197900000Y-66525000D03*
%TO.P,SC1,150,PIN150*%
X195050000Y-66525000D03*
%TO.P,SC1,151,PIN151*%
X197900000Y-65725000D03*
%TO.P,SC1,152,PIN152*%
X195050000Y-65725000D03*
%TO.P,SC1,153,PIN153*%
X197900000Y-64925000D03*
%TO.P,SC1,154,PIN154*%
X195050000Y-64925000D03*
%TO.P,SC1,155,PIN155*%
X197900000Y-64125000D03*
%TO.P,SC1,156,PIN156*%
X195050000Y-64125000D03*
D13*
%TO.P,SC1,G1,G1*%
X196475000Y-132790000D03*
D14*
%TO.P,SC1,G2,G2*%
X196475000Y-123725000D03*
D13*
%TO.P,SC1,G3,G3*%
X196475000Y-114660000D03*
%TO.P,SC1,G4,G4*%
X196475000Y-107990000D03*
D14*
%TO.P,SC1,G5,G5*%
X196475000Y-98925000D03*
D13*
%TO.P,SC1,G6,G6*%
X196475000Y-89860000D03*
%TO.P,SC1,G7,G7*%
X196475000Y-83190000D03*
D14*
%TO.P,SC1,G8,G8*%
X196475000Y-74125000D03*
D13*
%TO.P,SC1,G9,G9*%
X196475000Y-65060000D03*
%TD*%
D15*
%TO.N,/gnd*%
X196490000Y-64350000D03*
X196490000Y-66474545D03*
X196490000Y-68599090D03*
X196490000Y-70723635D03*
X196490000Y-72848180D03*
X196490000Y-74972725D03*
X196490000Y-77097270D03*
X196490000Y-79221815D03*
X196490000Y-81346360D03*
X196490000Y-83470905D03*
X196490000Y-85595450D03*
X196490000Y-87719995D03*
X196490000Y-89844540D03*
X196490000Y-91969085D03*
X196490000Y-94093630D03*
X196490000Y-96218175D03*
X196490000Y-98342720D03*
X196490000Y-100467265D03*
X196490000Y-102591810D03*
X196490000Y-104716355D03*
X196490000Y-106840900D03*
X196490000Y-108965445D03*
X196490000Y-111089990D03*
X196490000Y-113214535D03*
X196490000Y-115339080D03*
X196490000Y-117463625D03*
X196490000Y-119588170D03*
X196490000Y-121712715D03*
X196490000Y-123837260D03*
X196490000Y-125961805D03*
X196490000Y-128086350D03*
X196490000Y-130210895D03*
X196490000Y-132335440D03*
X196490000Y-134460000D03*
%TD*%
D16*
%TO.N,/gnd*%
X196475000Y-66515000D02*
X196475000Y-65060000D01*
X196500000Y-66540000D02*
X196475000Y-66515000D01*
X196475000Y-66565000D02*
X196500000Y-66540000D01*
X196475000Y-68995000D02*
X196475000Y-66565000D01*
X196500000Y-69020000D02*
X196475000Y-68995000D01*
X196475000Y-69045000D02*
X196500000Y-69020000D01*
X196475000Y-71185000D02*
X196475000Y-69045000D01*
X196500000Y-71210000D02*
X196475000Y-71185000D01*
X196475000Y-71235000D02*
X196500000Y-71210000D01*
X196475000Y-73455000D02*
X196475000Y-71235000D01*
X196500000Y-73480000D02*
X196475000Y-73455000D01*
X196475000Y-73505000D02*
X196500000Y-73480000D01*
X196475000Y-75275000D02*
X196475000Y-74125000D01*
X196500000Y-75300000D02*
X196475000Y-75275000D01*
X196475000Y-75325000D02*
X196500000Y-75300000D01*
X196475000Y-77545000D02*
X196475000Y-75325000D01*
X196500000Y-77570000D02*
X196475000Y-77545000D01*
X196475000Y-77595000D02*
X196500000Y-77570000D01*
X196475000Y-80465000D02*
X196475000Y-77595000D01*
X196500000Y-80490000D02*
X196475000Y-80465000D01*
X196475000Y-80515000D02*
X196500000Y-80490000D01*
X196475000Y-82915000D02*
X196475000Y-80515000D01*
X196420000Y-82970000D02*
X196475000Y-82915000D01*
X196475000Y-83025000D02*
X196420000Y-82970000D01*
X196475000Y-89925000D02*
X196475000Y-89860000D01*
X196500000Y-89950000D02*
X196475000Y-89925000D01*
X196475000Y-89975000D02*
X196500000Y-89950000D01*
X196475000Y-93165000D02*
X196475000Y-89975000D01*
X196500000Y-93190000D02*
X196475000Y-93165000D01*
X196475000Y-93215000D02*
X196500000Y-93190000D01*
X196475000Y-95485000D02*
X196475000Y-93215000D01*
X196500000Y-95510000D02*
X196475000Y-95485000D01*
X196475000Y-95535000D02*
X196500000Y-95510000D01*
X196475000Y-97795000D02*
X196475000Y-95535000D01*
X196500000Y-97820000D02*
X196475000Y-97795000D01*
X196475000Y-97845000D02*
X196500000Y-97820000D01*
X196475000Y-99645000D02*
X196475000Y-98925000D01*
X196500000Y-99670000D02*
X196475000Y-99645000D01*
X196475000Y-99695000D02*
X196500000Y-99670000D01*
X196475000Y-101835000D02*
X196475000Y-99695000D01*
X196500000Y-101860000D02*
X196475000Y-101835000D01*
X196475000Y-101885000D02*
X196500000Y-101860000D01*
X196475000Y-104675000D02*
X196475000Y-101885000D01*
X196500000Y-104700000D02*
X196475000Y-104675000D01*
X196475000Y-104725000D02*
X196500000Y-104700000D01*
X196475000Y-107515000D02*
X196475000Y-104725000D01*
X196500000Y-107540000D02*
X196475000Y-107515000D01*
X196475000Y-107565000D02*
X196500000Y-107540000D01*
X196475000Y-115635000D02*
X196475000Y-114660000D01*
X196470000Y-115640000D02*
X196475000Y-115635000D01*
X196475000Y-115645000D02*
X196470000Y-115640000D01*
X196475000Y-117675000D02*
X196475000Y-115645000D01*
X196470000Y-117680000D02*
X196475000Y-117675000D01*
X196475000Y-117685000D02*
X196470000Y-117680000D01*
X196475000Y-119495000D02*
X196475000Y-117685000D01*
X196520000Y-119540000D02*
X196475000Y-119495000D01*
X196475000Y-119585000D02*
X196520000Y-119540000D01*
X196475000Y-121255000D02*
X196475000Y-119585000D01*
X196470000Y-121260000D02*
X196475000Y-121255000D01*
X196475000Y-121265000D02*
X196470000Y-121260000D01*
X196475000Y-122835000D02*
X196475000Y-121265000D01*
X196490000Y-122850000D02*
X196475000Y-122835000D01*
X196475000Y-122865000D02*
X196490000Y-122850000D01*
X196490000Y-124490000D02*
X196475000Y-123725000D01*
X196520000Y-126130000D02*
X196490000Y-124490000D01*
X196520000Y-127840000D02*
X196520000Y-126130000D01*
X196520000Y-129310000D02*
X196520000Y-127840000D01*
X196520000Y-131200000D02*
X196520000Y-129310000D01*
X196490000Y-132800000D02*
X196520000Y-131200000D01*
%TO.N,/ai0*%
X172380000Y-46480000D02*
X164380000Y-38480000D01*
X192465000Y-72125000D02*
X172380000Y-52040000D01*
X172380000Y-52040000D02*
X172380000Y-46480000D01*
X164380000Y-38480000D02*
X153789274Y-38480000D01*
X195050000Y-72125000D02*
X192465000Y-72125000D01*
X153789274Y-38480000D02*
X148669274Y-43600000D01*
X148669274Y-43600000D02*
X146553333Y-43600000D01*
%TO.N,/ai1*%
X195050000Y-73725000D02*
X190925000Y-73725000D01*
X170330000Y-53130000D02*
X170330000Y-48190000D01*
X170330000Y-48190000D02*
X165750000Y-43610000D01*
X190925000Y-73725000D02*
X170330000Y-53130000D01*
X165750000Y-43610000D02*
X160480000Y-43610000D01*
%TO.N,/ai2*%
X195050000Y-75325000D02*
X189925000Y-75325000D01*
X121389272Y-58561429D02*
X119273331Y-58561429D01*
X189925000Y-75325000D02*
X164440000Y-49840000D01*
X164440000Y-49840000D02*
X130110701Y-49840000D01*
X130110701Y-49840000D02*
X121389272Y-58561429D01*
%TO.N,/ai3*%
X195050000Y-76925000D02*
X189325000Y-76925000D01*
X189325000Y-76925000D02*
X164320000Y-51920000D01*
X164320000Y-51920000D02*
X142873804Y-51920000D01*
X142873804Y-51920000D02*
X136223804Y-58570000D01*
X136223804Y-58570000D02*
X133200000Y-58570000D01*
%TO.N,/ai4*%
X195050000Y-78525000D02*
X188625000Y-78525000D01*
X155620000Y-53580000D02*
X150769286Y-58430714D01*
X150769286Y-58430714D02*
X147243331Y-58430714D01*
X188625000Y-78525000D02*
X163680000Y-53580000D01*
X163680000Y-53580000D02*
X155620000Y-53580000D01*
%TO.N,/ai5*%
X195050000Y-80125000D02*
X186575000Y-80125000D01*
X164880714Y-58430714D02*
X160933331Y-58430714D01*
X186575000Y-80125000D02*
X164880714Y-58430714D01*
%TO.N,/ai6*%
X195050000Y-81725000D02*
X185455000Y-81725000D01*
X129712130Y-64190000D02*
X121489272Y-72412858D01*
X185455000Y-81725000D02*
X167920000Y-64190000D01*
X167920000Y-64190000D02*
X129712130Y-64190000D01*
X121489272Y-72412858D02*
X119373331Y-72412858D01*
%TO.N,/ai7*%
X195050000Y-83325000D02*
X184145000Y-83325000D01*
X184145000Y-83325000D02*
X166670000Y-65850000D01*
X166670000Y-65850000D02*
X141985941Y-65850000D01*
X135415941Y-72420000D02*
X133300000Y-72420000D01*
X141985941Y-65850000D02*
X135415941Y-72420000D01*
%TO.N,/ai8*%
X195050000Y-88925000D02*
X186645000Y-88925000D01*
X151446072Y-72303928D02*
X147343332Y-72303928D01*
X186645000Y-88925000D02*
X165030000Y-67310000D01*
X165030000Y-67310000D02*
X156440000Y-67310000D01*
X156440000Y-67310000D02*
X151446072Y-72303928D01*
%TO.N,/ai9*%
X195050000Y-90525000D02*
X183175000Y-90525000D01*
X183175000Y-90525000D02*
X164953928Y-72303928D01*
X164953928Y-72303928D02*
X161033331Y-72303928D01*
%TO.N,/ai10*%
X195050000Y-92125000D02*
X181675000Y-92125000D01*
X181675000Y-92125000D02*
X167390000Y-77840000D01*
X167390000Y-77840000D02*
X129835941Y-77840000D01*
X129835941Y-77840000D02*
X121495941Y-86180000D01*
X121495941Y-86180000D02*
X119380000Y-86180000D01*
%TO.N,/ai11*%
X195050000Y-93725000D02*
X180505000Y-93725000D01*
X180505000Y-93725000D02*
X166230000Y-79450000D01*
X166230000Y-79450000D02*
X142158322Y-79450000D01*
X142158322Y-79450000D02*
X135422609Y-86185713D01*
X135422609Y-86185713D02*
X133306668Y-86185713D01*
%TO.N,/ai12*%
X195050000Y-95325000D02*
X179195000Y-95325000D01*
X156660000Y-81290000D02*
X151857145Y-86092855D01*
X179195000Y-95325000D02*
X165160000Y-81290000D01*
X165160000Y-81290000D02*
X156660000Y-81290000D01*
X151857145Y-86092855D02*
X147350000Y-86092855D01*
%TO.N,/ai13*%
X195050000Y-96925000D02*
X176515000Y-96925000D01*
X176515000Y-96925000D02*
X165682855Y-86092855D01*
X165682855Y-86092855D02*
X161040000Y-86092855D01*
%TO.N,/ai14*%
X195050000Y-98525000D02*
X174945000Y-98525000D01*
X174945000Y-98525000D02*
X168160000Y-91740000D01*
X168160000Y-91740000D02*
X129418441Y-91740000D01*
X129418441Y-91740000D02*
X121605941Y-99552500D01*
X121605941Y-99552500D02*
X119490000Y-99552500D01*
%TO.N,/ai15*%
X195050000Y-100125000D02*
X173815000Y-100125000D01*
X173815000Y-100125000D02*
X167010000Y-93320000D01*
X141528441Y-93320000D02*
X135295941Y-99552500D01*
X167010000Y-93320000D02*
X141528441Y-93320000D01*
X135295941Y-99552500D02*
X133180000Y-99552500D01*
%TO.N,/ai16*%
X172990000Y-101700000D02*
X165930000Y-94640000D01*
X154182129Y-94640000D02*
X149339273Y-99482856D01*
X190850000Y-101700000D02*
X172990000Y-101700000D01*
X165930000Y-94640000D02*
X154182129Y-94640000D01*
X149339273Y-99482856D02*
X147223332Y-99482856D01*
%TO.N,/ai18*%
X195050000Y-104925000D02*
X190875000Y-104925000D01*
X123500000Y-113430000D02*
X119490000Y-113430000D01*
X190875000Y-104925000D02*
X190580000Y-105220000D01*
X190580000Y-105220000D02*
X131710000Y-105220000D01*
X131710000Y-105220000D02*
X123500000Y-113430000D01*
%TO.N,/ai17*%
X195050000Y-103325000D02*
X190900000Y-103325000D01*
X190900000Y-103325000D02*
X190395000Y-103830000D01*
X162440000Y-103830000D02*
X161150000Y-102540000D01*
X161150000Y-102540000D02*
X161150000Y-99487140D01*
X190395000Y-103830000D02*
X162440000Y-103830000D01*
%TO.N,/ai19*%
X195050000Y-106525000D02*
X142200941Y-106525000D01*
X135295941Y-113430000D02*
X133180000Y-113430000D01*
X142200941Y-106525000D02*
X135295941Y-113430000D01*
%TO.N,/ai20*%
X149339273Y-113383570D02*
X147223332Y-113383570D01*
X154597843Y-108125000D02*
X149339273Y-113383570D01*
X195050000Y-108125000D02*
X154597843Y-108125000D01*
%TO.N,/ai21*%
X195050000Y-113725000D02*
X165315000Y-113725000D01*
X165315000Y-113725000D02*
X164976425Y-113386425D01*
X164976425Y-113386425D02*
X161150000Y-113386425D01*
%TO.N,/ai22*%
X195050000Y-115325000D02*
X184135000Y-115325000D01*
X121605941Y-127307500D02*
X119490000Y-127307500D01*
X184135000Y-115325000D02*
X180470000Y-118990000D01*
X180470000Y-118990000D02*
X129923441Y-118990000D01*
X129923441Y-118990000D02*
X121605941Y-127307500D01*
%TO.N,/ai23*%
X195050000Y-116925000D02*
X185725000Y-116925000D01*
X185725000Y-116925000D02*
X181730000Y-120920000D01*
X181730000Y-120920000D02*
X141800000Y-120920000D01*
X141800000Y-120920000D02*
X135412500Y-127307500D01*
X135412500Y-127307500D02*
X133180000Y-127307500D01*
%TO.N,/ai24*%
X195050000Y-118525000D02*
X186885000Y-118525000D01*
X154073557Y-122550000D02*
X149339273Y-127284284D01*
X186885000Y-118525000D02*
X182860000Y-122550000D01*
X182860000Y-122550000D02*
X154073557Y-122550000D01*
X149339273Y-127284284D02*
X147223332Y-127284284D01*
%TO.N,/ai25*%
X195050000Y-120125000D02*
X188095000Y-120125000D01*
X188095000Y-120125000D02*
X180934290Y-127285710D01*
X180934290Y-127285710D02*
X161150000Y-127285710D01*
%TO.N,/ai26*%
X195050000Y-121725000D02*
X188975000Y-121725000D01*
X188975000Y-121725000D02*
X177200000Y-133500000D01*
X177200000Y-133500000D02*
X129290941Y-133500000D01*
X121605941Y-141185000D02*
X119490000Y-141185000D01*
X129290941Y-133500000D02*
X121605941Y-141185000D01*
%TO.N,/ai27*%
X195050000Y-123325000D02*
X189500000Y-123325000D01*
X189500000Y-123325000D02*
X177685000Y-135140000D01*
X177685000Y-135140000D02*
X141340941Y-135140000D01*
X135295941Y-141185000D02*
X133180000Y-141185000D01*
X141340941Y-135140000D02*
X135295941Y-141185000D01*
%TO.N,/ai28*%
X195050000Y-124925000D02*
X190225000Y-124925000D01*
X190225000Y-124925000D02*
X178470000Y-136680000D01*
X178470000Y-136680000D02*
X153844273Y-136680000D01*
X153844273Y-136680000D02*
X149339273Y-141185000D01*
X149339273Y-141185000D02*
X147223332Y-141185000D01*
%TO.N,/ai29*%
X176065000Y-141185000D02*
X161150000Y-141185000D01*
X190725000Y-126525000D02*
X176065000Y-141185000D01*
%TO.N,/gnd*%
X196475000Y-74125000D02*
X196475000Y-73505000D01*
X196475000Y-83190000D02*
X196475000Y-83025000D01*
X196475000Y-98925000D02*
X196475000Y-97845000D01*
X196475000Y-107990000D02*
X196475000Y-107565000D01*
X196475000Y-123725000D02*
X196475000Y-122865000D01*
X196475000Y-132790000D02*
X196490000Y-132800000D01*
%TO.N,/ai16*%
X190875000Y-101725000D02*
X190850000Y-101700000D01*
X195050000Y-101725000D02*
X190875000Y-101725000D01*
%TO.N,/ai29*%
X195050000Y-126525000D02*
X190725000Y-126525000D01*
%TD*%
%TA.AperFunction,Conductor*%
%TO.N,/gnd*%
G36*
X207399371Y-34942382D02*
G01*
X207411804Y-34944855D01*
X207456503Y-34963370D01*
X207467041Y-34970411D01*
X207485833Y-34985833D01*
X207854166Y-35354166D01*
X207869588Y-35372958D01*
X207876629Y-35383496D01*
X207895142Y-35428187D01*
X207897616Y-35440621D01*
X207900000Y-35464819D01*
X207900000Y-161086673D01*
X207895773Y-161118773D01*
X207891688Y-161134015D01*
X207855320Y-161193674D01*
X207804017Y-161221687D01*
X207788776Y-161225772D01*
X207756674Y-161230000D01*
X101774819Y-161230000D01*
X101750621Y-161227616D01*
X101738187Y-161225142D01*
X101693496Y-161206629D01*
X101682958Y-161199588D01*
X101664166Y-161184166D01*
X101285833Y-160805833D01*
X101270411Y-160787041D01*
X101263370Y-160776503D01*
X101244855Y-160731803D01*
X101242382Y-160719369D01*
X101240000Y-160695180D01*
X101240000Y-155432329D01*
X105524500Y-155432329D01*
X105563932Y-155744463D01*
X105563934Y-155744476D01*
X105642180Y-156049225D01*
X105642181Y-156049228D01*
X105758001Y-156341757D01*
X105758002Y-156341758D01*
X105758004Y-156341763D01*
X105758006Y-156341766D01*
X105909584Y-156617484D01*
X105909586Y-156617488D01*
X105909591Y-156617495D01*
X106094515Y-156872021D01*
X106094523Y-156872031D01*
X106309907Y-157101391D01*
X106309909Y-157101393D01*
X106552334Y-157301945D01*
X106552338Y-157301948D01*
X106762648Y-157435414D01*
X106817993Y-157470537D01*
X106984087Y-157548695D01*
X107102678Y-157604500D01*
X107102682Y-157604501D01*
X107102685Y-157604503D01*
X107401921Y-157701731D01*
X107710985Y-157760688D01*
X107710990Y-157760688D01*
X107710995Y-157760689D01*
X107946411Y-157775500D01*
X107946417Y-157775500D01*
X108103589Y-157775500D01*
X108339004Y-157760689D01*
X108339007Y-157760688D01*
X108339015Y-157760688D01*
X108648079Y-157701731D01*
X108947315Y-157604503D01*
X109232007Y-157470537D01*
X109497663Y-157301947D01*
X109740094Y-157101390D01*
X109955478Y-156872030D01*
X110140416Y-156617484D01*
X110291994Y-156341766D01*
X110407819Y-156049225D01*
X110486066Y-155744473D01*
X110525499Y-155432329D01*
X120899500Y-155432329D01*
X120938932Y-155744463D01*
X120938934Y-155744476D01*
X121017180Y-156049225D01*
X121017181Y-156049228D01*
X121133001Y-156341757D01*
X121133002Y-156341758D01*
X121133004Y-156341763D01*
X121133006Y-156341766D01*
X121284584Y-156617484D01*
X121284586Y-156617488D01*
X121284591Y-156617495D01*
X121469515Y-156872021D01*
X121469523Y-156872031D01*
X121684907Y-157101391D01*
X121684909Y-157101393D01*
X121927334Y-157301945D01*
X121927338Y-157301948D01*
X122137648Y-157435414D01*
X122192993Y-157470537D01*
X122359087Y-157548695D01*
X122477678Y-157604500D01*
X122477682Y-157604501D01*
X122477685Y-157604503D01*
X122776921Y-157701731D01*
X123085985Y-157760688D01*
X123085990Y-157760688D01*
X123085995Y-157760689D01*
X123321411Y-157775500D01*
X123321417Y-157775500D01*
X123478589Y-157775500D01*
X123714004Y-157760689D01*
X123714007Y-157760688D01*
X123714015Y-157760688D01*
X124023079Y-157701731D01*
X124322315Y-157604503D01*
X124607007Y-157470537D01*
X124872663Y-157301947D01*
X125115094Y-157101390D01*
X125330478Y-156872030D01*
X125515416Y-156617484D01*
X125666994Y-156341766D01*
X125782819Y-156049225D01*
X125861066Y-155744473D01*
X125900500Y-155432318D01*
X125900500Y-155117682D01*
X125900499Y-155117680D01*
X125900499Y-155117670D01*
X125861067Y-154805536D01*
X125861065Y-154805523D01*
X125782819Y-154500774D01*
X125782818Y-154500771D01*
X125666998Y-154208242D01*
X125666997Y-154208241D01*
X125666996Y-154208239D01*
X125666994Y-154208234D01*
X125515416Y-153932516D01*
X125515410Y-153932509D01*
X125515408Y-153932504D01*
X125330484Y-153677978D01*
X125330476Y-153677968D01*
X125115092Y-153448608D01*
X125115090Y-153448606D01*
X124872665Y-153248054D01*
X124872661Y-153248051D01*
X124607009Y-153079464D01*
X124607003Y-153079461D01*
X124322321Y-152945499D01*
X124322316Y-152945497D01*
X124023083Y-152848270D01*
X124023080Y-152848269D01*
X124023079Y-152848269D01*
X123868546Y-152818790D01*
X123714011Y-152789311D01*
X123714004Y-152789310D01*
X123478589Y-152774500D01*
X123478583Y-152774500D01*
X123321417Y-152774500D01*
X123321411Y-152774500D01*
X123085995Y-152789310D01*
X123085988Y-152789311D01*
X122776916Y-152848270D01*
X122477683Y-152945497D01*
X122477678Y-152945499D01*
X122192996Y-153079461D01*
X122192990Y-153079464D01*
X121927338Y-153248051D01*
X121927334Y-153248054D01*
X121684909Y-153448606D01*
X121684907Y-153448608D01*
X121469523Y-153677968D01*
X121469515Y-153677978D01*
X121284591Y-153932504D01*
X121284584Y-153932516D01*
X121133002Y-154208241D01*
X121133001Y-154208242D01*
X121017181Y-154500771D01*
X121017180Y-154500774D01*
X120938934Y-154805523D01*
X120938932Y-154805536D01*
X120899500Y-155117670D01*
X120899500Y-155432329D01*
X110525499Y-155432329D01*
X110525500Y-155432318D01*
X110525500Y-155117682D01*
X110525499Y-155117680D01*
X110525499Y-155117670D01*
X110486067Y-154805536D01*
X110486065Y-154805523D01*
X110407819Y-154500774D01*
X110407818Y-154500771D01*
X110291998Y-154208242D01*
X110291997Y-154208241D01*
X110291996Y-154208239D01*
X110291994Y-154208234D01*
X110140416Y-153932516D01*
X110140410Y-153932509D01*
X110140408Y-153932504D01*
X109955484Y-153677978D01*
X109955476Y-153677968D01*
X109740092Y-153448608D01*
X109740090Y-153448606D01*
X109497665Y-153248054D01*
X109497661Y-153248051D01*
X109232009Y-153079464D01*
X109232003Y-153079461D01*
X108947321Y-152945499D01*
X108947316Y-152945497D01*
X108648083Y-152848270D01*
X108648080Y-152848269D01*
X108648079Y-152848269D01*
X108493546Y-152818790D01*
X108339011Y-152789311D01*
X108339004Y-152789310D01*
X108103589Y-152774500D01*
X108103583Y-152774500D01*
X107946417Y-152774500D01*
X107946411Y-152774500D01*
X107710995Y-152789310D01*
X107710988Y-152789311D01*
X107401916Y-152848270D01*
X107102683Y-152945497D01*
X107102678Y-152945499D01*
X106817996Y-153079461D01*
X106817990Y-153079464D01*
X106552338Y-153248051D01*
X106552334Y-153248054D01*
X106309909Y-153448606D01*
X106309907Y-153448608D01*
X106094523Y-153677968D01*
X106094515Y-153677978D01*
X105909591Y-153932504D01*
X105909584Y-153932516D01*
X105758002Y-154208241D01*
X105758001Y-154208242D01*
X105642181Y-154500771D01*
X105642180Y-154500774D01*
X105563934Y-154805523D01*
X105563932Y-154805536D01*
X105524500Y-155117670D01*
X105524500Y-155432329D01*
X101240000Y-155432329D01*
X101240000Y-141185000D01*
X118205613Y-141185000D01*
X118225125Y-141408026D01*
X118225127Y-141408036D01*
X118283068Y-141624278D01*
X118283073Y-141624292D01*
X118377686Y-141827190D01*
X118377690Y-141827198D01*
X118480309Y-141973752D01*
X118506102Y-142010588D01*
X118664412Y-142168898D01*
X118756109Y-142233105D01*
X118847801Y-142297309D01*
X118847803Y-142297310D01*
X118847806Y-142297312D01*
X118969879Y-142354235D01*
X119050707Y-142391926D01*
X119050709Y-142391926D01*
X119050714Y-142391929D01*
X119266969Y-142449874D01*
X119445393Y-142465484D01*
X119489999Y-142469387D01*
X119490000Y-142469387D01*
X119490001Y-142469387D01*
X119527171Y-142466134D01*
X119713031Y-142449874D01*
X119929286Y-142391929D01*
X120132194Y-142297312D01*
X120315588Y-142168898D01*
X120473898Y-142010588D01*
X120602312Y-141827194D01*
X120676513Y-141668067D01*
X120722686Y-141615628D01*
X120788896Y-141596472D01*
X121671111Y-141596472D01*
X121693010Y-141589356D01*
X121711929Y-141584813D01*
X121734678Y-141581211D01*
X121755197Y-141570755D01*
X121773173Y-141563309D01*
X121795074Y-141556194D01*
X121813704Y-141542658D01*
X121830283Y-141532497D01*
X121850813Y-141522037D01*
X121942978Y-141429872D01*
X121942977Y-141429872D01*
X122001546Y-141371303D01*
X122001545Y-141371303D01*
X122187848Y-141185000D01*
X131895613Y-141185000D01*
X131915125Y-141408026D01*
X131915127Y-141408036D01*
X131973068Y-141624278D01*
X131973073Y-141624292D01*
X132067686Y-141827190D01*
X132067690Y-141827198D01*
X132170309Y-141973752D01*
X132196102Y-142010588D01*
X132354412Y-142168898D01*
X132446109Y-142233105D01*
X132537801Y-142297309D01*
X132537803Y-142297310D01*
X132537806Y-142297312D01*
X132659879Y-142354235D01*
X132740707Y-142391926D01*
X132740709Y-142391926D01*
X132740714Y-142391929D01*
X132956969Y-142449874D01*
X133135393Y-142465484D01*
X133179999Y-142469387D01*
X133180000Y-142469387D01*
X133180001Y-142469387D01*
X133217171Y-142466134D01*
X133403031Y-142449874D01*
X133619286Y-142391929D01*
X133822194Y-142297312D01*
X134005588Y-142168898D01*
X134163898Y-142010588D01*
X134292312Y-141827194D01*
X134366513Y-141668067D01*
X134412686Y-141615628D01*
X134478896Y-141596472D01*
X135361111Y-141596472D01*
X135383010Y-141589356D01*
X135401929Y-141584813D01*
X135424678Y-141581211D01*
X135445197Y-141570755D01*
X135463173Y-141563309D01*
X135485074Y-141556194D01*
X135503704Y-141542658D01*
X135520283Y-141532497D01*
X135540813Y-141522037D01*
X135632978Y-141429872D01*
X135632978Y-141429871D01*
X135877849Y-141185000D01*
X145938945Y-141185000D01*
X145958457Y-141408026D01*
X145958459Y-141408036D01*
X146016400Y-141624278D01*
X146016405Y-141624292D01*
X146111018Y-141827190D01*
X146111022Y-141827198D01*
X146213641Y-141973752D01*
X146239434Y-142010588D01*
X146397744Y-142168898D01*
X146489441Y-142233105D01*
X146581133Y-142297309D01*
X146581135Y-142297310D01*
X146581138Y-142297312D01*
X146703211Y-142354235D01*
X146784039Y-142391926D01*
X146784041Y-142391926D01*
X146784046Y-142391929D01*
X147000301Y-142449874D01*
X147178725Y-142465484D01*
X147223331Y-142469387D01*
X147223332Y-142469387D01*
X147223333Y-142469387D01*
X147260503Y-142466134D01*
X147446363Y-142449874D01*
X147662618Y-142391929D01*
X147865526Y-142297312D01*
X148048920Y-142168898D01*
X148207230Y-142010588D01*
X148335644Y-141827194D01*
X148409845Y-141668067D01*
X148456018Y-141615628D01*
X148522228Y-141596472D01*
X149404443Y-141596472D01*
X149426342Y-141589356D01*
X149445261Y-141584813D01*
X149468010Y-141581211D01*
X149488529Y-141570755D01*
X149506505Y-141563309D01*
X149528406Y-141556194D01*
X149547036Y-141542658D01*
X149563615Y-141532497D01*
X149584145Y-141522037D01*
X149676310Y-141429872D01*
X149676309Y-141429872D01*
X149734878Y-141371303D01*
X149734877Y-141371303D01*
X149921180Y-141185000D01*
X159865613Y-141185000D01*
X159885125Y-141408026D01*
X159885127Y-141408036D01*
X159943068Y-141624278D01*
X159943073Y-141624292D01*
X160037686Y-141827190D01*
X160037690Y-141827198D01*
X160140309Y-141973752D01*
X160166102Y-142010588D01*
X160324412Y-142168898D01*
X160416109Y-142233104D01*
X160507801Y-142297309D01*
X160507803Y-142297310D01*
X160507806Y-142297312D01*
X160629879Y-142354235D01*
X160710707Y-142391926D01*
X160710709Y-142391926D01*
X160710714Y-142391929D01*
X160926969Y-142449874D01*
X161105393Y-142465484D01*
X161149999Y-142469387D01*
X161150000Y-142469387D01*
X161150001Y-142469387D01*
X161187171Y-142466134D01*
X161373031Y-142449874D01*
X161589286Y-142391929D01*
X161792194Y-142297312D01*
X161975588Y-142168898D01*
X162133898Y-142010588D01*
X162262312Y-141827194D01*
X162336513Y-141668067D01*
X162382686Y-141615628D01*
X162448896Y-141596472D01*
X176130170Y-141596472D01*
X176152069Y-141589356D01*
X176170988Y-141584813D01*
X176193737Y-141581211D01*
X176214256Y-141570755D01*
X176232232Y-141563309D01*
X176254133Y-141556194D01*
X176272763Y-141542658D01*
X176289342Y-141532497D01*
X176309872Y-141522037D01*
X176402037Y-141429872D01*
X182256907Y-135575002D01*
X195154340Y-135575002D01*
X195174914Y-135757611D01*
X195221041Y-135889432D01*
X195235611Y-135931071D01*
X195333382Y-136086673D01*
X195463327Y-136216618D01*
X195555363Y-136274448D01*
X195610043Y-136308806D01*
X195618929Y-136314389D01*
X195792386Y-136375084D01*
X195792389Y-136375084D01*
X195792391Y-136375085D01*
X195860795Y-136382791D01*
X195929199Y-136390499D01*
X195929200Y-136390500D01*
X195929204Y-136390500D01*
X196020800Y-136390500D01*
X196020800Y-136390499D01*
X196106856Y-136380803D01*
X196157608Y-136375085D01*
X196157609Y-136375084D01*
X196157614Y-136375084D01*
X196331071Y-136314389D01*
X196486673Y-136216618D01*
X196616618Y-136086673D01*
X196714389Y-135931071D01*
X196775084Y-135757614D01*
X196775084Y-135757613D01*
X196775085Y-135757611D01*
X196795660Y-135575002D01*
X196795660Y-135574997D01*
X196775085Y-135392388D01*
X196760514Y-135350747D01*
X196714389Y-135218929D01*
X196616618Y-135063327D01*
X196486673Y-134933382D01*
X196486673Y-134933381D01*
X196331072Y-134835611D01*
X196157608Y-134774914D01*
X196020800Y-134759500D01*
X196020796Y-134759500D01*
X195929204Y-134759500D01*
X195929200Y-134759500D01*
X195792391Y-134774914D01*
X195618927Y-134835611D01*
X195463326Y-134933382D01*
X195333382Y-135063326D01*
X195235612Y-135218926D01*
X195174914Y-135392388D01*
X195154340Y-135574997D01*
X195154340Y-135575002D01*
X182256907Y-135575002D01*
X190859117Y-126972791D01*
X190920441Y-126939306D01*
X190946799Y-126936472D01*
X194045957Y-126936472D01*
X194112996Y-126956157D01*
X194114848Y-126957370D01*
X194144813Y-126977391D01*
X194200699Y-127014734D01*
X194200702Y-127014734D01*
X194200703Y-127014735D01*
X194225666Y-127019700D01*
X194274933Y-127029500D01*
X195825066Y-127029499D01*
X195899301Y-127014734D01*
X195983484Y-126958484D01*
X196039734Y-126874301D01*
X196054500Y-126800067D01*
X196054499Y-126249934D01*
X196039734Y-126175699D01*
X196015377Y-126139246D01*
X195983484Y-126091515D01*
X195910317Y-126042627D01*
X195899301Y-126035266D01*
X195899299Y-126035265D01*
X195899296Y-126035264D01*
X195825069Y-126020500D01*
X194274936Y-126020500D01*
X194200698Y-126035266D01*
X194114848Y-126092630D01*
X194048170Y-126113508D01*
X194045957Y-126113528D01*
X190790171Y-126113528D01*
X190659830Y-126113528D01*
X190638502Y-126120456D01*
X190637924Y-126120645D01*
X190619015Y-126125184D01*
X190596265Y-126128788D01*
X190596262Y-126128789D01*
X190575738Y-126139246D01*
X190557769Y-126146689D01*
X190535869Y-126153805D01*
X190535866Y-126153806D01*
X190517233Y-126167343D01*
X190500657Y-126177501D01*
X190480129Y-126187962D01*
X190480126Y-126187964D01*
X190439506Y-126228582D01*
X190439502Y-126228588D01*
X175930882Y-140737209D01*
X175869559Y-140770694D01*
X175843201Y-140773528D01*
X162448895Y-140773528D01*
X162381856Y-140753843D01*
X162336513Y-140701932D01*
X162262314Y-140542812D01*
X162262311Y-140542806D01*
X162133899Y-140359413D01*
X162133895Y-140359409D01*
X161975588Y-140201102D01*
X161975584Y-140201099D01*
X161975583Y-140201098D01*
X161792198Y-140072690D01*
X161792190Y-140072686D01*
X161589292Y-139978073D01*
X161589278Y-139978068D01*
X161373036Y-139920127D01*
X161373026Y-139920125D01*
X161150001Y-139900613D01*
X161149999Y-139900613D01*
X160926973Y-139920125D01*
X160926963Y-139920127D01*
X160710721Y-139978068D01*
X160710712Y-139978072D01*
X160507808Y-140072687D01*
X160507806Y-140072688D01*
X160324409Y-140201103D01*
X160166103Y-140359409D01*
X160037688Y-140542806D01*
X160037687Y-140542808D01*
X159943072Y-140745712D01*
X159943068Y-140745721D01*
X159885127Y-140961963D01*
X159885125Y-140961973D01*
X159865613Y-141184999D01*
X159865613Y-141185000D01*
X149921180Y-141185000D01*
X153978390Y-137127791D01*
X154039714Y-137094306D01*
X154066072Y-137091472D01*
X178535170Y-137091472D01*
X178557069Y-137084356D01*
X178575988Y-137079813D01*
X178598737Y-137076211D01*
X178619256Y-137065755D01*
X178637232Y-137058309D01*
X178659133Y-137051194D01*
X178677763Y-137037658D01*
X178694342Y-137027497D01*
X178714872Y-137017037D01*
X178807037Y-136924872D01*
X178807036Y-136924872D01*
X178865605Y-136866303D01*
X178865604Y-136866303D01*
X190359118Y-125372791D01*
X190420442Y-125339306D01*
X190446800Y-125336472D01*
X194045957Y-125336472D01*
X194112996Y-125356157D01*
X194114848Y-125357370D01*
X194144813Y-125377391D01*
X194200699Y-125414734D01*
X194200702Y-125414734D01*
X194200703Y-125414735D01*
X194225666Y-125419700D01*
X194274933Y-125429500D01*
X195825066Y-125429499D01*
X195899301Y-125414734D01*
X195983484Y-125358484D01*
X196039734Y-125274301D01*
X196054500Y-125200067D01*
X196054499Y-124649934D01*
X196039734Y-124575699D01*
X196015377Y-124539247D01*
X195983484Y-124491515D01*
X195933019Y-124457796D01*
X195899301Y-124435266D01*
X195899299Y-124435265D01*
X195899296Y-124435264D01*
X195825069Y-124420500D01*
X194274936Y-124420500D01*
X194200698Y-124435266D01*
X194114848Y-124492630D01*
X194048170Y-124513508D01*
X194045957Y-124513528D01*
X190190084Y-124513528D01*
X190190060Y-124513529D01*
X190159829Y-124513529D01*
X190159826Y-124513529D01*
X190159824Y-124513530D01*
X190137924Y-124520645D01*
X190119012Y-124525185D01*
X190096264Y-124528788D01*
X190096260Y-124528789D01*
X190075733Y-124539247D01*
X190057774Y-124546686D01*
X190035867Y-124553805D01*
X190035864Y-124553807D01*
X190017231Y-124567344D01*
X190000649Y-124577506D01*
X189980129Y-124587961D01*
X189968537Y-124599553D01*
X189956946Y-124611144D01*
X189956943Y-124611147D01*
X178335882Y-136232209D01*
X178274559Y-136265694D01*
X178248201Y-136268528D01*
X153779099Y-136268528D01*
X153757196Y-136275645D01*
X153738279Y-136280186D01*
X153715535Y-136283788D01*
X153695017Y-136294243D01*
X153677046Y-136301688D01*
X153655137Y-136308807D01*
X153636511Y-136322340D01*
X153619925Y-136332504D01*
X153599403Y-136342960D01*
X153599401Y-136342962D01*
X149205155Y-140737209D01*
X149143832Y-140770694D01*
X149117474Y-140773528D01*
X148522227Y-140773528D01*
X148455188Y-140753843D01*
X148409845Y-140701932D01*
X148335646Y-140542812D01*
X148335643Y-140542806D01*
X148207231Y-140359413D01*
X148207227Y-140359409D01*
X148048920Y-140201102D01*
X148048916Y-140201099D01*
X148048915Y-140201098D01*
X147865530Y-140072690D01*
X147865522Y-140072686D01*
X147662624Y-139978073D01*
X147662610Y-139978068D01*
X147446368Y-139920127D01*
X147446358Y-139920125D01*
X147223333Y-139900613D01*
X147223331Y-139900613D01*
X147000305Y-139920125D01*
X147000295Y-139920127D01*
X146784053Y-139978068D01*
X146784044Y-139978072D01*
X146581140Y-140072687D01*
X146581138Y-140072688D01*
X146397741Y-140201103D01*
X146239435Y-140359409D01*
X146111020Y-140542806D01*
X146111019Y-140542808D01*
X146016404Y-140745712D01*
X146016400Y-140745721D01*
X145958459Y-140961963D01*
X145958457Y-140961973D01*
X145938945Y-141184999D01*
X145938945Y-141185000D01*
X135877849Y-141185000D01*
X141475058Y-135587791D01*
X141536382Y-135554306D01*
X141562740Y-135551472D01*
X177750170Y-135551472D01*
X177772069Y-135544356D01*
X177790988Y-135539813D01*
X177813737Y-135536211D01*
X177834256Y-135525755D01*
X177852232Y-135518309D01*
X177874133Y-135511194D01*
X177892763Y-135497658D01*
X177909342Y-135487497D01*
X177929872Y-135477037D01*
X178022037Y-135384872D01*
X178022036Y-135384872D01*
X178080605Y-135326303D01*
X178080604Y-135326303D01*
X189634118Y-123772791D01*
X189695442Y-123739306D01*
X189721800Y-123736472D01*
X194045957Y-123736472D01*
X194112996Y-123756157D01*
X194114848Y-123757370D01*
X194144813Y-123777391D01*
X194200699Y-123814734D01*
X194200702Y-123814734D01*
X194200703Y-123814735D01*
X194225666Y-123819700D01*
X194274933Y-123829500D01*
X195825066Y-123829499D01*
X195899301Y-123814734D01*
X195983484Y-123758484D01*
X196039734Y-123674301D01*
X196054500Y-123600067D01*
X196054499Y-123049934D01*
X196039734Y-122975699D01*
X196020349Y-122946688D01*
X195983484Y-122891515D01*
X195933019Y-122857796D01*
X195899301Y-122835266D01*
X195899299Y-122835265D01*
X195899296Y-122835264D01*
X195825069Y-122820500D01*
X194274936Y-122820500D01*
X194200698Y-122835266D01*
X194114848Y-122892630D01*
X194048170Y-122913508D01*
X194045957Y-122913528D01*
X189434826Y-122913528D01*
X189412923Y-122920645D01*
X189394006Y-122925186D01*
X189371262Y-122928788D01*
X189350744Y-122939243D01*
X189332772Y-122946688D01*
X189310869Y-122953805D01*
X189310866Y-122953806D01*
X189292230Y-122967345D01*
X189275651Y-122977504D01*
X189255131Y-122987960D01*
X189255130Y-122987960D01*
X189243537Y-122999552D01*
X189231946Y-123011144D01*
X189231943Y-123011147D01*
X177550882Y-134692209D01*
X177489559Y-134725694D01*
X177463201Y-134728528D01*
X141406112Y-134728528D01*
X141275771Y-134728528D01*
X141254443Y-134735456D01*
X141253865Y-134735645D01*
X141234956Y-134740184D01*
X141212206Y-134743788D01*
X141212203Y-134743789D01*
X141191679Y-134754246D01*
X141173710Y-134761689D01*
X141151810Y-134768805D01*
X141151807Y-134768806D01*
X141133174Y-134782343D01*
X141116598Y-134792501D01*
X141096070Y-134802962D01*
X141096067Y-134802964D01*
X141055447Y-134843582D01*
X141055443Y-134843588D01*
X135161823Y-140737209D01*
X135100500Y-140770694D01*
X135074142Y-140773528D01*
X134478895Y-140773528D01*
X134411856Y-140753843D01*
X134366513Y-140701932D01*
X134292314Y-140542812D01*
X134292311Y-140542806D01*
X134163899Y-140359413D01*
X134163895Y-140359409D01*
X134005588Y-140201102D01*
X134005584Y-140201099D01*
X134005583Y-140201098D01*
X133822198Y-140072690D01*
X133822190Y-140072686D01*
X133619292Y-139978073D01*
X133619278Y-139978068D01*
X133403036Y-139920127D01*
X133403026Y-139920125D01*
X133180001Y-139900613D01*
X133179999Y-139900613D01*
X132956973Y-139920125D01*
X132956963Y-139920127D01*
X132740721Y-139978068D01*
X132740712Y-139978072D01*
X132537808Y-140072687D01*
X132537806Y-140072688D01*
X132354409Y-140201103D01*
X132196103Y-140359409D01*
X132067688Y-140542806D01*
X132067687Y-140542808D01*
X131973072Y-140745712D01*
X131973068Y-140745721D01*
X131915127Y-140961963D01*
X131915125Y-140961973D01*
X131895613Y-141184999D01*
X131895613Y-141185000D01*
X122187848Y-141185000D01*
X129425059Y-133947791D01*
X129486383Y-133914306D01*
X129512741Y-133911472D01*
X177265170Y-133911472D01*
X177287069Y-133904356D01*
X177305988Y-133899813D01*
X177328737Y-133896211D01*
X177349256Y-133885755D01*
X177367232Y-133878309D01*
X177389133Y-133871194D01*
X177407763Y-133857658D01*
X177424342Y-133847497D01*
X177444872Y-133837037D01*
X177537037Y-133744872D01*
X177537037Y-133744871D01*
X189109117Y-122172791D01*
X189170441Y-122139306D01*
X189196799Y-122136472D01*
X194045957Y-122136472D01*
X194112996Y-122156157D01*
X194114848Y-122157370D01*
X194144813Y-122177391D01*
X194200699Y-122214734D01*
X194200702Y-122214734D01*
X194200703Y-122214735D01*
X194225666Y-122219700D01*
X194274933Y-122229500D01*
X195825066Y-122229499D01*
X195899301Y-122214734D01*
X195983484Y-122158484D01*
X196039734Y-122074301D01*
X196054500Y-122000067D01*
X196054499Y-121449934D01*
X196039734Y-121375699D01*
X196010182Y-121331472D01*
X195983484Y-121291515D01*
X195931882Y-121257036D01*
X195899301Y-121235266D01*
X195899299Y-121235265D01*
X195899296Y-121235264D01*
X195825069Y-121220500D01*
X194274936Y-121220500D01*
X194200698Y-121235266D01*
X194114848Y-121292630D01*
X194048170Y-121313508D01*
X194045957Y-121313528D01*
X189040171Y-121313528D01*
X188909830Y-121313528D01*
X188890982Y-121319651D01*
X188887923Y-121320645D01*
X188869019Y-121325183D01*
X188846263Y-121328788D01*
X188846260Y-121328789D01*
X188825737Y-121339245D01*
X188807778Y-121346684D01*
X188785868Y-121353804D01*
X188785865Y-121353806D01*
X188767232Y-121367343D01*
X188750651Y-121377504D01*
X188730131Y-121387960D01*
X188730127Y-121387963D01*
X188689506Y-121428582D01*
X188689502Y-121428588D01*
X177065882Y-133052209D01*
X177004559Y-133085694D01*
X176978201Y-133088528D01*
X129225767Y-133088528D01*
X129203864Y-133095645D01*
X129184947Y-133100186D01*
X129162203Y-133103788D01*
X129141685Y-133114243D01*
X129123713Y-133121688D01*
X129101810Y-133128805D01*
X129101807Y-133128806D01*
X129083171Y-133142345D01*
X129066592Y-133152504D01*
X129046072Y-133162960D01*
X129046071Y-133162960D01*
X129034478Y-133174552D01*
X129022887Y-133186144D01*
X129022884Y-133186147D01*
X121471823Y-140737209D01*
X121410500Y-140770694D01*
X121384142Y-140773528D01*
X120788895Y-140773528D01*
X120721856Y-140753843D01*
X120676513Y-140701932D01*
X120602314Y-140542812D01*
X120602311Y-140542806D01*
X120473899Y-140359413D01*
X120473895Y-140359409D01*
X120315588Y-140201102D01*
X120315584Y-140201099D01*
X120315583Y-140201098D01*
X120132198Y-140072690D01*
X120132190Y-140072686D01*
X119929292Y-139978073D01*
X119929278Y-139978068D01*
X119713036Y-139920127D01*
X119713026Y-139920125D01*
X119490001Y-139900613D01*
X119489999Y-139900613D01*
X119266973Y-139920125D01*
X119266963Y-139920127D01*
X119050721Y-139978068D01*
X119050712Y-139978072D01*
X118847808Y-140072687D01*
X118847806Y-140072688D01*
X118664409Y-140201103D01*
X118506103Y-140359409D01*
X118377688Y-140542806D01*
X118377687Y-140542808D01*
X118283072Y-140745712D01*
X118283068Y-140745721D01*
X118225127Y-140961963D01*
X118225125Y-140961973D01*
X118205613Y-141184999D01*
X118205613Y-141185000D01*
X101240000Y-141185000D01*
X101240000Y-127307500D01*
X118205613Y-127307500D01*
X118225125Y-127530526D01*
X118225127Y-127530536D01*
X118283068Y-127746778D01*
X118283073Y-127746792D01*
X118377686Y-127949690D01*
X118377690Y-127949698D01*
X118480309Y-128096252D01*
X118506102Y-128133088D01*
X118664412Y-128291398D01*
X118756108Y-128355605D01*
X118847801Y-128419809D01*
X118847803Y-128419810D01*
X118847806Y-128419812D01*
X118969879Y-128476735D01*
X119050707Y-128514426D01*
X119050709Y-128514426D01*
X119050714Y-128514429D01*
X119266969Y-128572374D01*
X119445393Y-128587984D01*
X119489999Y-128591887D01*
X119490000Y-128591887D01*
X119490001Y-128591887D01*
X119527171Y-128588634D01*
X119713031Y-128572374D01*
X119929286Y-128514429D01*
X120132194Y-128419812D01*
X120315588Y-128291398D01*
X120473898Y-128133088D01*
X120602312Y-127949694D01*
X120676513Y-127790567D01*
X120722686Y-127738128D01*
X120788896Y-127718972D01*
X121671111Y-127718972D01*
X121693010Y-127711856D01*
X121711929Y-127707313D01*
X121734678Y-127703711D01*
X121755197Y-127693255D01*
X121773173Y-127685809D01*
X121795074Y-127678694D01*
X121813704Y-127665158D01*
X121830283Y-127654997D01*
X121850813Y-127644537D01*
X121942978Y-127552372D01*
X121942977Y-127552372D01*
X122001546Y-127493803D01*
X122001545Y-127493803D01*
X122187848Y-127307500D01*
X131895613Y-127307500D01*
X131915125Y-127530526D01*
X131915127Y-127530536D01*
X131973068Y-127746778D01*
X131973073Y-127746792D01*
X132067686Y-127949690D01*
X132067690Y-127949698D01*
X132170309Y-128096252D01*
X132196102Y-128133088D01*
X132354412Y-128291398D01*
X132446108Y-128355605D01*
X132537801Y-128419809D01*
X132537803Y-128419810D01*
X132537806Y-128419812D01*
X132659879Y-128476735D01*
X132740707Y-128514426D01*
X132740709Y-128514426D01*
X132740714Y-128514429D01*
X132956969Y-128572374D01*
X133135393Y-128587984D01*
X133179999Y-128591887D01*
X133180000Y-128591887D01*
X133180001Y-128591887D01*
X133217171Y-128588634D01*
X133403031Y-128572374D01*
X133619286Y-128514429D01*
X133822194Y-128419812D01*
X134005588Y-128291398D01*
X134163898Y-128133088D01*
X134292312Y-127949694D01*
X134366513Y-127790567D01*
X134412686Y-127738128D01*
X134478896Y-127718972D01*
X135477670Y-127718972D01*
X135499569Y-127711856D01*
X135518488Y-127707313D01*
X135541237Y-127703711D01*
X135561756Y-127693255D01*
X135579732Y-127685809D01*
X135601633Y-127678694D01*
X135620263Y-127665158D01*
X135636842Y-127654997D01*
X135657372Y-127644537D01*
X135749537Y-127552372D01*
X136017625Y-127284284D01*
X145938945Y-127284284D01*
X145958457Y-127507310D01*
X145958459Y-127507320D01*
X146016400Y-127723562D01*
X146016405Y-127723576D01*
X146111018Y-127926474D01*
X146111022Y-127926482D01*
X146213641Y-128073036D01*
X146239434Y-128109872D01*
X146397744Y-128268182D01*
X146489441Y-128332388D01*
X146581133Y-128396593D01*
X146581135Y-128396594D01*
X146581138Y-128396596D01*
X146703211Y-128453519D01*
X146784039Y-128491210D01*
X146784041Y-128491210D01*
X146784046Y-128491213D01*
X146784051Y-128491214D01*
X146784053Y-128491215D01*
X146789368Y-128492639D01*
X147000301Y-128549158D01*
X147178725Y-128564768D01*
X147223331Y-128568671D01*
X147223332Y-128568671D01*
X147223333Y-128568671D01*
X147260503Y-128565418D01*
X147446363Y-128549158D01*
X147662618Y-128491213D01*
X147865526Y-128396596D01*
X148048920Y-128268182D01*
X148207230Y-128109872D01*
X148335644Y-127926478D01*
X148409845Y-127767351D01*
X148456018Y-127714912D01*
X148522228Y-127695756D01*
X149404443Y-127695756D01*
X149426342Y-127688640D01*
X149445261Y-127684097D01*
X149468010Y-127680495D01*
X149488529Y-127670039D01*
X149506505Y-127662593D01*
X149528406Y-127655478D01*
X149547036Y-127641942D01*
X149563615Y-127631781D01*
X149584145Y-127621321D01*
X149676310Y-127529156D01*
X149676309Y-127529155D01*
X149712620Y-127492845D01*
X149712629Y-127492835D01*
X149919754Y-127285710D01*
X159865613Y-127285710D01*
X159885125Y-127508736D01*
X159885127Y-127508746D01*
X159943068Y-127724988D01*
X159943073Y-127725002D01*
X160037686Y-127927900D01*
X160037690Y-127927908D01*
X160052948Y-127949698D01*
X160166102Y-128111298D01*
X160324412Y-128269608D01*
X160355536Y-128291401D01*
X160507801Y-128398019D01*
X160507803Y-128398020D01*
X160507806Y-128398022D01*
X160629879Y-128454945D01*
X160710707Y-128492636D01*
X160710709Y-128492636D01*
X160710714Y-128492639D01*
X160926969Y-128550584D01*
X161105393Y-128566194D01*
X161149999Y-128570097D01*
X161150000Y-128570097D01*
X161150001Y-128570097D01*
X161187171Y-128566844D01*
X161373031Y-128550584D01*
X161589286Y-128492639D01*
X161792194Y-128398022D01*
X161975588Y-128269608D01*
X162133898Y-128111298D01*
X162262312Y-127927904D01*
X162336513Y-127768777D01*
X162382686Y-127716338D01*
X162448896Y-127697182D01*
X180999460Y-127697182D01*
X181021359Y-127690066D01*
X181040278Y-127685523D01*
X181063027Y-127681921D01*
X181083546Y-127671465D01*
X181101522Y-127664019D01*
X181123423Y-127656904D01*
X181142053Y-127643368D01*
X181158632Y-127633207D01*
X181179162Y-127622747D01*
X181271327Y-127530582D01*
X181271326Y-127530582D01*
X181329895Y-127472013D01*
X181329894Y-127472013D01*
X188229118Y-120572791D01*
X188290442Y-120539306D01*
X188316800Y-120536472D01*
X194045957Y-120536472D01*
X194112996Y-120556157D01*
X194114848Y-120557370D01*
X194144813Y-120577391D01*
X194200699Y-120614734D01*
X194200702Y-120614734D01*
X194200703Y-120614735D01*
X194225666Y-120619700D01*
X194274933Y-120629500D01*
X195825066Y-120629499D01*
X195899301Y-120614734D01*
X195983484Y-120558484D01*
X196039734Y-120474301D01*
X196054500Y-120400067D01*
X196054499Y-119849934D01*
X196039734Y-119775699D01*
X196015375Y-119739243D01*
X195983484Y-119691515D01*
X195933019Y-119657796D01*
X195899301Y-119635266D01*
X195899299Y-119635265D01*
X195899296Y-119635264D01*
X195825069Y-119620500D01*
X194274936Y-119620500D01*
X194200698Y-119635266D01*
X194114848Y-119692630D01*
X194048170Y-119713508D01*
X194045957Y-119713528D01*
X188029826Y-119713528D01*
X188007923Y-119720645D01*
X187989006Y-119725186D01*
X187966262Y-119728788D01*
X187945744Y-119739243D01*
X187927772Y-119746688D01*
X187905869Y-119753805D01*
X187905866Y-119753806D01*
X187887230Y-119767345D01*
X187870651Y-119777504D01*
X187850131Y-119787960D01*
X187850130Y-119787960D01*
X187838537Y-119799552D01*
X187826946Y-119811144D01*
X187826943Y-119811147D01*
X180800172Y-126837919D01*
X180738849Y-126871404D01*
X180712491Y-126874238D01*
X162448895Y-126874238D01*
X162381856Y-126854553D01*
X162336513Y-126802642D01*
X162262314Y-126643522D01*
X162262311Y-126643516D01*
X162261313Y-126642091D01*
X162149156Y-126481913D01*
X162133899Y-126460123D01*
X162132469Y-126458693D01*
X161975588Y-126301812D01*
X161975584Y-126301809D01*
X161975583Y-126301808D01*
X161792198Y-126173400D01*
X161792190Y-126173396D01*
X161589292Y-126078783D01*
X161589278Y-126078778D01*
X161373036Y-126020837D01*
X161373026Y-126020835D01*
X161150001Y-126001323D01*
X161149999Y-126001323D01*
X160926973Y-126020835D01*
X160926963Y-126020837D01*
X160710721Y-126078778D01*
X160710712Y-126078782D01*
X160507808Y-126173397D01*
X160507806Y-126173398D01*
X160324409Y-126301813D01*
X160166103Y-126460119D01*
X160037688Y-126643516D01*
X160037687Y-126643518D01*
X159943072Y-126846422D01*
X159943068Y-126846431D01*
X159885127Y-127062673D01*
X159885125Y-127062683D01*
X159865613Y-127285709D01*
X159865613Y-127285710D01*
X149919754Y-127285710D01*
X154207675Y-122997791D01*
X154268998Y-122964306D01*
X154295356Y-122961472D01*
X182925170Y-122961472D01*
X182947069Y-122954356D01*
X182965988Y-122949813D01*
X182988737Y-122946211D01*
X183009256Y-122935755D01*
X183027232Y-122928309D01*
X183049133Y-122921194D01*
X183067763Y-122907658D01*
X183084342Y-122897497D01*
X183104872Y-122887037D01*
X183197037Y-122794872D01*
X183197037Y-122794871D01*
X187019117Y-118972791D01*
X187080441Y-118939306D01*
X187106799Y-118936472D01*
X194045957Y-118936472D01*
X194112996Y-118956157D01*
X194114848Y-118957370D01*
X194144813Y-118977391D01*
X194200699Y-119014734D01*
X194200702Y-119014734D01*
X194200703Y-119014735D01*
X194225666Y-119019700D01*
X194274933Y-119029500D01*
X195825066Y-119029499D01*
X195899301Y-119014734D01*
X195983484Y-118958484D01*
X196039734Y-118874301D01*
X196054500Y-118800067D01*
X196054499Y-118249934D01*
X196039734Y-118175699D01*
X196015376Y-118139245D01*
X195983484Y-118091515D01*
X195933019Y-118057796D01*
X195899301Y-118035266D01*
X195899299Y-118035265D01*
X195899296Y-118035264D01*
X195825069Y-118020500D01*
X194274936Y-118020500D01*
X194200698Y-118035266D01*
X194114848Y-118092630D01*
X194048170Y-118113508D01*
X194045957Y-118113528D01*
X186950171Y-118113528D01*
X186819830Y-118113528D01*
X186800982Y-118119651D01*
X186797923Y-118120645D01*
X186779019Y-118125183D01*
X186756263Y-118128788D01*
X186756260Y-118128789D01*
X186735737Y-118139245D01*
X186717778Y-118146684D01*
X186695868Y-118153804D01*
X186695865Y-118153806D01*
X186677232Y-118167343D01*
X186660651Y-118177504D01*
X186640131Y-118187960D01*
X186640127Y-118187963D01*
X186599506Y-118228582D01*
X186599502Y-118228588D01*
X182725882Y-122102209D01*
X182664559Y-122135694D01*
X182638201Y-122138528D01*
X154138728Y-122138528D01*
X154008387Y-122138528D01*
X153989539Y-122144651D01*
X153986480Y-122145645D01*
X153967576Y-122150183D01*
X153944820Y-122153788D01*
X153944817Y-122153789D01*
X153924294Y-122164245D01*
X153906335Y-122171684D01*
X153884425Y-122178804D01*
X153884422Y-122178806D01*
X153865789Y-122192343D01*
X153849208Y-122202504D01*
X153828688Y-122212960D01*
X153828684Y-122212963D01*
X153788063Y-122253582D01*
X153788059Y-122253588D01*
X149205155Y-126836493D01*
X149143832Y-126869978D01*
X149117474Y-126872812D01*
X148522227Y-126872812D01*
X148455188Y-126853127D01*
X148409845Y-126801216D01*
X148346470Y-126665308D01*
X148335644Y-126642091D01*
X148208229Y-126460123D01*
X148207231Y-126458697D01*
X148207227Y-126458693D01*
X148048920Y-126300386D01*
X148048916Y-126300383D01*
X148048915Y-126300382D01*
X147865530Y-126171974D01*
X147865522Y-126171970D01*
X147662624Y-126077357D01*
X147662610Y-126077352D01*
X147446368Y-126019411D01*
X147446358Y-126019409D01*
X147223333Y-125999897D01*
X147223331Y-125999897D01*
X147000305Y-126019409D01*
X147000295Y-126019411D01*
X146784053Y-126077352D01*
X146784044Y-126077356D01*
X146581140Y-126171971D01*
X146581138Y-126171972D01*
X146397741Y-126300387D01*
X146239435Y-126458693D01*
X146111020Y-126642090D01*
X146111019Y-126642092D01*
X146016404Y-126844996D01*
X146016400Y-126845005D01*
X145958459Y-127061247D01*
X145958457Y-127061257D01*
X145938945Y-127284283D01*
X145938945Y-127284284D01*
X136017625Y-127284284D01*
X141934118Y-121367790D01*
X141995441Y-121334306D01*
X142021799Y-121331472D01*
X181795170Y-121331472D01*
X181817069Y-121324356D01*
X181835988Y-121319813D01*
X181858737Y-121316211D01*
X181879256Y-121305755D01*
X181897232Y-121298309D01*
X181919133Y-121291194D01*
X181937763Y-121277658D01*
X181954342Y-121267497D01*
X181974872Y-121257037D01*
X182067037Y-121164872D01*
X182067036Y-121164872D01*
X182125605Y-121106303D01*
X182125604Y-121106303D01*
X185859118Y-117372791D01*
X185920442Y-117339306D01*
X185946800Y-117336472D01*
X194045957Y-117336472D01*
X194112996Y-117356157D01*
X194114848Y-117357370D01*
X194144813Y-117377391D01*
X194200699Y-117414734D01*
X194200702Y-117414734D01*
X194200703Y-117414735D01*
X194225666Y-117419700D01*
X194274933Y-117429500D01*
X195825066Y-117429499D01*
X195899301Y-117414734D01*
X195983484Y-117358484D01*
X196039734Y-117274301D01*
X196054500Y-117200067D01*
X196054499Y-116649934D01*
X196039734Y-116575699D01*
X196015375Y-116539243D01*
X195983484Y-116491515D01*
X195933019Y-116457796D01*
X195899301Y-116435266D01*
X195899299Y-116435265D01*
X195899296Y-116435264D01*
X195825069Y-116420500D01*
X194274936Y-116420500D01*
X194200698Y-116435266D01*
X194114848Y-116492630D01*
X194048170Y-116513508D01*
X194045957Y-116513528D01*
X185659826Y-116513528D01*
X185637923Y-116520645D01*
X185619006Y-116525186D01*
X185596262Y-116528788D01*
X185575744Y-116539243D01*
X185557772Y-116546688D01*
X185535869Y-116553805D01*
X185535866Y-116553806D01*
X185517230Y-116567345D01*
X185500651Y-116577504D01*
X185480131Y-116587960D01*
X185480130Y-116587960D01*
X185468537Y-116599552D01*
X185456946Y-116611144D01*
X185456943Y-116611147D01*
X183525882Y-118542209D01*
X181595882Y-120472209D01*
X181534559Y-120505694D01*
X181508201Y-120508528D01*
X141734826Y-120508528D01*
X141712923Y-120515645D01*
X141694006Y-120520186D01*
X141671262Y-120523788D01*
X141650744Y-120534243D01*
X141632773Y-120541688D01*
X141610864Y-120548807D01*
X141610861Y-120548809D01*
X141592235Y-120562341D01*
X141575654Y-120572502D01*
X141555133Y-120582959D01*
X141555126Y-120582964D01*
X141514506Y-120623582D01*
X141514502Y-120623588D01*
X135278382Y-126859709D01*
X135217059Y-126893194D01*
X135190701Y-126896028D01*
X134478895Y-126896028D01*
X134411856Y-126876343D01*
X134366513Y-126824432D01*
X134355153Y-126800071D01*
X134292312Y-126665307D01*
X134163898Y-126481912D01*
X134005588Y-126323602D01*
X134005584Y-126323599D01*
X134005583Y-126323598D01*
X133822198Y-126195190D01*
X133822190Y-126195186D01*
X133619292Y-126100573D01*
X133619278Y-126100568D01*
X133403036Y-126042627D01*
X133403026Y-126042625D01*
X133180001Y-126023113D01*
X133179999Y-126023113D01*
X132956973Y-126042625D01*
X132956963Y-126042627D01*
X132740721Y-126100568D01*
X132740712Y-126100572D01*
X132537808Y-126195187D01*
X132537806Y-126195188D01*
X132354409Y-126323603D01*
X132196103Y-126481909D01*
X132067688Y-126665306D01*
X132067687Y-126665308D01*
X131973072Y-126868212D01*
X131973068Y-126868221D01*
X131915127Y-127084463D01*
X131915125Y-127084473D01*
X131895613Y-127307499D01*
X131895613Y-127307500D01*
X122187848Y-127307500D01*
X130057559Y-119437791D01*
X130118883Y-119404306D01*
X130145241Y-119401472D01*
X180535170Y-119401472D01*
X180557069Y-119394356D01*
X180575988Y-119389813D01*
X180598737Y-119386211D01*
X180619256Y-119375755D01*
X180637232Y-119368309D01*
X180659133Y-119361194D01*
X180677763Y-119347658D01*
X180694342Y-119337497D01*
X180714872Y-119327037D01*
X180807037Y-119234872D01*
X184269118Y-115772790D01*
X184330441Y-115739306D01*
X184356799Y-115736472D01*
X194045957Y-115736472D01*
X194112996Y-115756157D01*
X194114848Y-115757370D01*
X194144813Y-115777391D01*
X194200699Y-115814734D01*
X194200702Y-115814734D01*
X194200703Y-115814735D01*
X194225666Y-115819700D01*
X194274933Y-115829500D01*
X195825066Y-115829499D01*
X195899301Y-115814734D01*
X195983484Y-115758484D01*
X196039734Y-115674301D01*
X196054500Y-115600067D01*
X196054499Y-115049934D01*
X196039734Y-114975699D01*
X196008390Y-114928790D01*
X195983484Y-114891515D01*
X195933019Y-114857796D01*
X195899301Y-114835266D01*
X195899299Y-114835265D01*
X195899296Y-114835264D01*
X195825069Y-114820500D01*
X194274936Y-114820500D01*
X194200698Y-114835266D01*
X194114848Y-114892630D01*
X194048170Y-114913508D01*
X194045957Y-114913528D01*
X184200171Y-114913528D01*
X184069830Y-114913528D01*
X184069826Y-114913529D01*
X184069827Y-114913529D01*
X184047923Y-114920645D01*
X184029014Y-114925184D01*
X184006269Y-114928787D01*
X184006260Y-114928790D01*
X183985738Y-114939246D01*
X183967774Y-114946687D01*
X183945867Y-114953806D01*
X183927231Y-114967345D01*
X183910649Y-114977506D01*
X183890129Y-114987961D01*
X183890126Y-114987964D01*
X183808383Y-115069703D01*
X183808357Y-115069733D01*
X180335882Y-118542209D01*
X180274559Y-118575694D01*
X180248201Y-118578528D01*
X129858267Y-118578528D01*
X129836364Y-118585645D01*
X129817447Y-118590186D01*
X129794703Y-118593788D01*
X129774185Y-118604243D01*
X129756213Y-118611688D01*
X129734310Y-118618805D01*
X129734307Y-118618806D01*
X129715671Y-118632345D01*
X129699092Y-118642504D01*
X129678572Y-118652960D01*
X129678571Y-118652960D01*
X129666978Y-118664552D01*
X129655387Y-118676144D01*
X129655384Y-118676147D01*
X125554093Y-122777439D01*
X121471823Y-126859709D01*
X121410500Y-126893194D01*
X121384142Y-126896028D01*
X120788895Y-126896028D01*
X120721856Y-126876343D01*
X120676513Y-126824432D01*
X120665153Y-126800071D01*
X120602312Y-126665307D01*
X120473898Y-126481912D01*
X120315588Y-126323602D01*
X120315584Y-126323599D01*
X120315583Y-126323598D01*
X120132198Y-126195190D01*
X120132190Y-126195186D01*
X119929292Y-126100573D01*
X119929278Y-126100568D01*
X119713036Y-126042627D01*
X119713026Y-126042625D01*
X119490001Y-126023113D01*
X119489999Y-126023113D01*
X119266973Y-126042625D01*
X119266963Y-126042627D01*
X119050721Y-126100568D01*
X119050712Y-126100572D01*
X118847808Y-126195187D01*
X118847806Y-126195188D01*
X118664409Y-126323603D01*
X118506103Y-126481909D01*
X118377688Y-126665306D01*
X118377687Y-126665308D01*
X118283072Y-126868212D01*
X118283068Y-126868221D01*
X118225127Y-127084463D01*
X118225125Y-127084473D01*
X118205613Y-127307499D01*
X118205613Y-127307500D01*
X101240000Y-127307500D01*
X101240000Y-113430000D01*
X118205613Y-113430000D01*
X118225125Y-113653026D01*
X118225127Y-113653036D01*
X118283068Y-113869278D01*
X118283073Y-113869292D01*
X118377686Y-114072190D01*
X118377690Y-114072198D01*
X118437329Y-114157370D01*
X118506102Y-114255588D01*
X118664412Y-114413898D01*
X118756108Y-114478105D01*
X118847801Y-114542309D01*
X118847803Y-114542310D01*
X118847806Y-114542312D01*
X118951138Y-114590496D01*
X119050707Y-114636926D01*
X119050709Y-114636926D01*
X119050714Y-114636929D01*
X119266969Y-114694874D01*
X119445393Y-114710484D01*
X119489999Y-114714387D01*
X119490000Y-114714387D01*
X119490001Y-114714387D01*
X119527171Y-114711134D01*
X119713031Y-114694874D01*
X119929286Y-114636929D01*
X120132194Y-114542312D01*
X120315588Y-114413898D01*
X120473898Y-114255588D01*
X120602312Y-114072194D01*
X120676513Y-113913067D01*
X120722686Y-113860628D01*
X120788896Y-113841472D01*
X123565170Y-113841472D01*
X123587069Y-113834356D01*
X123605988Y-113829813D01*
X123628737Y-113826211D01*
X123649256Y-113815755D01*
X123667232Y-113808309D01*
X123689133Y-113801194D01*
X123707763Y-113787658D01*
X123724342Y-113777497D01*
X123744872Y-113767037D01*
X123837037Y-113674872D01*
X123837036Y-113674872D01*
X123895605Y-113616303D01*
X123895604Y-113616303D01*
X124081907Y-113430000D01*
X131895613Y-113430000D01*
X131915125Y-113653026D01*
X131915127Y-113653036D01*
X131973068Y-113869278D01*
X131973073Y-113869292D01*
X132067686Y-114072190D01*
X132067690Y-114072198D01*
X132127329Y-114157370D01*
X132196102Y-114255588D01*
X132354412Y-114413898D01*
X132446108Y-114478104D01*
X132537801Y-114542309D01*
X132537803Y-114542310D01*
X132537806Y-114542312D01*
X132641138Y-114590496D01*
X132740707Y-114636926D01*
X132740709Y-114636926D01*
X132740714Y-114636929D01*
X132956969Y-114694874D01*
X133135393Y-114710484D01*
X133179999Y-114714387D01*
X133180000Y-114714387D01*
X133180001Y-114714387D01*
X133217171Y-114711134D01*
X133403031Y-114694874D01*
X133619286Y-114636929D01*
X133822194Y-114542312D01*
X134005588Y-114413898D01*
X134163898Y-114255588D01*
X134292312Y-114072194D01*
X134366513Y-113913067D01*
X134412686Y-113860628D01*
X134478896Y-113841472D01*
X135361111Y-113841472D01*
X135383010Y-113834356D01*
X135401929Y-113829813D01*
X135424678Y-113826211D01*
X135445197Y-113815755D01*
X135463173Y-113808309D01*
X135485074Y-113801194D01*
X135503704Y-113787658D01*
X135520283Y-113777497D01*
X135540813Y-113767037D01*
X135632978Y-113674872D01*
X135632977Y-113674872D01*
X135691546Y-113616303D01*
X135691545Y-113616303D01*
X135924278Y-113383570D01*
X145938945Y-113383570D01*
X145958457Y-113606596D01*
X145958459Y-113606606D01*
X146016400Y-113822848D01*
X146016405Y-113822862D01*
X146111018Y-114025760D01*
X146111022Y-114025768D01*
X146202322Y-114156157D01*
X146239434Y-114209158D01*
X146397744Y-114367468D01*
X146401826Y-114370326D01*
X146581133Y-114495879D01*
X146581135Y-114495880D01*
X146581138Y-114495882D01*
X146680702Y-114542309D01*
X146784039Y-114590496D01*
X146784041Y-114590496D01*
X146784046Y-114590499D01*
X146784051Y-114590500D01*
X146784053Y-114590501D01*
X146836103Y-114604447D01*
X147000301Y-114648444D01*
X147178725Y-114664054D01*
X147223331Y-114667957D01*
X147223332Y-114667957D01*
X147223333Y-114667957D01*
X147260503Y-114664704D01*
X147446363Y-114648444D01*
X147662618Y-114590499D01*
X147865526Y-114495882D01*
X148048920Y-114367468D01*
X148207230Y-114209158D01*
X148335644Y-114025764D01*
X148392899Y-113902979D01*
X148409846Y-113866637D01*
X148456018Y-113814198D01*
X148522228Y-113795042D01*
X149404443Y-113795042D01*
X149426342Y-113787926D01*
X149445261Y-113783383D01*
X149468010Y-113779781D01*
X149488529Y-113769325D01*
X149506505Y-113761879D01*
X149528406Y-113754764D01*
X149547036Y-113741228D01*
X149563615Y-113731067D01*
X149584145Y-113720607D01*
X149676310Y-113628442D01*
X149676309Y-113628442D01*
X149734878Y-113569873D01*
X149734877Y-113569873D01*
X149918325Y-113386425D01*
X159865613Y-113386425D01*
X159885125Y-113609451D01*
X159885127Y-113609461D01*
X159943068Y-113825703D01*
X159943073Y-113825717D01*
X160037686Y-114028615D01*
X160037690Y-114028623D01*
X160140309Y-114175177D01*
X160166102Y-114212013D01*
X160324412Y-114370323D01*
X160386648Y-114413901D01*
X160507801Y-114498734D01*
X160507803Y-114498735D01*
X160507806Y-114498737D01*
X160601256Y-114542313D01*
X160710707Y-114593351D01*
X160710709Y-114593351D01*
X160710714Y-114593354D01*
X160926969Y-114651299D01*
X161105393Y-114666909D01*
X161149999Y-114670812D01*
X161150000Y-114670812D01*
X161150001Y-114670812D01*
X161187171Y-114667559D01*
X161373031Y-114651299D01*
X161589286Y-114593354D01*
X161792194Y-114498737D01*
X161975588Y-114370323D01*
X162133898Y-114212013D01*
X162262312Y-114028619D01*
X162336513Y-113869492D01*
X162382686Y-113817053D01*
X162448896Y-113797897D01*
X164754626Y-113797897D01*
X164821665Y-113817582D01*
X164842302Y-113834211D01*
X164921158Y-113913067D01*
X165049088Y-114040998D01*
X165049099Y-114041008D01*
X165070128Y-114062037D01*
X165090647Y-114072492D01*
X165107235Y-114082657D01*
X165125867Y-114096194D01*
X165147767Y-114103309D01*
X165165740Y-114110753D01*
X165186263Y-114121211D01*
X165209006Y-114124812D01*
X165227917Y-114129351D01*
X165249829Y-114136472D01*
X165282617Y-114136472D01*
X194045957Y-114136472D01*
X194112996Y-114156157D01*
X194114848Y-114157370D01*
X194144813Y-114177391D01*
X194200699Y-114214734D01*
X194200702Y-114214734D01*
X194200703Y-114214735D01*
X194225666Y-114219700D01*
X194274933Y-114229500D01*
X195825066Y-114229499D01*
X195899301Y-114214734D01*
X195983484Y-114158484D01*
X196039734Y-114074301D01*
X196054500Y-114000067D01*
X196054499Y-113449934D01*
X196039734Y-113375699D01*
X196021068Y-113347764D01*
X195983484Y-113291515D01*
X195933019Y-113257796D01*
X195899301Y-113235266D01*
X195899299Y-113235265D01*
X195899296Y-113235264D01*
X195825069Y-113220500D01*
X194274936Y-113220500D01*
X194200698Y-113235266D01*
X194114848Y-113292630D01*
X194048170Y-113313508D01*
X194045957Y-113313528D01*
X165536800Y-113313528D01*
X165469761Y-113293843D01*
X165449119Y-113277209D01*
X165244481Y-113072572D01*
X165221297Y-113049388D01*
X165221295Y-113049387D01*
X165200774Y-113038930D01*
X165184188Y-113028766D01*
X165165558Y-113015231D01*
X165143650Y-113008112D01*
X165125681Y-113000669D01*
X165105162Y-112990214D01*
X165105155Y-112990212D01*
X165082410Y-112986609D01*
X165063500Y-112982069D01*
X165041601Y-112974954D01*
X165041596Y-112974953D01*
X165041595Y-112974953D01*
X165041591Y-112974953D01*
X162448895Y-112974953D01*
X162381856Y-112955268D01*
X162336513Y-112903357D01*
X162335182Y-112900502D01*
X162262312Y-112744232D01*
X162164410Y-112604413D01*
X162133899Y-112560838D01*
X162131040Y-112557979D01*
X161975588Y-112402527D01*
X161975584Y-112402524D01*
X161975583Y-112402523D01*
X161792198Y-112274115D01*
X161792190Y-112274111D01*
X161589292Y-112179498D01*
X161589278Y-112179493D01*
X161373036Y-112121552D01*
X161373026Y-112121550D01*
X161150001Y-112102038D01*
X161149999Y-112102038D01*
X160926973Y-112121550D01*
X160926963Y-112121552D01*
X160710721Y-112179493D01*
X160710712Y-112179497D01*
X160507808Y-112274112D01*
X160507806Y-112274113D01*
X160324409Y-112402528D01*
X160166103Y-112560834D01*
X160037688Y-112744231D01*
X160037687Y-112744233D01*
X159943072Y-112947137D01*
X159943068Y-112947146D01*
X159885127Y-113163388D01*
X159885125Y-113163398D01*
X159865613Y-113386424D01*
X159865613Y-113386425D01*
X149918325Y-113386425D01*
X154731960Y-108572791D01*
X154793284Y-108539306D01*
X154819642Y-108536472D01*
X194045957Y-108536472D01*
X194112996Y-108556157D01*
X194114848Y-108557370D01*
X194144813Y-108577391D01*
X194200699Y-108614734D01*
X194200702Y-108614734D01*
X194200703Y-108614735D01*
X194225666Y-108619700D01*
X194274933Y-108629500D01*
X195825066Y-108629499D01*
X195899301Y-108614734D01*
X195983484Y-108558484D01*
X196039734Y-108474301D01*
X196054500Y-108400067D01*
X196054499Y-107849934D01*
X196039734Y-107775699D01*
X196015375Y-107739243D01*
X195983484Y-107691515D01*
X195933019Y-107657796D01*
X195899301Y-107635266D01*
X195899299Y-107635265D01*
X195899296Y-107635264D01*
X195825069Y-107620500D01*
X194274936Y-107620500D01*
X194200698Y-107635266D01*
X194114848Y-107692630D01*
X194048170Y-107713508D01*
X194045957Y-107713528D01*
X154532669Y-107713528D01*
X154510766Y-107720645D01*
X154491849Y-107725186D01*
X154469105Y-107728788D01*
X154448587Y-107739243D01*
X154430616Y-107746688D01*
X154408707Y-107753807D01*
X154408704Y-107753809D01*
X154390078Y-107767341D01*
X154373497Y-107777502D01*
X154352976Y-107787959D01*
X154352969Y-107787964D01*
X154312349Y-107828582D01*
X154312345Y-107828588D01*
X149205155Y-112935779D01*
X149143832Y-112969264D01*
X149117474Y-112972098D01*
X148522227Y-112972098D01*
X148455188Y-112952413D01*
X148409845Y-112900502D01*
X148357295Y-112787808D01*
X148335644Y-112741377D01*
X148239741Y-112604413D01*
X148207231Y-112557983D01*
X148207227Y-112557979D01*
X148048920Y-112399672D01*
X148048916Y-112399669D01*
X148048915Y-112399668D01*
X147865530Y-112271260D01*
X147865522Y-112271256D01*
X147662624Y-112176643D01*
X147662610Y-112176638D01*
X147446368Y-112118697D01*
X147446358Y-112118695D01*
X147223333Y-112099183D01*
X147223331Y-112099183D01*
X147000305Y-112118695D01*
X147000295Y-112118697D01*
X146784053Y-112176638D01*
X146784046Y-112176640D01*
X146784046Y-112176641D01*
X146777921Y-112179497D01*
X146581140Y-112271257D01*
X146581138Y-112271258D01*
X146397741Y-112399673D01*
X146239435Y-112557979D01*
X146111020Y-112741376D01*
X146111019Y-112741378D01*
X146016404Y-112944282D01*
X146016400Y-112944291D01*
X145958459Y-113160533D01*
X145958457Y-113160543D01*
X145938945Y-113383569D01*
X145938945Y-113383570D01*
X135924278Y-113383570D01*
X142335058Y-106972791D01*
X142396382Y-106939306D01*
X142422740Y-106936472D01*
X194045957Y-106936472D01*
X194112996Y-106956157D01*
X194114848Y-106957370D01*
X194144813Y-106977391D01*
X194200699Y-107014734D01*
X194200702Y-107014734D01*
X194200703Y-107014735D01*
X194225666Y-107019700D01*
X194274933Y-107029500D01*
X195825066Y-107029499D01*
X195899301Y-107014734D01*
X195983484Y-106958484D01*
X196039734Y-106874301D01*
X196054500Y-106800067D01*
X196054499Y-106249934D01*
X196039734Y-106175699D01*
X196015376Y-106139245D01*
X195983484Y-106091515D01*
X195933019Y-106057796D01*
X195899301Y-106035266D01*
X195899299Y-106035265D01*
X195899296Y-106035264D01*
X195825069Y-106020500D01*
X194274936Y-106020500D01*
X194200698Y-106035266D01*
X194114848Y-106092630D01*
X194048170Y-106113508D01*
X194045957Y-106113528D01*
X142266112Y-106113528D01*
X142135771Y-106113528D01*
X142116923Y-106119651D01*
X142113864Y-106120645D01*
X142094960Y-106125183D01*
X142072204Y-106128788D01*
X142072201Y-106128789D01*
X142051678Y-106139245D01*
X142033719Y-106146684D01*
X142011809Y-106153804D01*
X142011806Y-106153806D01*
X141993173Y-106167343D01*
X141976592Y-106177504D01*
X141956072Y-106187960D01*
X141956068Y-106187963D01*
X141915447Y-106228582D01*
X141915443Y-106228588D01*
X135161823Y-112982209D01*
X135100500Y-113015694D01*
X135074142Y-113018528D01*
X134478895Y-113018528D01*
X134411856Y-112998843D01*
X134366513Y-112946932D01*
X134292312Y-112787807D01*
X134163898Y-112604412D01*
X134005588Y-112446102D01*
X134005584Y-112446099D01*
X134005583Y-112446098D01*
X133822198Y-112317690D01*
X133822190Y-112317686D01*
X133619292Y-112223073D01*
X133619278Y-112223068D01*
X133403036Y-112165127D01*
X133403026Y-112165125D01*
X133180001Y-112145613D01*
X133179999Y-112145613D01*
X132956973Y-112165125D01*
X132956963Y-112165127D01*
X132740721Y-112223068D01*
X132740712Y-112223072D01*
X132537808Y-112317687D01*
X132537806Y-112317688D01*
X132354409Y-112446103D01*
X132196103Y-112604409D01*
X132067688Y-112787806D01*
X132067687Y-112787808D01*
X131973072Y-112990712D01*
X131973068Y-112990721D01*
X131915127Y-113206963D01*
X131915125Y-113206973D01*
X131895613Y-113429999D01*
X131895613Y-113430000D01*
X124081907Y-113430000D01*
X131844118Y-105667791D01*
X131905442Y-105634306D01*
X131931800Y-105631472D01*
X190645170Y-105631472D01*
X190667069Y-105624356D01*
X190685988Y-105619813D01*
X190708737Y-105616211D01*
X190729256Y-105605755D01*
X190747232Y-105598309D01*
X190769133Y-105591194D01*
X190787763Y-105577658D01*
X190804342Y-105567497D01*
X190824872Y-105557037D01*
X190917037Y-105464872D01*
X191009119Y-105372790D01*
X191070443Y-105339306D01*
X191096800Y-105336472D01*
X194045957Y-105336472D01*
X194112996Y-105356157D01*
X194114848Y-105357370D01*
X194137926Y-105372790D01*
X194200699Y-105414734D01*
X194200702Y-105414734D01*
X194200703Y-105414735D01*
X194225666Y-105419700D01*
X194274933Y-105429500D01*
X195825066Y-105429499D01*
X195899301Y-105414734D01*
X195983484Y-105358484D01*
X196039734Y-105274301D01*
X196054500Y-105200067D01*
X196054499Y-104649934D01*
X196039734Y-104575699D01*
X196015377Y-104539246D01*
X195983484Y-104491515D01*
X195933019Y-104457796D01*
X195899301Y-104435266D01*
X195899299Y-104435265D01*
X195899296Y-104435264D01*
X195825069Y-104420500D01*
X194274936Y-104420500D01*
X194200698Y-104435266D01*
X194114848Y-104492630D01*
X194048170Y-104513508D01*
X194045957Y-104513528D01*
X190940170Y-104513528D01*
X190809830Y-104513528D01*
X190788502Y-104520456D01*
X190787924Y-104520645D01*
X190769015Y-104525184D01*
X190746265Y-104528788D01*
X190746262Y-104528789D01*
X190725738Y-104539246D01*
X190707769Y-104546689D01*
X190685869Y-104553805D01*
X190685866Y-104553806D01*
X190667233Y-104567343D01*
X190650657Y-104577501D01*
X190630130Y-104587961D01*
X190630123Y-104587966D01*
X190570744Y-104647340D01*
X190570625Y-104647466D01*
X190445880Y-104772210D01*
X190384560Y-104805694D01*
X190358201Y-104808528D01*
X131644826Y-104808528D01*
X131622923Y-104815645D01*
X131604006Y-104820186D01*
X131581262Y-104823788D01*
X131560744Y-104834243D01*
X131542772Y-104841688D01*
X131520869Y-104848805D01*
X131520866Y-104848806D01*
X131502230Y-104862345D01*
X131485651Y-104872504D01*
X131465131Y-104882960D01*
X131465130Y-104882960D01*
X131453537Y-104894552D01*
X131441946Y-104906144D01*
X131441943Y-104906147D01*
X123365882Y-112982209D01*
X123304559Y-113015694D01*
X123278201Y-113018528D01*
X120788895Y-113018528D01*
X120721856Y-112998843D01*
X120676513Y-112946932D01*
X120602312Y-112787807D01*
X120473898Y-112604412D01*
X120315588Y-112446102D01*
X120315584Y-112446099D01*
X120315583Y-112446098D01*
X120132198Y-112317690D01*
X120132190Y-112317686D01*
X119929292Y-112223073D01*
X119929278Y-112223068D01*
X119713036Y-112165127D01*
X119713026Y-112165125D01*
X119490001Y-112145613D01*
X119489999Y-112145613D01*
X119266973Y-112165125D01*
X119266963Y-112165127D01*
X119050721Y-112223068D01*
X119050712Y-112223072D01*
X118847808Y-112317687D01*
X118847806Y-112317688D01*
X118664409Y-112446103D01*
X118506103Y-112604409D01*
X118377688Y-112787806D01*
X118377687Y-112787808D01*
X118283072Y-112990712D01*
X118283068Y-112990721D01*
X118225127Y-113206963D01*
X118225125Y-113206973D01*
X118205613Y-113429999D01*
X118205613Y-113430000D01*
X101240000Y-113430000D01*
X101240000Y-99552500D01*
X118205613Y-99552500D01*
X118225125Y-99775526D01*
X118225127Y-99775536D01*
X118283068Y-99991778D01*
X118283073Y-99991792D01*
X118377686Y-100194690D01*
X118377690Y-100194698D01*
X118457332Y-100308438D01*
X118506102Y-100378088D01*
X118664412Y-100536398D01*
X118748340Y-100595165D01*
X118847801Y-100664809D01*
X118847803Y-100664810D01*
X118847806Y-100664812D01*
X118926529Y-100701521D01*
X119050707Y-100759426D01*
X119050709Y-100759426D01*
X119050714Y-100759429D01*
X119266969Y-100817374D01*
X119445393Y-100832984D01*
X119489999Y-100836887D01*
X119490000Y-100836887D01*
X119490001Y-100836887D01*
X119527171Y-100833634D01*
X119713031Y-100817374D01*
X119929286Y-100759429D01*
X120132194Y-100664812D01*
X120315588Y-100536398D01*
X120473898Y-100378088D01*
X120602312Y-100194694D01*
X120676513Y-100035567D01*
X120722686Y-99983128D01*
X120788896Y-99963972D01*
X121671111Y-99963972D01*
X121693010Y-99956856D01*
X121711929Y-99952313D01*
X121734678Y-99948711D01*
X121755197Y-99938255D01*
X121773173Y-99930809D01*
X121795074Y-99923694D01*
X121813704Y-99910158D01*
X121830283Y-99899997D01*
X121850813Y-99889537D01*
X121942978Y-99797372D01*
X121942977Y-99797372D01*
X122001546Y-99738803D01*
X122001545Y-99738803D01*
X122187848Y-99552500D01*
X131895613Y-99552500D01*
X131915125Y-99775526D01*
X131915127Y-99775536D01*
X131973068Y-99991778D01*
X131973073Y-99991792D01*
X132067686Y-100194690D01*
X132067690Y-100194698D01*
X132147332Y-100308438D01*
X132196102Y-100378088D01*
X132354412Y-100536398D01*
X132438340Y-100595165D01*
X132537801Y-100664809D01*
X132537803Y-100664810D01*
X132537806Y-100664812D01*
X132616529Y-100701521D01*
X132740707Y-100759426D01*
X132740709Y-100759426D01*
X132740714Y-100759429D01*
X132956969Y-100817374D01*
X133135393Y-100832984D01*
X133179999Y-100836887D01*
X133180000Y-100836887D01*
X133180001Y-100836887D01*
X133217171Y-100833634D01*
X133403031Y-100817374D01*
X133619286Y-100759429D01*
X133822194Y-100664812D01*
X134005588Y-100536398D01*
X134163898Y-100378088D01*
X134292312Y-100194694D01*
X134366513Y-100035567D01*
X134412686Y-99983128D01*
X134478896Y-99963972D01*
X135361111Y-99963972D01*
X135383010Y-99956856D01*
X135401929Y-99952313D01*
X135424678Y-99948711D01*
X135445197Y-99938255D01*
X135463173Y-99930809D01*
X135485074Y-99923694D01*
X135503704Y-99910158D01*
X135520283Y-99899997D01*
X135540813Y-99889537D01*
X135632978Y-99797372D01*
X135632977Y-99797372D01*
X135691546Y-99738803D01*
X135691545Y-99738803D01*
X135947492Y-99482856D01*
X145938945Y-99482856D01*
X145958457Y-99705882D01*
X145958459Y-99705892D01*
X146016400Y-99922134D01*
X146016405Y-99922148D01*
X146111018Y-100125046D01*
X146111022Y-100125054D01*
X146159785Y-100194694D01*
X146239434Y-100308444D01*
X146397744Y-100466754D01*
X146475517Y-100521211D01*
X146581133Y-100595165D01*
X146581135Y-100595166D01*
X146581138Y-100595168D01*
X146654764Y-100629500D01*
X146784039Y-100689782D01*
X146784041Y-100689782D01*
X146784046Y-100689785D01*
X147000301Y-100747730D01*
X147178725Y-100763340D01*
X147223331Y-100767243D01*
X147223332Y-100767243D01*
X147223333Y-100767243D01*
X147260503Y-100763990D01*
X147446363Y-100747730D01*
X147662618Y-100689785D01*
X147865526Y-100595168D01*
X148048920Y-100466754D01*
X148207230Y-100308444D01*
X148335644Y-100125050D01*
X148409845Y-99965923D01*
X148456018Y-99913484D01*
X148522228Y-99894328D01*
X149404443Y-99894328D01*
X149426342Y-99887212D01*
X149445261Y-99882669D01*
X149468010Y-99879067D01*
X149488529Y-99868611D01*
X149506505Y-99861165D01*
X149528406Y-99854050D01*
X149547036Y-99840514D01*
X149563615Y-99830353D01*
X149584145Y-99819893D01*
X149676310Y-99727728D01*
X149916898Y-99487140D01*
X159865613Y-99487140D01*
X159885125Y-99710166D01*
X159885127Y-99710176D01*
X159943068Y-99926418D01*
X159943073Y-99926432D01*
X160037686Y-100129330D01*
X160037690Y-100129338D01*
X160083456Y-100194698D01*
X160166102Y-100312728D01*
X160324412Y-100471038D01*
X160401208Y-100524811D01*
X160507801Y-100599449D01*
X160507803Y-100599450D01*
X160507806Y-100599452D01*
X160666932Y-100673653D01*
X160719372Y-100719825D01*
X160738528Y-100786035D01*
X160738528Y-102605166D01*
X160738529Y-102605176D01*
X160745644Y-102627075D01*
X160750184Y-102645985D01*
X160753787Y-102668730D01*
X160753789Y-102668737D01*
X160764243Y-102689254D01*
X160771687Y-102707225D01*
X160778806Y-102729133D01*
X160792341Y-102747763D01*
X160802505Y-102764349D01*
X160812962Y-102784870D01*
X160812963Y-102784872D01*
X160836147Y-102808056D01*
X162174077Y-104145988D01*
X162174099Y-104146008D01*
X162195128Y-104167037D01*
X162215644Y-104177490D01*
X162232229Y-104187652D01*
X162250867Y-104201194D01*
X162272770Y-104208310D01*
X162290735Y-104215751D01*
X162311263Y-104226211D01*
X162317677Y-104227226D01*
X162334009Y-104229814D01*
X162352931Y-104234356D01*
X162363427Y-104237766D01*
X162374829Y-104241471D01*
X162405060Y-104241471D01*
X162405084Y-104241472D01*
X162407617Y-104241472D01*
X190460170Y-104241472D01*
X190482069Y-104234356D01*
X190500988Y-104229813D01*
X190523737Y-104226211D01*
X190544256Y-104215755D01*
X190562232Y-104208309D01*
X190584133Y-104201194D01*
X190602765Y-104187657D01*
X190619342Y-104177497D01*
X190639872Y-104167037D01*
X190732037Y-104074872D01*
X191034118Y-103772791D01*
X191095441Y-103739306D01*
X191121799Y-103736472D01*
X194045957Y-103736472D01*
X194112996Y-103756157D01*
X194114848Y-103757370D01*
X194144813Y-103777391D01*
X194200699Y-103814734D01*
X194200702Y-103814734D01*
X194200703Y-103814735D01*
X194225666Y-103819700D01*
X194274933Y-103829500D01*
X195825066Y-103829499D01*
X195899301Y-103814734D01*
X195983484Y-103758484D01*
X196039734Y-103674301D01*
X196054500Y-103600067D01*
X196054499Y-103049934D01*
X196039734Y-102975699D01*
X196015377Y-102939246D01*
X195983484Y-102891515D01*
X195933019Y-102857796D01*
X195899301Y-102835266D01*
X195899299Y-102835265D01*
X195899296Y-102835264D01*
X195825069Y-102820500D01*
X194274936Y-102820500D01*
X194200698Y-102835266D01*
X194114848Y-102892630D01*
X194048170Y-102913508D01*
X194045957Y-102913528D01*
X190965171Y-102913528D01*
X190834830Y-102913528D01*
X190813502Y-102920456D01*
X190812924Y-102920645D01*
X190794015Y-102925184D01*
X190771265Y-102928788D01*
X190771262Y-102928789D01*
X190750738Y-102939246D01*
X190732769Y-102946689D01*
X190710869Y-102953805D01*
X190710866Y-102953806D01*
X190692233Y-102967343D01*
X190675657Y-102977501D01*
X190655129Y-102987962D01*
X190655126Y-102987964D01*
X190614506Y-103028582D01*
X190614502Y-103028588D01*
X190260882Y-103382209D01*
X190199559Y-103415694D01*
X190173201Y-103418528D01*
X162661800Y-103418528D01*
X162594761Y-103398843D01*
X162574119Y-103382209D01*
X161597791Y-102405880D01*
X161564306Y-102344557D01*
X161561472Y-102318199D01*
X161561472Y-100786035D01*
X161581157Y-100718996D01*
X161633067Y-100673653D01*
X161792194Y-100599452D01*
X161975588Y-100471038D01*
X162133898Y-100312728D01*
X162262312Y-100129334D01*
X162356929Y-99926426D01*
X162414874Y-99710171D01*
X162434387Y-99487140D01*
X162414874Y-99264109D01*
X162362711Y-99069432D01*
X162356931Y-99047861D01*
X162356930Y-99047860D01*
X162356929Y-99047854D01*
X162262312Y-98844947D01*
X162133898Y-98661552D01*
X161975588Y-98503242D01*
X161975584Y-98503239D01*
X161975583Y-98503238D01*
X161792198Y-98374830D01*
X161792190Y-98374826D01*
X161589292Y-98280213D01*
X161589278Y-98280208D01*
X161373036Y-98222267D01*
X161373026Y-98222265D01*
X161150001Y-98202753D01*
X161149999Y-98202753D01*
X160926973Y-98222265D01*
X160926963Y-98222267D01*
X160710721Y-98280208D01*
X160710714Y-98280210D01*
X160710714Y-98280211D01*
X160694810Y-98287627D01*
X160507808Y-98374827D01*
X160507806Y-98374828D01*
X160324409Y-98503243D01*
X160166103Y-98661549D01*
X160037688Y-98844946D01*
X160037687Y-98844948D01*
X159943072Y-99047852D01*
X159943068Y-99047861D01*
X159885127Y-99264103D01*
X159885125Y-99264113D01*
X159865613Y-99487139D01*
X159865613Y-99487140D01*
X149916898Y-99487140D01*
X154316246Y-95087791D01*
X154377570Y-95054306D01*
X154403928Y-95051472D01*
X165708201Y-95051472D01*
X165775240Y-95071157D01*
X165795881Y-95087790D01*
X172652963Y-101944872D01*
X172745128Y-102037037D01*
X172765651Y-102047494D01*
X172782233Y-102057656D01*
X172800866Y-102071194D01*
X172809081Y-102073862D01*
X172822770Y-102078310D01*
X172840733Y-102085750D01*
X172861263Y-102096211D01*
X172884010Y-102099813D01*
X172902923Y-102104354D01*
X172924830Y-102111472D01*
X172957617Y-102111472D01*
X190697379Y-102111472D01*
X190736139Y-102120774D01*
X190736978Y-102118194D01*
X190746257Y-102121208D01*
X190746263Y-102121211D01*
X190769009Y-102124812D01*
X190787922Y-102129353D01*
X190809829Y-102136472D01*
X190842617Y-102136472D01*
X194045957Y-102136472D01*
X194112996Y-102156157D01*
X194114848Y-102157370D01*
X194144813Y-102177391D01*
X194200699Y-102214734D01*
X194200702Y-102214734D01*
X194200703Y-102214735D01*
X194225666Y-102219700D01*
X194274933Y-102229500D01*
X195825066Y-102229499D01*
X195899301Y-102214734D01*
X195983484Y-102158484D01*
X196039734Y-102074301D01*
X196054500Y-102000067D01*
X196054499Y-101449934D01*
X196039734Y-101375699D01*
X196021068Y-101347764D01*
X195983484Y-101291515D01*
X195933019Y-101257796D01*
X195899301Y-101235266D01*
X195899299Y-101235265D01*
X195899296Y-101235264D01*
X195825069Y-101220500D01*
X194274936Y-101220500D01*
X194200698Y-101235266D01*
X194114848Y-101292630D01*
X194048170Y-101313508D01*
X194045957Y-101313528D01*
X191027621Y-101313528D01*
X190988856Y-101304224D01*
X190988018Y-101306805D01*
X190978737Y-101303789D01*
X190955986Y-101300185D01*
X190937075Y-101295644D01*
X190915176Y-101288529D01*
X190915171Y-101288528D01*
X190915170Y-101288528D01*
X190915166Y-101288528D01*
X173211799Y-101288528D01*
X173144760Y-101268843D01*
X173124118Y-101252209D01*
X166215497Y-94343588D01*
X166215493Y-94343582D01*
X166174872Y-94302963D01*
X166174869Y-94302960D01*
X166154348Y-94292504D01*
X166137763Y-94282341D01*
X166135358Y-94280594D01*
X166119133Y-94268806D01*
X166109453Y-94265660D01*
X166097225Y-94261687D01*
X166079256Y-94254244D01*
X166058737Y-94243789D01*
X166058730Y-94243787D01*
X166035985Y-94240184D01*
X166017075Y-94235644D01*
X165995176Y-94228529D01*
X165995171Y-94228528D01*
X165995170Y-94228528D01*
X165962383Y-94228528D01*
X154247300Y-94228528D01*
X154116959Y-94228528D01*
X154098111Y-94234651D01*
X154095052Y-94235645D01*
X154076148Y-94240183D01*
X154053392Y-94243788D01*
X154053389Y-94243789D01*
X154032866Y-94254245D01*
X154014907Y-94261684D01*
X153992997Y-94268804D01*
X153992996Y-94268805D01*
X153974364Y-94282342D01*
X153957778Y-94292506D01*
X153937258Y-94302962D01*
X153937256Y-94302963D01*
X149205155Y-99035065D01*
X149143832Y-99068550D01*
X149117474Y-99071384D01*
X148522227Y-99071384D01*
X148455188Y-99051699D01*
X148409845Y-98999788D01*
X148390065Y-98957370D01*
X148335644Y-98840663D01*
X148255993Y-98726909D01*
X148207231Y-98657269D01*
X148207227Y-98657265D01*
X148048920Y-98498958D01*
X148048916Y-98498955D01*
X148048915Y-98498954D01*
X147865530Y-98370546D01*
X147865522Y-98370542D01*
X147662624Y-98275929D01*
X147662610Y-98275924D01*
X147446368Y-98217983D01*
X147446358Y-98217981D01*
X147223333Y-98198469D01*
X147223331Y-98198469D01*
X147000305Y-98217981D01*
X147000295Y-98217983D01*
X146784053Y-98275924D01*
X146784044Y-98275928D01*
X146581140Y-98370543D01*
X146581138Y-98370544D01*
X146397741Y-98498959D01*
X146239435Y-98657265D01*
X146111020Y-98840662D01*
X146111019Y-98840664D01*
X146016404Y-99043568D01*
X146016400Y-99043577D01*
X145958459Y-99259819D01*
X145958457Y-99259829D01*
X145938945Y-99482855D01*
X145938945Y-99482856D01*
X135947492Y-99482856D01*
X141662558Y-93767791D01*
X141723882Y-93734306D01*
X141750240Y-93731472D01*
X166788201Y-93731472D01*
X166855240Y-93751157D01*
X166875882Y-93767791D01*
X173549077Y-100440988D01*
X173549099Y-100441008D01*
X173570128Y-100462037D01*
X173590647Y-100472492D01*
X173607235Y-100482657D01*
X173625867Y-100496194D01*
X173647767Y-100503309D01*
X173665740Y-100510753D01*
X173686263Y-100521211D01*
X173709006Y-100524812D01*
X173727917Y-100529351D01*
X173749829Y-100536472D01*
X173782617Y-100536472D01*
X194045957Y-100536472D01*
X194112996Y-100556157D01*
X194114848Y-100557370D01*
X194144813Y-100577391D01*
X194200699Y-100614734D01*
X194200702Y-100614734D01*
X194200703Y-100614735D01*
X194225666Y-100619700D01*
X194274933Y-100629500D01*
X195825066Y-100629499D01*
X195899301Y-100614734D01*
X195983484Y-100558484D01*
X196039734Y-100474301D01*
X196054500Y-100400067D01*
X196054499Y-99849934D01*
X196039734Y-99775699D01*
X196015068Y-99738784D01*
X195983484Y-99691515D01*
X195933019Y-99657796D01*
X195899301Y-99635266D01*
X195899299Y-99635265D01*
X195899296Y-99635264D01*
X195825069Y-99620500D01*
X194274936Y-99620500D01*
X194200698Y-99635266D01*
X194114848Y-99692630D01*
X194048170Y-99713508D01*
X194045957Y-99713528D01*
X174036800Y-99713528D01*
X173969761Y-99693843D01*
X173949119Y-99677209D01*
X167295497Y-93023588D01*
X167295493Y-93023582D01*
X167254872Y-92982963D01*
X167254869Y-92982960D01*
X167234348Y-92972504D01*
X167217763Y-92962341D01*
X167215358Y-92960594D01*
X167199133Y-92948806D01*
X167189453Y-92945660D01*
X167177225Y-92941687D01*
X167159256Y-92934244D01*
X167138737Y-92923789D01*
X167138730Y-92923787D01*
X167115985Y-92920184D01*
X167097075Y-92915644D01*
X167075176Y-92908529D01*
X167075171Y-92908528D01*
X167075170Y-92908528D01*
X167042383Y-92908528D01*
X141593611Y-92908528D01*
X141463270Y-92908528D01*
X141463267Y-92908528D01*
X141441364Y-92915645D01*
X141422447Y-92920186D01*
X141399703Y-92923788D01*
X141379185Y-92934243D01*
X141361214Y-92941688D01*
X141339305Y-92948807D01*
X141339302Y-92948809D01*
X141320676Y-92962341D01*
X141304095Y-92972502D01*
X141283574Y-92982959D01*
X141283567Y-92982964D01*
X141242947Y-93023582D01*
X141242943Y-93023588D01*
X135161823Y-99104709D01*
X135100500Y-99138194D01*
X135074142Y-99141028D01*
X134478895Y-99141028D01*
X134411856Y-99121343D01*
X134366513Y-99069432D01*
X134354453Y-99043570D01*
X134292312Y-98910307D01*
X134215124Y-98800071D01*
X134163899Y-98726913D01*
X134094251Y-98657265D01*
X134005588Y-98568602D01*
X134005584Y-98568599D01*
X134005583Y-98568598D01*
X133822198Y-98440190D01*
X133822190Y-98440186D01*
X133619292Y-98345573D01*
X133619278Y-98345568D01*
X133403036Y-98287627D01*
X133403026Y-98287625D01*
X133180001Y-98268113D01*
X133179999Y-98268113D01*
X132956973Y-98287625D01*
X132956963Y-98287627D01*
X132740721Y-98345568D01*
X132740712Y-98345572D01*
X132537808Y-98440187D01*
X132537806Y-98440188D01*
X132354409Y-98568603D01*
X132196103Y-98726909D01*
X132067688Y-98910306D01*
X132067687Y-98910308D01*
X131973072Y-99113212D01*
X131973068Y-99113221D01*
X131915127Y-99329463D01*
X131915125Y-99329473D01*
X131895613Y-99552499D01*
X131895613Y-99552500D01*
X122187848Y-99552500D01*
X129552559Y-92187791D01*
X129613883Y-92154306D01*
X129640241Y-92151472D01*
X167938201Y-92151472D01*
X168005240Y-92171157D01*
X168025882Y-92187790D01*
X174607963Y-98769872D01*
X174700128Y-98862037D01*
X174720651Y-98872494D01*
X174737233Y-98882656D01*
X174755867Y-98896194D01*
X174777767Y-98903309D01*
X174795740Y-98910753D01*
X174816263Y-98921211D01*
X174839006Y-98924812D01*
X174857917Y-98929351D01*
X174879829Y-98936472D01*
X174912617Y-98936472D01*
X194045957Y-98936472D01*
X194112996Y-98956157D01*
X194114848Y-98957370D01*
X194144813Y-98977391D01*
X194200699Y-99014734D01*
X194200702Y-99014734D01*
X194200703Y-99014735D01*
X194225666Y-99019700D01*
X194274933Y-99029500D01*
X195825066Y-99029499D01*
X195899301Y-99014734D01*
X195983484Y-98958484D01*
X196039734Y-98874301D01*
X196054500Y-98800067D01*
X196054499Y-98249934D01*
X196039734Y-98175699D01*
X196021068Y-98147764D01*
X195983484Y-98091515D01*
X195933019Y-98057796D01*
X195899301Y-98035266D01*
X195899299Y-98035265D01*
X195899296Y-98035264D01*
X195825069Y-98020500D01*
X194274936Y-98020500D01*
X194200698Y-98035266D01*
X194114848Y-98092630D01*
X194048170Y-98113508D01*
X194045957Y-98113528D01*
X175166799Y-98113528D01*
X175099760Y-98093843D01*
X175079118Y-98077209D01*
X168404872Y-91402963D01*
X168404870Y-91402962D01*
X168384349Y-91392505D01*
X168367763Y-91382341D01*
X168349133Y-91368806D01*
X168327225Y-91361687D01*
X168309256Y-91354244D01*
X168288737Y-91343789D01*
X168288730Y-91343787D01*
X168265985Y-91340184D01*
X168247075Y-91335644D01*
X168225176Y-91328529D01*
X168225171Y-91328528D01*
X168225170Y-91328528D01*
X168192383Y-91328528D01*
X129386058Y-91328528D01*
X129383525Y-91328528D01*
X129383501Y-91328529D01*
X129353270Y-91328529D01*
X129353267Y-91328529D01*
X129353265Y-91328530D01*
X129331365Y-91335645D01*
X129312453Y-91340185D01*
X129289705Y-91343788D01*
X129289701Y-91343789D01*
X129269174Y-91354247D01*
X129251215Y-91361686D01*
X129229308Y-91368805D01*
X129229305Y-91368807D01*
X129210672Y-91382344D01*
X129194090Y-91392506D01*
X129173570Y-91402961D01*
X129161978Y-91414553D01*
X129150387Y-91426144D01*
X129150384Y-91426147D01*
X121471823Y-99104709D01*
X121410500Y-99138194D01*
X121384142Y-99141028D01*
X120788895Y-99141028D01*
X120721856Y-99121343D01*
X120676513Y-99069432D01*
X120664453Y-99043570D01*
X120602312Y-98910307D01*
X120525124Y-98800071D01*
X120473899Y-98726913D01*
X120404251Y-98657265D01*
X120315588Y-98568602D01*
X120315584Y-98568599D01*
X120315583Y-98568598D01*
X120132198Y-98440190D01*
X120132190Y-98440186D01*
X119929292Y-98345573D01*
X119929278Y-98345568D01*
X119713036Y-98287627D01*
X119713026Y-98287625D01*
X119490001Y-98268113D01*
X119489999Y-98268113D01*
X119266973Y-98287625D01*
X119266963Y-98287627D01*
X119050721Y-98345568D01*
X119050712Y-98345572D01*
X118847808Y-98440187D01*
X118847806Y-98440188D01*
X118664409Y-98568603D01*
X118506103Y-98726909D01*
X118377688Y-98910306D01*
X118377687Y-98910308D01*
X118283072Y-99113212D01*
X118283068Y-99113221D01*
X118225127Y-99329463D01*
X118225125Y-99329473D01*
X118205613Y-99552499D01*
X118205613Y-99552500D01*
X101240000Y-99552500D01*
X101240000Y-86180000D01*
X118095613Y-86180000D01*
X118115125Y-86403026D01*
X118115127Y-86403036D01*
X118173068Y-86619278D01*
X118173073Y-86619292D01*
X118267686Y-86822190D01*
X118267690Y-86822198D01*
X118335078Y-86918437D01*
X118396102Y-87005588D01*
X118554412Y-87163898D01*
X118613346Y-87205164D01*
X118737801Y-87292309D01*
X118737803Y-87292310D01*
X118737806Y-87292312D01*
X118859879Y-87349235D01*
X118940707Y-87386926D01*
X118940709Y-87386926D01*
X118940714Y-87386929D01*
X119156969Y-87444874D01*
X119335393Y-87460484D01*
X119379999Y-87464387D01*
X119380000Y-87464387D01*
X119380001Y-87464387D01*
X119417171Y-87461134D01*
X119603031Y-87444874D01*
X119819286Y-87386929D01*
X120022194Y-87292312D01*
X120205588Y-87163898D01*
X120363898Y-87005588D01*
X120492312Y-86822194D01*
X120566513Y-86663067D01*
X120612686Y-86610628D01*
X120678896Y-86591472D01*
X121561111Y-86591472D01*
X121583010Y-86584356D01*
X121601929Y-86579813D01*
X121624678Y-86576211D01*
X121645197Y-86565755D01*
X121663173Y-86558309D01*
X121685074Y-86551194D01*
X121703704Y-86537658D01*
X121720283Y-86527497D01*
X121740813Y-86517037D01*
X121832978Y-86424872D01*
X121832978Y-86424871D01*
X122072136Y-86185713D01*
X132022281Y-86185713D01*
X132041793Y-86408739D01*
X132041795Y-86408749D01*
X132099736Y-86624991D01*
X132099741Y-86625005D01*
X132194354Y-86827903D01*
X132194358Y-86827911D01*
X132296977Y-86974465D01*
X132322770Y-87011301D01*
X132481080Y-87169611D01*
X132531855Y-87205164D01*
X132664469Y-87298022D01*
X132664471Y-87298023D01*
X132664474Y-87298025D01*
X132786547Y-87354948D01*
X132867375Y-87392639D01*
X132867377Y-87392639D01*
X132867382Y-87392642D01*
X133083637Y-87450587D01*
X133262061Y-87466197D01*
X133306667Y-87470100D01*
X133306668Y-87470100D01*
X133306669Y-87470100D01*
X133343839Y-87466847D01*
X133529699Y-87450587D01*
X133745954Y-87392642D01*
X133948862Y-87298025D01*
X134132256Y-87169611D01*
X134290566Y-87011301D01*
X134418980Y-86827907D01*
X134493181Y-86668780D01*
X134539354Y-86616341D01*
X134605564Y-86597185D01*
X135487779Y-86597185D01*
X135509678Y-86590069D01*
X135528597Y-86585526D01*
X135551346Y-86581924D01*
X135571865Y-86571468D01*
X135589841Y-86564022D01*
X135611742Y-86556907D01*
X135630372Y-86543371D01*
X135646951Y-86533210D01*
X135667481Y-86522750D01*
X135759646Y-86430585D01*
X135759646Y-86430584D01*
X136097375Y-86092855D01*
X146065613Y-86092855D01*
X146085125Y-86315881D01*
X146085127Y-86315891D01*
X146143068Y-86532133D01*
X146143073Y-86532147D01*
X146237686Y-86735045D01*
X146237690Y-86735053D01*
X146340309Y-86881607D01*
X146366102Y-86918443D01*
X146524412Y-87076753D01*
X146616109Y-87140960D01*
X146707801Y-87205164D01*
X146707803Y-87205165D01*
X146707806Y-87205167D01*
X146829879Y-87262090D01*
X146910707Y-87299781D01*
X146910709Y-87299781D01*
X146910714Y-87299784D01*
X147126969Y-87357729D01*
X147305393Y-87373339D01*
X147349999Y-87377242D01*
X147350000Y-87377242D01*
X147350001Y-87377242D01*
X147387171Y-87373989D01*
X147573031Y-87357729D01*
X147789286Y-87299784D01*
X147992194Y-87205167D01*
X148175588Y-87076753D01*
X148333898Y-86918443D01*
X148462312Y-86735049D01*
X148529263Y-86591471D01*
X148536514Y-86575922D01*
X148582686Y-86523483D01*
X148648896Y-86504327D01*
X151922315Y-86504327D01*
X151944214Y-86497211D01*
X151963133Y-86492668D01*
X151985882Y-86489066D01*
X152006401Y-86478610D01*
X152024377Y-86471164D01*
X152046278Y-86464049D01*
X152064908Y-86450513D01*
X152081487Y-86440352D01*
X152102017Y-86429892D01*
X152194182Y-86337727D01*
X152439054Y-86092855D01*
X159755613Y-86092855D01*
X159775125Y-86315881D01*
X159775127Y-86315891D01*
X159833068Y-86532133D01*
X159833073Y-86532147D01*
X159927686Y-86735045D01*
X159927690Y-86735053D01*
X160030309Y-86881607D01*
X160056102Y-86918443D01*
X160214412Y-87076753D01*
X160306109Y-87140960D01*
X160397801Y-87205164D01*
X160397803Y-87205165D01*
X160397806Y-87205167D01*
X160519879Y-87262090D01*
X160600707Y-87299781D01*
X160600709Y-87299781D01*
X160600714Y-87299784D01*
X160816969Y-87357729D01*
X160995393Y-87373339D01*
X161039999Y-87377242D01*
X161040000Y-87377242D01*
X161040001Y-87377242D01*
X161077171Y-87373989D01*
X161263031Y-87357729D01*
X161479286Y-87299784D01*
X161682194Y-87205167D01*
X161865588Y-87076753D01*
X162023898Y-86918443D01*
X162152312Y-86735049D01*
X162219263Y-86591471D01*
X162226514Y-86575922D01*
X162272686Y-86523483D01*
X162338896Y-86504327D01*
X165461056Y-86504327D01*
X165528095Y-86524012D01*
X165548737Y-86540646D01*
X176249077Y-97240988D01*
X176249099Y-97241008D01*
X176270128Y-97262037D01*
X176290647Y-97272492D01*
X176307235Y-97282657D01*
X176325867Y-97296194D01*
X176347767Y-97303309D01*
X176365740Y-97310753D01*
X176386263Y-97321211D01*
X176409006Y-97324812D01*
X176427917Y-97329351D01*
X176449829Y-97336472D01*
X176482617Y-97336472D01*
X194045957Y-97336472D01*
X194112996Y-97356157D01*
X194114848Y-97357370D01*
X194144813Y-97377391D01*
X194200699Y-97414734D01*
X194200702Y-97414734D01*
X194200703Y-97414735D01*
X194225666Y-97419700D01*
X194274933Y-97429500D01*
X195825066Y-97429499D01*
X195899301Y-97414734D01*
X195983484Y-97358484D01*
X196039734Y-97274301D01*
X196054500Y-97200067D01*
X196054499Y-96649934D01*
X196039734Y-96575699D01*
X196021068Y-96547764D01*
X195983484Y-96491515D01*
X195933019Y-96457796D01*
X195899301Y-96435266D01*
X195899299Y-96435265D01*
X195899296Y-96435264D01*
X195825069Y-96420500D01*
X194274936Y-96420500D01*
X194200698Y-96435266D01*
X194114848Y-96492630D01*
X194048170Y-96513508D01*
X194045957Y-96513528D01*
X176736800Y-96513528D01*
X176669761Y-96493843D01*
X176649119Y-96477209D01*
X165950911Y-85779002D01*
X165927727Y-85755818D01*
X165927725Y-85755817D01*
X165907204Y-85745360D01*
X165890618Y-85735196D01*
X165871988Y-85721661D01*
X165850080Y-85714542D01*
X165832111Y-85707099D01*
X165811592Y-85696644D01*
X165811585Y-85696642D01*
X165788840Y-85693039D01*
X165769930Y-85688499D01*
X165748031Y-85681384D01*
X165748026Y-85681383D01*
X165748025Y-85681383D01*
X165748021Y-85681383D01*
X162338895Y-85681383D01*
X162271856Y-85661698D01*
X162226513Y-85609787D01*
X162152312Y-85450662D01*
X162023898Y-85267267D01*
X161865588Y-85108957D01*
X161865584Y-85108954D01*
X161865583Y-85108953D01*
X161682198Y-84980545D01*
X161682190Y-84980541D01*
X161479292Y-84885928D01*
X161479278Y-84885923D01*
X161263036Y-84827982D01*
X161263026Y-84827980D01*
X161040001Y-84808468D01*
X161039999Y-84808468D01*
X160816973Y-84827980D01*
X160816963Y-84827982D01*
X160600721Y-84885923D01*
X160600712Y-84885927D01*
X160397808Y-84980542D01*
X160397806Y-84980543D01*
X160214409Y-85108958D01*
X160056103Y-85267264D01*
X159927688Y-85450661D01*
X159927687Y-85450663D01*
X159833072Y-85653567D01*
X159833068Y-85653576D01*
X159775127Y-85869818D01*
X159775125Y-85869828D01*
X159755613Y-86092854D01*
X159755613Y-86092855D01*
X152439054Y-86092855D01*
X156794117Y-81737791D01*
X156855441Y-81704306D01*
X156881799Y-81701472D01*
X164938201Y-81701472D01*
X165005240Y-81721157D01*
X165025882Y-81737791D01*
X178929077Y-95640988D01*
X178929099Y-95641008D01*
X178950128Y-95662037D01*
X178970647Y-95672492D01*
X178987235Y-95682657D01*
X179005867Y-95696194D01*
X179027767Y-95703309D01*
X179045740Y-95710753D01*
X179066263Y-95721211D01*
X179089006Y-95724812D01*
X179107917Y-95729351D01*
X179129829Y-95736472D01*
X179162617Y-95736472D01*
X194045957Y-95736472D01*
X194112996Y-95756157D01*
X194114848Y-95757370D01*
X194144813Y-95777391D01*
X194200699Y-95814734D01*
X194200702Y-95814734D01*
X194200703Y-95814735D01*
X194225666Y-95819700D01*
X194274933Y-95829500D01*
X195825066Y-95829499D01*
X195899301Y-95814734D01*
X195983484Y-95758484D01*
X196039734Y-95674301D01*
X196054500Y-95600067D01*
X196054499Y-95049934D01*
X196039734Y-94975699D01*
X196021068Y-94947764D01*
X195983484Y-94891515D01*
X195933019Y-94857796D01*
X195899301Y-94835266D01*
X195899299Y-94835265D01*
X195899296Y-94835264D01*
X195825069Y-94820500D01*
X194274936Y-94820500D01*
X194200698Y-94835266D01*
X194114848Y-94892630D01*
X194048170Y-94913508D01*
X194045957Y-94913528D01*
X179416800Y-94913528D01*
X179349761Y-94893843D01*
X179329119Y-94877209D01*
X165428056Y-80976147D01*
X165404872Y-80952963D01*
X165404870Y-80952962D01*
X165384349Y-80942505D01*
X165367763Y-80932341D01*
X165349133Y-80918806D01*
X165327225Y-80911687D01*
X165309256Y-80904244D01*
X165288737Y-80893789D01*
X165288730Y-80893787D01*
X165265985Y-80890184D01*
X165247075Y-80885644D01*
X165225176Y-80878529D01*
X165225171Y-80878528D01*
X165225170Y-80878528D01*
X165192383Y-80878528D01*
X156725171Y-80878528D01*
X156594830Y-80878528D01*
X156575982Y-80884651D01*
X156572923Y-80885645D01*
X156554019Y-80890183D01*
X156531263Y-80893788D01*
X156531260Y-80893789D01*
X156510737Y-80904245D01*
X156492778Y-80911684D01*
X156470868Y-80918804D01*
X156470865Y-80918806D01*
X156452232Y-80932343D01*
X156435651Y-80942504D01*
X156415131Y-80952960D01*
X156415127Y-80952963D01*
X156333383Y-81034703D01*
X156333357Y-81034733D01*
X151723027Y-85645064D01*
X151661704Y-85678549D01*
X151635346Y-85681383D01*
X148648895Y-85681383D01*
X148581856Y-85661698D01*
X148536513Y-85609787D01*
X148462312Y-85450662D01*
X148333898Y-85267267D01*
X148175588Y-85108957D01*
X148175584Y-85108954D01*
X148175583Y-85108953D01*
X147992198Y-84980545D01*
X147992190Y-84980541D01*
X147789292Y-84885928D01*
X147789278Y-84885923D01*
X147573036Y-84827982D01*
X147573026Y-84827980D01*
X147350001Y-84808468D01*
X147349999Y-84808468D01*
X147126973Y-84827980D01*
X147126963Y-84827982D01*
X146910721Y-84885923D01*
X146910712Y-84885927D01*
X146707808Y-84980542D01*
X146707806Y-84980543D01*
X146524409Y-85108958D01*
X146366103Y-85267264D01*
X146237688Y-85450661D01*
X146237687Y-85450663D01*
X146143072Y-85653567D01*
X146143068Y-85653576D01*
X146085127Y-85869818D01*
X146085125Y-85869828D01*
X146065613Y-86092854D01*
X146065613Y-86092855D01*
X136097375Y-86092855D01*
X142292439Y-79897791D01*
X142353763Y-79864306D01*
X142380121Y-79861472D01*
X166008201Y-79861472D01*
X166075240Y-79881157D01*
X166095882Y-79897791D01*
X180167963Y-93969872D01*
X180260128Y-94062037D01*
X180280645Y-94072491D01*
X180297233Y-94082656D01*
X180315868Y-94096195D01*
X180337769Y-94103311D01*
X180355747Y-94110758D01*
X180376263Y-94121211D01*
X180399014Y-94124814D01*
X180417921Y-94129353D01*
X180439830Y-94136472D01*
X180472617Y-94136472D01*
X194045957Y-94136472D01*
X194112996Y-94156157D01*
X194114848Y-94157370D01*
X194144813Y-94177391D01*
X194200699Y-94214734D01*
X194200702Y-94214734D01*
X194200703Y-94214735D01*
X194225666Y-94219700D01*
X194274933Y-94229500D01*
X195825066Y-94229499D01*
X195899301Y-94214734D01*
X195983484Y-94158484D01*
X196039734Y-94074301D01*
X196054500Y-94000067D01*
X196054499Y-93449934D01*
X196039734Y-93375699D01*
X196021068Y-93347764D01*
X195983484Y-93291515D01*
X195933019Y-93257796D01*
X195899301Y-93235266D01*
X195899299Y-93235265D01*
X195899296Y-93235264D01*
X195825069Y-93220500D01*
X194274936Y-93220500D01*
X194200698Y-93235266D01*
X194114848Y-93292630D01*
X194048170Y-93313508D01*
X194045957Y-93313528D01*
X180726799Y-93313528D01*
X180659760Y-93293843D01*
X180639118Y-93277209D01*
X166474872Y-79112963D01*
X166474870Y-79112962D01*
X166454349Y-79102505D01*
X166437763Y-79092341D01*
X166419133Y-79078806D01*
X166397225Y-79071687D01*
X166379256Y-79064244D01*
X166358737Y-79053789D01*
X166358730Y-79053787D01*
X166335985Y-79050184D01*
X166317075Y-79045644D01*
X166295176Y-79038529D01*
X166295171Y-79038528D01*
X166295170Y-79038528D01*
X166262383Y-79038528D01*
X142223493Y-79038528D01*
X142093152Y-79038528D01*
X142074304Y-79044651D01*
X142071245Y-79045645D01*
X142052341Y-79050183D01*
X142029585Y-79053788D01*
X142029582Y-79053789D01*
X142009059Y-79064245D01*
X141991100Y-79071684D01*
X141969190Y-79078804D01*
X141969189Y-79078805D01*
X141950557Y-79092342D01*
X141933971Y-79102506D01*
X141913451Y-79112962D01*
X141913449Y-79112963D01*
X135288491Y-85737922D01*
X135227168Y-85771407D01*
X135200810Y-85774241D01*
X134605563Y-85774241D01*
X134538524Y-85754556D01*
X134493181Y-85702645D01*
X134483267Y-85681384D01*
X134418980Y-85543520D01*
X134290566Y-85360125D01*
X134132256Y-85201815D01*
X134132252Y-85201812D01*
X134132251Y-85201811D01*
X133948866Y-85073403D01*
X133948858Y-85073399D01*
X133745960Y-84978786D01*
X133745946Y-84978781D01*
X133529704Y-84920840D01*
X133529694Y-84920838D01*
X133306669Y-84901326D01*
X133306667Y-84901326D01*
X133083641Y-84920838D01*
X133083631Y-84920840D01*
X132867389Y-84978781D01*
X132867380Y-84978785D01*
X132664476Y-85073400D01*
X132664474Y-85073401D01*
X132481077Y-85201816D01*
X132322771Y-85360122D01*
X132194356Y-85543519D01*
X132194355Y-85543521D01*
X132099740Y-85746425D01*
X132099736Y-85746434D01*
X132041795Y-85962676D01*
X132041793Y-85962686D01*
X132022281Y-86185712D01*
X132022281Y-86185713D01*
X122072136Y-86185713D01*
X129970058Y-78287791D01*
X130031382Y-78254306D01*
X130057740Y-78251472D01*
X167168201Y-78251472D01*
X167235240Y-78271157D01*
X167255882Y-78287791D01*
X181337963Y-92369872D01*
X181430128Y-92462037D01*
X181450657Y-92472497D01*
X181467226Y-92482650D01*
X181485868Y-92496194D01*
X181485870Y-92496194D01*
X181485871Y-92496195D01*
X181507763Y-92503308D01*
X181525742Y-92510754D01*
X181546263Y-92521211D01*
X181569011Y-92524813D01*
X181587931Y-92529357D01*
X181609824Y-92536471D01*
X181609830Y-92536472D01*
X181642617Y-92536472D01*
X194045957Y-92536472D01*
X194112996Y-92556157D01*
X194114848Y-92557370D01*
X194144813Y-92577391D01*
X194200699Y-92614734D01*
X194200702Y-92614734D01*
X194200703Y-92614735D01*
X194225666Y-92619700D01*
X194274933Y-92629500D01*
X195825066Y-92629499D01*
X195899301Y-92614734D01*
X195983484Y-92558484D01*
X196039734Y-92474301D01*
X196054500Y-92400067D01*
X196054499Y-91849934D01*
X196039734Y-91775699D01*
X196021068Y-91747764D01*
X195983484Y-91691515D01*
X195933019Y-91657796D01*
X195899301Y-91635266D01*
X195899299Y-91635265D01*
X195899296Y-91635264D01*
X195825069Y-91620500D01*
X194274936Y-91620500D01*
X194200698Y-91635266D01*
X194114848Y-91692630D01*
X194048170Y-91713508D01*
X194045957Y-91713528D01*
X181896799Y-91713528D01*
X181829760Y-91693843D01*
X181809118Y-91677209D01*
X167634872Y-77502963D01*
X167634870Y-77502962D01*
X167614349Y-77492505D01*
X167597763Y-77482341D01*
X167579133Y-77468806D01*
X167557225Y-77461687D01*
X167539256Y-77454244D01*
X167518737Y-77443789D01*
X167518730Y-77443787D01*
X167495985Y-77440184D01*
X167477075Y-77435644D01*
X167455176Y-77428529D01*
X167455171Y-77428528D01*
X167455170Y-77428528D01*
X167422383Y-77428528D01*
X129901111Y-77428528D01*
X129770770Y-77428528D01*
X129770767Y-77428528D01*
X129748864Y-77435645D01*
X129729947Y-77440186D01*
X129707203Y-77443788D01*
X129686685Y-77454243D01*
X129668714Y-77461688D01*
X129646805Y-77468807D01*
X129646802Y-77468809D01*
X129628176Y-77482341D01*
X129611595Y-77492502D01*
X129591074Y-77502959D01*
X129591067Y-77502964D01*
X129509324Y-77584703D01*
X129509298Y-77584733D01*
X121361823Y-85732209D01*
X121300500Y-85765694D01*
X121274142Y-85768528D01*
X120678895Y-85768528D01*
X120611856Y-85748843D01*
X120566513Y-85696932D01*
X120559263Y-85681384D01*
X120492312Y-85537807D01*
X120367899Y-85360126D01*
X120363899Y-85354413D01*
X120363895Y-85354409D01*
X120205588Y-85196102D01*
X120205584Y-85196099D01*
X120205583Y-85196098D01*
X120022198Y-85067690D01*
X120022190Y-85067686D01*
X119819292Y-84973073D01*
X119819278Y-84973068D01*
X119603036Y-84915127D01*
X119603026Y-84915125D01*
X119380001Y-84895613D01*
X119379999Y-84895613D01*
X119156973Y-84915125D01*
X119156963Y-84915127D01*
X118940721Y-84973068D01*
X118940712Y-84973072D01*
X118737808Y-85067687D01*
X118737806Y-85067688D01*
X118554409Y-85196103D01*
X118396103Y-85354409D01*
X118267688Y-85537806D01*
X118267687Y-85537808D01*
X118173072Y-85740712D01*
X118173068Y-85740721D01*
X118115127Y-85956963D01*
X118115125Y-85956973D01*
X118095613Y-86179999D01*
X118095613Y-86180000D01*
X101240000Y-86180000D01*
X101240000Y-72412858D01*
X118088944Y-72412858D01*
X118108456Y-72635884D01*
X118108458Y-72635894D01*
X118166399Y-72852136D01*
X118166404Y-72852150D01*
X118261017Y-73055048D01*
X118261021Y-73055056D01*
X118313155Y-73129510D01*
X118389433Y-73238446D01*
X118547743Y-73396756D01*
X118623689Y-73449934D01*
X118731132Y-73525167D01*
X118731134Y-73525168D01*
X118731137Y-73525170D01*
X118824707Y-73568802D01*
X118934038Y-73619784D01*
X118934040Y-73619784D01*
X118934045Y-73619787D01*
X119150300Y-73677732D01*
X119328724Y-73693342D01*
X119373330Y-73697245D01*
X119373331Y-73697245D01*
X119373332Y-73697245D01*
X119410502Y-73693992D01*
X119596362Y-73677732D01*
X119812617Y-73619787D01*
X120015525Y-73525170D01*
X120198919Y-73396756D01*
X120357229Y-73238446D01*
X120485643Y-73055052D01*
X120542898Y-72932267D01*
X120559845Y-72895925D01*
X120606017Y-72843486D01*
X120672227Y-72824330D01*
X121554442Y-72824330D01*
X121576341Y-72817214D01*
X121595260Y-72812671D01*
X121618009Y-72809069D01*
X121638528Y-72798613D01*
X121656504Y-72791167D01*
X121678405Y-72784052D01*
X121697035Y-72770516D01*
X121713614Y-72760355D01*
X121734144Y-72749895D01*
X121826309Y-72657730D01*
X121826308Y-72657730D01*
X121884877Y-72599161D01*
X121884876Y-72599161D01*
X122064037Y-72420000D01*
X132015613Y-72420000D01*
X132035125Y-72643026D01*
X132035127Y-72643036D01*
X132093068Y-72859278D01*
X132093073Y-72859292D01*
X132187686Y-73062190D01*
X132187690Y-73062198D01*
X132234823Y-73129510D01*
X132316102Y-73245588D01*
X132474412Y-73403898D01*
X132492040Y-73416241D01*
X132657801Y-73532309D01*
X132657803Y-73532310D01*
X132657806Y-73532312D01*
X132736060Y-73568802D01*
X132860707Y-73626926D01*
X132860709Y-73626926D01*
X132860714Y-73626929D01*
X133076969Y-73684874D01*
X133255393Y-73700484D01*
X133299999Y-73704387D01*
X133300000Y-73704387D01*
X133300001Y-73704387D01*
X133337171Y-73701134D01*
X133523031Y-73684874D01*
X133739286Y-73626929D01*
X133942194Y-73532312D01*
X134125588Y-73403898D01*
X134283898Y-73245588D01*
X134412312Y-73062194D01*
X134486513Y-72903067D01*
X134532686Y-72850628D01*
X134598896Y-72831472D01*
X135481111Y-72831472D01*
X135503010Y-72824356D01*
X135521929Y-72819813D01*
X135544678Y-72816211D01*
X135565197Y-72805755D01*
X135583173Y-72798309D01*
X135605074Y-72791194D01*
X135623704Y-72777658D01*
X135640283Y-72767497D01*
X135660813Y-72757037D01*
X135752978Y-72664872D01*
X136113922Y-72303928D01*
X146058945Y-72303928D01*
X146078457Y-72526954D01*
X146078459Y-72526964D01*
X146136400Y-72743206D01*
X146136405Y-72743220D01*
X146231018Y-72946118D01*
X146231022Y-72946126D01*
X146312297Y-73062198D01*
X146359434Y-73129516D01*
X146517744Y-73287826D01*
X146609441Y-73352033D01*
X146701133Y-73416237D01*
X146701135Y-73416238D01*
X146701138Y-73416240D01*
X146773400Y-73449936D01*
X146904039Y-73510854D01*
X146904041Y-73510854D01*
X146904046Y-73510857D01*
X147120301Y-73568802D01*
X147298725Y-73584412D01*
X147343331Y-73588315D01*
X147343332Y-73588315D01*
X147343333Y-73588315D01*
X147380503Y-73585062D01*
X147566363Y-73568802D01*
X147782618Y-73510857D01*
X147985526Y-73416240D01*
X148168920Y-73287826D01*
X148327230Y-73129516D01*
X148455644Y-72946122D01*
X148517873Y-72812671D01*
X148529846Y-72786995D01*
X148576018Y-72734556D01*
X148642228Y-72715400D01*
X151511242Y-72715400D01*
X151533141Y-72708284D01*
X151552060Y-72703741D01*
X151574809Y-72700139D01*
X151595328Y-72689683D01*
X151613304Y-72682237D01*
X151635205Y-72675122D01*
X151653835Y-72661586D01*
X151670414Y-72651425D01*
X151690944Y-72640965D01*
X151783109Y-72548800D01*
X152027981Y-72303928D01*
X159748944Y-72303928D01*
X159768456Y-72526954D01*
X159768458Y-72526964D01*
X159826399Y-72743206D01*
X159826404Y-72743220D01*
X159921017Y-72946118D01*
X159921021Y-72946126D01*
X160002296Y-73062198D01*
X160049433Y-73129516D01*
X160207743Y-73287826D01*
X160299440Y-73352032D01*
X160391132Y-73416237D01*
X160391134Y-73416238D01*
X160391137Y-73416240D01*
X160463399Y-73449936D01*
X160594038Y-73510854D01*
X160594040Y-73510854D01*
X160594045Y-73510857D01*
X160810300Y-73568802D01*
X160988724Y-73584412D01*
X161033330Y-73588315D01*
X161033331Y-73588315D01*
X161033332Y-73588315D01*
X161070502Y-73585062D01*
X161256362Y-73568802D01*
X161472617Y-73510857D01*
X161675525Y-73416240D01*
X161858919Y-73287826D01*
X162017229Y-73129516D01*
X162145643Y-72946122D01*
X162207872Y-72812671D01*
X162219845Y-72786995D01*
X162266017Y-72734556D01*
X162332227Y-72715400D01*
X164732129Y-72715400D01*
X164799168Y-72735085D01*
X164819810Y-72751719D01*
X182909077Y-90840988D01*
X182909099Y-90841008D01*
X182930128Y-90862037D01*
X182950647Y-90872492D01*
X182967235Y-90882657D01*
X182985867Y-90896194D01*
X183007767Y-90903309D01*
X183025740Y-90910753D01*
X183046263Y-90921211D01*
X183069006Y-90924812D01*
X183087917Y-90929351D01*
X183109829Y-90936472D01*
X183142617Y-90936472D01*
X194045957Y-90936472D01*
X194112996Y-90956157D01*
X194114848Y-90957370D01*
X194144813Y-90977391D01*
X194200699Y-91014734D01*
X194200702Y-91014734D01*
X194200703Y-91014735D01*
X194225666Y-91019700D01*
X194274933Y-91029500D01*
X195825066Y-91029499D01*
X195899301Y-91014734D01*
X195983484Y-90958484D01*
X196039734Y-90874301D01*
X196054500Y-90800067D01*
X196054499Y-90249934D01*
X196039734Y-90175699D01*
X196021068Y-90147764D01*
X195983484Y-90091515D01*
X195933019Y-90057796D01*
X195899301Y-90035266D01*
X195899299Y-90035265D01*
X195899296Y-90035264D01*
X195825069Y-90020500D01*
X194274936Y-90020500D01*
X194200698Y-90035266D01*
X194114848Y-90092630D01*
X194048170Y-90113508D01*
X194045957Y-90113528D01*
X183396800Y-90113528D01*
X183329761Y-90093843D01*
X183309119Y-90077209D01*
X165221984Y-71990075D01*
X165198800Y-71966891D01*
X165198798Y-71966890D01*
X165178277Y-71956433D01*
X165161691Y-71946269D01*
X165143061Y-71932734D01*
X165121153Y-71925615D01*
X165103184Y-71918172D01*
X165082665Y-71907717D01*
X165082658Y-71907715D01*
X165059913Y-71904112D01*
X165041003Y-71899572D01*
X165019104Y-71892457D01*
X165019099Y-71892456D01*
X165019098Y-71892456D01*
X165019094Y-71892456D01*
X162332226Y-71892456D01*
X162265187Y-71872771D01*
X162219844Y-71820860D01*
X162145643Y-71661735D01*
X162017229Y-71478340D01*
X161858919Y-71320030D01*
X161858915Y-71320027D01*
X161858914Y-71320026D01*
X161675529Y-71191618D01*
X161675521Y-71191614D01*
X161472623Y-71097001D01*
X161472609Y-71096996D01*
X161256367Y-71039055D01*
X161256357Y-71039053D01*
X161033332Y-71019541D01*
X161033330Y-71019541D01*
X160810304Y-71039053D01*
X160810294Y-71039055D01*
X160594052Y-71096996D01*
X160594043Y-71097000D01*
X160391139Y-71191615D01*
X160391137Y-71191616D01*
X160207740Y-71320031D01*
X160049434Y-71478337D01*
X159921019Y-71661734D01*
X159921018Y-71661736D01*
X159826403Y-71864640D01*
X159826399Y-71864649D01*
X159768458Y-72080891D01*
X159768456Y-72080901D01*
X159748944Y-72303927D01*
X159748944Y-72303928D01*
X152027981Y-72303928D01*
X156574118Y-67757791D01*
X156635441Y-67724306D01*
X156661799Y-67721472D01*
X164808201Y-67721472D01*
X164875240Y-67741157D01*
X164895882Y-67757791D01*
X186379077Y-89240988D01*
X186379099Y-89241008D01*
X186400128Y-89262037D01*
X186420647Y-89272492D01*
X186437235Y-89282657D01*
X186455867Y-89296194D01*
X186477767Y-89303309D01*
X186495740Y-89310753D01*
X186516263Y-89321211D01*
X186539006Y-89324812D01*
X186557917Y-89329351D01*
X186579829Y-89336472D01*
X186612617Y-89336472D01*
X194045957Y-89336472D01*
X194112996Y-89356157D01*
X194114848Y-89357370D01*
X194144813Y-89377391D01*
X194200699Y-89414734D01*
X194200702Y-89414734D01*
X194200703Y-89414735D01*
X194225666Y-89419700D01*
X194274933Y-89429500D01*
X195825066Y-89429499D01*
X195899301Y-89414734D01*
X195983484Y-89358484D01*
X196039734Y-89274301D01*
X196054500Y-89200067D01*
X196054499Y-88649934D01*
X196039734Y-88575699D01*
X196021068Y-88547764D01*
X195983484Y-88491515D01*
X195933019Y-88457796D01*
X195899301Y-88435266D01*
X195899299Y-88435265D01*
X195899296Y-88435264D01*
X195825069Y-88420500D01*
X194274936Y-88420500D01*
X194200698Y-88435266D01*
X194114848Y-88492630D01*
X194048170Y-88513508D01*
X194045957Y-88513528D01*
X186866800Y-88513528D01*
X186799761Y-88493843D01*
X186779119Y-88477209D01*
X165298056Y-66996147D01*
X165274872Y-66972963D01*
X165274870Y-66972962D01*
X165254349Y-66962505D01*
X165237763Y-66952341D01*
X165219133Y-66938806D01*
X165197225Y-66931687D01*
X165179256Y-66924244D01*
X165158737Y-66913789D01*
X165158730Y-66913787D01*
X165135985Y-66910184D01*
X165117075Y-66905644D01*
X165095176Y-66898529D01*
X165095171Y-66898528D01*
X165095170Y-66898528D01*
X165062383Y-66898528D01*
X156505171Y-66898528D01*
X156374830Y-66898528D01*
X156374826Y-66898529D01*
X156374827Y-66898529D01*
X156352923Y-66905645D01*
X156334014Y-66910184D01*
X156311269Y-66913787D01*
X156311260Y-66913790D01*
X156290738Y-66924246D01*
X156272774Y-66931687D01*
X156250867Y-66938806D01*
X156232231Y-66952345D01*
X156215649Y-66962506D01*
X156195131Y-66972961D01*
X156195123Y-66972966D01*
X156135723Y-67032361D01*
X156135624Y-67032466D01*
X151311954Y-71856137D01*
X151250631Y-71889622D01*
X151224273Y-71892456D01*
X148642227Y-71892456D01*
X148575188Y-71872771D01*
X148529845Y-71820860D01*
X148455644Y-71661735D01*
X148327230Y-71478340D01*
X148168920Y-71320030D01*
X148168916Y-71320027D01*
X148168915Y-71320026D01*
X147985530Y-71191618D01*
X147985522Y-71191614D01*
X147782624Y-71097001D01*
X147782610Y-71096996D01*
X147566368Y-71039055D01*
X147566358Y-71039053D01*
X147343333Y-71019541D01*
X147343331Y-71019541D01*
X147120305Y-71039053D01*
X147120295Y-71039055D01*
X146904053Y-71096996D01*
X146904044Y-71097000D01*
X146701140Y-71191615D01*
X146701138Y-71191616D01*
X146517741Y-71320031D01*
X146359435Y-71478337D01*
X146231020Y-71661734D01*
X146231019Y-71661736D01*
X146136404Y-71864640D01*
X146136400Y-71864649D01*
X146078459Y-72080891D01*
X146078457Y-72080901D01*
X146058945Y-72303927D01*
X146058945Y-72303928D01*
X136113922Y-72303928D01*
X142120059Y-66297791D01*
X142181382Y-66264306D01*
X142207740Y-66261472D01*
X166448201Y-66261472D01*
X166515240Y-66281157D01*
X166535881Y-66297790D01*
X183807962Y-83569871D01*
X183807963Y-83569872D01*
X183900128Y-83662037D01*
X183920651Y-83672494D01*
X183937233Y-83682656D01*
X183955866Y-83696194D01*
X183964081Y-83698862D01*
X183977770Y-83703310D01*
X183995733Y-83710750D01*
X184016263Y-83721211D01*
X184039010Y-83724813D01*
X184057923Y-83729354D01*
X184079830Y-83736472D01*
X184112617Y-83736472D01*
X194045957Y-83736472D01*
X194112996Y-83756157D01*
X194114848Y-83757370D01*
X194144813Y-83777391D01*
X194200699Y-83814734D01*
X194200702Y-83814734D01*
X194200703Y-83814735D01*
X194225666Y-83819700D01*
X194274933Y-83829500D01*
X195825066Y-83829499D01*
X195899301Y-83814734D01*
X195983484Y-83758484D01*
X196039734Y-83674301D01*
X196054500Y-83600067D01*
X196054499Y-83049934D01*
X196039734Y-82975699D01*
X196021068Y-82947764D01*
X195983484Y-82891515D01*
X195933019Y-82857796D01*
X195899301Y-82835266D01*
X195899299Y-82835265D01*
X195899296Y-82835264D01*
X195825069Y-82820500D01*
X194274936Y-82820500D01*
X194200698Y-82835266D01*
X194114848Y-82892630D01*
X194048170Y-82913508D01*
X194045957Y-82913528D01*
X184366799Y-82913528D01*
X184299760Y-82893843D01*
X184279118Y-82877209D01*
X175616642Y-74214733D01*
X166938056Y-65536147D01*
X166938055Y-65536147D01*
X166914872Y-65512963D01*
X166914869Y-65512961D01*
X166894349Y-65502505D01*
X166877763Y-65492341D01*
X166859133Y-65478806D01*
X166837225Y-65471687D01*
X166819256Y-65464244D01*
X166798737Y-65453789D01*
X166798730Y-65453787D01*
X166775985Y-65450184D01*
X166757075Y-65445644D01*
X166735176Y-65438529D01*
X166735171Y-65438528D01*
X166735170Y-65438528D01*
X166702383Y-65438528D01*
X142051111Y-65438528D01*
X141920770Y-65438528D01*
X141920767Y-65438528D01*
X141898864Y-65445645D01*
X141879947Y-65450186D01*
X141857203Y-65453788D01*
X141836685Y-65464243D01*
X141818714Y-65471688D01*
X141796805Y-65478807D01*
X141796802Y-65478809D01*
X141778176Y-65492341D01*
X141761595Y-65502502D01*
X141741074Y-65512959D01*
X141741067Y-65512964D01*
X141659324Y-65594703D01*
X141659298Y-65594733D01*
X135281823Y-71972209D01*
X135220500Y-72005694D01*
X135194142Y-72008528D01*
X134598895Y-72008528D01*
X134531856Y-71988843D01*
X134486513Y-71936932D01*
X134412312Y-71777807D01*
X134283898Y-71594412D01*
X134125588Y-71436102D01*
X134125584Y-71436099D01*
X134125583Y-71436098D01*
X133942198Y-71307690D01*
X133942190Y-71307686D01*
X133739292Y-71213073D01*
X133739278Y-71213068D01*
X133523036Y-71155127D01*
X133523026Y-71155125D01*
X133300001Y-71135613D01*
X133299999Y-71135613D01*
X133076973Y-71155125D01*
X133076963Y-71155127D01*
X132860721Y-71213068D01*
X132860712Y-71213072D01*
X132657808Y-71307687D01*
X132657806Y-71307688D01*
X132474409Y-71436103D01*
X132316103Y-71594409D01*
X132187688Y-71777806D01*
X132187687Y-71777808D01*
X132093072Y-71980712D01*
X132093068Y-71980721D01*
X132035127Y-72196963D01*
X132035125Y-72196973D01*
X132015613Y-72419999D01*
X132015613Y-72420000D01*
X122064037Y-72420000D01*
X129846248Y-64637791D01*
X129907572Y-64604306D01*
X129933930Y-64601472D01*
X167698201Y-64601472D01*
X167765240Y-64621157D01*
X167785882Y-64637790D01*
X185117963Y-81969872D01*
X185210128Y-82062037D01*
X185230651Y-82072494D01*
X185247233Y-82082656D01*
X185265866Y-82096194D01*
X185274081Y-82098862D01*
X185287770Y-82103310D01*
X185305733Y-82110750D01*
X185326263Y-82121211D01*
X185349010Y-82124813D01*
X185367923Y-82129354D01*
X185389830Y-82136472D01*
X185422617Y-82136472D01*
X194045957Y-82136472D01*
X194112996Y-82156157D01*
X194114848Y-82157370D01*
X194144813Y-82177391D01*
X194200699Y-82214734D01*
X194200702Y-82214734D01*
X194200703Y-82214735D01*
X194225666Y-82219700D01*
X194274933Y-82229500D01*
X195825066Y-82229499D01*
X195899301Y-82214734D01*
X195983484Y-82158484D01*
X196039734Y-82074301D01*
X196054500Y-82000067D01*
X196054499Y-81449934D01*
X196039734Y-81375699D01*
X196021068Y-81347764D01*
X195983484Y-81291515D01*
X195933019Y-81257796D01*
X195899301Y-81235266D01*
X195899299Y-81235265D01*
X195899296Y-81235264D01*
X195825069Y-81220500D01*
X194274936Y-81220500D01*
X194200698Y-81235266D01*
X194114848Y-81292630D01*
X194048170Y-81313508D01*
X194045957Y-81313528D01*
X185676799Y-81313528D01*
X185609760Y-81293843D01*
X185589118Y-81277209D01*
X168205497Y-63893588D01*
X168205493Y-63893582D01*
X168164872Y-63852963D01*
X168164869Y-63852960D01*
X168144348Y-63842504D01*
X168127763Y-63832341D01*
X168125358Y-63830594D01*
X168109133Y-63818806D01*
X168099453Y-63815660D01*
X168087225Y-63811687D01*
X168069256Y-63804244D01*
X168048737Y-63793789D01*
X168048730Y-63793787D01*
X168025985Y-63790184D01*
X168007075Y-63785644D01*
X167985176Y-63778529D01*
X167985171Y-63778528D01*
X167985170Y-63778528D01*
X167952383Y-63778528D01*
X129777300Y-63778528D01*
X129646959Y-63778528D01*
X129646956Y-63778528D01*
X129625053Y-63785645D01*
X129606136Y-63790186D01*
X129583392Y-63793788D01*
X129562874Y-63804243D01*
X129544902Y-63811688D01*
X129522999Y-63818805D01*
X129522996Y-63818806D01*
X129504360Y-63832345D01*
X129487781Y-63842504D01*
X129467261Y-63852960D01*
X129467260Y-63852960D01*
X129455667Y-63864552D01*
X129444076Y-63876144D01*
X129444074Y-63876146D01*
X129444073Y-63876147D01*
X121355154Y-71965067D01*
X121293831Y-71998552D01*
X121267473Y-72001386D01*
X120672226Y-72001386D01*
X120605187Y-71981701D01*
X120559844Y-71929790D01*
X120542435Y-71892456D01*
X120485643Y-71770665D01*
X120390835Y-71635264D01*
X120357230Y-71587271D01*
X120357226Y-71587267D01*
X120198919Y-71428960D01*
X120198915Y-71428957D01*
X120198914Y-71428956D01*
X120015529Y-71300548D01*
X120015521Y-71300544D01*
X119812623Y-71205931D01*
X119812609Y-71205926D01*
X119596367Y-71147985D01*
X119596357Y-71147983D01*
X119373332Y-71128471D01*
X119373330Y-71128471D01*
X119150304Y-71147983D01*
X119150294Y-71147985D01*
X118934052Y-71205926D01*
X118934043Y-71205930D01*
X118731139Y-71300545D01*
X118731137Y-71300546D01*
X118547740Y-71428961D01*
X118389434Y-71587267D01*
X118261019Y-71770664D01*
X118261018Y-71770666D01*
X118166403Y-71973570D01*
X118166399Y-71973579D01*
X118108458Y-72189821D01*
X118108456Y-72189831D01*
X118088944Y-72412857D01*
X118088944Y-72412858D01*
X101240000Y-72412858D01*
X101240000Y-58561429D01*
X117988944Y-58561429D01*
X118008456Y-58784455D01*
X118008458Y-58784465D01*
X118066399Y-59000707D01*
X118066404Y-59000721D01*
X118161017Y-59203619D01*
X118161021Y-59203627D01*
X118263640Y-59350181D01*
X118289433Y-59387017D01*
X118447743Y-59545327D01*
X118539440Y-59609533D01*
X118631132Y-59673738D01*
X118631134Y-59673739D01*
X118631137Y-59673741D01*
X118753210Y-59730664D01*
X118834038Y-59768355D01*
X118834040Y-59768355D01*
X118834045Y-59768358D01*
X118834050Y-59768359D01*
X118834052Y-59768360D01*
X118866040Y-59776931D01*
X119050300Y-59826303D01*
X119228724Y-59841913D01*
X119273330Y-59845816D01*
X119273331Y-59845816D01*
X119273332Y-59845816D01*
X119310502Y-59842563D01*
X119496362Y-59826303D01*
X119712617Y-59768358D01*
X119915525Y-59673741D01*
X120098919Y-59545327D01*
X120257229Y-59387017D01*
X120385643Y-59203623D01*
X120459844Y-59044496D01*
X120506017Y-58992057D01*
X120572227Y-58972901D01*
X121454442Y-58972901D01*
X121476341Y-58965785D01*
X121495260Y-58961242D01*
X121518009Y-58957640D01*
X121538528Y-58947184D01*
X121556504Y-58939738D01*
X121578405Y-58932623D01*
X121597035Y-58919087D01*
X121613614Y-58908926D01*
X121634144Y-58898466D01*
X121726309Y-58806301D01*
X121726308Y-58806301D01*
X121784877Y-58747732D01*
X121784876Y-58747732D01*
X121962608Y-58570000D01*
X131915613Y-58570000D01*
X131935125Y-58793026D01*
X131935127Y-58793036D01*
X131993068Y-59009278D01*
X131993073Y-59009292D01*
X132087686Y-59212190D01*
X132087690Y-59212198D01*
X132118573Y-59256303D01*
X132216102Y-59395588D01*
X132374412Y-59553898D01*
X132466108Y-59618105D01*
X132557801Y-59682309D01*
X132557803Y-59682310D01*
X132557806Y-59682312D01*
X132586277Y-59695588D01*
X132760707Y-59776926D01*
X132760709Y-59776926D01*
X132760714Y-59776929D01*
X132976969Y-59834874D01*
X133155393Y-59850484D01*
X133199999Y-59854387D01*
X133200000Y-59854387D01*
X133200001Y-59854387D01*
X133237171Y-59851134D01*
X133423031Y-59834874D01*
X133639286Y-59776929D01*
X133842194Y-59682312D01*
X134025588Y-59553898D01*
X134183898Y-59395588D01*
X134312312Y-59212194D01*
X134386513Y-59053067D01*
X134432686Y-59000628D01*
X134498896Y-58981472D01*
X136288974Y-58981472D01*
X136310873Y-58974356D01*
X136329792Y-58969813D01*
X136352541Y-58966211D01*
X136373060Y-58955755D01*
X136391036Y-58948309D01*
X136412937Y-58941194D01*
X136431567Y-58927658D01*
X136448146Y-58917497D01*
X136468676Y-58907037D01*
X136560841Y-58814872D01*
X136560840Y-58814872D01*
X136619409Y-58756303D01*
X136619408Y-58756303D01*
X136944997Y-58430714D01*
X145958944Y-58430714D01*
X145978456Y-58653740D01*
X145978458Y-58653750D01*
X146036399Y-58869992D01*
X146036404Y-58870006D01*
X146131017Y-59072904D01*
X146131021Y-59072912D01*
X146228545Y-59212190D01*
X146259433Y-59256302D01*
X146417743Y-59414612D01*
X146509440Y-59478818D01*
X146601132Y-59543023D01*
X146601134Y-59543024D01*
X146601137Y-59543026D01*
X146624459Y-59553901D01*
X146804038Y-59637640D01*
X146804040Y-59637640D01*
X146804045Y-59637643D01*
X147020300Y-59695588D01*
X147198724Y-59711198D01*
X147243330Y-59715101D01*
X147243331Y-59715101D01*
X147243332Y-59715101D01*
X147280502Y-59711848D01*
X147466362Y-59695588D01*
X147682617Y-59637643D01*
X147885525Y-59543026D01*
X148068919Y-59414612D01*
X148227229Y-59256302D01*
X148355643Y-59072908D01*
X148414267Y-58947187D01*
X148429845Y-58913781D01*
X148476017Y-58861342D01*
X148542227Y-58842186D01*
X150834456Y-58842186D01*
X150856355Y-58835070D01*
X150875274Y-58830527D01*
X150898023Y-58826925D01*
X150918542Y-58816469D01*
X150936518Y-58809023D01*
X150958419Y-58801908D01*
X150977049Y-58788372D01*
X150993628Y-58778211D01*
X151014158Y-58767751D01*
X151106323Y-58675586D01*
X151106323Y-58675585D01*
X151351194Y-58430714D01*
X159648944Y-58430714D01*
X159668456Y-58653740D01*
X159668458Y-58653750D01*
X159726399Y-58869992D01*
X159726404Y-58870006D01*
X159821017Y-59072904D01*
X159821021Y-59072912D01*
X159918545Y-59212190D01*
X159949433Y-59256302D01*
X160107743Y-59414612D01*
X160199440Y-59478819D01*
X160291132Y-59543023D01*
X160291134Y-59543024D01*
X160291137Y-59543026D01*
X160314459Y-59553901D01*
X160494038Y-59637640D01*
X160494040Y-59637640D01*
X160494045Y-59637643D01*
X160710300Y-59695588D01*
X160888724Y-59711198D01*
X160933330Y-59715101D01*
X160933331Y-59715101D01*
X160933332Y-59715101D01*
X160970502Y-59711848D01*
X161156362Y-59695588D01*
X161372617Y-59637643D01*
X161575525Y-59543026D01*
X161758919Y-59414612D01*
X161917229Y-59256302D01*
X162045643Y-59072908D01*
X162104267Y-58947187D01*
X162119845Y-58913781D01*
X162166017Y-58861342D01*
X162232227Y-58842186D01*
X164658915Y-58842186D01*
X164725954Y-58861871D01*
X164746596Y-58878505D01*
X186309077Y-80440988D01*
X186309099Y-80441008D01*
X186330128Y-80462037D01*
X186350644Y-80472490D01*
X186367229Y-80482652D01*
X186385867Y-80496194D01*
X186407770Y-80503310D01*
X186425735Y-80510751D01*
X186446263Y-80521211D01*
X186452677Y-80522226D01*
X186469009Y-80524814D01*
X186487931Y-80529356D01*
X186498427Y-80532766D01*
X186509829Y-80536471D01*
X186540060Y-80536471D01*
X186540084Y-80536472D01*
X186542617Y-80536472D01*
X194045957Y-80536472D01*
X194112996Y-80556157D01*
X194114848Y-80557370D01*
X194144813Y-80577391D01*
X194200699Y-80614734D01*
X194200702Y-80614734D01*
X194200703Y-80614735D01*
X194225666Y-80619700D01*
X194274933Y-80629500D01*
X195825066Y-80629499D01*
X195899301Y-80614734D01*
X195983484Y-80558484D01*
X196039734Y-80474301D01*
X196054500Y-80400067D01*
X196054499Y-79849934D01*
X196039734Y-79775699D01*
X196021068Y-79747764D01*
X195983484Y-79691515D01*
X195933019Y-79657796D01*
X195899301Y-79635266D01*
X195899299Y-79635265D01*
X195899296Y-79635264D01*
X195825069Y-79620500D01*
X194274936Y-79620500D01*
X194200698Y-79635266D01*
X194114848Y-79692630D01*
X194048170Y-79713508D01*
X194045957Y-79713528D01*
X186796800Y-79713528D01*
X186729761Y-79693843D01*
X186709119Y-79677209D01*
X165166211Y-58134302D01*
X165166207Y-58134296D01*
X165125586Y-58093677D01*
X165125583Y-58093674D01*
X165105062Y-58083218D01*
X165088477Y-58073055D01*
X165086072Y-58071308D01*
X165069847Y-58059520D01*
X165060167Y-58056374D01*
X165047939Y-58052401D01*
X165029970Y-58044958D01*
X165009451Y-58034503D01*
X165009444Y-58034501D01*
X164986699Y-58030898D01*
X164967789Y-58026358D01*
X164945890Y-58019243D01*
X164945885Y-58019242D01*
X164945884Y-58019242D01*
X164945880Y-58019242D01*
X162232226Y-58019242D01*
X162165187Y-57999557D01*
X162119844Y-57947646D01*
X162110595Y-57927812D01*
X162045643Y-57788521D01*
X161917229Y-57605126D01*
X161758919Y-57446816D01*
X161758915Y-57446813D01*
X161758914Y-57446812D01*
X161575529Y-57318404D01*
X161575521Y-57318400D01*
X161372623Y-57223787D01*
X161372609Y-57223782D01*
X161156367Y-57165841D01*
X161156357Y-57165839D01*
X160933332Y-57146327D01*
X160933330Y-57146327D01*
X160710304Y-57165839D01*
X160710294Y-57165841D01*
X160494052Y-57223782D01*
X160494043Y-57223786D01*
X160291139Y-57318401D01*
X160291137Y-57318402D01*
X160107740Y-57446817D01*
X159949434Y-57605123D01*
X159821019Y-57788520D01*
X159821018Y-57788522D01*
X159726403Y-57991426D01*
X159726399Y-57991435D01*
X159668458Y-58207677D01*
X159668456Y-58207687D01*
X159648944Y-58430713D01*
X159648944Y-58430714D01*
X151351194Y-58430714D01*
X155754117Y-54027791D01*
X155815441Y-53994306D01*
X155841799Y-53991472D01*
X163458201Y-53991472D01*
X163525240Y-54011157D01*
X163545882Y-54027791D01*
X188359077Y-78840988D01*
X188359099Y-78841008D01*
X188380128Y-78862037D01*
X188400647Y-78872492D01*
X188417235Y-78882657D01*
X188435867Y-78896194D01*
X188457767Y-78903309D01*
X188475740Y-78910753D01*
X188496263Y-78921211D01*
X188519006Y-78924812D01*
X188537917Y-78929351D01*
X188559829Y-78936472D01*
X188592617Y-78936472D01*
X194045957Y-78936472D01*
X194112996Y-78956157D01*
X194114848Y-78957370D01*
X194144813Y-78977391D01*
X194200699Y-79014734D01*
X194200702Y-79014734D01*
X194200703Y-79014735D01*
X194225666Y-79019700D01*
X194274933Y-79029500D01*
X195825066Y-79029499D01*
X195899301Y-79014734D01*
X195983484Y-78958484D01*
X196039734Y-78874301D01*
X196054500Y-78800067D01*
X196054499Y-78249934D01*
X196039734Y-78175699D01*
X196021068Y-78147764D01*
X195983484Y-78091515D01*
X195933019Y-78057796D01*
X195899301Y-78035266D01*
X195899299Y-78035265D01*
X195899296Y-78035264D01*
X195825069Y-78020500D01*
X194274936Y-78020500D01*
X194200698Y-78035266D01*
X194114848Y-78092630D01*
X194048170Y-78113508D01*
X194045957Y-78113528D01*
X188846800Y-78113528D01*
X188779761Y-78093843D01*
X188759119Y-78077209D01*
X163948056Y-53266147D01*
X163924872Y-53242963D01*
X163924870Y-53242962D01*
X163904349Y-53232505D01*
X163887763Y-53222341D01*
X163869133Y-53208806D01*
X163847225Y-53201687D01*
X163829256Y-53194244D01*
X163808737Y-53183789D01*
X163808730Y-53183787D01*
X163785985Y-53180184D01*
X163767075Y-53175644D01*
X163745176Y-53168529D01*
X163745171Y-53168528D01*
X163745170Y-53168528D01*
X163712383Y-53168528D01*
X155685171Y-53168528D01*
X155554830Y-53168528D01*
X155535982Y-53174651D01*
X155532923Y-53175645D01*
X155514019Y-53180183D01*
X155491263Y-53183788D01*
X155491260Y-53183789D01*
X155470737Y-53194245D01*
X155452778Y-53201684D01*
X155430868Y-53208804D01*
X155430865Y-53208806D01*
X155412232Y-53222343D01*
X155395651Y-53232504D01*
X155375131Y-53242960D01*
X155375127Y-53242963D01*
X155293383Y-53324703D01*
X155293357Y-53324733D01*
X150635168Y-57982923D01*
X150573845Y-58016408D01*
X150547487Y-58019242D01*
X148542226Y-58019242D01*
X148475187Y-57999557D01*
X148429844Y-57947646D01*
X148420595Y-57927812D01*
X148355643Y-57788521D01*
X148227229Y-57605126D01*
X148068919Y-57446816D01*
X148068915Y-57446813D01*
X148068914Y-57446812D01*
X147885529Y-57318404D01*
X147885521Y-57318400D01*
X147682623Y-57223787D01*
X147682609Y-57223782D01*
X147466367Y-57165841D01*
X147466357Y-57165839D01*
X147243332Y-57146327D01*
X147243330Y-57146327D01*
X147020304Y-57165839D01*
X147020294Y-57165841D01*
X146804052Y-57223782D01*
X146804043Y-57223786D01*
X146601139Y-57318401D01*
X146601137Y-57318402D01*
X146417740Y-57446817D01*
X146259434Y-57605123D01*
X146131019Y-57788520D01*
X146131018Y-57788522D01*
X146036403Y-57991426D01*
X146036399Y-57991435D01*
X145978458Y-58207677D01*
X145978456Y-58207687D01*
X145958944Y-58430713D01*
X145958944Y-58430714D01*
X136944997Y-58430714D01*
X143007922Y-52367791D01*
X143069246Y-52334306D01*
X143095604Y-52331472D01*
X164098201Y-52331472D01*
X164165240Y-52351157D01*
X164185882Y-52367791D01*
X188987962Y-77169871D01*
X188987963Y-77169872D01*
X189080128Y-77262037D01*
X189100651Y-77272494D01*
X189117233Y-77282656D01*
X189135867Y-77296194D01*
X189157767Y-77303309D01*
X189175740Y-77310753D01*
X189196263Y-77321211D01*
X189219006Y-77324812D01*
X189237917Y-77329351D01*
X189259829Y-77336472D01*
X189292617Y-77336472D01*
X194045957Y-77336472D01*
X194112996Y-77356157D01*
X194114848Y-77357370D01*
X194144813Y-77377391D01*
X194200699Y-77414734D01*
X194200702Y-77414734D01*
X194200703Y-77414735D01*
X194225666Y-77419700D01*
X194274933Y-77429500D01*
X195825066Y-77429499D01*
X195899301Y-77414734D01*
X195983484Y-77358484D01*
X196039734Y-77274301D01*
X196054500Y-77200067D01*
X196054499Y-76649934D01*
X196039734Y-76575699D01*
X196021068Y-76547764D01*
X195983484Y-76491515D01*
X195933019Y-76457796D01*
X195899301Y-76435266D01*
X195899299Y-76435265D01*
X195899296Y-76435264D01*
X195825069Y-76420500D01*
X194274936Y-76420500D01*
X194200698Y-76435266D01*
X194114848Y-76492630D01*
X194048170Y-76513508D01*
X194045957Y-76513528D01*
X189546799Y-76513528D01*
X189479760Y-76493843D01*
X189459118Y-76477209D01*
X164564872Y-51582963D01*
X164564870Y-51582962D01*
X164544349Y-51572505D01*
X164527763Y-51562341D01*
X164509133Y-51548806D01*
X164487225Y-51541687D01*
X164469256Y-51534244D01*
X164448737Y-51523789D01*
X164448730Y-51523787D01*
X164425985Y-51520184D01*
X164407075Y-51515644D01*
X164385176Y-51508529D01*
X164385171Y-51508528D01*
X164385170Y-51508528D01*
X164352383Y-51508528D01*
X142938974Y-51508528D01*
X142808633Y-51508528D01*
X142808630Y-51508528D01*
X142786727Y-51515645D01*
X142767810Y-51520186D01*
X142745066Y-51523788D01*
X142724548Y-51534243D01*
X142706576Y-51541688D01*
X142684673Y-51548805D01*
X142684670Y-51548806D01*
X142666034Y-51562345D01*
X142649455Y-51572504D01*
X142628935Y-51582960D01*
X142628934Y-51582960D01*
X142617341Y-51594552D01*
X142605750Y-51606144D01*
X142605747Y-51606147D01*
X136089686Y-58122209D01*
X136028363Y-58155694D01*
X136002005Y-58158528D01*
X134498895Y-58158528D01*
X134431856Y-58138843D01*
X134386513Y-58086932D01*
X134353627Y-58016408D01*
X134312312Y-57927807D01*
X134183898Y-57744412D01*
X134025588Y-57586102D01*
X134025584Y-57586099D01*
X134025583Y-57586098D01*
X133842198Y-57457690D01*
X133842190Y-57457686D01*
X133639292Y-57363073D01*
X133639278Y-57363068D01*
X133423036Y-57305127D01*
X133423026Y-57305125D01*
X133200001Y-57285613D01*
X133199999Y-57285613D01*
X132976973Y-57305125D01*
X132976963Y-57305127D01*
X132760721Y-57363068D01*
X132760712Y-57363072D01*
X132557808Y-57457687D01*
X132557806Y-57457688D01*
X132374409Y-57586103D01*
X132216103Y-57744409D01*
X132087688Y-57927806D01*
X132087687Y-57927808D01*
X131993072Y-58130712D01*
X131993068Y-58130721D01*
X131935127Y-58346963D01*
X131935125Y-58346973D01*
X131915613Y-58569999D01*
X131915613Y-58570000D01*
X121962608Y-58570000D01*
X130244819Y-50287791D01*
X130306143Y-50254306D01*
X130332501Y-50251472D01*
X164218201Y-50251472D01*
X164285240Y-50271157D01*
X164305882Y-50287791D01*
X189587963Y-75569872D01*
X189680128Y-75662037D01*
X189700645Y-75672491D01*
X189717233Y-75682656D01*
X189735868Y-75696195D01*
X189757769Y-75703311D01*
X189775747Y-75710758D01*
X189796263Y-75721211D01*
X189819014Y-75724814D01*
X189837921Y-75729353D01*
X189859830Y-75736472D01*
X189892617Y-75736472D01*
X194045957Y-75736472D01*
X194112996Y-75756157D01*
X194114848Y-75757370D01*
X194144813Y-75777391D01*
X194200699Y-75814734D01*
X194200702Y-75814734D01*
X194200703Y-75814735D01*
X194225666Y-75819700D01*
X194274933Y-75829500D01*
X195825066Y-75829499D01*
X195899301Y-75814734D01*
X195983484Y-75758484D01*
X196039734Y-75674301D01*
X196054500Y-75600067D01*
X196054499Y-75049934D01*
X196039734Y-74975699D01*
X196021068Y-74947764D01*
X195983484Y-74891515D01*
X195933019Y-74857796D01*
X195899301Y-74835266D01*
X195899299Y-74835265D01*
X195899296Y-74835264D01*
X195825069Y-74820500D01*
X194274936Y-74820500D01*
X194200698Y-74835266D01*
X194114848Y-74892630D01*
X194048170Y-74913508D01*
X194045957Y-74913528D01*
X190146799Y-74913528D01*
X190079760Y-74893843D01*
X190059118Y-74877209D01*
X164725497Y-49543588D01*
X164725493Y-49543582D01*
X164684872Y-49502963D01*
X164684869Y-49502960D01*
X164664348Y-49492504D01*
X164647763Y-49482341D01*
X164645358Y-49480594D01*
X164629133Y-49468806D01*
X164619453Y-49465660D01*
X164607225Y-49461687D01*
X164589256Y-49454244D01*
X164568737Y-49443789D01*
X164568730Y-49443787D01*
X164545985Y-49440184D01*
X164527075Y-49435644D01*
X164505176Y-49428529D01*
X164505171Y-49428528D01*
X164505170Y-49428528D01*
X164472383Y-49428528D01*
X130175871Y-49428528D01*
X130045530Y-49428528D01*
X130045527Y-49428528D01*
X130023624Y-49435645D01*
X130004707Y-49440186D01*
X129981963Y-49443788D01*
X129961445Y-49454243D01*
X129943473Y-49461688D01*
X129921570Y-49468805D01*
X129921567Y-49468806D01*
X129902931Y-49482345D01*
X129886352Y-49492504D01*
X129865832Y-49502960D01*
X129865831Y-49502960D01*
X129854238Y-49514552D01*
X129842647Y-49526144D01*
X129842645Y-49526146D01*
X129842644Y-49526147D01*
X121255154Y-58113638D01*
X121193831Y-58147123D01*
X121167473Y-58149957D01*
X120572226Y-58149957D01*
X120505187Y-58130272D01*
X120459844Y-58078361D01*
X120446334Y-58049388D01*
X120385643Y-57919236D01*
X120294119Y-57788526D01*
X120257230Y-57735842D01*
X120257226Y-57735838D01*
X120098919Y-57577531D01*
X120098915Y-57577528D01*
X120098914Y-57577527D01*
X119915529Y-57449119D01*
X119915521Y-57449115D01*
X119712623Y-57354502D01*
X119712609Y-57354497D01*
X119496367Y-57296556D01*
X119496357Y-57296554D01*
X119273332Y-57277042D01*
X119273330Y-57277042D01*
X119050304Y-57296554D01*
X119050294Y-57296556D01*
X118834052Y-57354497D01*
X118834043Y-57354501D01*
X118631139Y-57449116D01*
X118631137Y-57449117D01*
X118447740Y-57577532D01*
X118289434Y-57735838D01*
X118161019Y-57919235D01*
X118161018Y-57919237D01*
X118066403Y-58122141D01*
X118066399Y-58122150D01*
X118008458Y-58338392D01*
X118008456Y-58338402D01*
X117988944Y-58561428D01*
X117988944Y-58561429D01*
X101240000Y-58561429D01*
X101240000Y-42157329D01*
X105524500Y-42157329D01*
X105563932Y-42469463D01*
X105563934Y-42469476D01*
X105642180Y-42774225D01*
X105642181Y-42774228D01*
X105758001Y-43066757D01*
X105758002Y-43066758D01*
X105758004Y-43066763D01*
X105758006Y-43066766D01*
X105909584Y-43342484D01*
X105909586Y-43342488D01*
X105909591Y-43342495D01*
X106094515Y-43597021D01*
X106094523Y-43597031D01*
X106309907Y-43826391D01*
X106309909Y-43826393D01*
X106552334Y-44026945D01*
X106552338Y-44026948D01*
X106762648Y-44160414D01*
X106817993Y-44195537D01*
X106917136Y-44242190D01*
X107102678Y-44329500D01*
X107102682Y-44329501D01*
X107102685Y-44329503D01*
X107401921Y-44426731D01*
X107710985Y-44485688D01*
X107710990Y-44485688D01*
X107710995Y-44485689D01*
X107946411Y-44500500D01*
X107946417Y-44500500D01*
X108103589Y-44500500D01*
X108339004Y-44485689D01*
X108339007Y-44485688D01*
X108339015Y-44485688D01*
X108648079Y-44426731D01*
X108947315Y-44329503D01*
X109232007Y-44195537D01*
X109497663Y-44026947D01*
X109740094Y-43826390D01*
X109952689Y-43600000D01*
X145268946Y-43600000D01*
X145288458Y-43823026D01*
X145288460Y-43823036D01*
X145346401Y-44039278D01*
X145346406Y-44039292D01*
X145441019Y-44242190D01*
X145441023Y-44242198D01*
X145502155Y-44329503D01*
X145569435Y-44425588D01*
X145727745Y-44583898D01*
X145742031Y-44593901D01*
X145911134Y-44712309D01*
X145911136Y-44712310D01*
X145911139Y-44712312D01*
X146033212Y-44769235D01*
X146114040Y-44806926D01*
X146114042Y-44806926D01*
X146114047Y-44806929D01*
X146114052Y-44806930D01*
X146114054Y-44806931D01*
X146151368Y-44816929D01*
X146330302Y-44864874D01*
X146508726Y-44880484D01*
X146553332Y-44884387D01*
X146553333Y-44884387D01*
X146553334Y-44884387D01*
X146590504Y-44881134D01*
X146776364Y-44864874D01*
X146992619Y-44806929D01*
X147195527Y-44712312D01*
X147378921Y-44583898D01*
X147537231Y-44425588D01*
X147665645Y-44242194D01*
X147739846Y-44083067D01*
X147786019Y-44030628D01*
X147852229Y-44011472D01*
X148734444Y-44011472D01*
X148756343Y-44004356D01*
X148775262Y-43999813D01*
X148798011Y-43996211D01*
X148818530Y-43985755D01*
X148836506Y-43978309D01*
X148858407Y-43971194D01*
X148877037Y-43957658D01*
X148893616Y-43947497D01*
X148914146Y-43937037D01*
X149006311Y-43844872D01*
X149006310Y-43844872D01*
X149064879Y-43786303D01*
X149064878Y-43786303D01*
X149241181Y-43610000D01*
X159195613Y-43610000D01*
X159215125Y-43833026D01*
X159215127Y-43833036D01*
X159273068Y-44049278D01*
X159273073Y-44049292D01*
X159367686Y-44252190D01*
X159367690Y-44252198D01*
X159421820Y-44329503D01*
X159496102Y-44435588D01*
X159654412Y-44593898D01*
X159746108Y-44658105D01*
X159837801Y-44722309D01*
X159837803Y-44722310D01*
X159837806Y-44722312D01*
X159959879Y-44779235D01*
X160040707Y-44816926D01*
X160040709Y-44816926D01*
X160040714Y-44816929D01*
X160256969Y-44874874D01*
X160435393Y-44890484D01*
X160479999Y-44894387D01*
X160480000Y-44894387D01*
X160480001Y-44894387D01*
X160517171Y-44891134D01*
X160703031Y-44874874D01*
X160919286Y-44816929D01*
X161122194Y-44722312D01*
X161305588Y-44593898D01*
X161463898Y-44435588D01*
X161592312Y-44252194D01*
X161666513Y-44093067D01*
X161712686Y-44040628D01*
X161778896Y-44021472D01*
X165528201Y-44021472D01*
X165595240Y-44041157D01*
X165615882Y-44057791D01*
X169882209Y-48324118D01*
X169915694Y-48385441D01*
X169918528Y-48411799D01*
X169918528Y-53195166D01*
X169918529Y-53195176D01*
X169925644Y-53217075D01*
X169930184Y-53235985D01*
X169933787Y-53258730D01*
X169933789Y-53258737D01*
X169944243Y-53279254D01*
X169951687Y-53297225D01*
X169958806Y-53319133D01*
X169972341Y-53337763D01*
X169982505Y-53354349D01*
X169992962Y-53374870D01*
X169992963Y-53374872D01*
X170016147Y-53398056D01*
X190659077Y-74040988D01*
X190659099Y-74041008D01*
X190680128Y-74062037D01*
X190700647Y-74072492D01*
X190717235Y-74082657D01*
X190735867Y-74096194D01*
X190757767Y-74103309D01*
X190775740Y-74110753D01*
X190796263Y-74121211D01*
X190819006Y-74124812D01*
X190837917Y-74129351D01*
X190859829Y-74136472D01*
X190892617Y-74136472D01*
X194045957Y-74136472D01*
X194112996Y-74156157D01*
X194114848Y-74157370D01*
X194144813Y-74177391D01*
X194200699Y-74214734D01*
X194200702Y-74214734D01*
X194200703Y-74214735D01*
X194225666Y-74219700D01*
X194274933Y-74229500D01*
X195825066Y-74229499D01*
X195899301Y-74214734D01*
X195983484Y-74158484D01*
X196039734Y-74074301D01*
X196054500Y-74000067D01*
X196054499Y-73449934D01*
X196039734Y-73375699D01*
X196021068Y-73347764D01*
X195983484Y-73291515D01*
X195914750Y-73245589D01*
X195899301Y-73235266D01*
X195899299Y-73235265D01*
X195899296Y-73235264D01*
X195825069Y-73220500D01*
X194274936Y-73220500D01*
X194200698Y-73235266D01*
X194114848Y-73292630D01*
X194048170Y-73313508D01*
X194045957Y-73313528D01*
X191146800Y-73313528D01*
X191079761Y-73293843D01*
X191059119Y-73277209D01*
X170777791Y-52995881D01*
X170744306Y-52934558D01*
X170741472Y-52908200D01*
X170741472Y-48124831D01*
X170741472Y-48124829D01*
X170734351Y-48102917D01*
X170729812Y-48084006D01*
X170726211Y-48061263D01*
X170715753Y-48040740D01*
X170708308Y-48022764D01*
X170701194Y-48000867D01*
X170687656Y-47982233D01*
X170677494Y-47965651D01*
X170667037Y-47945128D01*
X170574872Y-47852963D01*
X166035497Y-43313588D01*
X166035493Y-43313582D01*
X165994872Y-43272963D01*
X165994869Y-43272960D01*
X165974348Y-43262504D01*
X165957763Y-43252341D01*
X165955358Y-43250594D01*
X165939133Y-43238806D01*
X165929453Y-43235660D01*
X165917225Y-43231687D01*
X165899256Y-43224244D01*
X165878737Y-43213789D01*
X165878730Y-43213787D01*
X165855985Y-43210184D01*
X165837075Y-43205644D01*
X165815176Y-43198529D01*
X165815171Y-43198528D01*
X165815170Y-43198528D01*
X165815166Y-43198528D01*
X161778895Y-43198528D01*
X161711856Y-43178843D01*
X161666513Y-43126932D01*
X161638457Y-43066766D01*
X161592312Y-42967807D01*
X161463898Y-42784412D01*
X161305588Y-42626102D01*
X161305584Y-42626099D01*
X161305583Y-42626098D01*
X161122198Y-42497690D01*
X161122190Y-42497686D01*
X160919292Y-42403073D01*
X160919278Y-42403068D01*
X160703036Y-42345127D01*
X160703026Y-42345125D01*
X160480001Y-42325613D01*
X160479999Y-42325613D01*
X160256973Y-42345125D01*
X160256963Y-42345127D01*
X160040721Y-42403068D01*
X160040712Y-42403072D01*
X159837808Y-42497687D01*
X159837806Y-42497688D01*
X159654409Y-42626103D01*
X159496103Y-42784409D01*
X159367688Y-42967806D01*
X159367687Y-42967808D01*
X159298150Y-43116932D01*
X159273944Y-43168843D01*
X159273072Y-43170712D01*
X159273068Y-43170721D01*
X159215127Y-43386963D01*
X159215125Y-43386973D01*
X159195613Y-43609999D01*
X159195613Y-43610000D01*
X149241181Y-43610000D01*
X153923392Y-38927791D01*
X153984716Y-38894306D01*
X154011074Y-38891472D01*
X164158201Y-38891472D01*
X164225240Y-38911157D01*
X164245882Y-38927790D01*
X171932210Y-46614119D01*
X171965694Y-46675440D01*
X171968528Y-46701798D01*
X171968528Y-52105166D01*
X171968529Y-52105176D01*
X171975644Y-52127075D01*
X171980184Y-52145985D01*
X171983787Y-52168730D01*
X171983789Y-52168737D01*
X171994243Y-52189254D01*
X172001687Y-52207225D01*
X172008806Y-52229133D01*
X172022341Y-52247763D01*
X172032505Y-52264349D01*
X172042962Y-52284870D01*
X172042963Y-52284872D01*
X172066147Y-52308056D01*
X192199077Y-72440988D01*
X192199099Y-72441008D01*
X192220128Y-72462037D01*
X192240647Y-72472492D01*
X192257235Y-72482657D01*
X192275867Y-72496194D01*
X192297767Y-72503309D01*
X192315740Y-72510753D01*
X192336263Y-72521211D01*
X192359006Y-72524812D01*
X192377917Y-72529351D01*
X192399829Y-72536472D01*
X192432617Y-72536472D01*
X194045957Y-72536472D01*
X194112996Y-72556157D01*
X194114848Y-72557370D01*
X194144813Y-72577391D01*
X194200699Y-72614734D01*
X194200702Y-72614734D01*
X194200703Y-72614735D01*
X194225666Y-72619700D01*
X194274933Y-72629500D01*
X195825066Y-72629499D01*
X195899301Y-72614734D01*
X195983484Y-72558484D01*
X196039734Y-72474301D01*
X196054500Y-72400067D01*
X196054499Y-71849934D01*
X196039734Y-71775699D01*
X196021068Y-71747764D01*
X195983484Y-71691515D01*
X195933019Y-71657796D01*
X195899301Y-71635266D01*
X195899299Y-71635265D01*
X195899296Y-71635264D01*
X195825069Y-71620500D01*
X194274936Y-71620500D01*
X194200698Y-71635266D01*
X194114848Y-71692630D01*
X194048170Y-71713508D01*
X194045957Y-71713528D01*
X192686800Y-71713528D01*
X192619761Y-71693843D01*
X192599119Y-71677209D01*
X183196912Y-62275002D01*
X195154340Y-62275002D01*
X195174914Y-62457611D01*
X195221041Y-62589432D01*
X195235611Y-62631071D01*
X195333382Y-62786673D01*
X195463327Y-62916618D01*
X195618929Y-63014389D01*
X195792386Y-63075084D01*
X195792389Y-63075084D01*
X195792391Y-63075085D01*
X195860795Y-63082792D01*
X195929199Y-63090499D01*
X195929200Y-63090500D01*
X195929204Y-63090500D01*
X196020800Y-63090500D01*
X196020800Y-63090499D01*
X196106856Y-63080803D01*
X196157608Y-63075085D01*
X196157609Y-63075084D01*
X196157614Y-63075084D01*
X196331071Y-63014389D01*
X196486673Y-62916618D01*
X196616618Y-62786673D01*
X196714389Y-62631071D01*
X196775084Y-62457614D01*
X196775084Y-62457613D01*
X196775085Y-62457611D01*
X196795660Y-62275002D01*
X196795660Y-62274997D01*
X196775085Y-62092388D01*
X196760514Y-62050747D01*
X196714389Y-61918929D01*
X196616618Y-61763327D01*
X196486673Y-61633382D01*
X196486673Y-61633381D01*
X196331072Y-61535611D01*
X196157608Y-61474914D01*
X196020800Y-61459500D01*
X196020796Y-61459500D01*
X195929204Y-61459500D01*
X195929200Y-61459500D01*
X195792391Y-61474914D01*
X195618927Y-61535611D01*
X195463326Y-61633382D01*
X195333382Y-61763326D01*
X195235612Y-61918926D01*
X195174914Y-62092388D01*
X195154340Y-62274997D01*
X195154340Y-62275002D01*
X183196912Y-62275002D01*
X172827791Y-51905881D01*
X172794306Y-51844558D01*
X172791472Y-51818200D01*
X172791472Y-46445295D01*
X172791471Y-46445265D01*
X172791471Y-46414828D01*
X172791470Y-46414827D01*
X172784356Y-46392931D01*
X172779814Y-46374009D01*
X172776211Y-46351265D01*
X172776211Y-46351263D01*
X172765751Y-46330735D01*
X172758309Y-46312766D01*
X172751194Y-46290868D01*
X172751194Y-46290867D01*
X172737652Y-46272229D01*
X172727490Y-46255644D01*
X172717037Y-46235128D01*
X172696008Y-46214099D01*
X172695988Y-46214077D01*
X164665497Y-38183588D01*
X164665493Y-38183582D01*
X164624872Y-38142963D01*
X164624869Y-38142960D01*
X164604348Y-38132504D01*
X164587763Y-38122341D01*
X164585358Y-38120594D01*
X164569133Y-38108806D01*
X164559453Y-38105660D01*
X164547225Y-38101687D01*
X164529256Y-38094244D01*
X164508737Y-38083789D01*
X164508730Y-38083787D01*
X164485985Y-38080184D01*
X164467075Y-38075644D01*
X164445176Y-38068529D01*
X164445171Y-38068528D01*
X164445170Y-38068528D01*
X164412383Y-38068528D01*
X153756891Y-38068528D01*
X153754358Y-38068528D01*
X153754334Y-38068529D01*
X153724103Y-38068529D01*
X153724100Y-38068529D01*
X153724098Y-38068530D01*
X153702198Y-38075645D01*
X153683286Y-38080185D01*
X153660538Y-38083788D01*
X153660534Y-38083789D01*
X153640007Y-38094247D01*
X153622048Y-38101686D01*
X153600141Y-38108805D01*
X153600138Y-38108807D01*
X153581505Y-38122344D01*
X153564923Y-38132506D01*
X153544403Y-38142961D01*
X153532811Y-38154553D01*
X153521220Y-38166144D01*
X153521218Y-38166146D01*
X153521217Y-38166147D01*
X148535156Y-43152209D01*
X148473833Y-43185694D01*
X148447475Y-43188528D01*
X147852228Y-43188528D01*
X147785189Y-43168843D01*
X147739846Y-43116932D01*
X147716453Y-43066766D01*
X147665645Y-42957807D01*
X147537231Y-42774412D01*
X147378921Y-42616102D01*
X147378917Y-42616099D01*
X147378916Y-42616098D01*
X147195531Y-42487690D01*
X147195523Y-42487686D01*
X146992625Y-42393073D01*
X146992611Y-42393068D01*
X146776369Y-42335127D01*
X146776359Y-42335125D01*
X146553334Y-42315613D01*
X146553332Y-42315613D01*
X146330306Y-42335125D01*
X146330296Y-42335127D01*
X146114054Y-42393068D01*
X146114045Y-42393072D01*
X145911141Y-42487687D01*
X145911139Y-42487688D01*
X145727742Y-42616103D01*
X145569436Y-42774409D01*
X145441021Y-42957806D01*
X145441020Y-42957808D01*
X145346405Y-43160712D01*
X145346401Y-43160721D01*
X145288460Y-43376963D01*
X145288458Y-43376973D01*
X145268946Y-43599999D01*
X145268946Y-43600000D01*
X109952689Y-43600000D01*
X109955478Y-43597030D01*
X110140416Y-43342484D01*
X110291994Y-43066766D01*
X110331175Y-42967808D01*
X110407818Y-42774228D01*
X110407819Y-42774225D01*
X110445850Y-42626103D01*
X110486066Y-42469473D01*
X110525500Y-42157318D01*
X110525500Y-41842682D01*
X110525499Y-41842680D01*
X110525499Y-41842670D01*
X110486067Y-41530536D01*
X110486065Y-41530523D01*
X110407819Y-41225774D01*
X110407818Y-41225771D01*
X110291998Y-40933242D01*
X110291997Y-40933241D01*
X110291996Y-40933239D01*
X110291994Y-40933234D01*
X110140416Y-40657516D01*
X110140410Y-40657509D01*
X110140408Y-40657504D01*
X109955484Y-40402978D01*
X109955476Y-40402968D01*
X109740092Y-40173608D01*
X109740090Y-40173606D01*
X109497665Y-39973054D01*
X109497661Y-39973051D01*
X109232009Y-39804464D01*
X109232003Y-39804461D01*
X108947321Y-39670499D01*
X108947316Y-39670497D01*
X108648083Y-39573270D01*
X108648080Y-39573269D01*
X108648079Y-39573269D01*
X108493547Y-39543790D01*
X108339011Y-39514311D01*
X108339004Y-39514310D01*
X108103589Y-39499500D01*
X108103583Y-39499500D01*
X107946417Y-39499500D01*
X107946411Y-39499500D01*
X107710995Y-39514310D01*
X107710988Y-39514311D01*
X107401916Y-39573270D01*
X107102683Y-39670497D01*
X107102678Y-39670499D01*
X106817996Y-39804461D01*
X106817990Y-39804464D01*
X106552338Y-39973051D01*
X106552334Y-39973054D01*
X106309909Y-40173606D01*
X106309907Y-40173608D01*
X106094523Y-40402968D01*
X106094515Y-40402978D01*
X105909591Y-40657504D01*
X105909584Y-40657516D01*
X105758002Y-40933241D01*
X105758001Y-40933242D01*
X105642181Y-41225771D01*
X105642180Y-41225774D01*
X105563934Y-41530523D01*
X105563932Y-41530536D01*
X105524500Y-41842670D01*
X105524500Y-42157329D01*
X101240000Y-42157329D01*
X101240000Y-35474819D01*
X101242382Y-35450630D01*
X101244855Y-35438196D01*
X101263370Y-35393496D01*
X101270052Y-35383496D01*
X101270413Y-35382954D01*
X101285828Y-35364171D01*
X101664171Y-34985828D01*
X101682954Y-34970413D01*
X101693496Y-34963369D01*
X101738196Y-34944855D01*
X101750630Y-34942382D01*
X101774819Y-34940000D01*
X207375181Y-34940000D01*
X207399371Y-34942382D01*
G37*
%TD.AperFunction*%
%TD*%
M02*
